<?xml version="1.0" encoding="UTF-8"?>
<svg version="1.1" viewBox="0 0 1048 2048" width="1280" height="1280" xmlns="http://www.w3.org/2000/svg">
<path transform="translate(0)" d="m0 0h1048v2048h-1048z" fill="#4754ED"/>
<path transform="translate(0)" d="m0 0h266l-9 19-9 16-16 32-9 17-11 23-16 34-12 27-17 40-14 35-15 39-14 39-20 60-14 47-10 36-10 38-14 60-10 49-8 43-11 71-6 48-5 51-4 52-2 36-1 35v120l2 54 4 59 6 61 8 63 9 56 10 54 11 52 12 50 14 53 15 51 22 67 14 39 16 42 13 32 14 33 15 34 13 28 12 25 28 56 12 22 13 24 14 24v2h-286z" fill="#fff"/>
<path transform="translate(266)" d="m0 0h4l-1 3-2 1-2 7h-2l-2 7-3 5 4-2v3l-7 13-4 7h-2v3h-2l1 3-3 1-1-1-1 2h2l-2 6-3 5-5 1 1 2 2-1-2 7-4 7-3 1 2 1-2 5-2 2-2 5-2 6h-5l3 2-7 16-3 5-4 10-8 16-3 2h2l-3 11-6 14-4 7-3 9-3 5-4 10-1 5-3 8-4 8-6 17-3 6-6 17-2-2v-2h-2v5l-5 11-3 7-3 12-1 2 2 1v-6l1-2h2l1-2-1 7-3 10-6 18-4 9-2 10h-2l-1 8-2 5h-3l1-5 3-11 2-6h-2l-1 5-2 9-3 1 1 6-3 5-2 9-2 3-2 9-2 6-1 5-2 1-1 9-1 2h-2v8l-2 6h-2v9l-1 2h-3l1 6-2 5-1 1-1 11-1 2h-2v7l-2 7h-1l-1 9-2 3-2 11-2 10-2 5-1 1-2 13-2 7-1 7-2 4-2 12-2 5-1 10-1 4h-2v10l-3 12-1 9-2 4-1 10-2 9-1 7-1 11-1 2h-2l1 3-1 13-1 4-2 5-2 18-1 1-1 16-1 3 1 2h-2l-2 21v10h-2l-1 17-1 10-2 7-1 17-1 13-2 6-1 18-1 13-1 9-1 11-2 10-1 26-1 17 1 11v14l-1 2h3l1-2 2 4v7l-1 8v8l-1 5 2 32-1 22-1 6v39l-1 5h2l-1 8v9l-2 2-1-10-1-17v-8l-1 15-1 1v14l2 7 1 16 1 17v13l2 4v5l1-1v-7l2-6 2 2 1 5v23l-3-1-1-1v10l1 5-1 5 2 10 2 23 1 8 2 14-1 2 2 1-1 3 1 2 2 19 3 24 2 14 2 21 5 26 2 15 2 7 2 14 2 9 4 19 1 10 2 6 1 8 2 6 2 14 2 5 1 10 2 7 1 10 3 5 2 10 2 11 3 6 1 10 3 9 3 6 1 10 2 4 2 10 2 6v6h2l3 12 2 6v5l3 6 2 6 2 3v6l3 5 2 9 3 9 2 5 2 7 2 5 2 6 1 1 2 9 3 6 3 1-1 2-3-1v2h2l2 9 1 3h2v7h2l3 10 2 5 2 6 1 7 3 1 1 7 3 5 1 5 2 2 2 9 5 10 3 8 4 9v4l2 1 2 2 4 2 1 11 3 7 2 4 4 6 1 9h2l1 8h2l2 5 6 10 2 7h2l3 3 2 4 4 10 4 8 5 12 8 20 8 16 4 6 4 10 7 11 2 6 2 1 6 13 5 10v5l5 1 5 8-1 2-3-1 6 11 3 6-1 3-8-13-12-22-13-24-14-27-16-32-10-21-8-16-14-31-13-30-19-46-15-39-15-41-19-56-10-32-15-52-16-62-12-53-12-60-10-59-8-58-6-53-4-45-3-47-2-54v-120l1-35 4-65 5-55 6-52 8-55 10-59 11-55 12-52 12-48 10-36 14-47 16-49 14-41 12-32 20-51 15-35 13-30 17-36 11-23 8-17 10-19 9-17 8-16z" fill="#3E4BDB"/>
<path transform="translate(60,1422)" d="m0 0 2 1 1 4-1 3 5 11 4 13h3l2 11h-3v6l4-2 1 9-3-1v2h-2v-2h-2l-2-10-2-3v-8l-5-12-1-2v-8l-2-3z" fill="#3E4BDA"/>
<path transform="translate(30,780)" d="m0 0 1 2-1 17-2 13-1 10-2-4v-13l2-8-1-2h2v-14z" fill="#3E4BDA"/>
<path transform="translate(134,301)" d="m0 0h2l-1 8-3 7v4h-2l-3 12-3 4-1-5 3-5 2-7 3-10z" fill="#4754ED"/>
<path transform="translate(13,909)" d="m0 0h3l1 6-1 4 1 7 1 14-1 2h-3v-22z" fill="#4855EE"/>
<path transform="translate(143,1666)" d="m0 0 7 2 2 5-7 7-2-3v-6l-2-4z" fill="#3E4BDA"/>
<path transform="translate(17,900)" d="m0 0h1l2 14-1 3v9l-1 10h-1l-1-15-1-3 1-5-1-5 1-1z" fill="#3E4BDA"/>
<path transform="translate(80,1509)" d="m0 0 2 1 1 4 3 1 1 3-2 1 1 7 1 3 2 2-3 1-2-1-3-9v-7z" fill="#3E4BDA"/>
<path transform="translate(286,2037)" d="m0 0 4 2 4 8v1h-8z" fill="#3E4BDB"/>
<path transform="translate(22,850)" d="m0 0 2 1-2 20v6h-2l1-4h-2l1-14 1-6z" fill="#3E4BDA"/>
<path transform="translate(122,336)" d="m0 0h2v5l-3 7-1 5-3 4-1-1v-5l2-2z" fill="#4855EE"/>
<path transform="translate(57,1392)" d="m0 0 2 1-2 9 2 1-2 6 2 5h-2l-1 3-1-6v-11z" fill="#3E4BDA"/>
<path transform="translate(33,1259)" d="m0 0 3 3v6l1 2v8l-2 4-1-4v-9l-1-7z" fill="#3E4BDA"/>
<path transform="translate(33,760)" d="m0 0 2 2-1 9-2 5-2 4h-1v-7l3-6-1-3h2z" fill="#3E4BDA"/>
<path transform="translate(62,1375)" d="m0 0 7 5-1 7-4-2-1-4z" fill="#3E4BDA"/>
<path transform="translate(18,1114)" d="m0 0h2v7l1 8-3 1-1-7v-7z" fill="#3E4BDA"/>
<path transform="translate(24,1189)" d="m0 0h1l1 9 1 4 1 9h-3l-1-11z" fill="#3E4BDA"/>
<path transform="translate(134,301)" d="m0 0h2l-1 8-3 6h-2l1-6z" fill="#4855EE"/>
<path transform="translate(95,430)" d="m0 0h2l1 4-2 7-3-4z" fill="#3E4BDA"/>
<path transform="translate(93,443)" d="m0 0 2 2v6l-3 2-2-3 1-6z" fill="#3E4BDA"/>
<path transform="translate(25,795)" d="m0 0 3 2-2 8-3-1z" fill="#4855EE"/>
<path transform="translate(46,667)" d="m0 0h1l-1 10-3 6-1-4z" fill="#3E4BDA"/>
</svg>
