<svg version="1.1" id="Layer_1" xmlns="http://www.w3.org/2000/svg" xmlns:xlink="http://www.w3.org/1999/xlink" x="0px" y="0px"
	 width="100%" viewBox="0 0 5001 2813" enable-background="new 0 0 5001 2813" xml:space="preserve">
<path fill="#EEEEEE" opacity="1.000000" stroke="none" 
	d="
M5004.000000,694.000000 
	C5004.000000,1168.056030 5004.000000,1642.112183 5003.062500,2117.077637 
	C4912.054199,2118.029297 4821.983887,2118.071533 4731.564453,2117.675781 
	C4745.508301,2092.137695 4759.771973,2067.020752 4774.102539,2041.942261 
	C4783.668457,2025.202026 4793.343262,2008.524292 4802.944336,1991.804077 
	C4813.864746,1972.787109 4824.715332,1953.729980 4835.672852,1934.734497 
	C4845.299805,1918.045898 4855.112305,1901.463867 4864.689453,1884.747070 
	C4871.280762,1873.243164 4877.611328,1861.590454 4884.659668,1849.681152 
	C4885.743652,1848.903076 4886.371094,1848.531250 4886.688477,1847.980591 
	C4900.284668,1824.391479 4913.868652,1800.795288 4927.414062,1777.176514 
	C4930.352051,1772.054199 4933.136230,1766.843994 4935.461426,1762.633545 
	C4923.088867,1740.777832 4911.396484,1719.933838 4899.520996,1699.194458 
	C4884.675293,1673.267456 4869.746582,1647.387451 4854.708496,1621.571533 
	C4850.048340,1613.570923 4844.916016,1605.845337 4839.915039,1597.289307 
	C4829.236328,1577.774292 4818.806641,1558.868530 4808.014160,1540.172119 
	C4783.758301,1498.150635 4759.439941,1456.163452 4734.813477,1414.359131 
	C4731.651367,1408.990845 4731.470215,1404.525146 4734.264160,1399.483887 
	C4736.842285,1394.832886 4739.520020,1390.237427 4742.177734,1385.630981 
	C4753.470703,1366.056519 4764.766113,1346.483276 4776.070801,1326.915649 
	C4789.536621,1303.607422 4803.026367,1280.313232 4816.479492,1256.997925 
	C4825.780762,1240.878052 4835.020996,1224.723267 4844.319824,1208.601807 
	C4855.111816,1189.889404 4865.940918,1171.197998 4876.748047,1152.493896 
	C4886.057617,1136.380859 4895.382324,1120.276489 4904.658691,1104.144409 
	C4915.058105,1086.058838 4925.410645,1067.946289 4935.671875,1050.039673 
	C4921.720215,1025.977661 4908.003906,1002.448120 4894.416016,978.844299 
	C4884.964355,962.425598 4875.791992,945.845581 4866.308594,929.445557 
	C4853.516113,907.323425 4840.483398,885.340515 4827.670410,863.230347 
	C4818.503906,847.413391 4809.564941,831.464844 4800.460938,815.611572 
	C4786.229004,790.828674 4771.935059,766.081177 4757.682617,741.310059 
	C4749.739746,727.506470 4741.920898,713.630859 4733.851074,699.902100 
	C4731.101562,695.223694 4727.983398,691.078735 4721.098145,693.646667 
	C4718.155273,694.744263 4714.500488,693.904053 4711.170898,694.002808 
	C4673.930664,695.107422 4636.660645,692.179749 4599.404785,695.769104 
	C4579.606445,697.676514 4559.591309,697.366089 4539.671875,697.975464 
	C4534.344727,698.138489 4529.005371,697.911194 4523.676270,698.046997 
	C4521.436035,698.104065 4519.207031,698.638794 4516.747070,698.988525 
	C4516.747070,701.402283 4516.186523,703.548828 4516.848633,705.207886 
	C4519.191895,711.083313 4516.894531,715.567200 4513.185547,719.777527 
	C4493.223633,742.435303 4473.230469,765.064819 4453.295898,787.746216 
	C4448.258789,793.477356 4443.395020,799.361084 4438.455078,805.177429 
	C4429.266602,815.996338 4420.080566,826.817200 4409.871094,838.840515 
	C4407.078613,835.136169 4404.721191,832.199036 4402.573242,829.115784 
	C4399.180664,824.246277 4396.072754,819.173584 4392.566895,814.389587 
	C4390.249512,811.227051 4386.939453,808.723572 4384.951660,805.400146 
	C4376.933105,791.996521 4368.770508,778.642395 4361.554199,764.804260 
	C4346.192871,735.347046 4327.826660,707.760437 4309.872070,679.905884 
	C4309.164062,678.807312 4308.327637,677.712952 4307.323730,676.896362 
	C4302.725586,673.157410 4299.700195,673.648682 4295.751465,678.444702 
	C4293.641113,681.007874 4291.301270,683.381165 4289.138184,685.902771 
	C4285.206543,690.485718 4285.117676,692.950256 4289.933105,696.643555 
	C4292.348633,698.495972 4295.785645,699.290588 4298.891113,699.895569 
	C4302.233398,700.546875 4305.728027,700.416138 4310.142578,700.687134 
	C4301.221191,716.654968 4293.251953,731.179260 4285.035645,745.562012 
	C4273.167480,766.336243 4261.117676,787.006653 4249.149414,807.723816 
	C4233.699707,834.468445 4218.269531,861.224915 4202.800293,887.958313 
	C4188.821289,912.117004 4174.737793,936.216003 4160.814941,960.407043 
	C4147.220215,984.028076 4133.811035,1007.755737 4120.183105,1031.357422 
	C4119.031738,1033.352295 4116.843262,1034.748779 4114.253418,1037.289307 
	C4111.897461,1033.110840 4110.537109,1030.121582 4108.662109,1027.500610 
	C4105.413086,1022.959717 4102.591797,1017.580261 4098.214355,1014.522400 
	C4093.333252,1011.112366 4089.833008,1007.183838 4087.075684,1002.181335 
	C4084.187500,996.941040 4081.117188,991.801025 4078.249756,986.549866 
	C4076.205566,982.806824 4073.567139,981.024719 4069.004639,983.256592 
	C4068.071777,987.902100 4066.291260,992.737427 4066.287354,997.574280 
	C4066.276855,1010.277344 4065.792969,1022.688599 4060.441650,1034.616699 
	C4058.619141,1038.679321 4059.890381,1044.155273 4057.994873,1048.154541 
	C4054.062988,1056.451050 4053.466553,1065.266235 4051.766357,1073.984009 
	C4049.686035,1084.649170 4049.284424,1095.804321 4043.445557,1105.579346 
	C4042.186279,1107.687256 4042.146729,1110.692261 4042.063721,1113.300537 
	C4041.872803,1119.293457 4041.865723,1125.300659 4042.039795,1131.294678 
	C4042.198242,1136.745972 4041.707031,1141.581787 4037.597900,1146.031982 
	C4035.377930,1148.436279 4034.471924,1152.610352 4034.156982,1156.093018 
	C4033.618652,1162.043213 4033.641357,1168.111572 4034.185547,1174.061035 
	C4034.419434,1176.619873 4035.934082,1179.986938 4037.952637,1181.245605 
	C4041.168945,1183.250854 4044.322998,1181.061646 4046.507568,1178.211914 
	C4047.510498,1176.903320 4048.198975,1175.355225 4049.041016,1173.922119 
	C4069.242188,1139.542358 4089.420898,1105.149292 4109.709473,1070.821411 
	C4110.902344,1068.803589 4112.988281,1067.313721 4115.846680,1064.343262 
	C4124.746094,1079.826050 4132.955078,1093.769043 4140.789062,1107.920044 
	C4143.544922,1112.898071 4141.749512,1117.269653 4137.777344,1121.369629 
	C4130.619141,1128.759033 4123.798828,1136.490234 4117.075195,1144.283447 
	C4106.463379,1156.583374 4096.150391,1169.141479 4085.519775,1181.425049 
	C4075.095215,1193.470093 4064.270020,1205.169922 4053.913330,1217.271851 
	C4040.116455,1233.393311 4026.734375,1249.869751 4012.930176,1265.984741 
	C3999.117432,1282.109741 3984.853516,1297.848755 3971.058105,1313.988403 
	C3949.163818,1339.602783 3931.981689,1368.474487 3914.889160,1397.319702 
	C3911.614502,1402.846313 3908.942383,1405.929077 3902.302979,1406.246826 
	C3894.424316,1406.623901 3891.233887,1410.122559 3889.973389,1417.905029 
	C3887.860352,1430.949463 3883.257080,1442.785156 3874.662842,1453.030151 
	C3871.940186,1456.275757 3869.770752,1460.075684 3867.827881,1463.867920 
	C3862.079590,1475.088989 3857.003906,1486.674194 3850.875000,1497.677002 
	C3839.071777,1518.867310 3826.681152,1539.729736 3814.616211,1560.774902 
	C3800.731201,1584.995117 3786.957031,1609.278931 3773.093994,1633.511841 
	C3757.912109,1660.049561 3742.756836,1686.602905 3727.442139,1713.063965 
	C3720.689697,1724.731323 3713.574219,1736.188599 3704.956543,1750.512329 
	C3702.811279,1746.830933 3701.631104,1744.844238 3700.488037,1742.836792 
	C3697.527832,1737.637207 3694.645752,1732.391968 3691.620850,1727.230469 
	C3684.793457,1715.582153 3680.035889,1702.423950 3667.804443,1694.688721 
	C3666.464844,1693.841675 3665.452393,1692.317139 3664.574463,1690.926147 
	C3657.668701,1679.982300 3650.764893,1669.035889 3644.008545,1657.999390 
	C3641.408447,1653.752563 3637.988525,1651.141846 3631.705322,1650.462646 
	C3630.472412,1654.090210 3629.148438,1657.669922 3628.042725,1661.315674 
	C3626.524902,1666.319458 3626.036377,1671.869141 3623.511475,1676.269531 
	C3620.860840,1680.889526 3619.956543,1685.317139 3619.945801,1690.415894 
	C3619.900879,1711.884155 3613.561035,1730.764404 3597.342285,1745.761230 
	C3587.907959,1754.484619 3582.086670,1765.004150 3584.001709,1778.505249 
	C3585.005615,1785.585571 3582.281006,1791.334961 3578.175049,1796.914673 
	C3576.150391,1799.666138 3574.625977,1803.215698 3574.128906,1806.588745 
	C3571.583008,1823.865234 3572.884033,1841.420410 3568.462646,1858.728271 
	C3565.484131,1870.388062 3566.411133,1883.106323 3566.113037,1895.363892 
	C3565.967041,1901.355347 3564.490479,1906.294067 3560.411133,1910.800781 
	C3558.340820,1913.088013 3556.398193,1916.370117 3556.198975,1919.323975 
	C3555.149414,1934.883057 3554.497803,1950.475952 3554.075928,1966.067139 
	C3553.871582,1973.614868 3552.986084,1980.628418 3547.039307,1986.085693 
	C3545.863281,1987.164795 3544.746826,1988.696533 3544.378906,1990.208374 
	C3540.950684,2004.287964 3541.697266,2018.634033 3542.344727,2032.897461 
	C3542.572998,2037.924683 3547.071533,2039.264038 3550.995361,2035.731445 
	C3553.404053,2033.562622 3555.336670,2030.715820 3556.994629,2027.887085 
	C3565.061279,2014.125000 3572.821777,2000.182861 3580.950195,1986.458130 
	C3601.267090,1952.154419 3621.909180,1918.042603 3642.069580,1883.647827 
	C3660.373535,1852.420654 3678.177490,1820.900635 3696.303955,1789.568604 
	C3698.689453,1785.445312 3701.679443,1781.671631 3704.257324,1777.928223 
	C3705.939209,1778.713379 3706.802246,1778.825317 3707.075684,1779.286621 
	C3714.866699,1792.429810 3722.687988,1805.556519 3730.291992,1818.808105 
	C3733.033691,1823.585693 3732.605225,1828.095703 3728.641357,1832.508667 
	C3720.665771,1841.388550 3712.899658,1850.471802 3705.380859,1859.741699 
	C3701.262695,1864.819092 3696.114502,1869.983398 3694.492432,1875.942017 
	C3692.185059,1884.419678 3692.574707,1893.656616 3692.028320,1902.582397 
	C3691.237549,1915.493652 3690.956787,1928.446045 3689.761475,1941.316162 
	C3689.421143,1944.979614 3687.281006,1948.916626 3684.900879,1951.869263 
	C3676.992920,1961.678467 3668.618652,1971.112793 3660.385986,1980.658569 
	C3655.400879,1986.438721 3650.281006,1992.103271 3645.334961,1997.916382 
	C3630.939209,2014.836670 3616.745117,2031.930908 3602.193848,2048.715820 
	C3590.670410,2062.007324 3578.580566,2074.807129 3567.044678,2088.087891 
	C3560.380615,2095.760010 3554.315430,2103.952148 3547.923828,2111.981689 
	C3552.749512,2118.360840 3558.776123,2118.016357 3564.760010,2118.015137 
	C3656.412842,2117.993408 3748.065674,2117.988281 3839.718506,2118.038818 
	C3843.679688,2118.041016 3848.137451,2117.560547 3851.492676,2119.147705 
	C3857.569580,2122.021973 3863.696045,2122.035889 3870.016846,2122.006836 
	C3876.682373,2121.976074 3883.354004,2121.836426 3890.010986,2122.072754 
	C3893.099854,2122.182373 3896.161133,2123.069580 3900.850342,2123.885254 
	C3897.044189,2131.517578 3894.147461,2137.767090 3890.874268,2143.813232 
	C3875.857422,2171.553955 3857.742432,2197.599609 3845.528809,2226.880127 
	C3843.865479,2230.867676 3841.854248,2234.740234 3839.691406,2238.485352 
	C3822.907471,2267.550781 3805.944336,2296.512939 3789.245850,2325.627197 
	C3778.991455,2343.506592 3769.370850,2361.752441 3758.992676,2379.557861 
	C3741.590820,2409.413330 3723.864746,2439.080566 3706.122803,2468.735840 
	C3703.986572,2472.306641 3703.670410,2475.178223 3705.823975,2478.848633 
	C3719.107910,2501.491943 3732.556396,2524.050049 3745.254883,2547.020752 
	C3752.297852,2559.760986 3760.814453,2571.770508 3765.204102,2585.966553 
	C3766.854248,2591.302734 3769.941650,2596.249023 3772.740723,2601.164307 
	C3779.152588,2612.423828 3786.103760,2623.388184 3792.173584,2634.824219 
	C3794.408203,2639.034180 3795.729980,2644.221680 3795.788818,2648.984131 
	C3795.890381,2657.227295 3794.480713,2665.476562 3794.064697,2673.741455 
	C3793.246582,2689.985596 3792.720703,2706.244141 3791.987549,2722.492920 
	C3791.404785,2735.415039 3790.602783,2748.327393 3790.060547,2761.250977 
	C3789.294922,2779.497314 3788.679688,2797.750000 3788.000000,2816.000000 
	C3689.277344,2816.000000 3590.554443,2816.000000 3490.836914,2815.285156 
	C3478.536133,2794.676514 3467.276123,2774.756348 3455.911377,2754.896729 
	C3444.687744,2735.282959 3433.349121,2715.734863 3422.077148,2696.148926 
	C3410.804443,2676.561768 3399.571045,2656.952148 3388.285156,2637.372803 
	C3374.344971,2613.188232 3360.364258,2589.027100 3346.408691,2564.851318 
	C3334.779541,2544.706299 3323.164307,2524.553223 3311.537598,2504.406494 
	C3305.744141,2494.367432 3299.938965,2484.335205 3294.134033,2474.291504 
	C3362.229004,2355.965576 3430.069336,2238.082764 3498.901855,2118.475586 
	C3493.356445,2118.265625 3489.846924,2118.020264 3486.337158,2118.017090 
	C3453.010010,2117.987793 3419.680176,2117.739258 3386.356445,2118.073242 
	C3353.105225,2118.406982 3319.857178,2119.228271 3286.616455,2120.156006 
	C3282.868896,2120.260498 3278.986816,2122.041260 3275.499023,2123.730225 
	C3265.497559,2128.573975 3260.398682,2138.542725 3253.321289,2146.313232 
	C3239.941650,2161.003906 3227.870117,2176.876465 3214.920898,2191.971191 
	C3200.664551,2208.590332 3186.053955,2224.906738 3171.514648,2241.281006 
	C3170.522949,2242.397949 3168.835449,2242.896729 3167.173584,2243.854736 
	C3165.875000,2242.206787 3164.742676,2241.019043 3163.893799,2239.655029 
	C3149.195801,2216.034180 3138.038330,2190.195557 3119.495117,2168.973389 
	C3117.552734,2166.750000 3116.267090,2163.950928 3114.689697,2161.410889 
	C3107.853760,2150.402100 3101.184570,2139.285645 3094.123535,2128.423340 
	C3090.375244,2122.657715 3087.502686,2122.599365 3083.907959,2128.460693 
	C3079.222168,2136.101074 3074.902344,2144.030762 3071.239014,2152.200684 
	C3069.885010,2155.220947 3069.845703,2159.613281 3070.924561,2162.797607 
	C3074.445557,2173.188721 3078.065186,2183.324219 3073.127197,2194.290771 
	C3072.548828,2195.575439 3073.041504,2197.535645 3073.485107,2199.052002 
	C3075.066406,2204.459473 3076.987549,2209.770264 3078.476318,2215.201416 
	C3079.152100,2217.666504 3080.104004,2220.749756 3079.218506,2222.821289 
	C3076.381592,2229.458008 3079.180664,2234.429443 3082.833740,2239.391357 
	C3084.382324,2241.494629 3086.044434,2243.514404 3088.034424,2246.057129 
	C3080.249023,2253.307861 3082.770020,2260.221680 3088.526855,2266.953125 
	C3088.741699,2267.204346 3088.865723,2267.534180 3089.084229,2267.781494 
	C3092.603027,2271.770752 3092.863525,2276.184326 3090.534912,2280.760010 
	C3088.494873,2284.769043 3087.437744,2288.586182 3089.224121,2293.169922 
	C3089.853271,2294.784668 3088.522461,2297.536621 3087.409912,2299.355225 
	C3086.224121,2301.293213 3084.215332,2302.719971 3082.604492,2304.406738 
	C3072.711670,2314.764648 3072.524170,2319.045166 3079.812744,2331.243652 
	C3081.420898,2333.934814 3081.993652,2338.640625 3080.743652,2341.362061 
	C3077.876465,2347.603516 3074.189697,2353.696777 3069.769775,2358.953613 
	C3056.107178,2375.202881 3041.958496,2391.043701 3027.973877,2407.021973 
	C3017.700928,2418.759033 3007.287354,2430.375000 2997.119385,2442.202393 
	C2982.420898,2459.299072 2967.929443,2476.573975 2953.268799,2493.703613 
	C2944.208008,2504.290283 2934.886963,2514.655518 2925.907227,2525.309326 
	C2922.328857,2529.554932 2920.343262,2534.529785 2923.381348,2540.046387 
	C2935.072021,2561.273682 2946.705566,2582.533936 2958.568359,2603.665039 
	C2970.120850,2624.242432 2982.015137,2644.627686 2993.596680,2665.188965 
	C3004.038574,2683.727051 3014.036865,2702.517578 3024.631592,2720.966797 
	C3040.351074,2748.339844 3056.543945,2775.441650 3072.211914,2802.843750 
	C3074.412598,2806.692871 3074.782715,2811.588623 3076.000000,2816.000000 
	C2051.497559,2816.000000 1026.994873,2816.000000 2.000000,2816.000000 
	C2.000000,2109.277344 2.000000,1402.554565 2.937315,694.916626 
	C63.905602,694.009888 123.936569,694.018372 184.084564,694.787476 
	C187.878967,700.703247 188.470703,706.471680 187.894455,712.598694 
	C187.120132,720.831665 186.395187,729.080627 186.041473,737.339478 
	C185.217728,756.572205 184.638092,775.815430 183.924103,795.053040 
	C183.875259,796.369019 183.456360,797.667419 183.340378,798.985474 
	C182.876709,804.254272 181.333176,809.739075 182.270111,814.755188 
	C184.196396,825.067932 183.248672,835.006348 182.334900,845.323303 
	C180.609604,864.802490 180.770569,884.444336 179.955322,904.010559 
	C179.569580,913.267883 178.659042,922.502197 178.148010,931.755981 
	C177.909576,936.073364 177.671539,940.457825 178.179916,944.722900 
	C178.458710,947.061829 179.740860,950.412781 181.523956,951.231873 
	C187.243408,953.858948 187.810181,958.854370 187.822739,963.678284 
	C187.838150,969.591919 186.382996,975.493652 186.082764,981.426880 
	C185.244446,997.992920 184.724823,1014.574829 183.981201,1031.146118 
	C183.416611,1043.727661 182.602448,1056.298218 182.076691,1068.881104 
	C181.300827,1087.449829 180.767166,1106.028809 179.964355,1124.596191 
	C179.506577,1135.183716 178.530594,1145.749390 178.119888,1156.337891 
	C177.296341,1177.569458 176.662750,1198.808960 176.082016,1220.048706 
	C176.035110,1221.763672 176.996277,1223.506226 177.616241,1225.682739 
	C179.513123,1224.665161 180.604507,1223.925293 181.802841,1223.462646 
	C187.952423,1221.089355 191.361176,1222.458984 193.079361,1228.738647 
	C193.922729,1231.820923 193.622910,1235.288940 193.431427,1238.558472 
	C193.278229,1241.174194 192.152878,1243.741821 192.065506,1246.351074 
	C191.298645,1269.250732 190.734253,1292.157227 189.944397,1315.055908 
	C189.774078,1319.993652 188.592621,1324.900269 188.478027,1329.835205 
	C188.240448,1340.066650 188.406326,1350.307617 188.406326,1360.603271 
	C192.964798,1360.603271 196.801056,1360.603271 200.407471,1360.603271 
	C203.825562,1366.176270 203.972031,1371.257568 202.902496,1377.246216 
	C201.657471,1384.217285 202.612030,1391.581177 202.612030,1399.376343 
	C206.939987,1399.376343 212.085312,1400.864258 213.715775,1399.101196 
	C218.895172,1393.501221 226.928955,1391.918945 230.973831,1384.531982 
	C240.376785,1367.359985 250.891891,1350.800171 260.814606,1333.908813 
	C271.076752,1316.439819 281.179047,1298.876587 291.337616,1281.346558 
	C304.991913,1257.784546 318.687347,1234.245850 332.227234,1210.618042 
	C334.513214,1206.628906 336.104462,1202.241455 338.546631,1197.620972 
	C340.596527,1195.022339 342.279449,1192.935669 343.611206,1190.644775 
	C355.949402,1169.421509 368.262238,1148.183350 380.512878,1126.909302 
	C393.934479,1103.602173 406.996155,1080.080078 420.876740,1057.050659 
	C424.091980,1051.716309 423.407806,1048.020874 420.747803,1043.460205 
	C409.707001,1024.530273 398.703125,1005.578735 387.728577,986.610229 
	C374.261230,963.333252 360.897186,939.996216 347.371460,916.753296 
	C339.036346,902.430054 330.482788,888.233948 321.737427,873.346069 
	C306.101410,845.883789 290.801270,819.029785 275.396332,792.235962 
	C259.839661,765.178284 244.156754,738.193237 228.584167,711.144714 
	C225.687881,706.114136 223.052231,700.933533 219.315552,694.003174 
	C224.856628,694.003174 228.404633,694.003052 231.952637,694.003174 
	C346.600159,694.006104 461.247742,693.970215 575.895081,694.118530 
	C582.124390,694.126587 588.460083,695.206909 594.554260,696.617493 
	C603.460876,698.679077 603.813110,699.631287 604.018921,708.942505 
	C604.123596,713.675903 604.451294,718.404297 604.788879,725.444214 
	C607.848633,722.025208 609.318604,720.777527 610.291504,719.219482 
	C612.931091,714.992004 615.226013,710.547729 617.901062,706.344360 
	C622.954346,698.404114 629.096802,693.649048 639.713989,693.760742 
	C690.699768,694.297180 741.694397,693.997864 792.685852,693.998779 
	C869.006470,694.000122 945.327026,693.997864 1021.647644,694.026306 
	C1025.489624,694.027710 1029.331665,694.304199 1034.859619,694.517761 
	C1033.428467,699.794861 1032.965332,703.727173 1031.329956,707.089294 
	C1027.405884,715.156311 1022.720520,722.850708 1018.729309,730.887695 
	C1012.979248,742.466492 1008.994934,755.201904 1001.725891,765.689331 
	C986.013123,788.359009 987.531067,813.279846 988.403503,838.480774 
	C997.767151,839.315796 998.134216,839.325745 997.909058,847.646362 
	C997.586365,859.573792 996.599182,871.481812 996.023987,883.404297 
	C995.719421,889.717773 995.820068,896.051270 995.493286,902.363098 
	C995.151245,908.969177 994.370178,915.553345 994.066589,922.160217 
	C993.898010,925.830139 994.493652,929.435486 998.212402,931.259766 
	C1003.865784,929.642456 1005.522705,922.018921 1013.449341,922.588989 
	C1013.598022,925.999390 1013.991821,929.172546 1013.825378,932.316101 
	C1013.335144,941.575256 1012.638611,950.823730 1011.992981,960.074341 
	C1011.416870,968.328308 1010.844910,976.583008 1010.185608,984.830566 
	C1009.823608,989.358826 1010.353333,993.395081 1015.235596,996.060364 
	C1018.765137,993.384033 1022.217773,990.765991 1027.114136,987.053162 
	C1027.464966,991.596741 1027.934692,994.113892 1027.802124,996.598877 
	C1027.308472,1005.856934 1026.655029,1015.107117 1025.988159,1024.354980 
	C1025.440552,1031.946655 1024.737305,1039.527100 1024.198486,1047.119385 
	C1023.754089,1053.381592 1023.446777,1059.654175 1027.755493,1065.388184 
	C1031.210571,1063.448975 1034.442383,1061.635132 1038.310669,1059.464111 
	C1039.595825,1063.620239 1040.512451,1066.584717 1041.547607,1069.932495 
	C1048.998657,1068.270630 1052.384766,1062.787598 1056.026123,1057.854736 
	C1058.640259,1054.313354 1061.287842,1053.143677 1065.461548,1055.596680 
	C1065.851196,1059.936157 1066.230835,1064.163574 1066.646606,1068.795288 
	C1069.635254,1069.629639 1072.394531,1070.399780 1076.004639,1071.407593 
	C1076.004639,1083.905518 1076.004639,1096.110596 1076.004639,1108.608643 
	C1079.613892,1109.615234 1082.372192,1110.384399 1086.048462,1111.409668 
	C1085.760376,1116.924927 1086.126587,1122.283936 1085.034790,1127.327393 
	C1083.950195,1132.337769 1084.557129,1136.006470 1089.365845,1138.001465 
	C1093.150635,1139.571777 1094.172241,1142.350586 1093.968140,1145.932617 
	C1093.515991,1153.863770 1093.191162,1161.813599 1092.355957,1169.707397 
	C1091.799438,1174.965698 1092.104248,1180.268921 1096.284912,1183.361206 
	C1099.642700,1185.844849 1100.010864,1188.440063 1100.000977,1191.804932 
	C1099.987305,1196.470825 1099.575073,1201.190186 1100.147461,1205.785156 
	C1100.581421,1209.269409 1101.320923,1213.665771 1103.638550,1215.755737 
	C1107.727173,1219.442871 1107.873657,1223.523682 1108.069702,1228.243652 
	C1108.523071,1239.168945 1109.337524,1250.079712 1110.031128,1260.994629 
	C1110.226807,1264.074219 1110.535156,1267.129272 1115.875122,1267.189087 
	C1121.144043,1258.273193 1126.624756,1248.870361 1132.235229,1239.545410 
	C1136.846558,1231.880981 1141.466187,1224.213745 1146.362061,1216.730957 
	C1149.439087,1212.027954 1153.461914,1207.917603 1156.320557,1203.102295 
	C1168.534302,1182.528687 1180.478882,1161.795288 1192.510620,1141.113647 
	C1208.886353,1112.964966 1225.241089,1084.804077 1241.634155,1056.665527 
	C1244.205566,1052.251709 1244.594238,1048.345825 1241.275269,1043.783569 
	C1237.581787,1038.706543 1234.877441,1032.909790 1231.742432,1027.426514 
	C1221.515625,1009.539246 1211.255249,991.671143 1201.071899,973.759216 
	C1191.885620,957.601074 1181.502686,941.967224 1173.955200,925.071228 
	C1163.607788,901.906921 1149.653320,880.890259 1137.671753,858.723389 
	C1129.773926,844.111938 1120.888184,830.037048 1112.850830,815.497498 
	C1108.472412,807.577026 1109.247559,804.364075 1115.410156,797.644897 
	C1118.111328,794.699707 1121.192749,792.094360 1123.802979,789.076416 
	C1140.075439,770.262329 1156.294434,751.401855 1172.464600,732.499878 
	C1179.578857,724.183777 1186.680420,715.847290 1193.458008,707.259827 
	C1195.025391,705.273926 1195.242798,702.222534 1196.625854,697.998108 
	C1191.193481,697.998108 1187.608521,697.998108 1184.023560,697.998108 
	C1144.363525,697.997925 1104.698853,697.674438 1065.047119,698.250427 
	C1056.351807,698.376770 1048.968262,694.620972 1040.806519,693.523376 
	C1039.310425,693.322144 1037.775513,691.116699 1036.825195,689.502686 
	C1027.214478,673.180115 1017.681519,656.811218 1008.207214,640.408936 
	C998.566833,623.719360 989.081543,606.940063 979.410522,590.268372 
	C967.238342,569.284790 954.817200,548.444824 942.739807,527.407227 
	C928.011658,501.752228 913.632385,475.896942 898.912659,450.236969 
	C882.378296,421.413727 865.881531,392.562683 848.811035,364.057556 
	C844.290833,356.509369 842.122925,347.186737 834.016235,341.251221 
	C834.052612,339.005402 834.077759,337.508392 834.689941,335.678589 
	C840.815979,326.309784 846.513977,317.366608 851.859497,308.217468 
	C861.575439,291.588104 871.052246,274.819122 880.683960,258.140259 
	C890.981506,240.308395 901.397095,222.544586 911.662231,204.694168 
	C923.913696,183.389862 936.000977,161.991089 948.270325,140.697159 
	C958.549438,122.857246 969.020020,105.127747 979.347778,87.315704 
	C991.173767,66.919449 1003.283813,46.675388 1014.545471,25.970850 
	C1018.749878,18.240946 1025.553955,11.574444 1026.000000,2.000000 
	C1158.722778,2.000000 1291.445435,2.000000 1425.080811,2.838873 
	C1425.370239,6.925976 1424.432617,10.150203 1424.182251,13.426927 
	C1423.439453,23.149134 1421.387817,32.224857 1415.253662,40.281410 
	C1411.489624,45.225067 1408.839966,51.027863 1405.781982,56.496387 
	C1399.472412,67.779724 1393.300537,79.140640 1386.931885,90.390373 
	C1378.745361,104.851089 1370.409058,119.226952 1362.159912,133.652420 
	C1352.756958,150.095657 1343.412964,166.572754 1333.980957,182.999420 
	C1322.729248,202.595108 1311.384644,222.137543 1300.130371,241.731903 
	C1290.697266,258.155579 1281.404419,274.660156 1271.921753,291.054901 
	C1264.436523,303.995972 1256.836792,316.872681 1249.125366,329.680084 
	C1245.918335,335.006256 1245.198364,340.058350 1248.706543,345.551880 
	C1251.564697,350.027527 1254.030884,354.753815 1256.661987,359.373932 
	C1270.641235,383.921326 1284.532227,408.519501 1298.619263,433.004974 
	C1312.536255,457.195160 1326.781006,481.197235 1340.645264,505.417328 
	C1357.981689,535.702698 1374.908569,566.223022 1392.322754,596.463135 
	C1409.565308,626.405579 1427.550903,655.926697 1444.368774,686.101807 
	C1447.964844,692.554077 1451.651978,694.100891 1458.226196,694.094116 
	C1587.188965,693.961731 1716.151978,693.995300 1845.114868,693.994995 
	C1848.352539,693.994995 1851.590210,693.994995 1856.360962,693.994995 
	C1855.375854,690.049316 1855.239380,687.429382 1854.110229,685.348206 
	C1849.831421,677.462708 1845.190430,669.774841 1840.757568,661.971619 
	C1824.507690,633.365601 1808.312134,604.728821 1792.047241,576.131348 
	C1780.054321,555.044983 1768.046753,533.966431 1755.932129,512.949951 
	C1745.477905,494.814087 1734.791992,476.811768 1724.338257,458.675629 
	C1712.058472,437.371765 1699.779053,416.065552 1687.760986,394.613831 
	C1677.388184,376.098877 1665.503906,358.341888 1658.627441,337.869965 
	C1662.181274,331.237183 1665.593994,324.409149 1669.417969,317.819702 
	C1679.755493,300.005493 1690.463867,282.404449 1700.667603,264.514954 
	C1718.616089,233.047333 1736.145752,201.340530 1754.137329,169.897766 
	C1770.473022,141.348648 1787.240479,113.046989 1803.723267,84.581581 
	C1817.557129,60.690567 1832.748657,37.808342 1851.430908,17.332518 
	C1855.576172,12.789304 1858.508911,7.140004 1862.000000,1.999995 
	C2909.089600,2.000000 3956.179443,2.000000 5004.000000,2.000000 
	C5004.000000,146.055252 5004.000000,290.111725 5003.256836,435.185181 
	C4998.655762,437.469452 4996.477051,440.067719 4996.039551,444.154816 
	C4995.406250,450.065094 4994.376953,455.951202 4994.080566,461.875824 
	C4993.234863,478.748596 4992.152832,495.637573 4992.215820,512.516235 
	C4992.248535,521.276306 4988.946289,527.605530 4983.395996,533.750916 
	C4977.417969,540.369629 4972.086426,547.569153 4966.410156,554.463684 
	C4963.069824,558.520264 4962.038574,563.107422 4961.911133,568.326355 
	C4961.474609,586.211670 4960.913574,604.103455 4959.799316,621.955383 
	C4959.550781,625.940247 4957.713867,630.494263 4955.141602,633.553955 
	C4941.508789,649.770569 4927.428711,665.611877 4913.451660,681.538025 
	C4910.929199,684.412476 4908.619629,687.164673 4911.595703,691.093384 
	C4929.788086,692.063782 4947.928223,693.279602 4966.088867,693.914917 
	C4978.711426,694.356445 4991.361816,693.999939 5004.000000,694.000000 
M4918.321777,306.690063 
	C4904.958984,281.807617 4889.825684,258.020905 4873.816406,234.776108 
	C4873.627930,234.502274 4873.365234,234.273117 4873.209473,233.983932 
	C4871.378906,230.582809 4868.241211,228.771149 4864.980957,230.539780 
	C4862.780762,231.733093 4861.017578,234.822586 4860.301270,237.407944 
	C4859.174805,241.472382 4860.626465,247.228073 4858.280273,249.792038 
	C4851.582520,257.112366 4851.993652,265.435333 4851.925781,274.118591 
	C4851.869629,281.340332 4852.092773,288.375824 4849.574707,295.696930 
	C4845.908691,306.355286 4837.980957,313.430878 4831.275391,321.439728 
	C4821.592773,333.004639 4813.418457,344.673401 4815.996094,360.788727 
	C4816.890137,366.381653 4813.606934,370.585297 4810.366211,374.133057 
	C4806.581543,378.275665 4806.076660,382.710144 4805.911133,387.840332 
	C4805.515625,400.094360 4804.950195,412.359863 4803.845215,424.565613 
	C4803.406738,429.407898 4800.641602,434.037018 4800.186523,438.880951 
	C4799.069824,450.753143 4799.008789,462.726440 4797.829102,474.589966 
	C4797.393555,478.969574 4795.873047,483.788147 4793.311035,487.277313 
	C4789.756836,492.116638 4788.031250,496.881836 4787.894531,502.849854 
	C4787.530762,518.768738 4786.762695,534.682007 4785.878418,550.582031 
	C4785.719238,553.444458 4784.911133,556.736267 4783.245117,558.964539 
	C4777.582031,566.539856 4774.973145,574.704773 4775.884766,584.179626 
	C4776.161133,587.049805 4775.091797,590.045471 4774.667969,592.987915 
	C4773.971191,597.821655 4773.062500,602.679993 4775.414551,607.366272 
	C4781.014648,605.551208 4780.962891,605.521118 4783.062012,601.900208 
	C4786.893555,595.292725 4790.768066,588.709473 4794.669922,582.143188 
	C4805.698730,563.582153 4816.253906,544.715454 4827.929688,526.570251 
	C4840.104980,507.648865 4848.160156,486.027344 4864.715332,469.941101 
	C4865.858398,468.830719 4866.355957,467.067627 4867.197754,465.634033 
	C4875.942383,450.739838 4884.873535,435.951813 4893.387207,420.926941 
	C4899.758789,409.683105 4905.790039,398.234497 4911.606445,386.692505 
	C4916.221680,377.533234 4920.107910,368.008392 4924.646973,358.807983 
	C4928.139648,351.729370 4932.142578,344.902557 4935.749023,338.276398 
	C4929.926270,327.750732 4924.462891,317.875427 4918.321777,306.690063 
z"/>
<path fill="#E7E7E7" opacity="1.000000" stroke="none" 
	d="
M3788.937500,2816.000000 
	C3788.679688,2797.750000 3789.294922,2779.497314 3790.060547,2761.250977 
	C3790.602783,2748.327393 3791.404785,2735.415039 3791.987549,2722.492920 
	C3792.720703,2706.244141 3793.246582,2689.985596 3794.064697,2673.741455 
	C3794.480713,2665.476562 3795.890381,2657.227295 3795.788818,2648.984131 
	C3795.729980,2644.221680 3794.408203,2639.034180 3792.173584,2634.824219 
	C3786.103760,2623.388184 3779.152588,2612.423828 3772.740723,2601.164307 
	C3769.941650,2596.249023 3766.854248,2591.302734 3765.204102,2585.966553 
	C3760.814453,2571.770508 3752.297852,2559.760986 3745.254883,2547.020752 
	C3732.556396,2524.050049 3719.107910,2501.491943 3705.823975,2478.848633 
	C3703.670410,2475.178223 3703.986572,2472.306641 3706.122803,2468.735840 
	C3723.864746,2439.080566 3741.590820,2409.413330 3758.992676,2379.557861 
	C3769.370850,2361.752441 3778.991455,2343.506592 3789.245850,2325.627197 
	C3805.944336,2296.512939 3822.907471,2267.550781 3839.691406,2238.485352 
	C3841.854248,2234.740234 3843.865479,2230.867676 3845.528809,2226.880127 
	C3857.742432,2197.599609 3875.857422,2171.553955 3890.874268,2143.813232 
	C3894.147461,2137.767090 3897.044189,2131.517578 3900.850342,2123.885254 
	C3896.161133,2123.069580 3893.099854,2122.182373 3890.010986,2122.072754 
	C3883.354004,2121.836426 3876.682373,2121.976074 3870.016846,2122.006836 
	C3863.696045,2122.035889 3857.569580,2122.021973 3851.492676,2119.147705 
	C3848.137451,2117.560547 3843.679688,2118.041016 3839.718506,2118.038818 
	C3748.065674,2117.988281 3656.412842,2117.993408 3564.760010,2118.015137 
	C3558.776123,2118.016357 3552.749512,2118.360840 3547.923828,2111.981689 
	C3554.315430,2103.952148 3560.380615,2095.760010 3567.044678,2088.087891 
	C3578.580566,2074.807129 3590.670410,2062.007324 3602.193848,2048.715820 
	C3616.745117,2031.930908 3630.939209,2014.836670 3645.334961,1997.916382 
	C3650.281006,1992.103271 3655.400879,1986.438721 3660.385986,1980.658569 
	C3668.618652,1971.112793 3676.992920,1961.678467 3684.900879,1951.869263 
	C3687.281006,1948.916626 3689.421143,1944.979614 3689.761475,1941.316162 
	C3690.956787,1928.446045 3691.237549,1915.493652 3692.028320,1902.582397 
	C3692.574707,1893.656616 3692.185059,1884.419678 3694.492432,1875.942017 
	C3696.114502,1869.983398 3701.262695,1864.819092 3705.380859,1859.741699 
	C3712.899658,1850.471802 3720.665771,1841.388550 3728.641357,1832.508667 
	C3732.605225,1828.095703 3733.033691,1823.585693 3730.291992,1818.808105 
	C3722.687988,1805.556519 3714.866699,1792.429810 3707.075684,1779.286621 
	C3706.802246,1778.825317 3705.939209,1778.713379 3704.257324,1777.928223 
	C3701.679443,1781.671631 3698.689453,1785.445312 3696.303955,1789.568604 
	C3678.177490,1820.900635 3660.373535,1852.420654 3642.069580,1883.647827 
	C3621.909180,1918.042603 3601.267090,1952.154419 3580.950195,1986.458130 
	C3572.821777,2000.182861 3565.061279,2014.125000 3556.994629,2027.887085 
	C3555.336670,2030.715820 3553.404053,2033.562622 3550.995361,2035.731445 
	C3547.071533,2039.264038 3542.572998,2037.924683 3542.344727,2032.897461 
	C3541.697266,2018.634033 3540.950684,2004.287964 3544.378906,1990.208374 
	C3544.746826,1988.696533 3545.863281,1987.164795 3547.039307,1986.085693 
	C3552.986084,1980.628418 3553.871582,1973.614868 3554.075928,1966.067139 
	C3554.497803,1950.475952 3555.149414,1934.883057 3556.198975,1919.323975 
	C3556.398193,1916.370117 3558.340820,1913.088013 3560.411133,1910.800781 
	C3564.490479,1906.294067 3565.967041,1901.355347 3566.113037,1895.363892 
	C3566.411133,1883.106323 3565.484131,1870.388062 3568.462646,1858.728271 
	C3572.884033,1841.420410 3571.583008,1823.865234 3574.128906,1806.588745 
	C3574.625977,1803.215698 3576.150391,1799.666138 3578.175049,1796.914673 
	C3582.281006,1791.334961 3585.005615,1785.585571 3584.001709,1778.505249 
	C3582.086670,1765.004150 3587.907959,1754.484619 3597.342285,1745.761230 
	C3613.561035,1730.764404 3619.900879,1711.884155 3619.945801,1690.415894 
	C3619.956543,1685.317139 3620.860840,1680.889526 3623.511475,1676.269531 
	C3626.036377,1671.869141 3626.524902,1666.319458 3628.042725,1661.315674 
	C3629.148438,1657.669922 3630.472412,1654.090210 3631.705322,1650.462646 
	C3637.988525,1651.141846 3641.408447,1653.752563 3644.008545,1657.999390 
	C3650.764893,1669.035889 3657.668701,1679.982300 3664.574463,1690.926147 
	C3665.452393,1692.317139 3666.464844,1693.841675 3667.804443,1694.688721 
	C3680.035889,1702.423950 3684.793457,1715.582153 3691.620850,1727.230469 
	C3694.645752,1732.391968 3697.527832,1737.637207 3700.488037,1742.836792 
	C3701.631104,1744.844238 3702.811279,1746.830933 3704.956543,1750.512329 
	C3713.574219,1736.188599 3720.689697,1724.731323 3727.442139,1713.063965 
	C3742.756836,1686.602905 3757.912109,1660.049561 3773.093994,1633.511841 
	C3786.957031,1609.278931 3800.731201,1584.995117 3814.616211,1560.774902 
	C3826.681152,1539.729736 3839.071777,1518.867310 3850.875000,1497.677002 
	C3857.003906,1486.674194 3862.079590,1475.088989 3867.827881,1463.867920 
	C3869.770752,1460.075684 3871.940186,1456.275757 3874.662842,1453.030151 
	C3883.257080,1442.785156 3887.860352,1430.949463 3889.973389,1417.905029 
	C3891.233887,1410.122559 3894.424316,1406.623901 3902.302979,1406.246826 
	C3908.942383,1405.929077 3911.614502,1402.846313 3914.889160,1397.319702 
	C3931.981689,1368.474487 3949.163818,1339.602783 3971.058105,1313.988403 
	C3984.853516,1297.848755 3999.117432,1282.109741 4012.930176,1265.984741 
	C4026.734375,1249.869751 4040.116455,1233.393311 4053.913330,1217.271851 
	C4064.270020,1205.169922 4075.095215,1193.470093 4085.519775,1181.425049 
	C4096.150391,1169.141479 4106.463379,1156.583374 4117.075195,1144.283447 
	C4123.798828,1136.490234 4130.619141,1128.759033 4137.777344,1121.369629 
	C4141.749512,1117.269653 4143.544922,1112.898071 4140.789062,1107.920044 
	C4132.955078,1093.769043 4124.746094,1079.826050 4115.846680,1064.343262 
	C4112.988281,1067.313721 4110.902344,1068.803589 4109.709473,1070.821411 
	C4089.420898,1105.149292 4069.242188,1139.542358 4049.041016,1173.922119 
	C4048.198975,1175.355225 4047.510498,1176.903320 4046.507568,1178.211914 
	C4044.322998,1181.061646 4041.168945,1183.250854 4037.952637,1181.245605 
	C4035.934082,1179.986938 4034.419434,1176.619873 4034.185547,1174.061035 
	C4033.641357,1168.111572 4033.618652,1162.043213 4034.156982,1156.093018 
	C4034.471924,1152.610352 4035.377930,1148.436279 4037.597900,1146.031982 
	C4041.707031,1141.581787 4042.198242,1136.745972 4042.039795,1131.294678 
	C4041.865723,1125.300659 4041.872803,1119.293457 4042.063721,1113.300537 
	C4042.146729,1110.692261 4042.186279,1107.687256 4043.445557,1105.579346 
	C4049.284424,1095.804321 4049.686035,1084.649170 4051.766357,1073.984009 
	C4053.466553,1065.266235 4054.062988,1056.451050 4057.994873,1048.154541 
	C4059.890381,1044.155273 4058.619141,1038.679321 4060.441650,1034.616699 
	C4065.792969,1022.688599 4066.276855,1010.277344 4066.287354,997.574280 
	C4066.291260,992.737427 4068.071777,987.902100 4069.004639,983.256592 
	C4073.567139,981.024719 4076.205566,982.806824 4078.249756,986.549866 
	C4081.117188,991.801025 4084.187500,996.941040 4087.075684,1002.181335 
	C4089.833008,1007.183838 4093.333252,1011.112366 4098.214355,1014.522400 
	C4102.591797,1017.580261 4105.413086,1022.959717 4108.662109,1027.500610 
	C4110.537109,1030.121582 4111.897461,1033.110840 4114.253418,1037.289307 
	C4116.843262,1034.748779 4119.031738,1033.352295 4120.183105,1031.357422 
	C4133.811035,1007.755737 4147.220215,984.028076 4160.814941,960.407043 
	C4174.737793,936.216003 4188.821289,912.117004 4202.800293,887.958313 
	C4218.269531,861.224915 4233.699707,834.468445 4249.149414,807.723816 
	C4261.117676,787.006653 4273.167480,766.336243 4285.035645,745.562012 
	C4293.251953,731.179260 4301.221191,716.654968 4310.142578,700.687134 
	C4305.728027,700.416138 4302.233398,700.546875 4298.891113,699.895569 
	C4295.785645,699.290588 4292.348633,698.495972 4289.933105,696.643555 
	C4285.117676,692.950256 4285.206543,690.485718 4289.138184,685.902771 
	C4291.301270,683.381165 4293.641113,681.007874 4295.751465,678.444702 
	C4299.700195,673.648682 4302.725586,673.157410 4307.323730,676.896362 
	C4308.327637,677.712952 4309.164062,678.807312 4309.872070,679.905884 
	C4327.826660,707.760437 4346.192871,735.347046 4361.554199,764.804260 
	C4368.770508,778.642395 4376.933105,791.996521 4384.951660,805.400146 
	C4386.939453,808.723572 4390.249512,811.227051 4392.566895,814.389587 
	C4396.072754,819.173584 4399.180664,824.246277 4402.573242,829.115784 
	C4404.721191,832.199036 4407.078613,835.136169 4409.871094,838.840515 
	C4420.080566,826.817200 4429.266602,815.996338 4438.455078,805.177429 
	C4443.395020,799.361084 4448.258789,793.477356 4453.295898,787.746216 
	C4473.230469,765.064819 4493.223633,742.435303 4513.185547,719.777527 
	C4516.894531,715.567200 4519.191895,711.083313 4516.848633,705.207886 
	C4516.186523,703.548828 4516.747070,701.402283 4516.747070,698.988525 
	C4519.207031,698.638794 4521.436035,698.104065 4523.676270,698.046997 
	C4529.005371,697.911194 4534.344727,698.138489 4539.671875,697.975464 
	C4559.591309,697.366089 4579.606445,697.676514 4599.404785,695.769104 
	C4636.660645,692.179749 4673.930664,695.107422 4711.170898,694.002808 
	C4714.500488,693.904053 4718.155273,694.744263 4721.098145,693.646667 
	C4727.983398,691.078735 4731.101562,695.223694 4733.851074,699.902100 
	C4741.920898,713.630859 4749.739746,727.506470 4757.682617,741.310059 
	C4771.935059,766.081177 4786.229004,790.828674 4800.460938,815.611572 
	C4809.564941,831.464844 4818.503906,847.413391 4827.670410,863.230347 
	C4840.483398,885.340515 4853.516113,907.323425 4866.308594,929.445557 
	C4875.791992,945.845581 4884.964355,962.425598 4894.416016,978.844299 
	C4908.003906,1002.448120 4921.720215,1025.977661 4935.671875,1050.039673 
	C4925.410645,1067.946289 4915.058105,1086.058838 4904.658691,1104.144409 
	C4895.382324,1120.276489 4886.057617,1136.380859 4876.748047,1152.493896 
	C4865.940918,1171.197998 4855.111816,1189.889404 4844.319824,1208.601807 
	C4835.020996,1224.723267 4825.780762,1240.878052 4816.479492,1256.997925 
	C4803.026367,1280.313232 4789.536621,1303.607422 4776.070801,1326.915649 
	C4764.766113,1346.483276 4753.470703,1366.056519 4742.177734,1385.630981 
	C4739.520020,1390.237427 4736.842285,1394.832886 4734.264160,1399.483887 
	C4731.470215,1404.525146 4731.651367,1408.990845 4734.813477,1414.359131 
	C4759.439941,1456.163452 4783.758301,1498.150635 4808.014160,1540.172119 
	C4818.806641,1558.868530 4829.236328,1577.774292 4839.152344,1597.293579 
	C4835.261719,1599.391846 4831.282715,1600.012695 4828.977051,1602.312134 
	C4821.463379,1609.806274 4814.382812,1617.760742 4807.459961,1625.816528 
	C4792.984375,1642.660645 4778.822754,1659.775024 4764.325684,1676.600830 
	C4753.713867,1688.917358 4742.696289,1700.883667 4731.997070,1713.126099 
	C4714.538086,1733.102295 4697.187012,1753.172241 4679.801270,1773.212280 
	C4674.800781,1778.976196 4669.792480,1784.734619 4664.866211,1790.562500 
	C4655.025391,1802.207153 4645.356934,1814.000366 4635.395996,1825.541626 
	C4624.990723,1837.597900 4614.297852,1849.405762 4603.779785,1861.365356 
	C4584.941406,1882.785034 4566.688965,1904.751465 4547.189453,1925.549316 
	C4521.244141,1953.221680 4494.367676,1980.021118 4467.841309,2007.146851 
	C4435.724609,2039.989624 4403.555176,2072.781250 4371.408691,2105.595215 
	C4370.476074,2106.547119 4369.295410,2107.361328 4368.669434,2108.484619 
	C4367.659668,2110.297852 4367.016602,2112.315186 4366.145996,2114.421143 
	C4367.960449,2115.137695 4368.858398,2115.808594 4369.747070,2115.796387 
	C4388.040039,2115.546143 4406.099609,2118.158936 4424.259277,2119.762207 
	C4443.084961,2121.424316 4462.063965,2121.781738 4480.979492,2121.855225 
	C4496.223145,2121.914795 4511.480469,2120.849365 4526.715820,2120.000488 
	C4536.908203,2119.433105 4541.578125,2123.385498 4539.691406,2133.405029 
	C4538.569824,2139.359131 4535.892578,2145.643555 4532.130859,2150.355713 
	C4522.414062,2162.528809 4511.694336,2173.900635 4501.398438,2185.612793 
	C4491.321289,2197.075439 4481.187988,2208.490234 4471.236328,2220.060547 
	C4460.645508,2232.374268 4450.278320,2244.879395 4439.734375,2257.233887 
	C4434.782227,2263.036621 4429.865723,2268.898682 4424.525879,2274.333984 
	C4419.785156,2279.159180 4417.180664,2279.192871 4413.119141,2273.874756 
	C4408.913574,2268.367920 4405.580078,2262.170654 4402.096680,2256.141602 
	C4392.621582,2239.743164 4383.476074,2223.151367 4373.793457,2206.877686 
	C4367.690918,2196.620361 4360.488281,2187.015869 4354.424316,2176.737549 
	C4337.407715,2147.893066 4320.794922,2118.810303 4303.858887,2089.917725 
	C4300.011719,2083.354980 4295.654297,2077.072998 4291.249023,2070.862061 
	C4288.037109,2066.333496 4284.076172,2062.326660 4280.969727,2057.735107 
	C4277.813965,2053.069580 4275.378906,2047.922729 4272.479492,2043.075806 
	C4268.837402,2036.987549 4265.087891,2036.279419 4261.263184,2042.179443 
	C4258.368652,2046.645020 4256.675293,2052.447266 4256.195801,2057.811035 
	C4254.957031,2071.674072 4254.639160,2085.621094 4254.055664,2099.539062 
	C4253.876953,2103.800537 4254.027344,2108.075928 4254.027344,2112.424561 
	C4262.459473,2116.133301 4270.489258,2117.812744 4278.805664,2117.957275 
	C4288.798828,2118.130615 4298.800781,2117.842529 4308.790527,2118.101074 
	C4311.726074,2118.177246 4314.631348,2119.429688 4318.936523,2120.481934 
	C4315.120605,2127.196533 4312.218262,2132.336182 4309.285156,2137.458496 
	C4290.794922,2169.754639 4272.406250,2202.110107 4253.770996,2234.322754 
	C4235.472168,2265.954346 4216.933594,2297.447510 4198.475098,2328.986816 
	C4185.219238,2351.636230 4171.871094,2374.232178 4158.658203,2396.906982 
	C4146.111816,2418.437744 4133.868164,2440.146484 4121.128418,2461.561279 
	C4115.491699,2471.036865 4114.399902,2479.832031 4120.613770,2489.547852 
	C4125.616699,2497.370605 4129.543457,2505.877441 4134.034180,2514.032959 
	C4136.584961,2518.666260 4136.437012,2522.570068 4132.486328,2526.633057 
	C4124.849609,2534.485840 4117.626953,2542.739258 4110.198242,2550.795166 
	C4101.641602,2560.075439 4092.978027,2569.258057 4084.498535,2578.607666 
	C4079.821045,2583.765625 4075.417236,2589.172119 4070.906738,2594.480713 
	C4060.389893,2606.858643 4049.978516,2619.327393 4039.345703,2631.604736 
	C4028.919189,2643.643799 4018.114746,2655.356689 4007.760010,2667.455322 
	C3993.966309,2683.572510 3980.623047,2700.076660 3966.762695,2716.135010 
	C3951.589111,2733.714844 3935.977539,2750.916016 3920.697021,2768.405029 
	C3914.156494,2775.890869 3908.204590,2783.898193 3901.537842,2791.263672 
	C3897.226562,2796.027100 3897.368652,2800.600098 3899.904053,2805.890137 
	C3901.472656,2809.162598 3902.648193,2812.623535 3904.000000,2816.000000 
	C3865.958252,2816.000000 3827.916260,2816.000000 3788.937500,2816.000000 
M4023.691162,1920.664185 
	C4030.552002,1908.900757 4037.481934,1897.177124 4044.260498,1885.366455 
	C4062.947998,1852.805420 4081.549805,1820.195068 4100.239746,1787.635254 
	C4104.041992,1781.010986 4108.106934,1774.538086 4112.000977,1767.965698 
	C4114.433105,1763.859131 4114.054688,1760.291748 4111.402344,1755.969604 
	C4102.889648,1742.099365 4095.026855,1727.831177 4086.861328,1713.746460 
	C4074.865723,1693.055298 4062.807861,1672.400269 4050.819824,1651.704712 
	C4048.611816,1647.892822 4045.782227,1645.747925 4040.493164,1647.127563 
	C4038.568359,1659.513550 4035.825684,1671.703979 4030.742188,1683.276001 
	C4029.613281,1685.846313 4030.500488,1689.229248 4029.933838,1692.135620 
	C4028.934570,1697.258301 4028.656006,1702.987793 4026.066162,1707.239136 
	C4020.404541,1716.532837 4013.836670,1725.348389 4006.938721,1733.786743 
	C4002.997070,1738.608643 4000.217773,1743.171753 3999.777344,1749.649048 
	C3998.839355,1763.443359 3992.893799,1776.496582 3993.586670,1790.692627 
	C3993.737549,1793.786011 3990.892090,1797.372559 3988.693848,1800.152466 
	C3985.416016,1804.297607 3983.703613,1808.661987 3983.964844,1813.934570 
	C3984.145996,1817.590088 3984.411133,1821.319702 3983.912354,1824.915405 
	C3982.602783,1834.360596 3982.986816,1844.534790 3976.301270,1852.241333 
	C3972.624756,1856.479004 3971.756592,1860.832886 3971.970459,1865.962280 
	C3972.123291,1869.620605 3971.602783,1873.342041 3972.072754,1876.945435 
	C3973.633545,1888.913574 3969.142822,1898.437378 3960.600830,1906.321533 
	C3957.132812,1909.522583 3955.561523,1913.150269 3955.959229,1917.828979 
	C3956.184326,1920.475098 3956.097900,1923.160156 3955.982666,1925.820312 
	C3955.492188,1937.146240 3954.634033,1948.347778 3947.039551,1957.739868 
	C3945.643311,1959.466797 3944.442139,1961.762329 3944.178711,1963.920776 
	C3943.216797,1971.801392 3942.298828,1979.726685 3942.127197,1987.651611 
	C3941.996826,1993.679077 3940.177979,1998.447876 3936.231934,2003.010742 
	C3933.528564,2006.136353 3930.826660,2010.176758 3930.304688,2014.098633 
	C3928.908447,2024.584839 3928.341064,2035.220581 3928.128906,2045.810547 
	C3927.999756,2052.268799 3927.244873,2058.219482 3924.114990,2064.030518 
	C3920.512207,2070.719238 3921.508545,2077.827637 3923.464600,2086.376709 
	C3926.201172,2082.928467 3928.226562,2080.818359 3929.734619,2078.387207 
	C3933.235596,2072.743896 3936.357422,2066.865479 3939.865234,2061.226562 
	C3947.721924,2048.596436 3956.028320,2036.236572 3963.600586,2023.440430 
	C3983.561279,1989.708740 4003.228271,1955.803223 4023.691162,1920.664185 
M3965.000488,1412.000000 
	C3950.456543,1412.000000 3935.912598,1412.000000 3920.234863,1412.000000 
	C3922.067871,1415.524536 3923.803223,1419.274048 3925.894531,1422.813232 
	C3937.369385,1442.233765 3949.097412,1461.506714 3960.424316,1481.012573 
	C3976.420898,1508.559937 3992.104004,1536.289429 4008.052490,1563.865234 
	C4009.425049,1566.238647 4011.775879,1568.046387 4014.153320,1570.641846 
	C4018.532471,1566.321411 4022.286621,1563.048218 4025.537109,1559.334229 
	C4038.187256,1544.879639 4050.666260,1530.275879 4063.232178,1515.747925 
	C4068.435303,1509.732300 4073.736816,1503.801880 4078.924316,1497.773071 
	C4090.369385,1484.472046 4101.854004,1471.203003 4113.144043,1457.771240 
	C4116.956543,1453.235962 4122.337402,1448.629883 4123.287109,1443.383911 
	C4124.952148,1434.181274 4123.751465,1424.459839 4123.751465,1414.594849 
	C4112.163086,1413.654053 4101.979980,1412.179932 4091.787109,1412.113281 
	C4050.192871,1411.841431 4008.596191,1412.000000 3965.000488,1412.000000 
z"/>
<path fill="#E4E4E4" opacity="1.000000" stroke="none" 
	d="
M834.004883,342.000000 
	C842.122925,347.186737 844.290833,356.509369 848.811035,364.057556 
	C865.881531,392.562683 882.378296,421.413727 898.912659,450.236969 
	C913.632385,475.896942 928.011658,501.752228 942.739807,527.407227 
	C954.817200,548.444824 967.238342,569.284790 979.410522,590.268372 
	C989.081543,606.940063 998.566833,623.719360 1008.207214,640.408936 
	C1017.681519,656.811218 1027.214478,673.180115 1036.825195,689.502686 
	C1037.775513,691.116699 1039.310425,693.322144 1040.806519,693.523376 
	C1048.968262,694.620972 1056.351807,698.376770 1065.047119,698.250427 
	C1104.698853,697.674438 1144.363525,697.997925 1184.023560,697.998108 
	C1187.608521,697.998108 1191.193481,697.998108 1196.625854,697.998108 
	C1195.242798,702.222534 1195.025391,705.273926 1193.458008,707.259827 
	C1186.680420,715.847290 1179.578857,724.183777 1172.464600,732.499878 
	C1156.294434,751.401855 1140.075439,770.262329 1123.802979,789.076416 
	C1121.192749,792.094360 1118.111328,794.699707 1115.410156,797.644897 
	C1109.247559,804.364075 1108.472412,807.577026 1112.850830,815.497498 
	C1120.888184,830.037048 1129.773926,844.111938 1137.671753,858.723389 
	C1149.653320,880.890259 1163.607788,901.906921 1173.955200,925.071228 
	C1181.502686,941.967224 1191.885620,957.601074 1201.071899,973.759216 
	C1211.255249,991.671143 1221.515625,1009.539246 1231.742432,1027.426514 
	C1234.877441,1032.909790 1237.581787,1038.706543 1241.275269,1043.783569 
	C1244.594238,1048.345825 1244.205566,1052.251709 1241.634155,1056.665527 
	C1225.241089,1084.804077 1208.886353,1112.964966 1192.510620,1141.113647 
	C1180.478882,1161.795288 1168.534302,1182.528687 1156.320557,1203.102295 
	C1153.461914,1207.917603 1149.439087,1212.027954 1146.362061,1216.730957 
	C1141.466187,1224.213745 1136.846558,1231.880981 1132.235229,1239.545410 
	C1126.624756,1248.870361 1121.144043,1258.273193 1115.875122,1267.189087 
	C1110.535156,1267.129272 1110.226807,1264.074219 1110.031128,1260.994629 
	C1109.337524,1250.079712 1108.523071,1239.168945 1108.069702,1228.243652 
	C1107.873657,1223.523682 1107.727173,1219.442871 1103.638550,1215.755737 
	C1101.320923,1213.665771 1100.581421,1209.269409 1100.147461,1205.785156 
	C1099.575073,1201.190186 1099.987305,1196.470825 1100.000977,1191.804932 
	C1100.010864,1188.440063 1099.642700,1185.844849 1096.284912,1183.361206 
	C1092.104248,1180.268921 1091.799438,1174.965698 1092.355957,1169.707397 
	C1093.191162,1161.813599 1093.515991,1153.863770 1093.968140,1145.932617 
	C1094.172241,1142.350586 1093.150635,1139.571777 1089.365845,1138.001465 
	C1084.557129,1136.006470 1083.950195,1132.337769 1085.034790,1127.327393 
	C1086.126587,1122.283936 1085.760376,1116.924927 1086.048462,1111.409668 
	C1082.372192,1110.384399 1079.613892,1109.615234 1076.004639,1108.608643 
	C1076.004639,1096.110596 1076.004639,1083.905518 1076.004639,1071.407593 
	C1072.394531,1070.399780 1069.635254,1069.629639 1066.646606,1068.795288 
	C1066.230835,1064.163574 1065.851196,1059.936157 1065.461548,1055.596680 
	C1061.287842,1053.143677 1058.640259,1054.313354 1056.026123,1057.854736 
	C1052.384766,1062.787598 1048.998657,1068.270630 1041.547607,1069.932495 
	C1040.512451,1066.584717 1039.595825,1063.620239 1038.310669,1059.464111 
	C1034.442383,1061.635132 1031.210571,1063.448975 1027.755493,1065.388184 
	C1023.446777,1059.654175 1023.754089,1053.381592 1024.198486,1047.119385 
	C1024.737305,1039.527100 1025.440552,1031.946655 1025.988159,1024.354980 
	C1026.655029,1015.107117 1027.308472,1005.856934 1027.802124,996.598877 
	C1027.934692,994.113892 1027.464966,991.596741 1027.114136,987.053162 
	C1022.217773,990.765991 1018.765137,993.384033 1015.235596,996.060364 
	C1010.353333,993.395081 1009.823608,989.358826 1010.185608,984.830566 
	C1010.844910,976.583008 1011.416870,968.328308 1011.992981,960.074341 
	C1012.638611,950.823730 1013.335144,941.575256 1013.825378,932.316101 
	C1013.991821,929.172546 1013.598022,925.999390 1013.449341,922.588989 
	C1005.522705,922.018921 1003.865784,929.642456 998.212402,931.259766 
	C994.493652,929.435486 993.898010,925.830139 994.066589,922.160217 
	C994.370178,915.553345 995.151245,908.969177 995.493286,902.363098 
	C995.820068,896.051270 995.719421,889.717773 996.023987,883.404297 
	C996.599182,871.481812 997.586365,859.573792 997.909058,847.646362 
	C998.134216,839.325745 997.767151,839.315796 988.403503,838.480774 
	C987.531067,813.279846 986.013123,788.359009 1001.725891,765.689331 
	C1008.994934,755.201904 1012.979248,742.466492 1018.729309,730.887695 
	C1022.720520,722.850708 1027.405884,715.156311 1031.329956,707.089294 
	C1032.965332,703.727173 1033.428467,699.794861 1034.859619,694.517761 
	C1029.331665,694.304199 1025.489624,694.027710 1021.647644,694.026306 
	C945.327026,693.997864 869.006470,694.000122 792.685852,693.998779 
	C741.694397,693.997864 690.699768,694.297180 639.713989,693.760742 
	C629.096802,693.649048 622.954346,698.404114 617.901062,706.344360 
	C615.226013,710.547729 612.931091,714.992004 610.291504,719.219482 
	C609.318604,720.777527 607.848633,722.025208 604.788879,725.444214 
	C604.451294,718.404297 604.123596,713.675903 604.018921,708.942505 
	C603.813110,699.631287 603.460876,698.679077 594.554260,696.617493 
	C588.460083,695.206909 582.124390,694.126587 575.895081,694.118530 
	C461.247742,693.970215 346.600159,694.006104 231.952637,694.003174 
	C228.404633,694.003052 224.856628,694.003174 219.315552,694.003174 
	C223.052231,700.933533 225.687881,706.114136 228.584167,711.144714 
	C244.156754,738.193237 259.839661,765.178284 275.396332,792.235962 
	C290.801270,819.029785 306.101410,845.883789 320.915955,873.391541 
	C316.931885,874.278931 316.188477,876.480774 315.977142,879.501831 
	C315.515747,886.096924 314.453674,892.666260 314.319580,899.260010 
	C314.265564,901.916931 315.209106,905.880005 317.073578,907.041504 
	C322.039948,910.135254 322.293640,914.415283 321.969940,919.171326 
	C321.543427,925.438049 321.009918,931.700439 320.365021,937.948425 
	C319.811584,943.310425 319.167999,948.240540 324.629883,952.210999 
	C326.717041,953.728210 327.700195,958.000061 327.650421,960.991028 
	C327.496399,970.248779 326.560486,979.491638 326.012573,988.745361 
	C325.639954,995.038696 325.687347,1001.368652 325.052887,1007.632202 
	C323.953613,1018.485352 321.467590,1029.380005 328.514740,1039.362183 
	C329.414368,1040.636475 329.909454,1042.510254 329.864868,1044.085815 
	C329.592896,1053.697754 329.113068,1063.303955 328.698059,1072.911865 
	C328.214111,1084.115234 326.414764,1095.200562 330.762909,1106.359863 
	C333.088776,1112.328979 333.325043,1119.347778 333.392395,1125.904297 
	C333.484070,1134.828003 331.994293,1143.770020 332.122162,1152.690674 
	C332.302643,1165.280396 333.142975,1177.874390 334.177612,1190.427124 
	C334.393951,1193.051758 336.682861,1195.505615 338.016693,1198.038086 
	C336.104462,1202.241455 334.513214,1206.628906 332.227234,1210.618042 
	C318.687347,1234.245850 304.991913,1257.784546 291.337616,1281.346558 
	C281.179047,1298.876587 271.076752,1316.439819 260.814606,1333.908813 
	C250.891891,1350.800171 240.376785,1367.359985 230.973831,1384.531982 
	C226.928955,1391.918945 218.895172,1393.501221 213.715775,1399.101196 
	C212.085312,1400.864258 206.939987,1399.376343 202.612030,1399.376343 
	C202.612030,1391.581177 201.657471,1384.217285 202.902496,1377.246216 
	C203.972031,1371.257568 203.825562,1366.176270 200.407471,1360.603271 
	C196.801056,1360.603271 192.964798,1360.603271 188.406326,1360.603271 
	C188.406326,1350.307617 188.240448,1340.066650 188.478027,1329.835205 
	C188.592621,1324.900269 189.774078,1319.993652 189.944397,1315.055908 
	C190.734253,1292.157227 191.298645,1269.250732 192.065506,1246.351074 
	C192.152878,1243.741821 193.278229,1241.174194 193.431427,1238.558472 
	C193.622910,1235.288940 193.922729,1231.820923 193.079361,1228.738647 
	C191.361176,1222.458984 187.952423,1221.089355 181.802841,1223.462646 
	C180.604507,1223.925293 179.513123,1224.665161 177.616241,1225.682739 
	C176.996277,1223.506226 176.035110,1221.763672 176.082016,1220.048706 
	C176.662750,1198.808960 177.296341,1177.569458 178.119888,1156.337891 
	C178.530594,1145.749390 179.506577,1135.183716 179.964355,1124.596191 
	C180.767166,1106.028809 181.300827,1087.449829 182.076691,1068.881104 
	C182.602448,1056.298218 183.416611,1043.727661 183.981201,1031.146118 
	C184.724823,1014.574829 185.244446,997.992920 186.082764,981.426880 
	C186.382996,975.493652 187.838150,969.591919 187.822739,963.678284 
	C187.810181,958.854370 187.243408,953.858948 181.523956,951.231873 
	C179.740860,950.412781 178.458710,947.061829 178.179916,944.722900 
	C177.671539,940.457825 177.909576,936.073364 178.148010,931.755981 
	C178.659042,922.502197 179.569580,913.267883 179.955322,904.010559 
	C180.770569,884.444336 180.609604,864.802490 182.334900,845.323303 
	C183.248672,835.006348 184.196396,825.067932 182.270111,814.755188 
	C181.333176,809.739075 182.876709,804.254272 183.340378,798.985474 
	C183.456360,797.667419 183.875259,796.369019 183.924103,795.053040 
	C184.638092,775.815430 185.217728,756.572205 186.041473,737.339478 
	C186.395187,729.080627 187.120132,720.831665 187.894455,712.598694 
	C188.470703,706.471680 187.878967,700.703247 185.023071,694.777344 
	C195.981522,694.006470 206.118515,694.006470 218.181992,694.006470 
	C213.491928,685.556274 209.907822,678.914307 206.153992,672.369690 
	C194.752350,652.491821 183.282150,632.653320 171.844269,612.796204 
	C160.571487,593.225647 149.337952,573.632446 138.027267,554.083862 
	C127.383469,535.687744 116.712746,517.306824 105.955818,498.976746 
	C98.897224,486.948792 91.531502,475.100098 84.537483,463.035400 
	C70.212791,438.325256 56.064384,413.512939 41.806572,388.763947 
	C33.517029,374.374786 25.190090,360.006927 16.808767,345.671082 
	C13.869130,340.643005 13.836056,336.455872 17.151396,331.005676 
	C28.540924,312.282135 39.090069,293.048492 50.022545,274.045502 
	C58.799076,258.790039 67.609016,243.553116 76.508926,228.369415 
	C88.096184,208.600952 99.907104,188.962769 111.395767,169.137573 
	C120.722847,153.042450 129.579132,136.674744 138.887405,120.568466 
	C157.317719,88.678108 176.001465,56.934029 194.381363,25.014837 
	C198.663254,17.578745 202.148300,9.683809 206.000000,1.999997 
	C336.708466,2.000000 467.416901,2.000000 599.061096,2.936962 
	C599.352112,18.115658 598.615173,32.354084 598.104126,46.600613 
	C597.871765,53.077976 597.028809,59.810555 601.821777,65.183731 
	C608.061707,64.258942 609.339478,54.936577 617.894470,57.265522 
	C617.894470,67.511215 618.263794,77.778450 617.821106,88.010551 
	C616.746826,112.841606 615.267029,137.654907 614.018494,162.478790 
	C613.767883,167.462036 614.894104,172.786850 613.500610,177.382721 
	C610.734558,186.505569 612.807861,192.723373 622.245422,196.225403 
	C621.450195,200.920715 620.294800,205.100525 620.104187,209.323898 
	C619.250977,228.220840 618.746887,247.133240 617.969360,266.033997 
	C617.438110,278.948975 616.614502,291.851685 616.025879,304.764648 
	C615.825928,309.149628 616.194885,313.434479 620.822327,315.765533 
	C623.951111,314.532166 626.892151,313.372833 631.203918,311.673157 
	C631.519836,315.854309 632.050415,319.009308 631.946045,322.143127 
	C631.382568,339.053101 630.710938,355.960052 629.958557,372.862793 
	C629.782715,376.812714 629.473328,380.812256 628.643066,384.663422 
	C627.620911,389.404022 628.540466,393.055420 632.427795,395.747437 
	C636.049194,394.505463 639.259216,393.404572 643.102112,392.086639 
	C643.460388,394.737610 643.935425,396.343933 643.848389,397.919159 
	C643.300171,407.834534 642.668762,417.745880 641.981812,427.652802 
	C641.432617,435.573120 640.282166,443.484528 640.270020,451.401215 
	C640.253906,461.879944 637.937744,472.668152 642.972229,482.854370 
	C645.740234,482.854370 648.270325,482.854370 651.349182,482.854370 
	C651.349182,497.127625 652.060852,511.064880 651.014954,524.868958 
	C650.567932,530.769287 650.207153,535.901733 653.338928,540.984985 
	C655.957397,540.984985 658.470520,540.984985 662.476807,540.984985 
	C661.839111,552.072815 661.166382,562.585022 660.656067,573.105042 
	C660.366699,579.069519 659.970581,585.071655 660.364502,591.007568 
	C660.549194,593.790466 662.013184,598.398315 663.721008,598.816650 
	C669.117188,600.138367 669.839478,604.094666 671.192566,608.103333 
	C671.806641,609.922546 672.796570,611.614929 674.032715,614.254700 
	C676.922363,610.630066 678.089722,609.501892 678.857178,608.147217 
	C682.952148,600.918335 686.815674,593.556030 691.002563,586.381836 
	C701.545898,568.315857 712.280945,550.361816 722.825439,532.296570 
	C736.887085,508.205719 750.909302,484.091248 764.806580,459.905396 
	C770.078003,450.731537 774.955261,441.331238 780.541504,431.604645 
	C784.104126,425.710083 787.054504,420.197021 790.185730,414.788635 
	C800.780457,396.488556 811.347778,378.171448 822.124512,359.978638 
	C825.781067,353.805939 830.027832,347.982849 834.004883,342.000000 
z"/>
<path fill="#DFDFDF" opacity="1.000000" stroke="none" 
	d="
M3904.937256,2816.000000 
	C3902.648193,2812.623535 3901.472656,2809.162598 3899.904053,2805.890137 
	C3897.368652,2800.600098 3897.226562,2796.027100 3901.537842,2791.263672 
	C3908.204590,2783.898193 3914.156494,2775.890869 3920.697021,2768.405029 
	C3935.977539,2750.916016 3951.589111,2733.714844 3966.762695,2716.135010 
	C3980.623047,2700.076660 3993.966309,2683.572510 4007.760010,2667.455322 
	C4018.114746,2655.356689 4028.919189,2643.643799 4039.345703,2631.604736 
	C4049.978516,2619.327393 4060.389893,2606.858643 4070.906738,2594.480713 
	C4075.417236,2589.172119 4079.821045,2583.765625 4084.498535,2578.607666 
	C4092.978027,2569.258057 4101.641602,2560.075439 4110.198242,2550.795166 
	C4117.626953,2542.739258 4124.849609,2534.485840 4132.486328,2526.633057 
	C4136.437012,2522.570068 4136.584961,2518.666260 4134.034180,2514.032959 
	C4129.543457,2505.877441 4125.616699,2497.370605 4120.613770,2489.547852 
	C4114.399902,2479.832031 4115.491699,2471.036865 4121.128418,2461.561279 
	C4133.868164,2440.146484 4146.111816,2418.437744 4158.658203,2396.906982 
	C4171.871094,2374.232178 4185.219238,2351.636230 4198.475098,2328.986816 
	C4216.933594,2297.447510 4235.472168,2265.954346 4253.770996,2234.322754 
	C4272.406250,2202.110107 4290.794922,2169.754639 4309.285156,2137.458496 
	C4312.218262,2132.336182 4315.120605,2127.196533 4318.936523,2120.481934 
	C4314.631348,2119.429688 4311.726074,2118.177246 4308.790527,2118.101074 
	C4298.800781,2117.842529 4288.798828,2118.130615 4278.805664,2117.957275 
	C4270.489258,2117.812744 4262.459473,2116.133301 4254.027344,2112.424561 
	C4254.027344,2108.075928 4253.876953,2103.800537 4254.055664,2099.539062 
	C4254.639160,2085.621094 4254.957031,2071.674072 4256.195801,2057.811035 
	C4256.675293,2052.447266 4258.368652,2046.645020 4261.263184,2042.179443 
	C4265.087891,2036.279419 4268.837402,2036.987549 4272.479492,2043.075806 
	C4275.378906,2047.922729 4277.813965,2053.069580 4280.969727,2057.735107 
	C4284.076172,2062.326660 4288.037109,2066.333496 4291.249023,2070.862061 
	C4295.654297,2077.072998 4300.011719,2083.354980 4303.858887,2089.917725 
	C4320.794922,2118.810303 4337.407715,2147.893066 4354.424316,2176.737549 
	C4360.488281,2187.015869 4367.690918,2196.620361 4373.793457,2206.877686 
	C4383.476074,2223.151367 4392.621582,2239.743164 4402.096680,2256.141602 
	C4405.580078,2262.170654 4408.913574,2268.367920 4413.119141,2273.874756 
	C4417.180664,2279.192871 4419.785156,2279.159180 4424.525879,2274.333984 
	C4429.865723,2268.898682 4434.782227,2263.036621 4439.734375,2257.233887 
	C4450.278320,2244.879395 4460.645508,2232.374268 4471.236328,2220.060547 
	C4481.187988,2208.490234 4491.321289,2197.075439 4501.398438,2185.612793 
	C4511.694336,2173.900635 4522.414062,2162.528809 4532.130859,2150.355713 
	C4535.892578,2145.643555 4538.569824,2139.359131 4539.691406,2133.405029 
	C4541.578125,2123.385498 4536.908203,2119.433105 4526.715820,2120.000488 
	C4511.480469,2120.849365 4496.223145,2121.914795 4480.979492,2121.855225 
	C4462.063965,2121.781738 4443.084961,2121.424316 4424.259277,2119.762207 
	C4406.099609,2118.158936 4388.040039,2115.546143 4369.747070,2115.796387 
	C4368.858398,2115.808594 4367.960449,2115.137695 4366.145996,2114.421143 
	C4367.016602,2112.315186 4367.659668,2110.297852 4368.669434,2108.484619 
	C4369.295410,2107.361328 4370.476074,2106.547119 4371.408691,2105.595215 
	C4403.555176,2072.781250 4435.724609,2039.989624 4467.841309,2007.146851 
	C4494.367676,1980.021118 4521.244141,1953.221680 4547.189453,1925.549316 
	C4566.688965,1904.751465 4584.941406,1882.785034 4603.779785,1861.365356 
	C4614.297852,1849.405762 4624.990723,1837.597900 4635.395996,1825.541626 
	C4645.356934,1814.000366 4655.025391,1802.207153 4664.866211,1790.562500 
	C4669.792480,1784.734619 4674.800781,1778.976196 4679.801270,1773.212280 
	C4697.187012,1753.172241 4714.538086,1733.102295 4731.997070,1713.126099 
	C4742.696289,1700.883667 4753.713867,1688.917358 4764.325684,1676.600830 
	C4778.822754,1659.775024 4792.984375,1642.660645 4807.459961,1625.816528 
	C4814.382812,1617.760742 4821.463379,1609.806274 4828.977051,1602.312134 
	C4831.282715,1600.012695 4835.261719,1599.391846 4839.237305,1597.997925 
	C4844.916016,1605.845337 4850.048340,1613.570923 4854.708496,1621.571533 
	C4869.746582,1647.387451 4884.675293,1673.267456 4899.520996,1699.194458 
	C4911.396484,1719.933838 4923.088867,1740.777832 4935.461426,1762.633545 
	C4933.136230,1766.843994 4930.352051,1772.054199 4927.414062,1777.176514 
	C4913.868652,1800.795288 4900.284668,1824.391479 4886.688477,1847.980591 
	C4886.371094,1848.531250 4885.743652,1848.903076 4884.010254,1849.580566 
	C4880.866211,1848.693604 4878.972656,1847.584229 4876.963379,1846.406860 
	C4874.402344,1848.832153 4872.173828,1850.818848 4870.083496,1852.941772 
	C4841.141602,1882.334351 4810.968750,1910.522461 4784.494141,1942.313599 
	C4772.178711,1957.102051 4758.570312,1970.804688 4745.905762,1985.311768 
	C4730.639160,2002.798462 4716.067383,2020.898560 4700.604492,2038.205322 
	C4687.537598,2052.831299 4673.585938,2066.665039 4660.104492,2080.923584 
	C4650.056152,2091.550537 4640.113770,2102.278320 4630.195312,2113.026367 
	C4629.427734,2113.858643 4629.219238,2115.207520 4628.047852,2117.980469 
	C4637.446289,2117.980469 4645.635254,2117.979492 4653.823730,2117.980713 
	C4661.823242,2117.982178 4669.822754,2117.986084 4677.822266,2117.988770 
	C4686.154785,2117.991455 4694.496582,2117.757080 4702.817871,2118.063965 
	C4710.938965,2118.363525 4719.234863,2116.695068 4728.018066,2119.472656 
	C4727.101074,2121.839355 4726.630371,2123.677979 4725.731445,2125.275879 
	C4719.212891,2136.865479 4712.621582,2148.414062 4706.027344,2159.961182 
	C4693.994141,2181.031494 4681.983887,2202.115234 4669.888184,2223.149414 
	C4659.118652,2241.876709 4648.190430,2260.512207 4637.435547,2279.248047 
	C4625.851074,2299.429932 4614.489258,2319.740234 4602.842285,2339.886230 
	C4589.703125,2362.614258 4576.276367,2385.176025 4563.121094,2407.894775 
	C4552.127930,2426.880615 4541.388672,2446.013184 4530.411133,2465.007812 
	C4529.221191,2467.067383 4527.194824,2468.643555 4525.004883,2471.050049 
	C4522.356445,2467.759766 4520.230957,2465.669434 4518.751465,2463.193115 
	C4508.013184,2445.220215 4497.319824,2427.219971 4486.794434,2409.122070 
	C4481.754883,2400.456299 4476.104492,2399.167969 4469.049805,2406.113037 
	C4464.335938,2410.753418 4460.447754,2416.220215 4455.903320,2421.047119 
	C4442.452637,2435.333984 4429.022461,2449.647217 4415.290039,2463.661621 
	C4374.498047,2505.290527 4333.576660,2546.792236 4292.677734,2588.315918 
	C4284.257812,2596.864746 4275.716797,2605.293457 4267.232422,2613.778320 
	C4256.155273,2624.856201 4244.976074,2635.834229 4234.039551,2647.048584 
	C4226.133301,2655.155518 4225.065918,2662.331055 4230.081543,2672.075684 
	C4236.160645,2683.885742 4242.443848,2695.591064 4248.653320,2707.333984 
	C4254.076660,2717.591064 4253.598633,2726.819580 4246.773926,2734.158447 
	C4235.000000,2746.819824 4223.157715,2759.423340 4211.113770,2771.827881 
	C4199.970215,2783.304932 4188.548340,2794.512695 4177.195801,2805.785889 
	C4174.310059,2808.651611 4171.408691,2811.410645 4172.000000,2816.000000 
	C4083.291504,2816.000000 3994.583008,2816.000000 3904.937256,2816.000000 
z"/>
<path fill="#E4E4E4" opacity="1.000000" stroke="none" 
	d="
M1861.062744,1.999995 
	C1858.508911,7.140004 1855.576172,12.789304 1851.430908,17.332518 
	C1832.748657,37.808342 1817.557129,60.690567 1803.723267,84.581581 
	C1787.240479,113.046989 1770.473022,141.348648 1754.137329,169.897766 
	C1736.145752,201.340530 1718.616089,233.047333 1700.667603,264.514954 
	C1690.463867,282.404449 1679.755493,300.005493 1669.417969,317.819702 
	C1665.593994,324.409149 1662.181274,331.237183 1658.627441,337.869965 
	C1665.503906,358.341888 1677.388184,376.098877 1687.760986,394.613831 
	C1699.779053,416.065552 1712.058472,437.371765 1724.338257,458.675629 
	C1734.791992,476.811768 1745.477905,494.814087 1755.932129,512.949951 
	C1768.046753,533.966431 1780.054321,555.044983 1792.047241,576.131348 
	C1808.312134,604.728821 1824.507690,633.365601 1840.757568,661.971619 
	C1845.190430,669.774841 1849.831421,677.462708 1854.110229,685.348206 
	C1855.239380,687.429382 1855.375854,690.049316 1856.360962,693.994995 
	C1851.590210,693.994995 1848.352539,693.994995 1845.114868,693.994995 
	C1716.151978,693.995300 1587.188965,693.961731 1458.226196,694.094116 
	C1451.651978,694.100891 1447.964844,692.554077 1444.368774,686.101807 
	C1427.550903,655.926697 1409.565308,626.405579 1392.322754,596.463135 
	C1374.908569,566.223022 1357.981689,535.702698 1340.645264,505.417328 
	C1326.781006,481.197235 1312.536255,457.195160 1298.619263,433.004974 
	C1284.532227,408.519501 1270.641235,383.921326 1256.661987,359.373932 
	C1254.030884,354.753815 1251.564697,350.027527 1248.706543,345.551880 
	C1245.198364,340.058350 1245.918335,335.006256 1249.125366,329.680084 
	C1256.836792,316.872681 1264.436523,303.995972 1271.921753,291.054901 
	C1281.404419,274.660156 1290.697266,258.155579 1300.130371,241.731903 
	C1311.384644,222.137543 1322.729248,202.595108 1333.980957,182.999420 
	C1343.412964,166.572754 1352.756958,150.095657 1362.159912,133.652420 
	C1370.409058,119.226952 1378.745361,104.851089 1386.931885,90.390373 
	C1393.300537,79.140640 1399.472412,67.779724 1405.781982,56.496387 
	C1408.839966,51.027863 1411.489624,45.225067 1415.253662,40.281410 
	C1421.387817,32.224857 1423.439453,23.149134 1424.182251,13.426927 
	C1424.432617,10.150203 1425.370239,6.925976 1425.996826,2.838873 
	C1570.708496,2.000000 1715.416870,2.000000 1861.062744,1.999995 
z"/>
<path fill="#E7E7E7" opacity="1.000000" stroke="none" 
	d="
M3076.937256,2816.000000 
	C3074.782715,2811.588623 3074.412598,2806.692871 3072.211914,2802.843750 
	C3056.543945,2775.441650 3040.351074,2748.339844 3024.631592,2720.966797 
	C3014.036865,2702.517578 3004.038574,2683.727051 2993.596680,2665.188965 
	C2982.015137,2644.627686 2970.120850,2624.242432 2958.568359,2603.665039 
	C2946.705566,2582.533936 2935.072021,2561.273682 2923.381348,2540.046387 
	C2920.343262,2534.529785 2922.328857,2529.554932 2925.907227,2525.309326 
	C2934.886963,2514.655518 2944.208008,2504.290283 2953.268799,2493.703613 
	C2967.929443,2476.573975 2982.420898,2459.299072 2997.119385,2442.202393 
	C3007.287354,2430.375000 3017.700928,2418.759033 3027.973877,2407.021973 
	C3041.958496,2391.043701 3056.107178,2375.202881 3069.769775,2358.953613 
	C3074.189697,2353.696777 3077.876465,2347.603516 3080.743652,2341.362061 
	C3081.993652,2338.640625 3081.420898,2333.934814 3079.812744,2331.243652 
	C3072.524170,2319.045166 3072.711670,2314.764648 3082.604492,2304.406738 
	C3084.215332,2302.719971 3086.224121,2301.293213 3087.409912,2299.355225 
	C3088.522461,2297.536621 3089.853271,2294.784668 3089.224121,2293.169922 
	C3087.437744,2288.586182 3088.494873,2284.769043 3090.534912,2280.760010 
	C3092.863525,2276.184326 3092.603027,2271.770752 3089.084229,2267.781494 
	C3088.865723,2267.534180 3088.741699,2267.204346 3088.526855,2266.953125 
	C3082.770020,2260.221680 3080.249023,2253.307861 3088.034424,2246.057129 
	C3086.044434,2243.514404 3084.382324,2241.494629 3082.833740,2239.391357 
	C3079.180664,2234.429443 3076.381592,2229.458008 3079.218506,2222.821289 
	C3080.104004,2220.749756 3079.152100,2217.666504 3078.476318,2215.201416 
	C3076.987549,2209.770264 3075.066406,2204.459473 3073.485107,2199.052002 
	C3073.041504,2197.535645 3072.548828,2195.575439 3073.127197,2194.290771 
	C3078.065186,2183.324219 3074.445557,2173.188721 3070.924561,2162.797607 
	C3069.845703,2159.613281 3069.885010,2155.220947 3071.239014,2152.200684 
	C3074.902344,2144.030762 3079.222168,2136.101074 3083.907959,2128.460693 
	C3087.502686,2122.599365 3090.375244,2122.657715 3094.123535,2128.423340 
	C3101.184570,2139.285645 3107.853760,2150.402100 3114.689697,2161.410889 
	C3116.267090,2163.950928 3117.552734,2166.750000 3119.495117,2168.973389 
	C3138.038330,2190.195557 3149.195801,2216.034180 3163.893799,2239.655029 
	C3164.742676,2241.019043 3165.875000,2242.206787 3167.173584,2243.854736 
	C3168.835449,2242.896729 3170.522949,2242.397949 3171.514648,2241.281006 
	C3186.053955,2224.906738 3200.664551,2208.590332 3214.920898,2191.971191 
	C3227.870117,2176.876465 3239.941650,2161.003906 3253.321289,2146.313232 
	C3260.398682,2138.542725 3265.497559,2128.573975 3275.499023,2123.730225 
	C3278.986816,2122.041260 3282.868896,2120.260498 3286.616455,2120.156006 
	C3319.857178,2119.228271 3353.105225,2118.406982 3386.356445,2118.073242 
	C3419.680176,2117.739258 3453.010010,2117.987793 3486.337158,2118.017090 
	C3489.846924,2118.020264 3493.356445,2118.265625 3498.901855,2118.475586 
	C3430.069336,2238.082764 3362.229004,2355.965576 3294.134033,2474.291504 
	C3299.938965,2484.335205 3305.744141,2494.367432 3311.537598,2504.406494 
	C3323.164307,2524.553223 3334.779541,2544.706299 3346.408691,2564.851318 
	C3360.364258,2589.027100 3374.344971,2613.188232 3388.285156,2637.372803 
	C3399.571045,2656.952148 3410.804443,2676.561768 3422.077148,2696.148926 
	C3433.349121,2715.734863 3444.687744,2735.282959 3455.911377,2754.896729 
	C3467.276123,2774.756348 3478.536133,2794.676514 3489.920898,2815.285156 
	C3352.624756,2816.000000 3215.249756,2816.000000 3076.937256,2816.000000 
z"/>
<path fill="#CFCFCF" opacity="1.000000" stroke="none" 
	d="
M4172.937500,2816.000000 
	C4171.408691,2811.410645 4174.310059,2808.651611 4177.195801,2805.785889 
	C4188.548340,2794.512695 4199.970215,2783.304932 4211.113770,2771.827881 
	C4223.157715,2759.423340 4235.000000,2746.819824 4246.773926,2734.158447 
	C4253.598633,2726.819580 4254.076660,2717.591064 4248.653320,2707.333984 
	C4242.443848,2695.591064 4236.160645,2683.885742 4230.081543,2672.075684 
	C4225.065918,2662.331055 4226.133301,2655.155518 4234.039551,2647.048584 
	C4244.976074,2635.834229 4256.155273,2624.856201 4267.232422,2613.778320 
	C4275.716797,2605.293457 4284.257812,2596.864746 4292.677734,2588.315918 
	C4333.576660,2546.792236 4374.498047,2505.290527 4415.290039,2463.661621 
	C4429.022461,2449.647217 4442.452637,2435.333984 4455.903320,2421.047119 
	C4460.447754,2416.220215 4464.335938,2410.753418 4469.049805,2406.113037 
	C4476.104492,2399.167969 4481.754883,2400.456299 4486.794434,2409.122070 
	C4497.319824,2427.219971 4508.013184,2445.220215 4518.751465,2463.193115 
	C4520.230957,2465.669434 4522.356445,2467.759766 4525.004883,2471.050049 
	C4527.194824,2468.643555 4529.221191,2467.067383 4530.411133,2465.007812 
	C4541.388672,2446.013184 4552.127930,2426.880615 4563.121094,2407.894775 
	C4576.276367,2385.176025 4589.703125,2362.614258 4602.842285,2339.886230 
	C4614.489258,2319.740234 4625.851074,2299.429932 4637.435547,2279.248047 
	C4648.190430,2260.512207 4659.118652,2241.876709 4669.888184,2223.149414 
	C4681.983887,2202.115234 4693.994141,2181.031494 4706.027344,2159.961182 
	C4712.621582,2148.414062 4719.212891,2136.865479 4725.731445,2125.275879 
	C4726.630371,2123.677979 4727.101074,2121.839355 4728.018066,2119.472656 
	C4719.234863,2116.695068 4710.938965,2118.363525 4702.817871,2118.063965 
	C4694.496582,2117.757080 4686.154785,2117.991455 4677.822266,2117.988770 
	C4669.822754,2117.986084 4661.823242,2117.982178 4653.823730,2117.980713 
	C4645.635254,2117.979492 4637.446289,2117.980469 4628.047852,2117.980469 
	C4629.219238,2115.207520 4629.427734,2113.858643 4630.195312,2113.026367 
	C4640.113770,2102.278320 4650.056152,2091.550537 4660.104492,2080.923584 
	C4673.585938,2066.665039 4687.537598,2052.831299 4700.604492,2038.205322 
	C4716.067383,2020.898560 4730.639160,2002.798462 4745.905762,1985.311768 
	C4758.570312,1970.804688 4772.178711,1957.102051 4784.494141,1942.313599 
	C4810.968750,1910.522461 4841.141602,1882.334351 4870.083496,1852.941772 
	C4872.173828,1850.818848 4874.402344,1848.832153 4876.963379,1846.406860 
	C4878.972656,1847.584229 4880.866211,1848.693604 4883.409180,1849.903564 
	C4877.611328,1861.590454 4871.280762,1873.243164 4864.689453,1884.747070 
	C4855.112305,1901.463867 4845.299805,1918.045898 4835.672852,1934.734497 
	C4824.715332,1953.729980 4813.864746,1972.787109 4802.944336,1991.804077 
	C4793.343262,2008.524292 4783.668457,2025.202026 4774.102539,2041.942261 
	C4759.771973,2067.020752 4745.508301,2092.137695 4731.674805,2118.379395 
	C4734.122070,2123.730713 4735.834473,2128.099365 4738.145996,2132.124023 
	C4750.059570,2152.870117 4762.140137,2173.520508 4774.137207,2194.218750 
	C4796.123535,2232.149658 4818.143555,2270.061035 4840.054199,2308.035400 
	C4863.579102,2348.807861 4886.891113,2389.703125 4910.512207,2430.419678 
	C4918.668457,2444.477539 4927.472656,2458.159180 4935.992188,2472.677246 
	C4936.002930,2474.227783 4936.001465,2475.114014 4935.472656,2476.421631 
	C4926.939941,2490.607422 4919.047363,2504.438965 4910.893555,2518.114502 
	C4904.139648,2529.441650 4896.747559,2540.397217 4890.230469,2551.854248 
	C4880.897461,2568.261230 4872.448730,2585.174316 4862.998047,2601.510254 
	C4849.226562,2625.314697 4834.717773,2648.692139 4820.870117,2672.453613 
	C4810.892578,2689.574951 4801.623047,2707.107178 4791.781250,2724.309814 
	C4777.453125,2749.353516 4762.841797,2774.235107 4748.479980,2799.260498 
	C4745.371094,2804.678223 4742.812012,2810.411621 4740.000000,2816.000000 
	C4733.938965,2816.000000 4727.877441,2816.000000 4720.822266,2815.286133 
	C4709.796387,2796.229492 4700.050293,2777.723389 4689.669434,2759.580811 
	C4670.876953,2726.737793 4651.681641,2694.125488 4632.700684,2661.390137 
	C4620.877930,2641.000732 4609.107422,2620.580322 4597.371582,2600.140625 
	C4583.484375,2575.954346 4569.638184,2551.744629 4555.816406,2527.520996 
	C4547.094238,2512.235596 4538.516602,2496.866699 4529.674805,2481.651367 
	C4528.692383,2479.961182 4526.398926,2479.032471 4524.444824,2477.546631 
	C4523.053711,2479.252686 4522.041992,2480.140869 4521.466797,2481.254395 
	C4515.417969,2492.966064 4507.580566,2503.597412 4501.820801,2515.562012 
	C4496.413574,2526.793701 4488.508789,2536.792969 4482.269043,2547.659180 
	C4464.923340,2577.864990 4447.898438,2608.254395 4430.695801,2638.542480 
	C4416.919922,2662.798096 4403.146484,2687.055420 4389.230469,2711.230713 
	C4372.666992,2740.005127 4355.891602,2768.657471 4339.353516,2797.446289 
	C4335.908203,2803.442871 4333.101074,2809.805664 4330.000000,2816.000000 
	C4277.958496,2816.000000 4225.916504,2816.000000 4172.937500,2816.000000 
z"/>
<path fill="#DFDFDF" opacity="1.000000" stroke="none" 
	d="
M205.062683,1.999997 
	C202.148300,9.683809 198.663254,17.578745 194.381363,25.014837 
	C176.001465,56.934029 157.317719,88.678108 138.887405,120.568466 
	C129.579132,136.674744 120.722847,153.042450 111.395767,169.137573 
	C99.907104,188.962769 88.096184,208.600952 76.508926,228.369415 
	C67.609016,243.553116 58.799076,258.790039 50.022545,274.045502 
	C39.090069,293.048492 28.540924,312.282135 17.151396,331.005676 
	C13.836056,336.455872 13.869130,340.643005 16.808767,345.671082 
	C25.190090,360.006927 33.517029,374.374786 41.806572,388.763947 
	C56.064384,413.512939 70.212791,438.325256 84.537483,463.035400 
	C91.531502,475.100098 98.897224,486.948792 105.955818,498.976746 
	C116.712746,517.306824 127.383469,535.687744 138.027267,554.083862 
	C149.337952,573.632446 160.571487,593.225647 171.844269,612.796204 
	C183.282150,632.653320 194.752350,652.491821 206.153992,672.369690 
	C209.907822,678.914307 213.491928,685.556274 218.181992,694.006470 
	C206.118515,694.006470 195.981522,694.006470 184.906036,694.016663 
	C123.936569,694.018372 63.905602,694.009888 2.937315,694.000732 
	C2.000000,463.558716 2.000000,233.117432 2.000000,2.000000 
	C69.373611,2.000000 136.749496,2.000000 205.062683,1.999997 
z"/>
<path fill="#DFDFDF" opacity="1.000000" stroke="none" 
	d="
M4330.937500,2816.000000 
	C4333.101074,2809.805664 4335.908203,2803.442871 4339.353516,2797.446289 
	C4355.891602,2768.657471 4372.666992,2740.005127 4389.230469,2711.230713 
	C4403.146484,2687.055420 4416.919922,2662.798096 4430.695801,2638.542480 
	C4447.898438,2608.254395 4464.923340,2577.864990 4482.269043,2547.659180 
	C4488.508789,2536.792969 4496.413574,2526.793701 4501.820801,2515.562012 
	C4507.580566,2503.597412 4515.417969,2492.966064 4521.466797,2481.254395 
	C4522.041992,2480.140869 4523.053711,2479.252686 4524.444824,2477.546631 
	C4526.398926,2479.032471 4528.692383,2479.961182 4529.674805,2481.651367 
	C4538.516602,2496.866699 4547.094238,2512.235596 4555.816406,2527.520996 
	C4569.638184,2551.744629 4583.484375,2575.954346 4597.371582,2600.140625 
	C4609.107422,2620.580322 4620.877930,2641.000732 4632.700684,2661.390137 
	C4651.681641,2694.125488 4670.876953,2726.737793 4689.669434,2759.580811 
	C4700.050293,2777.723389 4709.796387,2796.229492 4719.914062,2815.286133 
	C4590.625000,2816.000000 4461.250000,2816.000000 4330.937500,2816.000000 
z"/>
<path fill="#E4E4E4" opacity="1.000000" stroke="none" 
	d="
M1025.062744,2.000000 
	C1025.553955,11.574444 1018.749878,18.240946 1014.545471,25.970850 
	C1003.283813,46.675388 991.173767,66.919449 979.347778,87.315704 
	C969.020020,105.127747 958.549438,122.857246 948.270325,140.697159 
	C936.000977,161.991089 923.913696,183.389862 911.662231,204.694168 
	C901.397095,222.544586 890.981506,240.308395 880.683960,258.140259 
	C871.052246,274.819122 861.575439,291.588104 851.859497,308.217468 
	C846.513977,317.366608 840.815979,326.309784 834.136963,335.274109 
	C825.821411,322.903809 818.641052,310.608032 811.471497,298.305908 
	C801.302551,280.857056 791.142883,263.402710 780.976624,245.952286 
	C773.989685,233.959167 766.998169,221.968704 759.922119,209.276047 
	C753.688782,197.958603 747.508240,187.361588 741.402100,176.721909 
	C725.371582,148.789474 709.462708,120.786819 693.336975,92.909561 
	C677.547424,65.613579 661.512146,38.459759 645.700623,11.176397 
	C644.063538,8.351479 643.214661,5.069762 642.000000,1.999997 
	C769.375122,2.000000 896.750244,2.000000 1025.062744,2.000000 
z"/>
<path fill="#DFDFDF" opacity="1.000000" stroke="none" 
	d="
M641.062927,1.999997 
	C643.214661,5.069762 644.063538,8.351479 645.700623,11.176397 
	C661.512146,38.459759 677.547424,65.613579 693.336975,92.909561 
	C709.462708,120.786819 725.371582,148.789474 741.402100,176.721909 
	C747.508240,187.361588 753.688782,197.958603 759.140869,209.403137 
	C756.982300,212.204224 754.141602,214.273087 754.271240,216.135071 
	C755.340881,231.493286 750.432068,247.302505 757.557739,262.240326 
	C758.223022,263.635040 758.073792,265.532745 757.949707,267.170197 
	C757.329651,275.351807 760.603699,283.490479 758.105286,291.723755 
	C757.661865,293.184967 757.919312,295.202759 758.595459,296.605743 
	C764.308472,308.461609 762.071167,321.475647 763.538025,333.848846 
	C765.832825,353.206909 764.931152,372.922058 766.139038,392.439209 
	C766.829224,403.591217 767.461182,414.852112 771.445068,425.626068 
	C773.100769,430.103577 775.298096,432.365295 780.012207,432.034119 
	C774.955261,441.331238 770.078003,450.731537 764.806580,459.905396 
	C750.909302,484.091248 736.887085,508.205719 722.825439,532.296570 
	C712.280945,550.361816 701.545898,568.315857 691.002563,586.381836 
	C686.815674,593.556030 682.952148,600.918335 678.857178,608.147217 
	C678.089722,609.501892 676.922363,610.630066 674.032715,614.254700 
	C672.796570,611.614929 671.806641,609.922546 671.192566,608.103333 
	C669.839478,604.094666 669.117188,600.138367 663.721008,598.816650 
	C662.013184,598.398315 660.549194,593.790466 660.364502,591.007568 
	C659.970581,585.071655 660.366699,579.069519 660.656067,573.105042 
	C661.166382,562.585022 661.839111,552.072815 662.476807,540.984985 
	C658.470520,540.984985 655.957397,540.984985 653.338928,540.984985 
	C650.207153,535.901733 650.567932,530.769287 651.014954,524.868958 
	C652.060852,511.064880 651.349182,497.127625 651.349182,482.854370 
	C648.270325,482.854370 645.740234,482.854370 642.972229,482.854370 
	C637.937744,472.668152 640.253906,461.879944 640.270020,451.401215 
	C640.282166,443.484528 641.432617,435.573120 641.981812,427.652802 
	C642.668762,417.745880 643.300171,407.834534 643.848389,397.919159 
	C643.935425,396.343933 643.460388,394.737610 643.102112,392.086639 
	C639.259216,393.404572 636.049194,394.505463 632.427795,395.747437 
	C628.540466,393.055420 627.620911,389.404022 628.643066,384.663422 
	C629.473328,380.812256 629.782715,376.812714 629.958557,372.862793 
	C630.710938,355.960052 631.382568,339.053101 631.946045,322.143127 
	C632.050415,319.009308 631.519836,315.854309 631.203918,311.673157 
	C626.892151,313.372833 623.951111,314.532166 620.822327,315.765533 
	C616.194885,313.434479 615.825928,309.149628 616.025879,304.764648 
	C616.614502,291.851685 617.438110,278.948975 617.969360,266.033997 
	C618.746887,247.133240 619.250977,228.220840 620.104187,209.323898 
	C620.294800,205.100525 621.450195,200.920715 622.245422,196.225403 
	C612.807861,192.723373 610.734558,186.505569 613.500610,177.382721 
	C614.894104,172.786850 613.767883,167.462036 614.018494,162.478790 
	C615.267029,137.654907 616.746826,112.841606 617.821106,88.010551 
	C618.263794,77.778450 617.894470,67.511215 617.894470,57.265522 
	C609.339478,54.936577 608.061707,64.258942 601.821777,65.183731 
	C597.028809,59.810555 597.871765,53.077976 598.104126,46.600613 
	C598.615173,32.354084 599.352112,18.115658 599.998413,2.936962 
	C613.375305,2.000000 626.750549,2.000000 641.062927,1.999997 
z"/>
<path fill="#DFDFDF" opacity="1.000000" stroke="none" 
	d="
M4935.980469,2472.012939 
	C4927.472656,2458.159180 4918.668457,2444.477539 4910.512207,2430.419678 
	C4886.891113,2389.703125 4863.579102,2348.807861 4840.054199,2308.035400 
	C4818.143555,2270.061035 4796.123535,2232.149658 4774.137207,2194.218750 
	C4762.140137,2173.520508 4750.059570,2152.870117 4738.145996,2132.124023 
	C4735.834473,2128.099365 4734.122070,2123.730713 4732.022949,2118.817383 
	C4821.983887,2118.071533 4912.054199,2118.029297 5003.062500,2117.993652 
	C5004.000000,2198.041748 5004.000000,2278.083740 5003.299805,2359.149902 
	C5000.506836,2362.555908 4997.967285,2364.676758 4996.397949,2367.364014 
	C4989.737305,2378.770996 4983.477539,2390.411865 4976.862305,2401.846191 
	C4963.306152,2425.276611 4949.615723,2448.628662 4935.980469,2472.012939 
z"/>
<path fill="#DFDFDF" opacity="1.000000" stroke="none" 
	d="
M4740.937500,2816.000000 
	C4742.812012,2810.411621 4745.371094,2804.678223 4748.479980,2799.260498 
	C4762.841797,2774.235107 4777.453125,2749.353516 4791.781250,2724.309814 
	C4801.623047,2707.107178 4810.892578,2689.574951 4820.870117,2672.453613 
	C4834.717773,2648.692139 4849.226562,2625.314697 4862.998047,2601.510254 
	C4872.448730,2585.174316 4880.897461,2568.261230 4890.230469,2551.854248 
	C4896.747559,2540.397217 4904.139648,2529.441650 4910.893555,2518.114502 
	C4919.047363,2504.438965 4926.939941,2490.607422 4935.786133,2477.029297 
	C4937.436035,2478.272949 4938.376953,2479.254639 4939.034180,2480.399170 
	C4957.874023,2513.234619 4976.611328,2546.129883 4995.610840,2578.872803 
	C4997.636230,2582.362549 5001.167480,2584.978516 5004.000000,2588.000000 
	C5004.000000,2663.864502 5004.000000,2739.729248 5004.000000,2816.000000 
	C4916.625488,2816.000000 4829.250000,2816.000000 4740.937500,2816.000000 
z"/>
<path fill="#E7E7E7" opacity="1.000000" stroke="none" 
	d="
M5004.000000,693.062683 
	C4991.361816,693.999939 4978.711426,694.356445 4966.088867,693.914917 
	C4947.928223,693.279602 4929.788086,692.063782 4911.595703,691.093384 
	C4908.619629,687.164673 4910.929199,684.412476 4913.451660,681.538025 
	C4927.428711,665.611877 4941.508789,649.770569 4955.141602,633.553955 
	C4957.713867,630.494263 4959.550781,625.940247 4959.799316,621.955383 
	C4960.913574,604.103455 4961.474609,586.211670 4961.911133,568.326355 
	C4962.038574,563.107422 4963.069824,558.520264 4966.410156,554.463684 
	C4972.086426,547.569153 4977.417969,540.369629 4983.395996,533.750916 
	C4988.946289,527.605530 4992.248535,521.276306 4992.215820,512.516235 
	C4992.152832,495.637573 4993.234863,478.748596 4994.080566,461.875824 
	C4994.376953,455.951202 4995.406250,450.065094 4996.039551,444.154816 
	C4996.477051,440.067719 4998.655762,437.469452 5003.256836,436.101074 
	C5004.000000,521.375122 5004.000000,606.750244 5004.000000,693.062683 
z"/>
<path fill="#E7E7E7" opacity="1.000000" stroke="none" 
	d="
M5004.000000,2587.062744 
	C5001.167480,2584.978516 4997.636230,2582.362549 4995.610840,2578.872803 
	C4976.611328,2546.129883 4957.874023,2513.234619 4939.034180,2480.399170 
	C4938.376953,2479.254639 4937.436035,2478.272949 4936.313477,2476.607910 
	C4936.001465,2475.114014 4936.002930,2474.227783 4935.992188,2472.677246 
	C4949.615723,2448.628662 4963.306152,2425.276611 4976.862305,2401.846191 
	C4983.477539,2390.411865 4989.737305,2378.770996 4996.397949,2367.364014 
	C4997.967285,2364.676758 5000.506836,2362.555908 5003.299805,2360.087402 
	C5004.000000,2435.375244 5004.000000,2510.750244 5004.000000,2587.062744 
z"/>
<path fill="#E7E7E7" opacity="1.000000" stroke="none" 
	d="
M4918.661133,307.345093 
	C4924.462891,317.875427 4929.926270,327.750732 4935.749023,338.276398 
	C4932.142578,344.902557 4928.139648,351.729370 4924.646973,358.807983 
	C4920.107910,368.008392 4916.221680,377.533234 4911.606445,386.692505 
	C4905.790039,398.234497 4899.758789,409.683105 4893.387207,420.926941 
	C4884.873535,435.951813 4875.942383,450.739838 4867.197754,465.634033 
	C4866.355957,467.067627 4865.858398,468.830719 4864.715332,469.941101 
	C4848.160156,486.027344 4840.104980,507.648865 4827.929688,526.570251 
	C4816.253906,544.715454 4805.698730,563.582153 4794.669922,582.143188 
	C4790.768066,588.709473 4786.893555,595.292725 4783.062012,601.900208 
	C4780.962891,605.521118 4781.014648,605.551208 4775.414551,607.366272 
	C4773.062500,602.679993 4773.971191,597.821655 4774.667969,592.987915 
	C4775.091797,590.045471 4776.161133,587.049805 4775.884766,584.179626 
	C4774.973145,574.704773 4777.582031,566.539856 4783.245117,558.964539 
	C4784.911133,556.736267 4785.719238,553.444458 4785.878418,550.582031 
	C4786.762695,534.682007 4787.530762,518.768738 4787.894531,502.849854 
	C4788.031250,496.881836 4789.756836,492.116638 4793.311035,487.277313 
	C4795.873047,483.788147 4797.393555,478.969574 4797.829102,474.589966 
	C4799.008789,462.726440 4799.069824,450.753143 4800.186523,438.880951 
	C4800.641602,434.037018 4803.406738,429.407898 4803.845215,424.565613 
	C4804.950195,412.359863 4805.515625,400.094360 4805.911133,387.840332 
	C4806.076660,382.710144 4806.581543,378.275665 4810.366211,374.133057 
	C4813.606934,370.585297 4816.890137,366.381653 4815.996094,360.788727 
	C4813.418457,344.673401 4821.592773,333.004639 4831.275391,321.439728 
	C4837.980957,313.430878 4845.908691,306.355286 4849.574707,295.696930 
	C4852.092773,288.375824 4851.869629,281.340332 4851.925781,274.118591 
	C4851.993652,265.435333 4851.582520,257.112366 4858.280273,249.792038 
	C4860.626465,247.228073 4859.174805,241.472382 4860.301270,237.407944 
	C4861.017578,234.822586 4862.780762,231.733093 4864.980957,230.539780 
	C4868.241211,228.771149 4871.378906,230.582809 4873.209473,233.983932 
	C4873.365234,234.273117 4873.627930,234.502274 4873.816406,234.776108 
	C4889.825684,258.020905 4904.958984,281.807617 4918.661133,307.345093 
z"/>
<path fill="#DFDFDF" opacity="1.000000" stroke="none" 
	d="
M338.546631,1197.620972 
	C336.682861,1195.505615 334.393951,1193.051758 334.177612,1190.427124 
	C333.142975,1177.874390 332.302643,1165.280396 332.122162,1152.690674 
	C331.994293,1143.770020 333.484070,1134.828003 333.392395,1125.904297 
	C333.325043,1119.347778 333.088776,1112.328979 330.762909,1106.359863 
	C326.414764,1095.200562 328.214111,1084.115234 328.698059,1072.911865 
	C329.113068,1063.303955 329.592896,1053.697754 329.864868,1044.085815 
	C329.909454,1042.510254 329.414368,1040.636475 328.514740,1039.362183 
	C321.467590,1029.380005 323.953613,1018.485352 325.052887,1007.632202 
	C325.687347,1001.368652 325.639954,995.038696 326.012573,988.745361 
	C326.560486,979.491638 327.496399,970.248779 327.650421,960.991028 
	C327.700195,958.000061 326.717041,953.728210 324.629883,952.210999 
	C319.167999,948.240540 319.811584,943.310425 320.365021,937.948425 
	C321.009918,931.700439 321.543427,925.438049 321.969940,919.171326 
	C322.293640,914.415283 322.039948,910.135254 317.073578,907.041504 
	C315.209106,905.880005 314.265564,901.916931 314.319580,899.260010 
	C314.453674,892.666260 315.515747,886.096924 315.977142,879.501831 
	C316.188477,876.480774 316.931885,874.278931 321.205872,874.026245 
	C330.482788,888.233948 339.036346,902.430054 347.371460,916.753296 
	C360.897186,939.996216 374.261230,963.333252 387.728577,986.610229 
	C398.703125,1005.578735 409.707001,1024.530273 420.747803,1043.460205 
	C423.407806,1048.020874 424.091980,1051.716309 420.876740,1057.050659 
	C406.996155,1080.080078 393.934479,1103.602173 380.512878,1126.909302 
	C368.262238,1148.183350 355.949402,1169.421509 343.611206,1190.644775 
	C342.279449,1192.935669 340.596527,1195.022339 338.546631,1197.620972 
z"/>
<path fill="#CFCFCF" opacity="1.000000" stroke="none" 
	d="
M780.541565,431.604675 
	C775.298096,432.365295 773.100769,430.103577 771.445068,425.626068 
	C767.461182,414.852112 766.829224,403.591217 766.139038,392.439209 
	C764.931152,372.922058 765.832825,353.206909 763.538025,333.848846 
	C762.071167,321.475647 764.308472,308.461609 758.595459,296.605743 
	C757.919312,295.202759 757.661865,293.184967 758.105286,291.723755 
	C760.603699,283.490479 757.329651,275.351807 757.949707,267.170197 
	C758.073792,265.532745 758.223022,263.635040 757.557739,262.240326 
	C750.432068,247.302505 755.340881,231.493286 754.271240,216.135071 
	C754.141602,214.273087 756.982300,212.204224 759.227539,210.104126 
	C766.998169,221.968704 773.989685,233.959167 780.976624,245.952286 
	C791.142883,263.402710 801.302551,280.857056 811.471497,298.305908 
	C818.641052,310.608032 825.821411,322.903809 833.549927,335.606873 
	C834.077759,337.508392 834.052612,339.005402 834.016235,341.251221 
	C830.027832,347.982849 825.781067,353.805939 822.124512,359.978638 
	C811.347778,378.171448 800.780457,396.488556 790.185730,414.788635 
	C787.054504,420.197021 784.104126,425.710083 780.541565,431.604675 
z"/>
<path fill="#DFDFDF" opacity="1.000000" stroke="none" 
	d="
M4023.351562,1921.315552 
	C4003.228271,1955.803223 3983.561279,1989.708740 3963.600586,2023.440430 
	C3956.028320,2036.236572 3947.721924,2048.596436 3939.865234,2061.226562 
	C3936.357422,2066.865479 3933.235596,2072.743896 3929.734619,2078.387207 
	C3928.226562,2080.818359 3926.201172,2082.928467 3923.464600,2086.376709 
	C3921.508545,2077.827637 3920.512207,2070.719238 3924.114990,2064.030518 
	C3927.244873,2058.219482 3927.999756,2052.268799 3928.128906,2045.810547 
	C3928.341064,2035.220581 3928.908447,2024.584839 3930.304688,2014.098633 
	C3930.826660,2010.176758 3933.528564,2006.136353 3936.231934,2003.010742 
	C3940.177979,1998.447876 3941.996826,1993.679077 3942.127197,1987.651611 
	C3942.298828,1979.726685 3943.216797,1971.801392 3944.178711,1963.920776 
	C3944.442139,1961.762329 3945.643311,1959.466797 3947.039551,1957.739868 
	C3954.634033,1948.347778 3955.492188,1937.146240 3955.982666,1925.820312 
	C3956.097900,1923.160156 3956.184326,1920.475098 3955.959229,1917.828979 
	C3955.561523,1913.150269 3957.132812,1909.522583 3960.600830,1906.321533 
	C3969.142822,1898.437378 3973.633545,1888.913574 3972.072754,1876.945435 
	C3971.602783,1873.342041 3972.123291,1869.620605 3971.970459,1865.962280 
	C3971.756592,1860.832886 3972.624756,1856.479004 3976.301270,1852.241333 
	C3982.986816,1844.534790 3982.602783,1834.360596 3983.912354,1824.915405 
	C3984.411133,1821.319702 3984.145996,1817.590088 3983.964844,1813.934570 
	C3983.703613,1808.661987 3985.416016,1804.297607 3988.693848,1800.152466 
	C3990.892090,1797.372559 3993.737549,1793.786011 3993.586670,1790.692627 
	C3992.893799,1776.496582 3998.839355,1763.443359 3999.777344,1749.649048 
	C4000.217773,1743.171753 4002.997070,1738.608643 4006.938721,1733.786743 
	C4013.836670,1725.348389 4020.404541,1716.532837 4026.066162,1707.239136 
	C4028.656006,1702.987793 4028.934570,1697.258301 4029.933838,1692.135620 
	C4030.500488,1689.229248 4029.613281,1685.846313 4030.742188,1683.276001 
	C4035.825684,1671.703979 4038.568359,1659.513550 4040.493164,1647.127563 
	C4045.782227,1645.747925 4048.611816,1647.892822 4050.819824,1651.704712 
	C4062.807861,1672.400269 4074.865723,1693.055298 4086.861328,1713.746460 
	C4095.026855,1727.831177 4102.889648,1742.099365 4111.402344,1755.969604 
	C4114.054688,1760.291748 4114.433105,1763.859131 4112.000977,1767.965698 
	C4108.106934,1774.538086 4104.041992,1781.010986 4100.239746,1787.635254 
	C4081.549805,1820.195068 4062.947998,1852.805420 4044.260498,1885.366455 
	C4037.481934,1897.177124 4030.552002,1908.900757 4023.351562,1921.315552 
z"/>
<path fill="#EEEEEE" opacity="1.000000" stroke="none" 
	d="
M3966.000488,1412.000000 
	C4008.596191,1412.000000 4050.192871,1411.841431 4091.787109,1412.113281 
	C4101.979980,1412.179932 4112.163086,1413.654053 4123.751465,1414.594849 
	C4123.751465,1424.459839 4124.952148,1434.181274 4123.287109,1443.383911 
	C4122.337402,1448.629883 4116.956543,1453.235962 4113.144043,1457.771240 
	C4101.854004,1471.203003 4090.369385,1484.472046 4078.924316,1497.773071 
	C4073.736816,1503.801880 4068.435303,1509.732300 4063.232178,1515.747925 
	C4050.666260,1530.275879 4038.187256,1544.879639 4025.537109,1559.334229 
	C4022.286621,1563.048218 4018.532471,1566.321411 4014.153320,1570.641846 
	C4011.775879,1568.046387 4009.425049,1566.238647 4008.052490,1563.865234 
	C3992.104004,1536.289429 3976.420898,1508.559937 3960.424316,1481.012573 
	C3949.097412,1461.506714 3937.369385,1442.233765 3925.894531,1422.813232 
	C3923.803223,1419.274048 3922.067871,1415.524536 3920.234863,1412.000000 
	C3935.912598,1412.000000 3950.456543,1412.000000 3966.000488,1412.000000 
z"/>
</svg>