<?xml version="1.0" encoding="UTF-8"?>
<svg version="1.1" viewBox="0 0 2048 2048" width="1280" height="1280" xmlns="http://www.w3.org/2000/svg">
<path transform="translate(447,427)" d="m0 0h42l36 4 43 8 23 7 19 8 16 8 14 9 12 9 12 11 12 12 11 15 8 14 7 17 5 19 2 13 1 18v151l2 9 10 16 7 10 5 12 1 4v30l-4 11-9 14-13 15-7 5-10 3-18 3-2 3-2 17-8 21-12 29-13 22-10 14-9 11-9 9-8 7-12 11-3 6-6 36 3 3 17 2 85 1 26 1 26 3 20 5 21 8 24 13 18 13 13 12 9 9 11 14 10 12 8 11 10 14 16 23 13 19 8 11 9 13 9 15 2 1-4-11-1-8-1-34v-76l1-455 3-14 8-18 9-10 8-7 15-9 9-3h25l62 2 57 1 194 1h440l52 1 16 3 10 4 10 9 7 8 8 16 1 5 1 15 1 421 1 113 1 71 36 1 18 2 7 3v9l-6 19-5 13-7 14-8 10-12 14-10 8-12 5-14 3-11 1-162 1-566 1 733 1 46 3 16 2 11 4 10 6 7 7 6 10 3 10v17l-4 11-6 8-9 8-10 5-10 3-19 3-5 1-1 33-1 68v177l-2 3-5 1-48 1h-33l-6-7-1-10-1-105v-162h-566l-94 1-84 2-32 1 1 275-3 3-3 1-44 1h-39l-4-2-2-4-1-8-1-41v-33l1-80 1-110-13-1-18-4-14-7-12-11-8-11-4-10v-21l1-8-3-11-8-16-14-20-10-15-10-14-6-5-1 4 1 26v397l-2 3-3 1h-366l-263 2-50 2h-18l-4-5-1-3-1-50v-334l1-128 2-35 3-17 7-17 9-20 12-18 8-11 8-9 7-8 11-11 16-12 21-13 17-8 24-9 14-3 16-1h35l34 1h14l9-1 4-3 2-7v-20l-2-11-4-6-9-8-8-7-12-11-9-10-15-20-10-18-8-17-8-31-6-16-4-4-23-8-12-8-6-5-9-13-6-15-4-15v-13l4-13 8-16 9-16 2-6 1-8 1-162 2-30 3-15 6-12 10-13 7-8 8-7 7-6 18-11 9-3 10-2 19 1 12 1 8-6 7-10 7-8 8-8 16-9 15-6 21-5z" fill="#E04264"/>
<path transform="translate(1140,703)" d="m0 0h484l121 1 26 1 13 2 5 2 2 3 1 7 1 28 1 314v98l-1 46-2 10-4 4-10 1-2 1-14 1h-190l-215 1-22 1-2 11-3 14-6 18-11 20-10 12-6 7-16 12v4l5 6 8 7 10 8 15 6 16 3 24 1h103l23-2 15-6 13-7 6-7 7-14 5-14 4-5 2-1h212l125-1 34 1 18 2 7 3v9l-6 19-5 13-7 14-8 10-12 14-10 8-12 5-14 3-11 1-162 1h-565l5-5 20-15 17-12 22-14 19-11 4-1 2-5-5-2-10-5-11-6-16-11-8-7-5-6-6-5-9-11-6-8-6-10-7-15-3-11-2-10-1-14h-4l-9 6-16 8h-26l-17-3-13-4-12-7-6-7-1-6-1-17-1-57v-342l1-35 2-30 1-7 8-8 6-1 16-1z" fill="#D6D3FC"/>
<path transform="translate(447,427)" d="m0 0h42l36 4 43 8 23 7 19 8 16 8 14 9 12 9 12 11 12 12 11 15 8 14 7 17 5 19 2 13 1 18v151l2 9 10 16 7 10 5 12 1 4v30l-4 11-9 14-13 15-7 5-10 3-18 3-2 3-2 17-8 21-12 29-13 22-10 14-9 11-9 9-8 7-12 11-3 6-6 36 3 3 5 1-10 26-5 15-7 16-7 13-11 13-9 9-15 9-16 7-13 3-18 2h-14l-10-2-16-3-13-5-14-7-5-3-5-5-5-4-9-12-9-17-8-21-4-22h2l-1-5 6-7v-4h-2v-8l-2-5-2-20-4-8-10-9-8-7-12-11-9-10-15-20-10-18-8-17-8-31-6-16-4-4-23-8-12-8-6-5-9-13-6-15-4-15v-13l4-13 8-16 9-16 2-6 1-8 1-162 2-30 3-15 6-12 10-13 7-8 8-7 7-6 18-11 9-3 10-2 19 1 12 1 8-6 7-10 7-8 8-8 16-9 15-6 21-5z" fill="#F9AA90"/>
<path transform="translate(985,626)" d="m0 0h25l62 2 57 1 194 1h440l52 1 16 3 10 4 10 9 7 8 8 16 1 5 1 15 1 421 1 113v71l-6 1-137 1h-191l-5 5-8 21-7 11-7 6-17 8-8 3-23 2h-103l-24-1-16-3-15-6-10-8-9-8-5-6-1-4 15-11 7-6 7-9 6-8 9-17 6-18 3-14 2-11 1-1 22-1 217-1h190l12-1 2-1 10-1 3-3 2-10 1-46v-131l-1-281-1-28-1-7-1-3-10-2-8-1-26-1-128-1h-477l-98 1-16 1-7 2-6 6-2 20-1 17-1 35v342l1 57 1 17 2 8 7 6 11 6 14 4 14 2h26l8-4 5-2-5 5-6 3-2 4-9 7-8 7-7 3-13 10-11 7-21 14-16 9-10 6-24 1-5 2-2 5-4-2-11-24-6-13-4-12-1-2-1-34v-76l1-455 3-14 8-18 9-10 8-7 15-9z" fill="#585B8C"/>
<path transform="translate(1114,1400)" d="m0 0 738 1 46 3 16 2 11 4 10 6 7 7 6 10 3 10v17l-4 11-6 8-9 8-10 5-10 3-19 3-5 1-1 33-1 68v177l-2 3-5 1-48 1h-33l-6-7-1-10-1-105v-162h-566l-94 1-84 2-32 1 1 275-3 3-3 1-44 1h-39l-4-2-2-4-1-8-1-41v-33l1-80 1-110 13-1h12l38-3 14-4 5-4 7-4 10-10 5-2 2-4h3l2-4 10-8 10-9 3-1v-2l10-8 9-8 15-11 13-9 10-7 1-2 3-1z" fill="#C17753"/>
<path transform="translate(791,262)" d="m0 0h24l43 2 39 1h183l45 1 17 1 14 3 8 6 6 9 3 14 1 9 1 55v125l-1 38-4 10-10 13-7 7-8 3-25 1-78 1-141 1-7 3-9 10-8 7-7 7-8 7-10 8-10 4h-6l-4-5-1-2v-13l2-13-1-15-7 1h-29l-18-3-6-4-7-9-6-8-4-11-1-5v-174l1-47 3-9 7-11 10-10z" fill="#48C875"/>
<path transform="translate(1280,981)" d="m0 0h6l11 9 11 11 11 9 10 7 6 3 10 2 16 1 9 3 4 4 2 10v20l-6 19-1 6v13l2 12 5 11 1 3v15l-4 13-8 6-12 3-21 4-10 3v8l4 14 7 32-1 13-3 14-6 18-11 20-10 12-6 7-16 12v4l5 6 8 7 10 8 15 6 16 3 24 1h103l23-2 15-6 13-7 6-7 7-14 5-14 4-5 2-1h212l125-1 34 1 18 2 7 3v9l-6 19-5 13-7 14-8 10-12 14-10 8-12 5-14 3-11 1-162 1h-565l5-5 20-15 17-12 22-14 19-11 4-1 2-5-5-2-10-5-11-6-16-11-8-7-5-6-6-5-9-11-6-8-6-10-7-15-3-11-2-10-1-14-3-2 6-5 8-13 15-28 10-14 11-12 9-9 10-8 5-3 5-8 2-5v-16l-3-17-6-18-1-4v-14l4-6 8-7 12-3 13-1 11-4 9-6 16-15 11-10 7-4z" fill="#F9AA90"/>
<path transform="translate(447,427)" d="m0 0h42l36 4 43 8 23 7 19 8 16 8 14 9 12 9 12 11 12 12 11 15 8 14 7 17 5 19 2 13 1 18v157l-9-2-13-4-12-4-3-3-2-16-2-35-3-13-2-5-11-3-9-2-22-2-127-2-33-1-25-4-16-5-18-8-22-14-15-11-13-9-6-3h-5l-3 6-3 1-1 3-3-1v2l-10 3h-2v2l-6 3-6 6h-2v2h-2v2h-2v2h-2v2h-2v3h-2l-2 5-4 11-2 10-3 17-2 28h-2l1 9 1 2-3 11-3 12-19 4-18 4-5 1 1-12 1-162 2-30 3-15 6-12 10-13 7-8 8-7 7-6 18-11 9-3 10-2 19 1 12 1 8-6 7-10 7-8 8-8 16-9 15-6 21-5z" fill="#A5624F"/>
<path transform="translate(1465,738)" d="m0 0h8l17 4 11 8 12 12 11 9 15 10 15 8 22 9 5 1 2-6 5 1 16 14 5 5 9 11 6 10v10l-6 10-6 8-5 8-2 10-1 9v12l1 21 3 9 11 8 5 7 1 8-4 11-7 10-9 10-11 9-5 3-6-1-1-1h-7l-15 5-15 8-18 12-17 16-6 9-10 5-11 4h-27l-9-6-11-15-4-6-11-10-14-8-15-8-9-3h-10l-9 7-4 1-5-4-7-8-5-7-4-11-7-10-7-12v-5l11-13 4-6 2-7 1-9v-28l-2-18-3-8-10-10-3-5v-8l8-16 11-15 9-9 9-4 4-1h7l2 1h10l21-9 14-8 10-8 10-10 9-13 6-4z" fill="#56BAFC"/>
<path transform="translate(342,609)" d="m0 0 7 1 12 7 9 7 17 12 18 11 21 9 16 4 20 3 33 1 127 2 29 3 13 5 4 8 2 10 2 39 2 12 5 3 17 6 14 4 10 16 9 13 5 12 1 4v30l-4 11-9 14-13 15-7 5-10 3-18 3-3 1-1-22v-44l-1-5-1-15v-26l-2-19-1-2v-8l-2-14v-28l-3-18-5-5-16-3-37-2h-21l-4-1h-49l-6-1h-23l-10-1h-9l-19-2-28-6-19-7-22-11v-2l-5-2-7-4v-2l-5-2-15-11-9-5-7-1-5 13-2 21-1 4v18l-1 25v19l1 12v26l1 2-1 19v79l2 21v7l2 10 1 10 2 9 1 9 4 16 2 5v4h2l2 8 4 11v4h2l4 9 7 10 2 1 3 5 4 5 7 8v2l4 2 14 11v2l6 2 9 5 2 1v2l4 2 10 4 12 5 6 2v2l5 1 9 4 12 4 15 2h12l8-2 12-2 24-8 5-1v-2l9-3 10-4h8v15l-3 18 3 3 5 1-10 26-5 15-7 16-7 13-11 13-9 9-15 9-16 7-13 3-18 2h-14l-10-2-16-3-13-5-14-7-5-3-5-5-5-4-9-12-9-17-8-21-4-22h2l-1-5 6-7v-4h-2v-8l-2-5-2-20-4-8-10-9-8-7-12-11-9-10-15-20-10-18-8-17-8-31-6-16-4-4-23-8-12-8-6-5-9-13-6-15-4-15v-13l4-13 8-16 9-16 2-3 15-3 9-2 12-3h6l2-12 3-12-1-4v-6h2v-13l1-15 3-17 3-13 4-10 2-3h2v-3h2v-2h2v-2h2v-2h2v-2l8-7 3-2h3v-2l12-3v-2h3l5-6z" fill="#F18E80"/>
<path transform="translate(1864,1296)" d="m0 0 43 1 18 2 7 3v9l-6 19-5 13-7 14-8 10-12 14-10 8-12 5-14 3-11 1-162 1h-565l5-5 20-15 17-12 22-14 19-11 22-11 20-6 24-5h8l7 6 12 12 7 5 15 6 16 3 24 1h103l23-2 15-6 13-7 6-7 7-14 5-14 4-5 2-1h212z" fill="#D6D3FC"/>
<path transform="translate(1791,1217)" d="m0 0h3l2 3 6 1h67l1 4v71l-6 1-137 1h-191l-5 5-8 21-7 11-7 6-17 8-8 3-23 2h-103l-24-1-16-3-15-6-10-8-9-8-5-6-1-4 15-11 7-6 7-9 6-8 9-17 6-18 3-14 2-11 1-1 22-1 217-1h190l12-1 2-1 13-1z" fill="#35344E"/>
<path transform="translate(985,626)" d="m0 0h25l35 1 11 2v1l-10 2-7 1v2h-2l-1 3h-2l-1 4-8 10h-2v2l-2 1-3 9-5 30-1 11h6l-2 4-4 4-2 10-2 32-1 55v328l1 41 2 27 3 6 8 7 14 7 10 3 18 2 18 1-3 5-12 11-14 10-39 26-20 11-3 2-24 1-5 2-2 5-4-2-11-24-6-13-4-12-1-2-1-34v-76l1-455 3-14 8-18 9-10 8-7 15-9z" fill="#35344E"/>
<path transform="translate(1140,703)" d="m0 0h484l121 1 26 1 13 2 2 2-13-1h-229l-60-1-77 1-36 1-161 1h-129l-5 2-1 1-2 13-1 17v138l1 14v49l1 37v41l1 21 1 51v12l1 18v10l2 16v7l2 6 1 16 1 11 1 9 3 11 3 3 6 2 1 3 5 1-1 2-16 8h-26l-17-3-13-4-12-7-6-7-1-6-1-17-1-57v-342l1-35 2-30 1-7 8-8 6-1 16-1z" fill="#C2BFF5"/>
<path transform="translate(1054,1448)" d="m0 0h2l-1 3-4 4h-2l-2 4-11 11-2 7 1 5-1 2h2v2l-6 5-6 4-3 4v2l-7 1 1 275-3 3-3 1-44 1h-39l-4-2-2-4-1-8-1-41v-33l1-80 1-110 13-1h12l38-3 14-4 5-4 7-4 10-10 5-2 2-4h3l2-4 10-8 10-9 3-1z" fill="#A5624F"/>
<path transform="translate(1791,1504)" d="m0 0h40l38 1 18-1v28l-1 68v177l-2 3-5 1-48 1h-33l-6-7-1-10-1-105v-101z" fill="#C17753"/>
<path transform="translate(1462,817)" d="m0 0h22l14 3 13 5 11 6 10 8 7 8 8 16 4 16 1 20-2 13-5 16-6 11-8 10-9 9-20 12-15 5-5 1h-12l-16-5-17-7-11-7-5-4-9-12-4-8-6-18-3-17v-13l2-11 7-16 9-14 14-14 11-7 14-5z" fill="#F1EEFA"/>
<path transform="translate(321,482)" d="m0 0h2v3l2 1v2l-5 1v2l-6 3-4-1 1 5h-3l-2 1v2l-14 7 1 4-1 4h-2l-1 1 2 2-3 3-4-1-1 5-2 2 2 1v-2h3l-2 4-1 5h-3l-1 4-6 1-3 7-3 2h-8l1 4 5 5-1 5-6 1-3-5v-1 6l2 3-7 2 1 5 1 3 4-1-1-3 5-2 4-6h5l1-5 3-6 6 1 1-1 1-7 5-3 1 7h2l2 3 4-3-4 1v-2l-3-1h2l-1-5 1-2h3l1-2 11-3 4-2 3 6 2-4 2-2 2 1-3-6-3-3 1-5 6 2v-5l5-2 1-3h3 2l1-3 2 1v7l1 10 2 7v3l-1 12 1 7 1 23 1 9 3 10v6l-3 5-9 5-9 3v2l-9 7-10 9-8 12-6 17-5 18-1 17-2 12-2 24-2 11-6 2-13 2v2l-16 4-5 1 1-12 1-162 2-30 3-15 6-12 10-13 7-8 8-7 7-6 14-9 8-1 10 1 4-3 2 2 2 1z" fill="#97625E"/>
<path transform="translate(791,262)" d="m0 0h24l3 2-5 1v2l-2 2-3 16-1 14-1 11v34l1 21 1 22 1 27 1 55 2 66 1 25-17 1-18-3-6-4-7-9-6-8-4-11-1-5v-174l1-47 3-9 7-11 10-10z" fill="#19A694"/>
<path transform="translate(582,1047)" d="m0 0 1 3-3 18 3 3 5 1-10 26-5 15-6 14-4 4-5 9-11 14-8 8-10 6-8 5-13 5-1 1-25 3-14 1-8-1-18-6-2-6-4-8-3-7-3-6-3-3-2-7-3-9-1-15 3-9 5-6 4-4 16-8 8-2 13-2h8l1-1 17-2 9-1 12-3 3-1h8l11-3 4-2 11-3 5-4 6-1v-2h3l1-2 5-1 2-4h2l2-5z" fill="#F9AA90"/>
<path transform="translate(1280,981)" d="m0 0h6l11 9 8 8 3 5 11 9 11 8 4 2 12 2 14 1 9 3 3 5 2 9v18l-4 11-2 3-2 12-1 8 4 18 4 9 1 4v16l-3 10-7 5-7 2h-8l-1-3-5-3-9-1-4-2-7-9-7-4 6-7 3-3 4-7 4-15 1-10v-20l-4-12-8-11-5-5-8-6-17-7h-9l-11 2-5 1v2l-13 4-9 6-8 8-6 7-4 9-2 10v16l2 11-2 1-15 2-7 3-9 1-1-5 3-7-2-13-4-18-5-13v-3h-2l-1-4v-14l4-6 8-7 12-3 13-1 11-4 9-6 16-15 11-10 7-4z" fill="#FEC044"/>
<path transform="translate(1156,1149)" d="m0 0 2 4-2 7-2 5-1 5-1 1 1 4h3v2h2v3h2l4 9-2 12h2v8l1 7 2 3v7l6 16 4 9 2 7 5 8 3 3 3 5 6 4 9 7 7 5 3 1 1 2 11 3 2 3 6 2 5 5v2l6 2 6 4 10 2v2l6 1-4 3-26 6-15 5-14 7-2-1 2-3-5-2-10-5-11-6-16-11-8-7-5-6-6-5-9-11-6-8-6-10-7-15-3-11-2-10-1-14-3-2 6-5 8-13 15-28 10-14z" fill="#F18E80"/>
<path transform="translate(1282,1034)" d="m0 0h12l17 8 10 9 7 9 4 11 1 4v19l-3 18-4 10-6 8-8 5-9 3h-13l-18-3-25-10-10-7-7-8-4-9-1-5v-13l3-13 6-11 9-10 7-6 12-5z" fill="#D9D6FC"/>
<path transform="translate(944,336)" d="m0 0h35l45 1 40 2 4 2 1 4-1 15-6 3-35 2h-9v23l-2 110-4 5-6 2h-14l-5-2-1-1v-7l1-4 1-21 1-56v-49l-27-2-17-1-5-2-1-1v-20l1-2z" fill="#D4D2FC"/>
<path transform="translate(1468,848)" d="m0 0h10l12 4 8 4 7 6 7 11 5 13 1 4v11l-2 12-9 16-9 8-9 5-7 3h-9l-13-5-8-6-11-9-6-7-8-13v-15l7-12 7-11 9-9 11-7z" fill="#56BAFC"/>
<path transform="translate(685,754)" d="m0 0 13 2 14 3 10 16 7 10 5 12 1 4v30l-4 11-9 14-13 15-7 5-10 3-11 1v-16l-1-20v-76l1-5v-6h3z" fill="#F9AB91"/>
<path transform="translate(1584,1387)" d="m0 0h2v2h6v-2h7v2l14-1 10 1v-2h38l16 1h32l18 2 1-3h13l27 1 31 2 3 1h25l23 1-3 2 5 1v2l-5 1h-538l4-2 6-2v2l5-2h7v3l3-2v-1h8l2-1 31-1 12-2 1 1h61v-2h2v2l5-2h37l9 2v-2l42 1 19-1h6l2-1z" fill="#C3C0F5"/>
<path transform="translate(1789,711)" d="m0 0 2 1 1 7 1 28 1 314v98l-1 46-2 10-4 4-10 1-2 1-14 1h-190l-215 1-23 1-1-6 1-6 11 3h12l18-1h109l75 1h54l96 1h33l33 1 12-1 1-7 2-32 2-94v-318l-1-40z" fill="#C0BFF5"/>
<path transform="translate(890,340)" d="m0 0h15l4 3 1 4 1 25 1 125-3 5h-12l-8-2-2-2v-18l2-132z" fill="#FDFDFD"/>
<path transform="translate(1325,1285)" d="m0 0 3 3 2 8h5l3 3v6l2 1v9l-1 2h-2l6 17v2h6l-1 7h-2v2l28-1h35l20 3 4 1 13 1h43l-2 2-10 2-16 1h-103l-24-1-16-3-15-6-10-8-9-8-5-6-1-4 15-11h3l-6 6 12-7 1-1 4-1 5-5 7-8h2v-3z" fill="#3A3C5D"/>
<path transform="translate(344,613)" d="m0 0 7 1 3 3-4 1-6-1-3 11-1 7v23l-1 14v19l-1 10 1 23-1 4 1 14 1 11 2 7 1 1v14h-2v10l-1 8v28l1 1v29l1 21 1 3 1 16 3 19 2 10v3l2 1 2 9 4 9 5 13 3 5 2 5 2 4 3 3 5 6 3 5v2h2l3 4v2l4 2 9 11 9 7v2l4 2 16 9 10 6 10 4 17 7 18 4 17 2h24l6-3 8-2 5-2h3l1-3 13-4 7-3 9-2 9 2 1 1-1 15h-1l-1-10h-7l-10 4-9 2v2l-20 7-13 4-14 2-2 1h-12l-19-3-16-6-6-3v-2l-8-2-13-5-8-4-3-2v-2l-6-2-9-5-2-1v-2l-4-2-14-11-8-10-6-7v-3l-3-1-8-11-2-5v-3h-2l-3-9-3-8v-6h-2l-5-17-3-14-1-10-2-9-1-8-1-6-1-18-1-10v-86l1-12-1-1v-27l-1-19v-21l1-25v-11l1-1 1-14 2-11z" fill="#F69F8C"/>
<path transform="translate(1462,817)" d="m0 0h22l14 3 13 5 11 6 10 8 7 8 8 16 4 16 1 20-2 13-2 4-1-11 2-9-2-26-6-10-7-5-2 4-6 4-4 2h-2l-1 11v12l2 6v11l-1 1-2 10-9 15-8 8-12 6-3 1h-13v-1l12-2 10-5 10-8 8-13 3-8 1-8v-11l-5-15-6-10-5-6-9-5-10-4-4-1h-10l-14 7-12 11-10 16-4 7v15l10 16 11 10h-3l-10-8v-3h-2l-2-6h-2v-2h-2l-4-8-1-5 3-13 12-17 7-8 9-8 17-10h3l-3-4v-2l-8-2-7 1-6-3v-4l-10 2-12 5-4 2 6-7 10-7 13-5z" fill="#D6D3FC"/>
<path transform="translate(1271,1062)" d="m0 0h14l11 4 8 6 5 10 2 9v8l-5 12-8 7-8 4-8 3-10-1-13-5-8-6-4-8-1-6v-9l2-10 3-6 8-7 8-4z" fill="#FEC046"/>
<path transform="translate(1117,1400)" d="m0 0 735 1 12 1-3 2-14 1-305 1h-214l-210-1z" fill="#BFBCF1"/>
<path transform="translate(996,367)" d="m0 0 3 2 6 17v2h2v-9l4-8 3-2 2 2v58l-1 21-1 48-4 4-5 2h-9l-5-3-1-1v-13l1-8 2-1 1-36 1-17-1-5-1-7-1-1v-44z" fill="#F0EDFA"/>
<path transform="translate(1864,1296)" d="m0 0 43 1 9 1-2 2-4 2-9 1-5 1-11 2-30 3h-19l-4-1-6 1-24-2h-14l-8-1-14-1h-90l-31-1v-1l23-1h-133l-4 2-1 9-3 7h-2l-1 2 1-5 5-14 4-5 2-1h212z" fill="#C3C0F5"/>
<path transform="translate(442,933)" d="m0 0h79l4 3 1 4-1 3h-2l-1 4-13 13-4 1v2l-5 1-1 2-6 2-10 3h-9l-13-4-7-2-9-5v-2l-4-2-7-6-9-9v-3h2l1-3z" fill="#F18E80"/>
<path transform="translate(427,659)" d="m0 0 10 2 31 6 21 1 17 1h18l7 1h47l5 1h25l31 2 16 3 5 4 3 12 1 15v21l2 18v5l1 1 2 20v26l1 18 1 2v52l1 15-2 7-3-3-2-13v-17l-1-28-1-23-2-16v-32l-1-18-2-7-1-36-3-12-4-5-13-3h-8l-16-2-14-1h-47l-26-1h-16l-3-1h-27l-5-2-3 1-9-2-13-2v-2h-8v-2h-3v-2l-7-1-5-2z" fill="#F79F8C"/>
<path transform="translate(1791,1504)" d="m0 0h40l38 1 18-1v28l-1 43-2 1v-62h-2l-1 2-3 4-4 6-6 3-7 1-5-2v2l-7 2h-11l-5-2-10-1-1-1-13-1-11-3h-7z" fill="#A5624F"/>
<path transform="translate(1168,1136)" d="m0 0 5 5 1 11-3 8v5l-1 3-1 16-1 21 2 12 1 1 1 11 3 4 2 10 9 15 3 2 3 5 7 8 16 12 9 4 11 7 7 3 9 3 7 6 18 5 5 4-2 4h-14l-3-3v-2h-7l-8-4-7-4-5-5v-2l-6-1-2-4-7-1-5-2v-2l-5-1-11-9-10-7-3-5v-2l-3-1-6-9-1-6-5-12-5-13v-7l-2-4-1-11 1-3h-2l1-12-3-9h-2v-3h-2l-2-2-2 1-1-6h2v-7l3-4 1-12 4-2 2-4z" fill="#F69E8B"/>
<path transform="translate(1777,1219)" d="m0 0h10v1l-10 2-1 2-20 1-161 1-65 1h-85l-27 1h-80l-4 1-1 5h-1v-7l2-4 22-1 217-1h190l12-1z" fill="#585B8B"/>
<path transform="translate(1140,703)" d="m0 0h484l121 1 26 1 13 2 2 2-13-1-5-1-94-1h-293l-225 1h-108l-26 1-5 2 3-4 6-1 16-1z" fill="#9699CA"/>
<path transform="translate(1013,713)" d="m0 0 1 2-2 21-1 23v190l1 64 1 192 1 4 6 2 14 7 19 3 11 2 13 1 10-1 6-3 5 1-5 4-8 4h-26l-17-3-13-4-12-7-6-7-1-6-1-17-1-57v-342l1-35 2-30 1-7z" fill="#9699CA"/>
<path transform="translate(582,1047)" d="m0 0 1 3-2 10-4 1v2l-11 4-12 6-8 3-14 3-8 2-16 2-14 4-22 2-19 3-16 8h-2l-2 5-4 8-2 6 2 12 3 7v4l4 2v2h2v2h2v3h2v3h2l4 6v2l4 1 5 4 11 2 11 7 12 2 13-1 7-2 2 1-6 3-25 3-14 1-8-1-18-6-2-6-4-8-3-7-3-6-3-3-2-7-3-9-1-15 3-9 5-6 4-4 16-8 8-2 13-2h8l1-1 17-2 9-1 12-3 3-1h8l11-3 4-2 11-3 5-4 6-1v-2h3l1-2 5-1 2-4h2l2-5z" fill="#F79F8C"/>
<path transform="translate(1114,1400)" d="m0 0 4 1v3l212 1h212l305-1 14-1h21v1l-26 2-76 1-255 1-377 1h-40l1-3 3-3 3-1z" fill="#F18E80"/>
<path transform="translate(564,740)" d="m0 0h10l13 5 10 8 5 6v7l-5 4-9 1-38-2-9 1-7-3-1-1v-5l7-8 13-9z" fill="#3E3E5E"/>
<path transform="translate(1332,1218)" d="m0 0h244l201 1-2 2-14 1h-190l-215 1-23 1z" fill="#9599CA"/>
<path transform="translate(1756,1224)" d="m0 0h20l-4 3-8 1-17 1-1 1-18-2h-96l-65 2h-169l-25 2-1 1h-15l-13 4-1 1h-7v-2l-2 1-6 21-4 9-1-3 7-22 1-7 3-6 4-2h90l23-1h94l53-1z" fill="#3B3D5E"/>
<path transform="translate(370,741)" d="m0 0h14l13 3 11 8 6 7 1 7-5 2-6 1h-30l-16-1-7-2-4-3v-5l6-8 10-6z" fill="#3E3F60"/>
<path transform="translate(490,927)" d="m0 0 11 1h16l11 4 2 3-1 10-4 9-8 7h-2l-1 3-6 4-3 3-21 6-13-1-1-1-12-2-8-4-7-4-2-1v-2l-4-2-8-8-7-5-5-10 2-4 6-2 14-2h16l2-1 21 1zm-48 6-14 2-1 3h-2l1 4 7 6 10 10h2v2l9 5 9 3 13 3h7l10-3 6-2 1-2 5-1v-2l5-2 13-13v-3l2-1 1-3-3-5-7-1z" fill="#F79F8C"/>
<path transform="translate(1273,1320)" d="m0 0 6 1 6 7 8 7 10 8 15 6 16 3 24 1h103l23-2 8-3h3v2l-12 7-17 3-31 1-60-1-41-2-15-3-8-4-15-8-4-3v-2l-5-2-5-4-6-7-4-2z" fill="#C2BFF4"/>
<path transform="translate(1007,810)" d="m0 0h1l1 318 1 57 1 17 2 8 7 6 11 6 14 4 14 2h26l8-4 5-2-5 5-6 3-2 4-9 7-8 7-2-1 8-8 5-4 1-2-28-2-10-2-14-5-10-6-7-7-2-5-2-27-1-41v-327z" fill="#585B8C"/>
<path transform="translate(685,754)" d="m0 0 13 2 11 2v1l-9 1-8 3-4 7-1 9 1 20v35l1 2 2 34 1 9-11 1v-16l-1-20v-76l1-5v-6h3z" fill="#F79F8C"/>
<path transform="translate(985,626)" d="m0 0h25l35 1 11 2v1l-10 2-7 1v2h-2l-1 3h-2l-1 4-8 10h-2v2l-2 1-3 9-5 30-1 11h-2l-1-7-1-1v-11l1-5 2-4v-12l3-7 8-16v-5l-5-1-4-2h-7l-1-1-13-1-6 2-10 3h-9l-4 1 3-3 12-7z" fill="#3D3F61"/>
<path transform="translate(1818,1402)" d="m0 0 43 1v1l-14 1-305 1h-212v-1l74-1 154-1z" fill="#9699CA"/>
<path transform="translate(1864,1296)" d="m0 0 29 1v1l-15 1-38 1h-305l-2 1 1-3 2-1h212z" fill="#9599CA"/>
<path transform="translate(1789,711)" d="m0 0 2 1 1 7 1 28 1 314v98l-1 46-2 10-4 4h-10v-1h9l1-9 2-32 2-94v-318l-1-40z" fill="#A8A8DB"/>
<path transform="translate(496,663)" d="m0 0h103l37 1 12 2 16 5 7 8 4 19 1 28 4 10 6 6v2h2v2l5 2 13 5 2 1 2-4v6l-9-2-13-4-12-4-3-3-2-16-2-35-3-13-2-5-11-3-9-2-22-2-127-2z" fill="#C17753"/>
<path transform="translate(944,336)" d="m0 0h35l45 1 40 2v1h-84l-13-1h-18l-8 2v16l3 2 34 3 12 2 1 2 1 87-1 47 5 3h9l7-3 1-2 1-48 1-21 1-37h1v42l-1 64-4 5-6 2h-14l-5-2-1-1v-7l1-4 1-21 1-56v-49l-27-2-17-1-5-2-1-1v-20l1-2z" fill="#63B3F1"/>
<path transform="translate(933,943)" d="m0 0h1l1 100 2 4v10l-2 5 3 4v5l-2 5 4 8-3 3v6l2 4-1 5-1 4v7l-1 2 2 7-2 7v6l-1 5 1 2-1 13-1 2 2 1h-2l1 26 1 5-1 2 1 5 1 26v5l-3 1v24h-1l-1-34v-76z" fill="#3B3D5E"/>
<path transform="translate(284,908)" d="m0 0 5 4 1 3 2 1v2l4 2 3 9 2 10 3 5v2h2l2 6h2l3 10 6 12v2h2l6 7 9 14 1 3 3 2 2 6-4-2-7-7-7-8-14-18-10-17-10-21-6-24z" fill="#F7A18E"/>
<path transform="translate(1544,1295)" d="m0 0h326v1l-6 1-137 1h-191l-5 4 2-5 2-1z" fill="#585B8C"/>
<path transform="translate(894,338)" d="m0 0 12 1 5 5 1 21 1 45v90l-3 3h-21l-5-3v-19l2-50 1-86 2-6zm-4 2-1 8-2 132v18l4 3 6 1h12l3-5-1-125-1-25-2-5-3-2z" fill="#5BB7F7"/>
<path transform="translate(474,827)" d="m0 0 4 2 6 11v9l-1 3v7l1 1v8l-1 2h-2v3l-4 2h-5v-2l-3-1-2-4-1-20 2-12 3-7z" fill="#F18E80"/>
<path transform="translate(889,348)" d="m0 0h1l1 90 1 38 2 14 2 6 5 2 1 1h5l2-2 1-125h1l1 125-3 5h-12l-8-2-2-2v-18z" fill="#EAE7FA"/>
<path transform="translate(474,823)" d="m0 0 5 2v2h2l2 3v4h2l3 6 1 4v20l-3 7-4 5-5 2-7-1-6-8-4-9v-11l3-15 2-5 3-4zm0 4-4 3-3 10-1 9 1 19 3 5h2v2l7-1 2-1v-3h2l1-2v-8l-1-1v-7l1-3v-9l-6-11z" fill="#F79F8C"/>
<path transform="translate(1282,1315)" d="m0 0h2l-1 7 2 5 4 2 10 9 5 4 18 6 23 2 57 1h45l28-1 14-1-2 2-10 2-16 1h-103l-24-1-16-3-15-6-10-8-9-8-5-6-1-4z" fill="#585B8C"/>
<path transform="translate(372,742)" d="m0 0h11l11 1 8 4 10 9 2 3v6h-10l-3-9-2-2-4-1-2 4-13-1-10-5-2-6z" fill="#38364F"/>
<path transform="translate(340,610)" d="m0 0 1 3-3 4h-2l-1 3-3-1v2l-10 3h-2v2l-6 3-6 6h-2v2h-2v2h-2v2h-2v2h-2v3h-2l-2 5-4 11-2 10-3 17-2 28h-2l1 9 1 2-3 11-3 12-19 4-2-2 18-4 2-11 2-24 2-15 1-14 8-27 4-10 9-12 12-11 6-4 17-7z" fill="#C17753"/>
<path transform="translate(1215,1336)" d="m0 0 2 1-12 10-7 5-9 4-11 8-12 7-9 5-16 12-5 5-7 4v2h-9l5-5 20-15 17-12 22-14 19-11z" fill="#F1EEFA"/>
<path transform="translate(564,740)" d="m0 0h10l13 5 6 5 7 8v5h-3l-4-5v-2l-8-1-3 1h-10l-6-3-1-4-7 1-5 4-2-5h2l1-4 7-3h3z" fill="#35354F"/>
<path transform="translate(1401,902)" d="m0 0h1l3 14 6 14 6 10 4 5 3 3 8 7 8 6 14 7 10 3h26l15-6 9-5 9-6 3-3 2 1-9 8-19 11-13 4-5 1h-12l-16-5-17-7-11-7-5-4-9-12-4-8-6-18-1-5z" fill="#D1CEFA"/>
<path transform="translate(1303,1344)" d="m0 0 5 1 10 4 16 3 24 1h103l23-2 5-2 3 1-9 4-12 2-23 1h-63l-40-1-19-2-13-4-10-5z" fill="#9699CA"/>
<path transform="translate(1338,1227)" d="m0 0h70l3 1-1 2h-12l-25 2-1 1h-15l-13 4-1 1h-7v-2l-2 1-6 21-4 9-1-3 7-22 1-7 3-6z" fill="#45415E"/>
<path transform="translate(1406,900)" d="m0 0h5l7 9 2 15 4 10 1 7h-5l-6-7-4-4-7-17 1-9z" fill="#FDFDFD"/>
<path transform="translate(560,741)" d="m0 0 4 1-12 5-7 7-6 4-3 5 1 3 4-1h15l8-7 2-2 4 1 2 2v7l28 1-3 3-9 1-38-2-9 1-7-3-1-1v-5l7-8 13-9z" fill="#5D5B88"/>
<path transform="translate(1535,1299)" d="m0 0 188 1v1l-55 1h-133l-4 2-1 9-3 7h-2l-1 2 1-5 5-14z" fill="#C2BFF4"/>
<path transform="translate(1353,1160)" d="m0 0h6l-3 3-15 4-8 6-2 10-1 12 3 16v7l-2-2-9-38-1-2v-6l3-3 11-4z" fill="#F2EFFA"/>
<path transform="translate(1229,1068)" d="m0 0 1 4 4 1 4 8-1 7-1 3v9l1 9-3 1-4-4-2 1-3-11v-13l3-13z" fill="#F1EEFA"/>
<path transform="translate(1117,1400)" d="m0 0 264 1v1l-235 1 6 1v1h-34z" fill="#D7D4FD"/>
<path transform="translate(1016,392)" d="m0 0h1v42l-1 64-4 5-6 2h-14l-5-2-1-1v-7l1-4 1-21 1-41h1l1 71 5 3h9l7-3 1-2 1-48 1-21z" fill="#68B0ED"/>
<path transform="translate(556,741)" d="m0 0 4 1-12 6-11 9-3 4v5l7 3 14-1 33 2 9-1 4-3 1-7 2 3-2 6-9 6-6 1-15-1-17-2h-16l-6-3-2-3 1-8 4-5 4-3h2v-2z" fill="#EE8E81"/>
<path transform="translate(1e3 476)" d="m0 0 5 1 3 6 1 6v10l-4 2-8-1-2-3-1-11 3-7 3-1z" fill="#FDFDFD"/>
<path transform="translate(1011,1210)" d="m0 0 4 2 5 4 11 6 14 4 14 2h26l8-4 5-2-5 5-6 3-2 4-9 7-8 7-2-1 8-8 5-4 1-2-28-2-10-2-14-5-10-6-7-7z" fill="#5C5B88"/>
<path transform="translate(935,677)" d="m0 0 2 3v8l-1 2v7l-1 10 1 8-1 1v68l1 1v5l-1 4v10l1 7-1 7v16l-1 8h-1v-155z" fill="#3B3D5E"/>
<path transform="translate(944,336)" d="m0 0h35l45 1 40 2v1h-84l-13-1h-18l-10 2 1-4z" fill="#76AFEA"/>
<path transform="translate(292,648)" d="m0 0 1 2-6 17-5 18-1 17-2 12-2 24-2 11-6 2-9 1 2-2 9-2 2-7v-5l1-3 2-21 3-27 8-25z" fill="#A5624F"/>
<path transform="translate(1216,1320)" d="m0 0 6 1 7 3v2l4 1 6-2h6l-4 2-18 6-6 3h-2v-2h-2l-3-3-1-4 5-6z" fill="#F7A08C"/>
<path transform="translate(912,410)" d="m0 0h1v90l-3 3h-21l-5-3v-19l2-45h1v38l-1 24 5 2 6 1h12l2-4z" fill="#84A2D7"/>
<path transform="translate(973,1298)" d="m0 0 7 1 11-1-2 4-9 3-9 5h-8l-3-2 1-9z" fill="#F9F9FD"/>
<path transform="translate(1305,999)" d="m0 0 8 6 11 9 11 6 10 2 16 1 9 3 4 4 2 10v20l-2 7h-2l1-7v-18l-3-12-7-3-3-1-14-1-12-2-10-6-11-9-8-7z" fill="#FAAB91"/>
<path transform="translate(889,348)" d="m0 0h1l1 90 1 36-4 4v-57z" fill="#E2DFFB"/>
<path transform="translate(1066,343)" d="m0 0h1v16l-1 2-3 1h-20l2-3 10-4 3-9z" fill="#FDFDFD"/>
<path transform="translate(1517,887)" d="m0 0 3 3 1 4v11l-1 1-2 10-9 15-8 8-12 6-3 1h-13v-1l12-2 10-5 10-8 8-13 3-8 1-8z" fill="#D5D2FC"/>
<path transform="translate(932,1142)" d="m0 0h1v49h2l1 5 1 26v5l-3 1v24h-1l-1-34z" fill="#5C5F86"/>
<path transform="translate(1282,1034)" d="m0 0h12l17 8v3l-19-4-6-2-18 4v-2l-4-2 7-3z" fill="#C5C2F3"/>
<path transform="translate(1466,846)" d="m0 0m-1 1m-2 1h2v2l-11 6-12 11-10 16-4 7v15l10 16 11 10h-3l-10-8v-3h-2l-2-6h-2v-2h-2l-4-8-1-5 3-13 12-17 7-8 9-8z" fill="#D4D1FC"/>
<path transform="translate(1791,1217)" d="m0 0h3l2 3 6 1h67l-1 4-5-1h-34l-23 1h-10l-3-1v-5l-3-1z" fill="#3B3D5E"/>
<path transform="translate(991,412)" d="m0 0 3 1 1 7 1 9-1 13-1 37h-3z" fill="#D7D4FB"/>
<path transform="translate(356,748)" d="m0 0h4l-1 5v4l3 2v2h2v5h-13l-4-3v-5l6-8z" fill="#3C3953"/>
<path transform="translate(1401,902)" d="m0 0h1l3 14 6 14 6 10 4 5 3 3 8 7 8 6 4 4-6-2-10-7-10-9-3-5-3-1-4-8-6-18-1-5z" fill="#D7D4FD"/>
<path transform="translate(1342,983)" d="m0 0 2 4 7 9 7 8 4 1 6-3-1 3-8 4-9-2-4-5-5-10v-7z" fill="#C3C0F5"/>
<path transform="translate(933,943)" d="m0 0h1l1 100 2 4v10l-3 5h-1z" fill="#474971"/>
<path transform="translate(1273,1320)" d="m0 0 6 1 6 7 8 7 10 8v2l6 2 1 2-5-1-10-6-3-2v-2l-5-2-5-4-6-7-4-2z" fill="#C2BFF4"/>
<path transform="translate(1256,1069)" d="m0 0 2 1-6 6-3 10v17l4 8 4 3v2l4 1 10 4 11 1 8-1-3 2-5 2-10-1-13-5-8-6-4-8-1-6v-9l2-10 3-6z" fill="#FAAB91"/>
<path transform="translate(989,429)" d="m0 0h1l1 71 5 3 10 1v1h-14l-5-2-1-1v-7l1-4 1-21z" fill="#9499CB"/>
<path transform="translate(1244,1007)" d="m0 0 2 1-5 5-7 6-10 5-4 1-14 1-12 3-8 7-2 1 2-4 8-7 12-3 13-1 11-4 9-6z" fill="#FAAB91"/>
<path transform="translate(1061,1250)" d="m0 0h2v2l-11 8-13 9-15 10-16 10-8 4-4-1 17-9 30-20 10-7z" fill="#886069"/>
<path transform="translate(995,1293)" d="m0 0h5l-5 5h-2l-2 4-6 4-11 4-3-1 10-6 8-2 1-2-12 1-5-1h-11l4-2 24-1z" fill="#F69F8A"/>
<path transform="translate(1117,1400)" d="m0 0 25 1 4 2 6 1v1h-34z" fill="#F2EFFA"/>
<path transform="translate(1926,1300)" d="m0 0 6 2v9l-4 14h-1l-2-7v-14z" fill="#F2EFFA"/>
<path transform="translate(317,479)" d="m0 0h6l-2 2v6l-5-1-1-1-3 2-11-1-5 1v-2l11-4z" fill="#AC6655"/>
<path transform="translate(556,741)" d="m0 0 4 1-12 6-11 9-3 4v5l7 3 6 1v2h-8l-6-3-2-3 1-8 4-5 4-3h2v-2z" fill="#F18E80"/>
<path transform="translate(934,1254)" d="m0 0 2 2 3 10 7 15 8 18 3 5 2 1-1 4-1-3h-2l-9-19-5-10-2-8h-2l-3-9z" fill="#805F6F"/>
<path transform="translate(1183,1057)" d="m0 0 2 4 6 17 2 14v16l-5 10-2 1 2-5 2-7v-17l-2-13-5-14z" fill="#F2EFFA"/>
<path transform="translate(886,436)" d="m0 0h1v38l-1 22 2 4 2 2-5-1-1-1v-19z" fill="#9699CA"/>
<path transform="translate(1238,1011)" d="m0 0 2 1-8 6-9 4-4 1-18 2-7 1 4-4 4-1 21-2 10-4z" fill="#F2EFFA"/>
<path transform="translate(1332,1072)" d="m0 0h2l1 2v20l-2 15-2 7h-2l1-8 2-14z" fill="#FAAB91"/>
<path transform="translate(933,784)" d="m0 0 3 1v5l-1 4v10l1 7-1 7v16l-1 8h-1z" fill="#3B3D5E"/>
<path transform="translate(370,766)" d="m0 0 21 1 22-1-3 2-6 1h-30l-16-1v-1z" fill="#605B86"/>
<path transform="translate(1282,1315)" d="m0 0h2l-1 7 2 5 4 2 10 9 5 4 7 3-3 1-8-4-12-11-9-9-1-4z" fill="#585B8C"/>
<path transform="translate(354,617)" d="m0 0 4 1 10 7 12 8v2l6 2 6 4v2l-6-2-15-11-8-5-1-3-4-1z" fill="#F79F8C"/>
<path transform="translate(1333,1019)" d="m0 0 28 2 9 2 4 4-1 3-5-4-7-2-16-1-12-3z" fill="#F2EFFA"/>
<path transform="translate(971,364)" d="m0 0h13l5 1 1 2v21l-2 3-1-17-1-8h-9l-6-1z" fill="#28AC8B"/>
<path transform="translate(1300,1070)" d="m0 0 4 2 5 10 2 9v8l-5 12-5 5-2-1 6-7 3-9v-9l-2-10z" fill="#FAAB91"/>
<path transform="translate(370,770)" d="m0 0h16l16 1-3 3-7 2-9-3-1-1-12-1z" fill="#F79F8C"/>
<path transform="translate(585,757)" d="m0 0 6 2 2 1-1 3-6-1-3 2-7-1v-4l7-1z" fill="#585B8C"/>
<path transform="translate(547,771)" d="m0 0h8l20 2-1 2h-17l-1-1h-11l-6-1v-1z" fill="#F79F8C"/>
<path transform="translate(1059,341)" d="m0 0h9l1 4-1 15-2 1v-17l-8 3-2 8-1-3 2-9z" fill="#D0DFF9"/>
<path transform="translate(944,336)" d="m0 0h25v2l-20 1-10 2 1-4z" fill="#7AA7DF"/>
<path transform="translate(1063,1232)" d="m0 0h18l-3 5-3 2-7-1 2-5h-7z" fill="#3D3F62"/>
<path transform="translate(1374,1064)" d="m0 0 1 4-3 11-1 1-1 27h-1l-1-9v-13l3-13z" fill="#F2EFFA"/>
<path transform="translate(560,741)" d="m0 0 4 1-12 5-7 7-10 6 2-4 11-9z" fill="#715E7A"/>
<path transform="translate(1526,951)" d="m0 0 2 1-9 8-17 10-4-1 24-14z" fill="#D4D1FC"/>
<path transform="translate(394,644)" d="m0 0 6 2 16 8 8 3v1h-9l-5-3v-2h-4v-2l-6-2-6-4z" fill="#F79F8C"/>
<path transform="translate(1258,986)" d="m0 0h6v4l-6 5-5-1 1-4z" fill="#C8C5F5"/>
<path transform="translate(1413,941)" d="m0 0 3 1 4 6 10 9 14 8-3 1-12-7-8-6-8-10z" fill="#C3C0F5"/>
<path transform="translate(935,677)" d="m0 0 2 3v8l-1 2v7l-2 10h-1v-20z" fill="#45486D"/>
<path transform="translate(939,341)" d="m0 0h1l1 16 3 2 22 2-4 2-17-1-5-2-1-1z" fill="#57B9FA"/>
<path transform="translate(368,1055)" d="m0 0 2 2 1 8-1 3h2l-1 4h-6z" fill="#715263"/>
<path transform="translate(1055,355)" d="m0 0h1v5l7 1v1h-20l2-3z" fill="#F1EEFA"/>
<path transform="translate(338,484)" d="m0 0 3 1-1 8-3 1-5-1 1-2h-2l-1-5h3v2l3-1z" fill="#97625E"/>
<path transform="translate(1401,902)" d="m0 0h1l3 14 5 12-1 5-2-3-5-15-1-5z" fill="#CECBF9"/>
<path transform="translate(1528,1303)" d="m0 0h2l-2 9-5 12-5 8-1-2 6-13 4-10z" fill="#585B8C"/>
<path transform="translate(564,740)" d="m0 0h10l13 5 5 5-6-1-5-3v-2l-10-2-7-1z" fill="#655572"/>
<path transform="translate(1277,1321)" d="m0 0 4 2 4 5 8 7 10 8-2 1-8-6-10-9z" fill="#9699CA"/>
<path transform="translate(985,1298)" d="m0 0h6l-2 4-11 3v-5z" fill="#F2EFFA"/>
<path transform="translate(1444,964)" d="m0 0 16 6 5 2v2l-9-2-12-5z" fill="#CFCCFA"/>
<path transform="translate(361,617)" d="m0 0 5 2 5 3v2l5 1 3 3v2l4 2h-3l-17-12z" fill="#C17753"/>
<path transform="translate(969,336)" d="m0 0h10l7 1-2 3-17-1 2-1z" fill="#5DB5F5"/>
<path transform="translate(1496,937)" d="m0 0 2 1-5 5-7 3h-13v-1l12-2 10-5z" fill="#D1CEFA"/>
<path transform="translate(1128,1190)" d="m0 0 1 2-8 16v2l-4 2-3-1 7-9z" fill="#F8A58E"/>
<path transform="translate(1794,1776)" d="m0 0 7 4 30 1v1h-33l-4-4z" fill="#F39483"/>
<path transform="translate(1374,1031)" d="m0 0 3 3 1 3v10l-1 13h-1l-1-20z" fill="#F2EFFA"/>
<path transform="translate(1206,1023)" d="m0 0m-5 1h5v2l-12 3-8 7-2 1 2-4 8-7z" fill="#FAAC8B"/>
<path transform="translate(966,1297)" d="m0 0h20l-1 2-7 1-5-1h-11z" fill="#6E85BA"/>
<path transform="translate(1084,1231)" d="m0 0h2l-1 3-9 7-8 7-2-1 8-8z" fill="#956160"/>
<path transform="translate(287,919)" d="m0 0h2l3 6v9l-2 1-3-12z" fill="#F9AE95"/>
<path transform="translate(1283,1032)" d="m0 0h6v2l-18 3-4-1 8-3z" fill="#F8A68E"/>
<path transform="translate(1531,1302)" d="m0 0 1 2-3 12-2 4h-2l-1 2 1-5 5-14z" fill="#A4A9DD"/>
<path transform="translate(1409,930)" d="m0 0 3 1 4 8v2h-4l-3-5z" fill="#D4D1FA"/>
<path transform="translate(1376,1019)" d="m0 0 4 1 2 3-1 4h-3l-2-2z" fill="#F2EFFA"/>
<path transform="translate(375,756)" d="m0 0 5 2 3 1 7 1-1 2-13-1z" fill="#585B8C"/>
<path transform="translate(550,758)" d="m0 0h4l1 6-5 1-1-1v-5z" fill="#35344E"/>
<path transform="translate(304,632)" d="m0 0 2 1-8 9-4 6-1-3 3-6z" fill="#A5624F"/>
<path transform="translate(560,1132)" d="m0 0 2 1-5 8-8 11-1-3 4-5 7-10z" fill="#F79F8C"/>
<path transform="translate(1282,1315)" d="m0 0h2l-1 7 2 5-6-5-1-4z" fill="#705E7A"/>
<path transform="translate(1375,1149)" d="m0 0v3l-5 5-6 4-3-1 1-2 8-4z" fill="#C7C4F5"/>
<path transform="translate(934,1254)" d="m0 0 2 2 3 10v3h-2l-3-9z" fill="#A36770"/>
<path transform="translate(1165,1137)" d="m0 0 2 1-6 7-7 6v-3z" fill="#F8A48E"/>
<path transform="translate(1511,961)" d="m0 0m-1 1m-1 1 2 2-9 5-4-1z" fill="#D3D0FB"/>
<path transform="translate(995,1293)" d="m0 0h5l-5 5h-2l-1 2v-3l-2-1z" fill="#F18E80"/>
<path transform="translate(939,341)" d="m0 0h1l1 16 4 4-5-1-1-1z" fill="#56BAFC"/>
<path transform="translate(1294,1306)" d="m0 0 2 1-8 8-4-1z" fill="#855853"/>
<path transform="translate(1436,921)" d="m0 0 4 2 9 8h-3l-10-8z" fill="#CFCCF9"/>
</svg>
