<?xml version="1.0" encoding="UTF-8"?>
<svg version="1.1" viewBox="0 0 1067 1600" width="1280" height="1280" xmlns="http://www.w3.org/2000/svg">
<path transform="translate(0)" d="m0 0h1067v1600h-1067z" fill="#D6A32C"/>
<path transform="translate(851,613)" d="m0 0h15l16 9 28 17 29 17 51 30 15 9 27 16 20 12 14 9 1 1v867h-1067v-608l7-1 4-3 17-3 2-1h7l6 1 3-2 13-1 5 1 20-4 36-3h57v-2l3 1 11 2 1 1 13 2 8 5 6 8 7 7 14 6 28 7 3 1h24l23-5 31-10 7-4 16-8 2-3 1-7 7-3h19l4-2 7 1 12 5 10 2h10l9-1 7-3 33-11 16-6 12-3 13-5 21-7 23-8 7-1 9-4 8-2 21-7 34-11 14-4 24-8 11-3 10-4 17-5 18-6 27-8 13-4 8-3 48-14 19-7 11-10 2-1 11-1h22l20 4 8 3 13 5 10 5-5-5-12-10-5-10-2-2v-3h-2l-5-7-16 4-17 6-7-1-20-15-43-30-17-12-46-32-40-28-28-19-6-6-1-3v-12l3-7 19-6 30-8 24-7 26-7 23-7 25-7z" fill="#ECC139"/>
<path transform="translate(667,391)" d="m0 0h12l5 4 1 3v19l-7 106-8 105-4 47-2 10 9 3 18 13 14 10 36 26 19 13 14 10 19 13 43 29 21 14 5 4v7l-2 6-3 4-3 3-11 5-123 41-14 4-10 4-11 3-10 4-6 2-9 2-36 12-10 4-15 4-52 17-10 4-15 4-13 5-17 5-33 11-5 2-9 2h-18l-4-2-80-80-2-1-1 8-5 12-8 8-1 2h12l12 4 6 4v2l4 2 3 4v8l-3 15-5 11-2 5-9 6-12 5-46 16-14 2-11-2-11-6-6-5-5-10-3-17v-8l6-7-10-2-8-9-3-11v-12l4-9 1-3-18 7-20 6-20 8-43 14-47 14-48 13-30 7v-156l36-8 71-18 55-15 26-8 19-3 16 1 12 4 10 7 6 8 5 11 4 16-4-20-7-19-6-11v-3l7 10 2 4v-13l-5-142-4-115v-14l4-9 7-6 9-3 360-72z" fill="#15110A"/>
<path transform="translate(851,613)" d="m0 0h15l16 9 28 17 29 17 51 30 15 9 27 16 20 12 14 9 1 1v413l-42 19-16 7h-3v2l-8 3-12 5-21 9-3 2-29 1-14-5-10-6-13-11-11-9-4-3v-2l-4-2-13-11-14-11-8-7-11-8-5-2h-8l-5 3h-2v2l-8 5-10 3-20 8-16 7-12 5-17 6-5 3-10 4-13 7-7 4-10 2-15 7-13 3-8 4-13 6-16 5-18 4h-7l-9-2-26-3 7 9h-3l-9-10-9-9-7-8-11-11-7-8-7-7-7-8-8-8-7-8-9-9-7-8-8-8-7-8-16-17-14-15-12-13-14-15-11-12-6-5-3-1h-13l-33 11-12 2-2 1-4-1h-10l-8-1h-11v-2h-35l-3-2-7 1-4 1-2-1h-12l-9 3-13 5-16 2-6-2-8 1-57 20-20 7-3-1 4-3 14-4h3v-2l17-5 8-3h3v-3l39-14v-9l10-4h3l-1-5-10 3-5 1-4-6-5-6 1-3 8-2-1-4-7 1-6 2-6-6-8 1-17 6-14-1-15 4-3 2h-5v-2l-8 2-13 3-1 3-8 5-9 2-5 3-6 2-4 9-3 3 4 5h-2l-2 7-1 1-9-1-8 3-10-1h-11l-2-1v-56l7-1 4-3 17-3 2-1h7l6 1 3-2 13-1 5 1 20-4 36-3h57v-2l3 1 11 2 1 1 13 2 8 5 6 8 7 7 14 6 28 7 3 1h24l23-5 31-10 7-4 16-8 2-3 1-7 7-3h19l4-2 7 1 12 5 10 2h10l9-1 7-3 33-11 16-6 12-3 13-5 21-7 23-8 7-1 9-4 8-2 21-7 34-11 14-4 24-8 11-3 10-4 17-5 18-6 27-8 13-4 8-3 48-14 19-7 11-10 2-1 11-1h22l20 4 8 3 13 5 10 5-5-5-12-10-5-10-2-2v-3h-2l-5-7-16 4-17 6-7-1-20-15-43-30-17-12-46-32-40-28-28-19-6-6-1-3v-12l3-7 19-6 30-8 24-7 26-7 23-7 25-7z" fill="#E3B333"/>
<path transform="translate(386,1037)" d="m0 0 5 1 9 9 7 8 14 15 11 12 12 13 14 15 11 12 14 15 12 13 42 45 12 13 15 16 28 30 12 13 16 17 2 4-8 4-254 107-43 18-17 7-4-2-10-13-11-16-12-17-14-20-24-34-14-20-12-17-14-20-12-17-13-18-14-20-13-18-14-20-12-17-11-16v-2l37-13 67-23 44-15 43-15 50-17 43-15z" fill="#15110A"/>
<path transform="translate(667,391)" d="m0 0h12l5 4 1 3v19l-7 106-8 105-4 47-2 10 9 3 18 13 14 10 36 26 19 13 14 10 19 13 43 29 21 14 5 4v7l-2 6-3 4-3 3-11 5-123 41-14 4-10 4-11 3-10 4-6 2-9 2-36 12-10 4-15 4-52 17-10 4-15 4-13 5-17 5-33 11-5 2-9 2h-18l-4-2-13-13-2-1-1-4-66-66-7-14-5-1-8-4-36-36-10-11v-6l-2-4-2-18-2-6 8-3 25-7h3v4l17-5h6l4 1 25-7 27-7 20-6 23-6 13-4 23-6 24-7 20-5 17-5 20-5 17-5 23-6 23-7v-3l15-3v-5l8-3 29-8h2l2-10 3-26 4-50 10-150 2-32v-12l-3-5-2-1-10 1-74 15-332 67-10 3-3 10v15l4 105 4 128 1 25v20l-1 2 3 10v5l-2-4-7-21-7-13v-3l7 10 2 4v-13l-5-142-4-115v-14l4-9 7-6 9-3 360-72z" fill="#9A825E"/>
<path transform="translate(886,855)" d="m0 0h10l11 4 21 14v2l5 2 12 8v2l5 2 2 1v2l5 2 2 1v2l5 2 20 14 9 6v2l5 2 11 8 18 12v2l5 2 2 1v2l5 2 18 13 10 7v174l-42 19-16 7h-3v2l-8 3-12 5-21 9-4 1h-12l-12-4-11-8-10-9-11-9-5-3-5-5-6-5-2-1v-2h-2l-1-2-3-1v-2h-2l-5-6-5-3-3-3-6-5-7-6-36-30-7-6-9-7-4-4-8-6-4-4-8-6-4-4-7-6-9-7-6-5-4-4-6-5-7-6-8-6-4-4-11-9-21-18-11-9-10-8-11-11v-13l3-5 2-2 16-6 13-4 9-3 132-47 8-3 28-10z" fill="#2F210C"/>
<path transform="translate(838)" d="m0 0h229v469l-10-2-3-5-7-2-7-5-2-4-8-7-2-4-9-7-5-3-1-3-2-1v-2l-4-1-3-7v-3l-10-2-1-1-7-1-5-6-2-12-3-2-1-3v-11l-1-1-9-1-5-6-5-5-7-9-4-3-1-9-4-1-9-2-2-2-2-5-1-1-1-7-7-6-9-1-5-5-2-9v-13l-2-1v-2h-4l-1-7 3-5 2-5 1-4-3-4-5-3 1-4-6 1-5 1v-11l-2-3-5-3-4-6-2-6 3-4-1-3-4-1 1-8v-9h-2l-1-4 2-5v-2h-2l-2-6 3-11 2-3 2-14-4-5 5-7 4-11v-5l-3-8 1-2-6 2-4-4-3-14-4-5 3-7-7-2-3-4v-6h2l2-4 2-5 2-1 1-6-4-2 1-4 4-2v-4l-4-2-6-4-5-10 1-2-3-1-3-4 2-5 4-2-1-3 1-2h-2v-8h2l-1-4-4 1-2-2z" fill="#BF8A25"/>
<path transform="translate(851,613)" d="m0 0h15l16 9 28 17 29 17 51 30 15 9 27 16 20 12 14 9 1 1v9l-2 2-26 8-72 24-10 4-37 12-20 7-3 9-1 8 15-6 8-3-5-5v-3l5-2 7 1 7 4 7-1 70-23 26-9 1-2v-9l7-3 8-2 1 1 1 10 7-3 1-4 4 1v6l-5 5-11 4-20 6-36 12-38 13-13 4h-2l4 7 9 12 4 5 8 7 10 9 10 7 15 10 4 3-2 4h-8l-10-7-22-16-12-10-5-4-5-10-2-2v-3h-2l-5-7-16 4-17 6-7-1-20-15-43-30-17-12-46-32-40-28-28-19-6-6-1-3v-12l3-7 19-6 30-8 24-7 26-7 23-7 25-7z" fill="#2F210C"/>
<path transform="translate(666,708)" d="m0 0h7l11 8 1 3 5 1 3 2v2l5 2 7 4v2l4 2 9 6v3l-3 1h8l11 8 2 3-13 4-9 3 7 5v2l6 2 2 4-17 6-7-1-1 3-17 5-7-1-8-6v2l4 2 3 2v3l-18 6-4 2-11 2-16 5-7-1-2-1 1 4-8 3-52 16-67 20-5-1-10-8 8 8v3l-21 6-6 2-6-1-10-10v-3l12-4-10 1-7-7-5-4v-2l-3 2 10 9 2 1v3l-4 2 5 5 8 7-1 4-6 2-2 2-7 2-11 2-8 1v2l5-1 7 2v3l-5-2-8 1-1 4-5 4-3-1-2-2-2-1v3h-3v2l-7 2-9 3-1 1h-7l-6-2v-4l-8-7-4-4 1-3 23-7-2-1-19 6h-8l-8-8-2-1 1-4 22-7 11-3h3v-2l-32 10-10 1-10-10 2-4 17-5 16-5-12 3-21 6h-7l-10-10v-2l18-6 16-5 1-2 11-3h3l-7-8-3-3 1-5 16-4 3-1h8l5 3 8 7 7-1 14-4h3l-2-3v-3l4 2 1 1 8-1 9-1 6 7 5 4h8l12-3 8-1 7-1 11 9 1 3-15 5 8 2 10 9v2l-5 2 8-1 16-5h3v-2l-12 3-7 1-11-9 1-4 19-6-12 1-11-9 1-3 15-5h7v-2h-8l-12-10 1 3 8 7v2l-19 6-5-1-10-8v-4l10-3-9 2-13 4h-6l-11-9 1-3 13-4-7-2-1-4 16-5h7l3 2v3l-4 2 13-4h-6l-3-3 1-3 15-4h7l3 2v3l-4 2 10-2v-2l-4-1-2-4 7-3 11-3 5 1 3 4-4 1v2l12-4h-5l-4-3 1-3 17-5 5 1 3 2v3h2l6-2h-5l-4-3 1-3 14-4h8l3 2v3h3l5-2-7-1-2-4 16-5h6l4 3v2l-4 2 15-4 7 1 10 8v2l-8 3 5 5v-2l-2-1 1-3 14-4h7l4 2-1-4 8-3 11-3-12 1-12-9 1-2z" fill="#8F7B5C"/>
<path transform="translate(724,1033)" d="m0 0h8l9 3 6 4 45 39 14 12 4 6v8l-4 7-10 6-34 13-56 22-25 10h-2l-1-4-2 4 1 2-21 8-11 5-40 15-14 4h-8l-10-4-8-7-7-8-22-22-7-8-13-13-2-1-4-10 1-11 7-6 29-11 47-17 27-10 62-22 21-8z" fill="#2F210C"/>
<path transform="translate(370,1020)" d="m0 0h13l7 4 11 11 7 8 15 16 12 13 28 30 12 13 32 34 15 16 14 15 8 8 7 8 10 10 7 8 9 9 7 8 11 11 7 8 10 10 7 8 10 10 7 8 7 7 4 7-1 8-2 5-5 1-39 17-30 13-35 15-25 11-28 12-53 23-30 13-56 24-19 8-6 3-1 1h-7l-12-6-5-5-11-16-21-31-14-20-11-16-14-20-8-12-13-18-7-11-10-14-9-14-8-11-14-20-15-22-16-23-14-20-16-23-12-17-3-6 1-6 5-5 12-5 228-77 43-15zm16 17-47 16-43 15-50 17-43 15-59 20-43 15-5 2 2 5 13 19 13 18 12 17 13 18 13 19 12 16 11 16 12 17 28 40 24 34 14 20 24 34 9 12 4 2 41-17 40-17 83-35 83-35 74-31 1-2-7-8-29-31-12-13-15-16-28-30-12-13-15-16-14-15-12-13-14-15-24-26-14-15-11-12-12-13-11-12-2-2z" fill="#E7E4E6"/>
<path transform="translate(621,940)" d="m0 0h5l10 9 11 9 10 9 11 9 10 9 11 9 11 10 2 5v9l-3 4h-2l-1 3-15 6-58 21-105 38-17 6-1 1h-6l-14-14-7-8-17-17-7-8-19-19-6-8-1-3v-13l41-14 132-44z" fill="#2F210C"/>
<path transform="translate(386,1037)" d="m0 0 5 1 9 9 7 8 14 15 11 12 12 13 14 15 11 12 14 15 8 9-3 1-9-8-5-4-7-3-5-1h-11l-13 3-7 6-4 4-10 3v2l-7 4h-2l-1 3h-2v3l-6 2-8 4-3 3-7-1v3h-2v5l-5 3v-3h-2l-1 3-7 1-2-1-14 4-6 5h-7l-4-1-6 2-5 2-3-1v-2l-10 2-16-2-10-4-3-3-6-3-4-9-3-5-8-6-6-3-12-12-5-9-5-6-4-4v-2h-2l-4-6-1-4-2-1-1-3-9 1-20 6-16 4-9 5-14 3-5 1-7 3-5 3-12 3-11 4 1 5 5 11 3 5v2l5 5 4 5v2l5 5v4l5 3 7 10 1 4-2 2-13-18-14-20-12-17-6-9v-2l37-13 67-23 44-15 43-15 50-17 43-15z" fill="#30220D"/>
<path transform="translate(667,391)" d="m0 0h12l5 4 1 3v19l-7 106-8 105-4 47-2 10 9 3 18 13 14 10 36 26 19 13 14 10 19 13 43 29 21 14 5 4v7l-2 6-3 4-3 3-11 5-123 41-14 4-10 4-11 3-10 4-6 2-12 1-41 14-7 1-10 4-22 7-9 3-25 8-7 3-21 6-10 4-17 5-25 8-10 4-12 2h-9l-7-2-2-3h2v-4h13l12-2 57-18 62-20 50-16 5 1v-5l36-12-7-1 1-5 3-6 8-4 1-5h-2v-2l-5-2 2-5h2v-3l4-2 1-5-2-2v-4h2l1 2 5 1 1-5 4-2v2l3-2-2-5v-3l9-2 3-3 1-5 3 2 2-4 7 3 15 12 18 13 10 7-5-5-14-10-21-16-16-12-18-14-5-2-9 1-10 3-3-1-1-2 13-3 11-4 9-2-1-3-6-4v-2l5 2 5 4 8-1 14-4 1-2h7l15-5h2l-4-4-4-2-5-5-5-1 3-2h4v3l5 2 8 6h7l12-4h4l-1-5-13-9-54-39-21-16-9-2v-1l6-1v-10l-12 2-17 4-8 1 2-2 32-9h2l2-10 3-26 4-50 10-150 2-32v-12l-3-5-2-1-10 1-74 15-332 67-10 3-3 10v15l4 105 4 128 1 25v20l-1 2 3 10v5l-2-4-7-21-7-13v-3l7 10 2 4v-13l-5-142-4-115v-14l4-9 7-6 9-3 360-72z" fill="#A68757"/>
<path transform="translate(774,1151)" d="m0 0h24l10 2 30 1 7 10 4 7 1 7 4 5 4 7 7 2 10 1 8 7 1 6-10 16-8 8-3 9-5 12-7 10-9 9-11 7-14 6-15 5-16 7-14 3h-19l-14-3-11-4-6-1v-3l6-3v-10h-4l-1 5h-5l-1 2-8 3-1 2-10-1-3-6v-16l-6-9-7-12-3-10v-20l3-10 6-11 8-9 11-8 13-5 20-3 7-4 5-1v-2l17-7z" fill="#E3B333"/>
<path transform="translate(128,799)" d="m0 0h12l15 4 11 8 7 11 4 12 2 12 1 20-2 14-5 13-9 10-7 6-15 9-20 7-36 12-50 15-31 8h-5v-129l27-8 57-15 36-8z" fill="#E7E4E6"/>
<path transform="translate(207,766)" d="m0 0 16 1 12 4 10 7 6 8 5 11 4 17 2-1 1 22-2 16 7 1 4-4 1-3 1-19 4 2 41 41v1l-18 3-23 6-7 3-22 7-11 6-8 7h-2l-1-5-34 14-44 15-40 12-22 6-20 6-25 7-39 9h-3v-6l25-6 41-12 45-14 27-10 7-3 12-7 10-9 6-8 4-11 2-14-1-20-3-16-5-12-6-8-9-6-15-4h-12l-23 4-56 14-43 12-6 1v-13l36-8 71-18 55-15 26-8z" fill="#1E1912"/>
<path transform="translate(657,685)" d="m0 0h5l1 3v7 2l38 28 17 12 19 14 17 12 1 3-1 2-16 5h-7l-13-9v-3l-2-1 17-5 2-1-10-8-7-1h-5l2-2h3v-3l-4-2-9-6-1-2-11-6v-2l-5-2h-7l3-3-11-8h-7l-26 7 5 5 6 4 12-1 1 2-19 5 1 4h-3l-2-1h-7l-14 4-1 2 4 2-2 2-5-4-3-2 9-3h2l-5-5-7-5-9 1-13 3 1-2 5-1-4-4-10 1-12 3 4 4h8l-1 2-11 3-3-1 4-1v-3l-3-1h-8l-14 4v2l3 2 11-1-1 2-16 4 1-2h2l-1-3-3-2-7 1-14 4v2l3 2h7l-1 2-10 3h-3v-2l3-2-3-3-7 1-14 4 2 4 3 1v2l-12 3 1-2 5-1-1-3-2-1h-7l-15 4 2 4 13-1-2 2-18 5-2-1 6-2v-3l-3-1h-7l-16 4 2 4 7 1-1 2-13 4v2l10 8h6l13-4h5l1-2h5l-2 2-6 2h-4v4l4 2 7 6 7-1 13-4h3l-6-7-4-3 1-3 12 10h9l-1 3-14 3-8 3v2l10 8h6l6-1 2 2-21 6-1 3 4 2 7 6 7-1 10-3 3 1-1 2-19 6-9 1 1-2 5-1-5-5-7-6-7-1 1-2 13-4h2l-4-5-8-6-7 1-13 2-7 2h-8l-10-9-1-2-9 1-8 1-5-4 2 6-20 6-5-1-9-8-3-1h-8l-10 3-9 2 1 5 8 8v2l-14 4 4 2-14 3-23 7h-2l7 8 3 3h7l21-6 12-3 1 2-27 8-8 3 2 4 7 7 10-1 29-9h3v2l-36 11-1 3 4 2 6 6h8l19-6 3 1v2l-24 7 2 4 7 6-3 4-16 4-4-1 41 41 8 7 26 26 3 9 2 2 6 1h9l12-2 16-6 31-10 14-4 8-3 20-6 8-3 21-7 13-4 24-8 1-1 10-2 38-13h5l-2 2-36 12-10 4-15 4-52 17-10 4-15 4-13 5-17 5-33 11-5 2-9 2h-18l-4-2-13-13-2-1-1-4-66-66-7-14-5-1-8-4-36-36-10-11v-6l-2-4-2-18-2-6 8-3 25-7h3v4l17-5h6l4 1 25-7 27-7 20-6 23-6 13-4 23-6 24-7 20-5 17-5 20-5 17-5 23-6 23-7v-3l15-3v-5l3-1 8-1 17-4z" fill="#766E64"/>
<path transform="translate(274,816)" d="m0 0 2 1v6l11 12 35 35 12 5 6 9 3 6 65 65 1 2-4-2-62-62-2-1-1 8-5 12-8 8-1 2h12l12 4 6 4v2l4 2 3 4v8l-3 15-5 11-2 5-9 6-12 5-46 16-14 2-11-2-11-6-6-5-5-10-3-17v-8l6-7-10-2-8-9-3-11v-12l4-9 1-3-18 7-20 6-20 8-43 14-47 14-48 13-30 7v-8l42-10 50-14 63-19 38-13 29-12 5-1 1 5 11-9 15-7 23-7 9-3 15-4 17-3-42-42-2-1z" fill="#16110A"/>
<path transform="translate(416,787)" d="m0 0 4 2 1 1 8-1 9-1 6 7 5 4h8l12-3 8-1 7-1 11 9 1 3-15 5 8 2 10 9v2l-5 2 8-1 29-9 68-20 6-2 5 1 12 10-1 3-49 15-77 23-5-1-10-8 8 8v3l-21 6-6 2-6-1-10-10v-3l12-4-10 1-7-7-5-4v-2l-3 2 10 9 2 1v3l-4 2 5 5 8 7-1 4-6 2-2 2-7 2-11 2-8 1v2l5-1 7 2v3l-5-2-8 1-1 4-5 4-3-1-2-2-2-1v3h-3v2l-7 2-9 3-1 1h-7l-6-2v-4l-8-7-4-4 1-3 23-7-2-1-19 6h-8l-8-8-2-1 1-4 22-7 11-3h3v-2l-32 10-10 1-10-10 2-4 17-5 16-5-12 3-21 6h-7l-10-10v-2l18-6 16-5 1-2 11-3h3l-7-8-3-3 1-5 16-4 3-1h8l5 3 8 7 7-1 14-4h3l-2-3z" fill="#887B69"/>
<path transform="translate(663,933)" d="m0 0 2 1-4 4v6l5 6 11 9 13 11 11 9 14 12 11 9 14 12 10 8 14 12 11 9 13 11 14 11 10 9 9 7v2l5 2 1 3 5 2 15 13 11 9 13 11 30 25 11 9 14 12 7 5v2h3v2l6 2 9 1h13l26-11 18-8 2-2-1-9v-18l4-29 8-31 6-22 5-26 5-35 2-28v-7l4 2 17 12 7 5v174l-42 19-16 7h-3v2l-8 3-12 5-21 9-4 1h-12l-12-4-11-8-10-9-11-9-5-3-5-5-6-5-2-1v-2h-2l-1-2-3-1v-2h-2l-5-6-5-3-3-3-6-5-7-6-36-30-7-6-9-7-4-4-8-6-4-4-8-6-4-4-7-6-9-7-6-5-4-4-6-5-7-6-8-6-4-4-11-9-21-18-11-9-10-8-11-11v-13l3-5z" fill="#312A22"/>
<path transform="translate(1066,742)" d="m0 0h1v134l-9-1-14-5h-14l-5-3-3-4-5-1-16-1-6 1-15-10-15-13-9-8-10-13-5-7v-3l36-12 29-10 30-10 21-6 7-4 2-8-4-1-1 5-7 2-2-10-14 4v9l-2 3-62 21-37 12-6-1-7-4-10 1 1 5 4 2 1 2-20 7-4 1v-8l4-10 44-15 22-7 10-4 78-26 11-3z" fill="#D6A32C"/>
<path transform="translate(663,797)" d="m0 0h8l13 10 18 14 19 14 20 15 9 7-2 1-18-13-19-14-14-11-17-13-7-5h-9l-15 5-10 6h-2l-2 5v5l2 4-2 1 4 3-1 7-6 3-7 6-5 3h-2v8l-5 7-6 1-1 4 3 3 6 2v2h-2v2l4-1v3l-3 2 9 2 3 4-1 4-3 1-2 5-8 5-5 1-4 2-16-2-3 1-10-2-5-3h-17l-15-2-10-2-5-3v-2l-4-2-5-4-9-2v2h-2l-3-5v-2l-11-1v-2h-2l-5-5-5-3-7 1-2-2-9 3-4 1v-5h2l2-2-1-3h-10v-2l5-1-1-4-11-9-2-2 3-2h3v-3l-4-2-9-8 1-2h3l12 12 13-1-3 2-12 3 3 5 7 7 6 1 23-7h4l-3-5-5-4v-2l4 2 8 6 10-2 119-36v-4l9 1 14-4h5l1 1z" fill="#93846F"/>
<path transform="translate(774,1151)" d="m0 0h24l10 2 30 1 7 10 4 7 1 7 4 5 4 7 7 2 10 1 8 7 1 6-10 16-8 8-3 9-5 12-7 10-9 9-11 7-14 6-15 5-16 7-14 3h-19l-14-3-11-4-6-1v-3l6-3v-10h-4l-1 5h-5l-1 2-8 3-1 2-10-1-3-6v-16l-6-9-7-12-3-10v-20l3-10 6-11 8-9 11-8 13-5 20-3 7-4 5-1v-2l17-7zm-34 25-1 3-5 1-1 3-4 2-11 11-9 14-5 12-1 6 7 14 3 3 1 3 7 3 6 1 3 8 1 10 4 3 19 5 7 1h29l12-2 5-3v-2l5-2 13-12 11-14 1-8 5-9 1-17 7-13-1-6-4-4h-38l-2-1h-8v-2l-12-2-3-5-15-1z" fill="#362C20"/>
<path transform="translate(186,737)" d="m0 0h15l14 3 12 6 12 11 7 9 7 15 6 20 2 12v10h-1l-3-19-4-12-5-9-5-6-10-6-10-3-16-1-19 3-37 11-67 18-65 16-14 3h-5v-37l160-40z" fill="#E8E4E6"/>
<path transform="translate(841,1159)" d="m0 0h22l5 9 16 4v2h3l-2 6 5-5 2 2-1 5-4 6-1 7 3 2-1 5-7 12 1 6-5 8v11l5 2 5 7 7 1 6 4-3 10-6 9-11 8-8 4-4 1-2 5-12 6-5 4-17 7-23 4-47 3-11 1-5-1-15 2h-9v2l-13-2-12-6-7-9-13-13-5-3-1-4 4-13v-11l-4-14-1-4v-14l2-11-3-5v-8l10-7 9-5 2 1-6 10-3 8-1 4v20l4 12 9 15 3 4v16l2 6h8l2 1 1-3 5-2h3l1-3 5 1v-5l3-1 2 1 1 10-5 3h-2v3l9 1 11 4 11 2h19l17-4 18-8 13-4 16-8 9-7 7-7 8-14 4-10 2-6 3-3h2l2-4 8-13 2-3-1-6-7-6-14-2-4-2-6-10-2-2-2-9z" fill="#E4B433"/>
<path transform="translate(1066,1171)" d="m0 0h1v129l-9-5-18-14-12-9-26-20-18-14-19-14-5-4 1-3 30-13 27-12 32-14z" fill="#E8E5E7"/>
<path transform="translate(129,698)" d="m0 0h7l7 3 6 7 4 9v2l6 1 7 3v-7h6l6 4 2 2v3l4 2v4l10 3 7 2v1l-24 2-26 5-146 37h-5v-27l17-1 8-4 18-10 10-4 5-3h2l2-7 5-5 6-4 16-6 11-5 14-5z" fill="#15110A"/>
<path transform="translate(586,721)" d="m0 0h6l4 3v2l-4 2 15-4 7 1 10 8v2l-8 3 5 5 7 6v2l-17 5h-5l-12-9-2-1 5 5 6 4v3l-17 5-7-1-8-7-3-1v2l4 2 6 5v2l-17 5h-6l-12-9v-3l-5 1 6 4 8 7v2l-18 6 6 3 9 8v2l-18 5h-6l-11-9 1-3-12 1-12-10 1 3 8 7v2l-19 6-5-1-10-8v-4l10-3-9 2-13 4h-6l-11-9 1-3 13-4-7-2-1-4 16-5h7l3 2v3l-4 2 13-4h-6l-3-3 1-3 15-4h7l3 2v3l-4 2 10-2v-2l-4-1-2-4 7-3 11-3 5 1 3 4-4 1v2l12-4h-5l-4-3 1-3 17-5 5 1 3 2v3h2l6-2h-5l-4-3 1-3 14-4h8l3 2v3h3l5-2-7-1-2-4z" fill="#71685A"/>
<path transform="translate(416,787)" d="m0 0 4 2 1 1 8-1 9-1 6 7 5 4h8l12-3 8-1 7-1 11 9 1 3-15 5 8 2 10 9v2l-5 2 8-1 29-9 68-20 6-2 5 1 12 10-1 3-49 15-77 23-5-1-10-8 8 8v3l-21 6-6 2-6-1-10-10v-3l12-4-10 1-7-7-5-4v-2l-13 3-6-1-10-9 1-3 19-6-7-4-8-7v-3l-3-1 10-2-2-3z" fill="#817462"/>
<path transform="translate(691,665)" d="m0 0 2 4 16 10 11 9 11 7 2 1v2l5 2 11 8 10 7 19 13 9 7 11 9 18 11 3 3 5 3 10 9 10 7 12 6 14 8 8 6 10 6 4 5v2l4-1v7l15-6 8-3-5-5v-3l5-2 7 1 7 4 7-1 70-23 26-9 1-2v-9l7-3 8-2 1 1 1 10 7-3 1-4 4 1v6l-5 5-11 4-20 6-36 12-38 13-13 4h-2l4 7 9 12 4 5 8 7 10 9 10 7 15 10 4 3-2 4h-8l-10-7-22-16-12-10-5-4-5-10-2-2v-3h-2l-5-7-16 4-17 6-7-1-20-15-43-30-17-12-46-32-40-28-28-19-6-6-1-3z" fill="#31220C"/>
<path transform="translate(671,394)" d="m0 0h6l5 4 1 3v12l-7 108-1-3-9-2-1-2 1-28 3-39 3-36-32 7-58 12-21 5-8-2-11-4-5 1-18 7-12 3-31 4h-26l-5-1 5 5 10 7-3 2-7-1-8-4-12-3-13-1 3-1v-2l134-27z" fill="#2E210C"/>
<path transform="translate(795,1203)" d="m0 0 9 1 15 2 7 4 5 6 2 4-1 9-5 13-5 3-18-7-3-2-12-1-7 3-7 6h-2v2h-3l-2 4-1 5 1 7 10 6-1 6h-2l-1 3h-17l-9-2-13-2-4-3-1-10-3-8-8-2-3-4v-7l3-9h2l2-6 7-6 9-4 15-1 18 4 13 1 4-3v-7l3-4z" fill="#ECC139"/>
<path transform="translate(663,933)" d="m0 0 2 1-4 4v6l5 6 11 9 13 11 11 9 14 12 11 9 14 12 10 8 14 12 11 9 13 11 14 11 10 9 9 7v2l5 2 1 3 5 2 15 13 11 9 13 11 30 25 11 9 14 12 7 5v2h3v2l9 3 5 1h15l19-8 81-36h2v10l-42 19-16 7h-3v2l-8 3-12 5-21 9-4 1h-12l-12-4-11-8-10-9-11-9-5-3-5-5-6-5-2-1v-2h-2l-1-2-3-1v-2h-2l-5-6-5-3-3-3-6-5-7-6-36-30-7-6-9-7-4-4-8-6-4-4-8-6-4-4-7-6-9-7-6-5-4-4-6-5-7-6-8-6-4-4-11-9-21-18-11-9-10-8-11-11v-13l3-5z" fill="#634C2A"/>
<path transform="translate(155,992)" d="m0 0h5l7 6 8-3 5 1v4l-8 3 2 4 6 8v2l13-5 4 2-1 4-10 4h-3l1 9-12 5-57 20-14 5-4-1-6-16-18-22 1-2 64-22z" fill="#E8E5E7"/>
<path transform="translate(568,754)" d="m0 0 4 1 9 7h10v3l5 2 8 7 3 2-11 4 5 5 6 5 9-1 11-3h3l-1-3-2-1v-2l5 2 1 1 12-1-1 4 4 2 11 8-2 2-11 2-16 5-10-1-11-9-5 1-15 4-41 12-23 7-6-1-12 4h-5l-11-9 1-4 19-6-12 1-11-9 1-3 15-5h7l1-4h5l-2 4 10 8 10-1 11-3h3l-5-6-7-5-7-1 4-2 16-5h2l-4-5-8-6-4-2 7-1v3l4 2 8 6 9-1 11-3h3l-5-5-5-4z" fill="#817563"/>
<path transform="translate(667,391)" d="m0 0h12l5 4 1 3v19l-7 106-8 105-4 47-5 10-11 2-17 4-8 1 2-2 32-9h2l2-10 3-26 4-50 10-150 2-32v-12l-3-5-2-1-10 1-74 15-332 67-10 3-3 10v15l4 105 4 128 1 25v20l-1 2 3 10v5l-2-4-7-21-7-13v-3l7 10 2 4v-13l-5-142-4-115v-14l4-9 7-6 9-3 360-72z" fill="#92826A"/>
<path transform="translate(261,813)" d="m0 0h1l1 22-2 16 7 1 4-4 1-3 1-19 4 2 41 41v1l-18 3-23 6-7 3-22 7-11 6-8 7h-2l-1-5-34 14-44 15-40 12-22 6-20 6-25 7-39 9h-3v-6l25-6 41-12 13-4 3 1-4 2 10-2 4-2 10-2 8-3 59-18 36-12 25-12 11-8 10-10 4-7 3-11 1-6 1-25z" fill="#BE8925"/>
<path transform="translate(140,713)" d="m0 0h5l7 4 1 2 6 1 7 3v-7h6l6 4 2 2v3l4 2v4l10 3 7 2v1l-24 2-26 5-146 37h-5v-27l17-1 8-4 18-10 6-2v2l-24 13h11l27-7 15 3 7-2 3-1 12-1 6 1 8-2h6l8-3 9-2 13-5 12-3v-2l-2-1 1-1-9-3h-5v-2l-4 1-3-7z" fill="#654E2B"/>
<path transform="translate(694,659)" d="m0 0 5 2 9 5 33 22 10 8 10 7 48 32 22 15h3l3 3 3 1 4 4 5 2 2 4 7 2 6 4 2 2 1 3 7 2 12 9 6 5 2 4 4 2 1 6-3 6-4 1-4-6-10-6-10-7-9-5-10-6-8-4-10-8-9-8-5-3-17-11-8-6-10-8-14-10-12-8-11-8-12-8v-2l-6-2-9-7-15-11-11-7v-7z" fill="#15110A"/>
<path transform="translate(782,1156)" d="m0 0h20l13 4 14 7 9 7-1 2-10-7-6-3 8 6 10 9 4 3v4h-36l-10-2v-2l-12-1-3-5-15-1h-27l-1 2-5 2-15 15-9 14-5 12-1 6 4 9 1 9-6-2 2 8 3 1v-2h2v-2l8 1 3 4v6l-5 2v-8l-5 2-1 2-6 1-2 6-1 5-2-2v-10l2-5-2-4-4-4v-16l1-20 2-9 3-3 1 4 2-5 6-8 15-10 8-4 9-6 3-3h10l13-2-2-3z" fill="#31220C"/>
<path transform="translate(1065,790)" d="m0 0h2v78l-5-2-5-7-3-8-2-3v-8l-6-2-5-8-3-10-24 1-7 1-4-1-6 2-5 3-6 1v2l-5 1v2l-6 2-9-3 2-4 5-4 4-1v-2l9-1 13-8-1-3-2-2-4 3v-6l5-2v2l11-4 13-2h15l16-1z" fill="#E5B534"/>
<path transform="translate(774,1151)" d="m0 0h24v1l-28 1v2l3 2-5 2h-3v2l6 2v1l-16 2h-11l-5 5-11 7-8 4-10 7-8 12-2-1-2 3-1 6-1 20v16l1 3 3 1 2 5-2 4v11l1-4 3-7h6l2-4h4l1 4-1 4 4-2v-6l-2-3-8-2v2h-2v2l-4-1-1-8 5 1v-6l5 5 1 4 13 3 4 9v7l-1-2h-2v-2l-3 1 3 5v5h-4l-1 5h-5l-1 2-8 3-1 2-10-1-3-6v-16l-6-9-7-12-3-10v-20l3-10 6-11 8-9 11-8 13-5 20-3 7-4 5-1v-2l17-7z" fill="#33240D"/>
<path transform="translate(361,948)" d="m0 0h1l-1 9-4 11-4 9-9 6-12 5-46 16-14 2-11-2-11-6-6-5-5-10-1-4v-9l5 5 13 5 4 1h20l17-5 34-12 5-1h2l9-4 11-6z" fill="#2E200B"/>
<path transform="translate(647,1301)" d="m0 0 2 2v9l-3 5-14 8-7 2v2l-46 20-8 2-16 7h-2v2l-5 3-7 3-11 4-37 16-12 3v2l-29 13-14 6-8 2-35 15-24 10-42 18-3-1 3-3-8 1v-2l20-8 25-11 84-36 43-19 26-11 41-18 26-11 39-17 17-7h2z" fill="#D19E2B"/>
<path transform="translate(77,1122)" d="m0 0 1 4 1 6 28 40 16 23 14 20 17 25 14 20 10 14 14 21 7 10 8 12 10 14 13 19 7 10 11 16 12 17 23 34 12 18 10 6 5 2h7l4-2 9-1 1 2-4 2 9-3 35-15 19-8 42-18 3 1-32 14-30 13-37 16-16 6h-15l-7-4-7-7-16-24-13-18-13-19-16-23-13-19-14-20-13-19-22-32-12-17-16-23-28-40-16-23-14-20-9-14-1-3v-10z" fill="#D6A32D"/>
<path transform="translate(605,794)" d="m0 0 5 1 12 10-1 3-49 15-77 23-5-1-11-10 2-4 25-7 19-6 43-13 31-9z" fill="#17120B"/>
<path transform="translate(699 1e3)" d="m0 0 2 2 1 3v9l-5 5-26 9-30 11-33 12-17 6-39 14-41 15-11 4-4-1v-11l5-1 39-14 28-10 79-28 36-13 14-5z" fill="#2F210C"/>
<path transform="translate(694,881)" d="m0 0h7l-3 6-8 3h-3l-1 4-12 5-35 11-23 8-7 1-10 4-22 7-9 3-25 8-7 3-21 6-10 4-17 5-25 8-10 4-12 2h-9l-7-2-2-3h2v-4h13l12-2 57-18 62-20 50-16 5 1v-5z" fill="#A98852"/>
<path transform="translate(688,614)" d="m0 0h5l7 4v-2l4-1 4 3 16-2 5-2 5 4 9 1 1 3 6 2 3 6v2l-6 4-16 4-13 5-18 5-9 2-7 2h-13l-2-3v-7l3-4v-8l2-6 4-2 4-8z" fill="#E5B534"/>
<path transform="translate(664,676)" d="m0 0h1l-1 9 9 3 18 13 14 10 36 26 19 13 14 10 19 13 24 16 1 4-3 1-10-2-7-5-5-3-3-3-2-4-9-5-8-3-12-3v-2h-2l-1 4-2-4-14-10-54-39-21-16-9-2v-1l6-1v-7l-1-5z" fill="#9B835D"/>
<path transform="translate(1058,747)" d="m0 0h3l1 4v10l-6 3h-2l-2-10-14 4v9l-2 3-62 21-37 12-6-1-7-4-10 1 1 5 4 2 1 2-20 7-4 1v-8l4-8 36-12 47-16 10-4 21-7 13-4z" fill="#E7E4E4"/>
<path transform="translate(701,981)" d="m0 0 5 2 15 13 11 9 13 11 11 9 14 12 11 9 13 11 10 8 14 12 3 2v2l5 2 1 3 5 2 15 13 11 9 13 11 30 25 11 9 14 12 7 5v2h3v2l9 3 5 1h15l19-8 81-36h2v10l-42 19-16 7h-3v2l-8 3-12 5-21 9-4 1h-12l-12-4-2-2v-5l-15-15-10-8-11-9-11-10-13-10-13-12-10-8-15-13-14-12-11-9-13-11-11-9-14-12-11-9-13-11-14-12-11-9-15-13-9-7z" fill="#8E6A35"/>
<path transform="translate(425,1006)" d="m0 0 16 16 7 8 25 25 7 8 13 13 1 2 3 1v14l5-1 92-33 30-11 31-11 38-14 4 1-10 5-169 61-17 6-1 1h-6l-14-14-7-8-17-17-7-8-19-19-6-8-1-3v-13z" fill="#4B340E"/>
<path transform="translate(592,746)" d="m0 0 5 2 9 7 8-1 13-3 1 2-10 3 2 4 8 6h7l13-4h3l1-2v2l2 1-8 2 5 5 7 5 11-1 5-2 4 1-8 3 1 3 2 2-1 2 4 2 3 2v3l-18 6-5-1-12-9 1-4-7 2h-5l-6-4v2l3 1v3l-17 5h-6l-12-10 3-3 7-2-9-8-5-3v-3l-2-1 11-3h3v-3l-5-2-6-5z" fill="#7D7160"/>
<path transform="translate(806,1097)" d="m0 0h2l1 6-2 2v-3h-4l-2 4-16 6-36 14-15 6 20-7 13-5 14-4 8-2v2l-26 10-20 8-12 5-38 15-11 5-8 1-25 10-11 4-2 3-17 7-6 1-14 5-13 3h-7l-8-5-7-7-6-7 1-2 11 11 3 2 6 1 5 2 5-1-2-4 9-2 24-9 139-54 39-15 7-4z" fill="#17120A"/>
<path transform="translate(945,856)" d="m0 0 7 1 18 7 16 10 22 15 43 29 15 10 1 1v16l-5-2-11-8-12-8-25-17-47-32-9-7-6-8-7-6z" fill="#E8E5E7"/>
<path transform="translate(700,1020)" d="m0 0 1 3-2 8-3 3-31 12-25 9-17 6-10 4-6 2-7 2-2 2-17 5-25 9-13 5-19 6-9 3-6 1h-11l-3-1v-2l9-3 56-20 44-16 61-22 29-11z" fill="#D29F2C"/>
<path transform="translate(740,1176)" d="m0 0h27l15 1 3 5 12 2v2h8l2 1h38l5 6-1 5-5 10-1-3 1-5-5-6-3-1-5 2-22-1h-29l-20 3-15 2h-9l-9-3-4 1-8 7-8 16-2 7-1 3-1-5 5-13 7-12 11-12 5-5h2l1-3 5-1z" fill="#D7A42D"/>
<path transform="translate(220,1313)" d="m0 0 5 5 7 10v2l3-1 2 4 4-2 13 3 7 10 3 7 6 11 7 10 7 14 5 2 5 6v2h2l2 3 8 2 1 6-8-1 2 2-3 1 5 2 11-1 1 3-10 4h-8l-5-4 3 4v2h12l25-11 17-7 43-18 3 1-35 15-43 18-17 7-4-2-10-13-11-16-12-17-14-20-24-34-5-7z" fill="#372A16"/>
<path transform="translate(538,758)" d="m0 0h5v3l4 2 11 8-2 2-14 4v3l11 8 5 1-2 2-12 3 5 5 6 5h10l-1 3-33 10-6 2-6-1-12 4h-5l-11-9 1-4 19-6-12 1-11-9 1-3 15-5h7l1-4h5l-2 4 10 8 10-1 11-3h3l-5-6-7-5-7-1 4-2 16-5h2l-4-5-8-6-4-2z" fill="#857867"/>
<path transform="translate(134,711)" d="m0 0h8l2 2h-4l3 7 7 2 9 2 4 3-1 3-8 3-15 5-5 2-12 3-5 1h-5l-6 2-12-1h-6l-1 2-1-1-2 2-10 1-8-3-3-2h3l-4-5 2-5 4 2v2h2v2l7-3 7-4 21-6 15-9z" fill="#4A330D"/>
<path transform="translate(777,1152)" d="m0 0h26l5 1 30 1 7 10 4 7 1 7 4 5 4 7 16 4-1 5-10 16-14 9-2 4 4 3v2l-9-2v-21l7-13-1-6-5-4-2-4-11-9-6-5-5-4 4 1 10 6 4 3-1-1-9-7-12-6-13-4h-20l-13 3-2 2-3-1 1-2 6-2-2-2 1-2z" fill="#30220C"/>
<path transform="translate(224,897)" d="m0 0h3l2 6-2 2-16 6-26 8-17 7-43 14-47 14-48 13-30 7v-8l42-10 50-14 63-19 38-13 29-12z" fill="#4B340F"/>
<path transform="translate(584,960)" d="m0 0 5 1 2 4-3 6-1 7 4 2-1 4-9 1-1 9h2l-2 6-9 5h-7l-3-3-2-7-8-4-1 2-2-3-3 3v-2l-4-1-4 2-1-4 3-5 1-5 1-2 7-3 3-4 12-4 2-3 3-1h14z" fill="#15110A"/>
<path transform="translate(1065,790)" d="m0 0h2v78l-5-2-5-7-3-8-2-3v-8l-6-2-3-4-1-9-1-2v-9l6-12 8-7z" fill="#E8E5E7"/>
<path transform="translate(509,1119)" d="m0 0h1l3 10 1 5 4 2 18 18 7 8 27 27 5 4 8 3h8l17-5 21-8 18-7 15-6 13-5-1-2 2-1 2-4 1 5 50-20 23-9 3 1-5 4-24 9-12 6-13 5-31 14-17 6-8 4-15 6-6 3-9 2-12 4-9 2h-13l-10-3-9-7-8-7-4-5-37-37v-2h-2l-2-4z" fill="#CC9A2C"/>
<path transform="translate(247,483)" d="m0 0 2 4-1 4v15l4 105 4 128 1 25v20l-1 2 3 10v5l-2-4-7-21-7-13v-3l7 10 2 4v-13l-5-142-4-115v-14l2-6z" fill="#8F7E66"/>
<path transform="translate(782,1156)" d="m0 0h20l13 4 14 7 9 7-1 2-10-7-6-3 8 6 10 9 3 2v3h-6l-6-5-4-6h-12v-1l9-1-11-1-10-2 1 3-2 4-4-1-2 4-2-3-13-2-32-1-5-1 3-4-7 2 5-6h11l13-2-2-3z" fill="#1A140B"/>
<path transform="translate(338,879)" d="m0 0 7 6 42 42 8 7 26 26 3 9 2 2 6 1h9l12-2 16-6 31-10 14-4 8-3 20-6 8-3 21-7 13-4 24-8 1-1 10-2 38-13h5l-2 2-36 12-10 4-15 4-52 17-10 4-15 4-13 5-17 5-33 11-5 2-9 2h-18l-4-2-13-13-2-1-1-4-66-66-3-7z" fill="#916C34"/>
<path transform="translate(657,941)" d="m0 0h1l1 12 5 5 5 4v2l4 2 14 12 7 5v2l4 2 15 13 10 8 3 2v2l5 2 1 3 5 2 2 4-6 1-7-3-5-4-10-5-9-6-1 3-3-6-11-10-11-9-10-9-11-9-8-7 2-4h2v-2h2l2-10h2z" fill="#D3A02C"/>
<path transform="translate(695,1006)" d="m0 0h2l1 5-8 4-20 7-29 10-25 9-43 15-72 26-4-1v-2h-3l1-4 2-1v2l42-14 10-4 27-9 25-9 38-14 20-7 27-10z" fill="#312A22"/>
<path transform="translate(693,681)" d="m0 0 8 6 25 17 20 14 17 12 46 32 17 12 23 16 20 14 19 14 6 4 5 1v1h-8l-3-1v-2l-4-2-13-10-16-11-10-7-15-10-17-12-21-14-19-12-11-8-10-6-22-11-15-8-12-6-7-10-3-8z" fill="#BB8726"/>
<path transform="translate(878,1214)" d="m0 0 1 3-3 6-3 9-5 5-4 3-5 13-7 11-5 6-12 9-14 7-13 4-12 3-15 5-5 1h-26l-15-4-8-3v6l-15 5-9 1-4-5-2-7-3-5v-22l-1-4 3 2v16l2 6h8l2 1 1-3 5-2h3l1-3 5 1v-5l3-1 2 1 1 10-5 3h-2v3l9 1 11 4 11 2h19l17-4 18-8 13-4 16-8 9-7 7-7 8-14 4-10 2-6 3-3h2l2-4z" fill="#B18129"/>
<path transform="translate(1051,753)" d="m0 0 2 1 1 10 7-3 1-4 4 1v6l-5 5-11 4-20 6-36 12-38 13-13 4h-2l-1 2-3-3v-2l-5-1 1-2 7-1 70-23 26-9 1-2v-9l7-3z" fill="#32230B"/>
<path transform="translate(724,1263)" d="m0 0h4v2h2l3 6 2 3v3l5 2 8 3 13 2h26l16-2 15-5h3l-1 5-18 6-16 7-14 3h-19l-14-3-11-4-6-1v-3l6-3-1-15z" fill="#2D1F0B"/>
<path transform="translate(679,1208)" d="m0 0 1 4v20l4 12 9 15 2 7v21l4 6 2 8 2 2 9-1 13-4h2v-6l5 1 13 4 5 1h26l15-4 7-3 17-4 10-4 3 1-5 3-5 5-5 4-9 4-10 2-13 2-24 1-33-1h-11l-10 2-5-6-1-7-4-2-1-3v-13l-6-10-7-15-2-15v-18z" fill="#D6A32C"/>
<path transform="translate(275,829)" d="m0 0 15 15 5 4 7 8 13 13-4 2-23 5-10 3-7 3-10 3h-3l2-5 4-8 7 1 4-3 2-14-1-13-1-4z" fill="#D5A22C"/>
<path transform="translate(237,883)" d="m0 0 3 1-14 9-21 10-36 12-62 19-8 3-10 2-7 2-8 1 3-2 12-5 36-12 19-7 16-10 10-10 4-5 6 1-1 4 13 2 16-1 19-8z" fill="#342611"/>
<path transform="translate(398,837)" d="m0 0h8l10 10v2l-54 17h-8l-8-8-2-1 1-4 22-7 21-6z" fill="#18140C"/>
<path transform="translate(641,1312)" d="m0 0 1 3-16 8-88 38-35 15-20 9-123 53-31 13-8 1v-2l20-8 25-11 84-36 43-19 26-11 41-18 26-11 39-17z" fill="#A28960"/>
<path transform="translate(919,797)" d="m0 0 7 1 6 4v2l5 1v2l3 1 13 18 5 6 8 7 10 9 10 7 15 10 4 3-2 4h-8l-10-7-22-16-12-10-5-4-5-10-2-2v-3h-2l-5-7h-11l3-2-7 2 1 2-12 4-2-1 1-3 16-6 2-3-8-5 1-3z" fill="#1D170C"/>
<path transform="translate(841,1159)" d="m0 0h22l5 9 16 4v2h3l-2 6 5-5 2 2-1 5-6 9h-3l-1 7-6-4-14-2-4-2-6-10-2-2-2-9z" fill="#BD8C2E"/>
<path transform="translate(679,1212)" d="m0 0h1l1 18 4 12 7 12 8 8v7l1-4 3-7h6l2-4h4l1 4-1 4 4-2v-6l-2-3-8-2v2h-2v2l-4-1-1-8 5 1v-6l5 5 1 4 13 3 4 9v7l-1-2h-2v-2l-3 1 3 5v5h-4l-1 5h-5l-1 2-8 3-1 2-10-1-3-6v-16l-6-9-7-12-3-10z" fill="#342C21"/>
<path transform="translate(698,1008)" d="m0 0 3 2-1 3-6 4-41 15-36 13-94 34-20 7h-6l-1-4 5-1 39-14 28-10 79-28 36-13 14-5z" fill="#15110A"/>
<path transform="translate(166,915)" d="m0 0h6l-2 2-22 8h-3v2l-36 11-22 6-20 6-25 7-39 9h-3v-6l25-6 41-12 13-4 3 1-4 2 10-2 4-2 10-2 8-3z" fill="#C69732"/>
<path transform="translate(705,780)" d="m0 0 4 2-3 3-5 9v8l5-4 1 1 1 9-3 4-1 7-3 2-18-14-12-9h-8l-13 4-3-1-1-2 13-3 11-4 9-2-1-3-6-4v-2l5 2 5 4 8-1 14-4z" fill="#99815D"/>
<path transform="translate(758,1039)" d="m0 0 5 2 1 3 5 2 5 5 3 2v2l5 2 1 3 5 2 1 3 5 2 1 3 5 2 5 5 3 2v2l5 2 4 4 6 5 4 4-2 1v-2l-5-1 1 3-3 1-9-1-6-8-11-9-11-10-11-9-12-11-9-7v-1l8-1z" fill="#D19F2C"/>
<path transform="translate(718,744)" d="m0 0 7 1 10 8 1 2-13 4-35 10h-5l-12-9 1-3 14-4 25-7z" fill="#31230E"/>
<path transform="translate(84,798)" d="m0 0h4v2l-13 3v5l-9 2v2l2 1-62 17-6 1v-13l36-8z" fill="#423A2F"/>
<path transform="translate(809,1097)" d="m0 0h1v8l-4 7-10 6-34 13-56 22-25 10h-2l-1-5 6-1 14-6 44-17 11-5 33-13h3v-2l-14 5h-6l-1 2-12 4-21 8-3-1 25-10 28-11 16-6 2-3 5 1z" fill="#4F3813"/>
<path transform="translate(368,827)" d="m0 0h8l10 10-1 3-40 12h-6l-10-10 2-4 17-5z" fill="#1A160E"/>
<path transform="translate(361,948)" d="m0 0h1l-1 9-4 11-4 9-9 6-12 5-46 16-14 2-11-2-11-6-6-5-5-10-1-4v-9l7 6 4 9 6 8 9 6 7 2h7l10-3 16-6 27-9 14-7 4-5 6-15z" fill="#4C3510"/>
<path transform="translate(951,1080)" d="m0 0 3 1v9l-4 9-2 14 2-6 2-1v7l-4 10-4 7v7l-12 2-1-4 4-7 1-5h-6l-2-1 1-9 3-11 3-1v-6l2-1 1 2 2-3 6-1-1-8 3-3z" fill="#15110A"/>
<path transform="translate(385,452)" d="m0 0 7 1 5 5 3 4v6l-12 3h-4-1l-4 2-9 2h-5l-13-11-2-2v-3z" fill="#2E200C"/>
<path transform="translate(655,697)" d="m0 0h8l38 28 17 12 19 14 17 12 1 3-1 2-16 5h-7l-13-9v-3l-2-1 17-5 2-1-10-8-7-1h-5l2-2h3v-3l-4-2-9-6-1-2-11-6v-2l-5-2h-7l3-3-12-9-1-2-7-4-4-1v-2h-9z" fill="#92836F"/>
<path transform="translate(721,1184)" d="m0 0h2l-1 3-5 3-7 11-4 9-3 13-1 12 2-2 4 4 1 9-6-2 2 8 3 1v-2h2v-2l8 1 3 4v6l-5 2v-8l-5 2-1 2-6 1-2 6-1 5-2-2v-10l2-5-2-4-4-4v-16l1-20 2-9 3-3 1 4 2-5 6-8 3-2z" fill="#17120A"/>
<path transform="translate(74,1127)" d="m0 0h1l2 11 7 11 16 23 14 20 16 23 42 60 22 32 16 23 7 10-1 2-8-10-12-17-7-10-4-6v-2h-2l-4-6-4-4-8-14-5-7v-2h-2l-6-9-12-17-11-15-10-14-8-12-6-8-1-4h-2l-6-8-6-9-10-13-6-9-2-9z" fill="#E5B534"/>
<path transform="translate(701,981)" d="m0 0 5 2 15 13 11 9 13 11 11 9 14 12 11 9 13 11 10 8 14 12 3 2v2l5 2 1 3 5 2 15 13 11 9 13 11 30 25 11 9 14 12 7 5v2h3v2l6 2 1 4-6-2-6-5-5-3-5-5-8-7-8-6-10-9-14-11-11-10-11-9-15-13-14-12-13-11-11-9-26-22-11-9-13-11-11-9-15-13-11-9-15-13z" fill="#716350"/>
<path transform="translate(870,1193)" d="m0 0h5l8 7 1 6-10 16-4-1-3-3-4 2-6 4-2 6 1 1v5l-2 3-5-2-7-4v3l4 1 4 5-1 7h-2l-2 5-7 7-4 3-2-1 3-5 3-3 2-4h2l1-4 3-3h2l-3-3-5-3-3 7-2-1 1-8 5-9 1 4 7 1 2 1v-2l-4-2v-4l5-4 11-7 10-17 1-3z" fill="#352C22"/>
<path transform="translate(514,1132)" d="m0 0 4 2 20 20 7 8 17 17 8 7 5 4 4 2h7l20-5 11-4 10-3 9-4 2-3 15-6 6-2 15-6h3l-1 4 1 2-21 8-11 5-40 15-14 4h-8l-10-4-8-7-7-8-22-22-7-8-13-13-2-1z" fill="#533C18"/>
<path transform="translate(394,446)" d="m0 0h5l1 4-129 26-17 4-3 1-2 4-3-1 2-4 6-5 9-3 81-16z" fill="#94836A"/>
<path transform="translate(346,815)" d="m0 0h8l10 10v2l-21 7-12 3h-7l-10-10v-2l18-6z" fill="#18140C"/>
<path transform="translate(684,398)" d="m0 0h1v19l-7 106-8 105-4 47-5 10-11 2-17 4-8 1 2-2 32-9h2l2-10 3-26 4-50 13-195z" fill="#918067"/>
<path transform="translate(777,1152)" d="m0 0h26l5 1 30 1 7 10 4 7v7l-7-4h-6l-9-7-12-6-13-4h-20l-13 3-2 2-3-1 1-2 6-2-2-2 1-2z" fill="#362C1F"/>
<path transform="translate(224,897)" d="m0 0h3l2 6-2 2-16 6-26 8-17 7-43 14-47 14-48 13-30 7 1-4 34-8 48-12 19-6 17-5 20-7 56-20 13-5h2v-4z" fill="#614A29"/>
<path transform="translate(702,731)" d="m0 0 5 1 11 8v3l-13 4-21 6h-6l-12-9 1-3 17-5z" fill="#32240F"/>
<path transform="translate(647,1301)" d="m0 0 2 2v9l-3 5-14 8-7 2v2l-46 20-8 2-34 15-13 5-3-1 10-5v-2l69-30 37-16 4-2 3-3z" fill="#C59127"/>
<path transform="translate(140,1221)" d="m0 0 4 4 10 15 14 20 10 14 14 21 7 10 8 12 10 14 13 19 7 10 11 16 12 17 23 34 12 18 5 3v2l-5-2-8-10-14-21-10-14-16-23-11-16-16-23-11-16-13-19-22-32-32-46-2-4z" fill="#EDC23A"/>
<path transform="translate(630,929)" d="m0 0h10l1 3-3 5-7 3v3l-4-1-1-1-7 1-29 10h-6v-2h-13l2-4 7-3 17-4 21-7z" fill="#EBC039"/>
<path transform="translate(958,1220)" d="m0 0 5 1 11 9 19 14 15 12 12 9 18 14 19 14 10 7v2l-11-1-16-12-10-8-7-6-4-6-12-9-10-8-7-3-6-7-10-5-6-8-3-2-8-2v-4z" fill="#E3B333"/>
<path transform="translate(774,1151)" d="m0 0h24v1l-28 1v2l3 2-5 2h-3v2l6 2v1l-16 2h-11l-5 5-11 7-8 4-11 8v-3l6-5h2v-2l7-2 1-3 9-5-9 3-14 7-7 6-5 3-7 8-2-4h-2l2-4 6-7 11-8 13-5 20-3 7-4 5-1v-2l17-7z" fill="#3C3020"/>
<path transform="translate(674,693)" d="m0 0 5 2 36 26 19 13 17 12 15 11-2 1-11-4-5-2-2-2-7-4-8-5-9-7-4-4-5-1-1-6-2-1-2-4-4 1-2-3-6-3v-2l-6-1-1-3-6-2-9-1-4-3v-7z" fill="#916C35"/>
<path transform="translate(471,834)" d="m0 0 6 1 11 10v3l-21 6-6 2-6-1-10-10v-3l12-4 7-2z" fill="#1B160E"/>
<path transform="translate(740,1176)" d="m0 0h27l15 1 3 5 12 2v2h8l2 1h38l5 6-1 5-5 10-1-3 1-5-2-5-6-5h-31l-11-2-3-2-7-2-1-1-15-1h-30l-11 9-10 10-8 14-5 15-1-5 5-13 7-12 11-12 5-5h2l1-3 5-1z" fill="#BE8925"/>
<path transform="translate(657,903)" d="m0 0h5l-2 2-36 12-10 4-15 4-52 17-10 4-15 4-13 5-17 5-33 11-5 2-9 2h-18l-4-2-4-4v-2l5 2 2 2 6 1h9l12-2 16-6 31-10 14-4 8-3 20-6 8-3 21-7 13-4 24-8 1-1 10-2z" fill="#826131"/>
<path transform="translate(529,423)" d="m0 0h5l1 3-4 4-17 6-30 4-19 1-14-1 3-2z" fill="#16120B"/>
<path transform="translate(693 1e3)" d="m0 0h6l-1 5-1-2-11 4-32 12-26 9-36 13-19 7-33 11-10 4-12 4-17 6-4-1 24-9 28-10 28-11 10-3 8-3 17-6 29-10 47-17 5-1z" fill="#15110A"/>
<path transform="translate(319,902)" d="m0 0h5l2 6h2l-1 4-5 5-4 3h-2v2l-8 3-4-1 6-4-8 1-6 1-9 1-2 1h-8l-2-1 2-4 12-3 4-2 1-2 13-3 9-6z" fill="#352D22"/>
<path transform="translate(693,1023)" d="m0 0 4 1-10 5-169 61-18 6 2-4 92-33 30-11 31-11z" fill="#4D3611"/>
<path transform="translate(694,881)" d="m0 0h7l-3 6-41 14-27 9h-5l-1-6z" fill="#E8E5E7"/>
<path transform="translate(1065,1136)" d="m0 0h2l-1 4-14 7-16 7-7 1v3l-11 4-9 3-7 3 1 2-7 3-8 2-17 8-11 3-13-1-7-5v-1l10 1h15l19-8 45-20z" fill="#837868"/>
<path transform="translate(636,785)" d="m0 0 7 1 10 8 1 4-24 7-7-1-11-9 1-3z" fill="#1D180F"/>
<path transform="translate(1066,735)" d="m0 0h1v7l-2 2-26 8-69 23-4-1 41-14 33-11-86 28-29 10-21 7-4 2 1-3 11-4 50-17 72-24 8-3 13-5 4-2h3v-2z" fill="#1F170B"/>
<path transform="translate(666,708)" d="m0 0h7l11 8v3l-28 7-7-1-10-8 1-2z" fill="#19140C"/>
<path transform="translate(443,1401)" d="m0 0 6 1-4 3-15 7-35 15-24 10-42 18-3-1 6-5 30-13 37-16 35-15z" fill="#BF8A25"/>
<path transform="translate(1040,1157)" d="m0 0h2v2h-3l2 7-5 3-14 7-9 3-10 5-6 2h-6l-2-2-10 1 3-2 11-5 7-3 6-1v-2l21-9z" fill="#E0AF32"/>
<path transform="translate(129,698)" d="m0 0h7l7 3 6 7-1 2-7-8-2-1h-9l-12 4-11 6v2l-17 3 4 3h-5l-1-3-2 1 2 3-6-3 1 4-4 2v-4l-6 3v11l-4 2-2-3 1-7 3-5-8 7v-3l5-5 5-3 16-6 11-5 14-5z" fill="#332510"/>
<path transform="translate(408,853)" d="m0 0h5l12 11v3l-20 6h-6l-11-11 1-3z" fill="#1B160D"/>
<path transform="translate(490,774)" d="m0 0 8 6 5 4h9l-1 3-14 3-8 3v2l10 8h6l6-1 2 2-21 6-1 3 4 2 7 6 7-1 10-3 3 1-1 2-19 6-9 1 1-2 5-1-5-5-7-6-7-1 1-2 13-4h2l-4-5-8-6-7 1-8 1 4-4-10-9-4-3 8-3h5l1-2h5l-2 2-6 2h-4v4l4 2 7 6 7-1 13-4h3l-6-7-4-3z" fill="#857968"/>
<path transform="translate(380,862)" d="m0 0h5l11 11v2l-7 3-10 3h-10l-10-10 1-3z" fill="#19140D"/>
<path transform="translate(435,845)" d="m0 0h7l11 10-1 4-18 5h-6l-7-7-4-3 1-4z" fill="#1B160E"/>
<path transform="translate(486,1102)" d="m0 0 8 1 10 9-2 5-5 1-8 1-9-1-5-2-2-4-5-6 3-3z" fill="#ECC139"/>
<path transform="translate(455,820)" d="m0 0h5l12 11v2l-20 6h-5l-7-7-4-3v-3z" fill="#1A160E"/>
<path transform="translate(426,810)" d="m0 0 6 1 10 10v2l-20 6-6-1-10-9 1-3z" fill="#1B160E"/>
<path transform="translate(815,1281)" d="m0 0h5l-3 2-15 5-16 7-14 3h-19l-14-3-8-3v-1h10l-1-2h42l1 2 9-1 6-2v-2z" fill="#33240E"/>
<path transform="translate(428,828)" d="m0 0 5 1 8 7 3 2v3l-20 6-6-1-10-9 1-3z" fill="#1B160E"/>
<path transform="translate(377,806)" d="m0 0 5 1 10 10v2l-19 6h-6l-7-7-4-3 1-3z" fill="#1B160E"/>
<path transform="translate(398,818)" d="m0 0h5l8 7v2l3 1-1 3-19 6h-5l-7-7-3-2 1-4z" fill="#1B160E"/>
<path transform="translate(482,812)" d="m0 0 7 1 10 9v2l-18 6h-7l-11-10v-2l15-5z" fill="#1B160E"/>
<path transform="translate(404,798)" d="m0 0 5 1 10 9v3l-19 6h-5l-11-10 1-3z" fill="#1D170F"/>
<path transform="translate(452,802)" d="m0 0h6l11 10-1 3-17 5h-6l-11-9v-3z" fill="#1B160E"/>
<path transform="translate(356,792)" d="m0 0 3 1h-2v5l9 8 9-1 13-4 3 1-6 3 2 4 11 9-3 2-15 5v3l8 7 1 1 8-1 6-1 1 3-16 4-7 1 1-2 3-1-2-4-7-7h-12l-3-5-8-8-5-1 1-2 11-3h3l-7-8-3-3 1-5zm21 14-20 6v4l10 9h6l19-6-2-4-8-8z" fill="#847765"/>
<path transform="translate(431,790)" d="m0 0 5 1 2 1v2l4 2 5 6-3 2-15 4h-7l-10-9v-3z" fill="#1B160E"/>
<path transform="translate(375,789)" d="m0 0h5l11 10v2l-20 6h-5l-10-9v-3z" fill="#1C170E"/>
<path transform="translate(1051,753)" d="m0 0 2 1 1 10 7-3 1-4 4 1v6l-5 5-11 4-6 2h-6l-3-4 2-4v-9l7-3z" fill="#251F14"/>
<path transform="translate(347,797)" d="m0 0h6l10 10v2l-20 6h-5l-10-10v-2l15-5z" fill="#19150D"/>
<path transform="translate(320,805)" d="m0 0h5l10 10v2l-20 6h-5l-10-10v-2z" fill="#17130B"/>
<path transform="translate(480,794)" d="m0 0 6 1 10 9v2l-18 6h-6l-9-8-2-1v-3z" fill="#19150D"/>
<path transform="translate(509,804)" d="m0 0 7 1 10 9v2l-19 6h-5l-11-9 1-4z" fill="#1B160E"/>
<path transform="translate(456,783)" d="m0 0h7l11 10-3 3-14 4h-8l-10-9v-3z" fill="#1A160E"/>
<path transform="translate(660,778)" d="m0 0h7l12 9v3l-18 6-5-1-12-9 1-3z" fill="#1D170F"/>
<path transform="translate(687,770)" d="m0 0 5 1 12 9v3l-17 5-7-1-11-9 1-3z" fill="#31230F"/>
<path transform="translate(402,781)" d="m0 0h5l11 10v2l-20 6-5-1-10-9v-2l13-4z" fill="#1A150E"/>
<path transform="translate(484,775)" d="m0 0 6 1 10 9v2l-19 6-5-1-10-8v-4z" fill="#19150D"/>
<path transform="translate(275,819)" d="m0 0 4 1 36 36 8 7 11 11-3 1-10-5-36-36-10-11z" fill="#906E3A"/>
<path transform="translate(504,787)" d="m0 0h8l4 3v2l4 2 3 2v2l-18 6h-6l-11-9 1-3z" fill="#1B160E"/>
<path transform="translate(587,781)" d="m0 0 7 1 8 7 3 2-1 3-16 4h-7l-11-9 1-3z" fill="#1D170F"/>
<path transform="translate(532,779)" d="m0 0 7 1 10 9v2l-18 5h-6l-11-9 1-3z" fill="#1B160E"/>
<path transform="translate(712,763)" d="m0 0 5 1 4 3v2l6 2 2 4-17 6-7-1-11-9 1-3z" fill="#2A2011"/>
<path transform="translate(614,774)" d="m0 0 6 1 7 6 3 2v3l-17 5h-6l-12-10 3-3z" fill="#1A150D"/>
<path transform="translate(60,730)" d="m0 0 4 3-1 6 3 3v2h-3v2l-27 7h-13l4-3 20-11h2v-2l9-5h2z" fill="#2F210C"/>
<path transform="translate(426,774)" d="m0 0h8l11 9v2l-19 6h-5l-11-10 1-2z" fill="#1B160E"/>
<path transform="translate(508,768)" d="m0 0h7l12 10-1 2-11 3-6 2h-6l-11-9v-3z" fill="#19150D"/>
<path transform="translate(919,797)" d="m0 0 7 1 6 4v2l5 1v2l3 1 9 13-4 3-1-2-5 1v-3h-2l-5-7h-11l3-2-7 2 1 2-12 4-2-1 1-3 16-6 2-3-8-5 1-3z" fill="#1D170E"/>
<path transform="translate(184,770)" d="m0 0 4 1h-3v2l-14 6-7 2-10 3-2 2-13 2-21 7-17 3-5-1-5 2-3-2 56-15 27-8z" fill="#473E34"/>
<path transform="translate(584,764)" d="m0 0 6 1 11 9v2l-17 5h-7l-11-9 1-3z" fill="#1B160E"/>
<path transform="translate(537,760)" d="m0 0 5 1 10 9v2l-16 5h-8l-10-9 1-3z" fill="#1A150E"/>
<path transform="translate(536,796)" d="m0 0h5l8 7 3 3-1 2-16 5h-7l-11-9v-2l15-5z" fill="#1C170F"/>
<path transform="translate(841,842)" d="m0 0 3 1-41 14-20 7-3 2-60 20-14 4-10 4-11 3-10 4-6 2h-7l3-2 15-5 7-3 14-4 10-4 20-6 48-16 41-14z" fill="#7B5C2A"/>
<path transform="translate(415,869)" d="m0 0h8l7 2v3l-5-2-8 1-1 4-5 4-3-1-2-2-2-1v3h-3v2l-7 2-9 3-1 1h-7l-6-2v-5l10-2 10-3h9l5-2h-5v-1z" fill="#6F675C"/>
<path transform="translate(509,751)" d="m0 0 4 1 8 6v2h2v3l-16 5h-7l-11-9v-2l16-5z" fill="#1B160E"/>
<path transform="translate(556,772)" d="m0 0h8l11 9-1 3-15 4h-8l-11-9 2-3z" fill="#19140C"/>
<path transform="translate(637,767)" d="m0 0h6l12 9 1 2-18 6h-5l-12-10 1-3 7-2z" fill="#1A150D"/>
<path transform="translate(455,766)" d="m0 0 7 1 9 8-1 3-16 5h-6l-11-9 1-3z" fill="#1B160E"/>
<path transform="translate(562,753)" d="m0 0 5 1 11 9v2l-17 5h-6l-11-9v-2l7-3z" fill="#19140D"/>
<path transform="translate(560,789)" d="m0 0h7l10 8v4l-15 4h-7l-11-9v-2z" fill="#1C170F"/>
<path transform="translate(609,757)" d="m0 0h5l12 10v2l-17 5h-6l-11-9 1-3z" fill="#1A150D"/>
<path transform="translate(736,756)" d="m0 0 5 1 5 3v2l5 2 2 4-15 5h-7l-12-9v-3z" fill="#31230E"/>
<path transform="translate(635,750)" d="m0 0 5 1 11 9v2l-16 5h-7l-11-9 1-3z" fill="#18140C"/>
<path transform="translate(661,760)" d="m0 0h8l12 9v2l-17 5h-6l-12-9v-2z" fill="#312411"/>
<path transform="translate(479,759)" d="m0 0h8l11 9-3 3-15 4h-7v-2l-4-2-6-5v-2z" fill="#1B160E"/>
<path transform="translate(73,947)" d="m0 0h6l-1 3-6 2-1 2-36 9-34 8h-1v-5l42-10 25-7z" fill="#4A340E"/>
<path transform="translate(587,746)" d="m0 0 5 1 11 8v3l-17 5-7-1-10-9 3-3z" fill="#1C170F"/>
<path transform="translate(613,739)" d="m0 0 4 1 11 9v2l-17 5h-5l-12-9 1-3z" fill="#1B160E"/>
<path transform="translate(534,744)" d="m0 0 5 1 10 8-1 3-17 5-6-1-10-8 1-3z" fill="#1B160E"/>
<path transform="translate(656,744)" d="m0 0h8l12 9v2l-17 5h-5l-12-9v-3z" fill="#1C160D"/>
<path transform="translate(634,733)" d="m0 0h7l12 9v2l-16 5h-6l-12-9 1-3z" fill="#1B160E"/>
<path transform="translate(1061,744)" d="m0 0 3 1-10 4-35 12-17 5-18 6-10 4-47 16-27 9v-3l44-15 22-7 10-4 78-26z" fill="#887657"/>
<path transform="translate(841,1159)" d="m0 0h22l6 11 2 3-2 3h-20l-3-9z" fill="#9D845D"/>
<path transform="translate(207,766)" d="m0 0 16 1 12 4 8 5-2 1-1 8-2 4-9-2-1-6h-2v-5l-5-5-4 1-5 3v3h-3l-1-1v3h-3v-6l3-1 2 1v-2l6-2v-2h-18v-1z" fill="#473D30"/>
<path transform="translate(844,823)" d="m0 0 5 1-3 9-5 2-18 6-4 1-10 4h-2v-2l-2-1 3-5 2-2h6l3-1 2 1v-3l16-7z" fill="#9B835D"/>
<path transform="translate(641,1312)" d="m0 0 1 3-16 8-58 25-28 12h-2l-1-3 42-18 46-20z" fill="#A1895F"/>
<path transform="translate(607,724)" d="m0 0 7 1 10 8v2l-13 4-9 1-10-8v-4z" fill="#18140C"/>
<path transform="translate(659,726)" d="m0 0h6l12 9v2l-17 5h-5l-10-8v-4z" fill="#1A150C"/>
<path transform="translate(556,738)" d="m0 0h8l10 8-1 3-14 4h-8l-10-8v-2l11-4z" fill="#1B160F"/>
<path transform="translate(685,719)" d="m0 0 5 1 3 2v2l5 2 3 2v3l-16 4h-6l-11-8v-3z" fill="#32240F"/>
<path transform="translate(263,922)" d="m0 0h10l2 2-5 4-8 4-11 3-7 4-7-1-2-2 1-5 4-3 15-4z" fill="#332B22"/>
<path transform="translate(583,731)" d="m0 0 7 1 9 7v3l-15 4h-7l-11-8 1-3z" fill="#1B160E"/>
<path transform="translate(632,717)" d="m0 0 6 1 11 8v2l-17 5-7-1-10-8v-2z" fill="#1B160E"/>
<path transform="translate(314,462)" d="m0 0h5l-1 4-12 3-45 9-10 3-2 4-3-1 2-4 6-5 9-3z" fill="#93836B"/>
<path transform="translate(1066,1139)" d="m0 0h1v7l-33 15-3-1 3-1h-3l-9 3v2l-9 3-7 3-6-1 4-3 9-4 16-4v-3l14-5 22-10z" fill="#8F6B36"/>
<path transform="translate(865,1217)" d="m0 0 4 2 4 4-4 4-4 2-1 3-3 1-8 16-9 11-5 2 6-7 2-6h2v-7l-4-5-3-1v-3l5 2 7 4 1-8-1-3 3-5z" fill="#32230C"/>
<path transform="translate(706,1185)" d="m0 0 2 1-8 10-3 13-2 19-2 12-3-3-3-11v-9l4-14 6-9 4-5z" fill="#C9982C"/>
<path transform="translate(247,846)" d="m0 0 8 6 3 2-1 7-3 8-9 10-4 4-7 3-16 8-10 4-2-1 24-12 12-9 8-10 1-5h-2l-1-6-6-1 4-7z" fill="#32230C"/>
<path transform="translate(47,737)" d="m0 0h2v2l-24 13 5 1-3 1v2h-5l-1 3-4 3-9 3-6 4h-2v-15l17-1 8-4 18-10z" fill="#4A330D"/>
<path transform="translate(432,1410)" d="m0 0 3 1-32 14-30 13-37 16-16 6h-9l2-1v-2h-4v-3h-2v-2l3 1h7l4-2 9-1 1 2-4 2 9-3 35-15 19-8 35-15z" fill="#D7A42D"/>
<path transform="translate(596,1337)" d="m0 0m-7 1h7v2l-14 6-3 3-8 2-34 15-13 5-3-1 10-5v-2l30-13z" fill="#BF8B25"/>
<path transform="translate(679,1208)" d="m0 0 1 4v20l4 12 9 15 2 7-1 10-4-4-9-17-3-10-1-10v-18z" fill="#D4A12C"/>
<path transform="translate(154,917)" d="m0 0h6l-4 2-49 15-8 3-10 2-7 2-8 1 3-2 12-5 36-12 13-5h2v2z" fill="#5B441F"/>
<path transform="translate(732,1169)" d="m0 0 3 1-10 6-3 3-5 1v2l-8 6-1 4-6 9-2-1-1-4 8-10-7 5-7 10-3 8-4-2 1-8 4-4 7-6 3-3 7-4 8-6 12-5z" fill="#392A12"/>
<path transform="translate(325,794)" d="m0 0h7l3 4-7 3-27 8h-6l-2-5 7-3z" fill="#1A150D"/>
<path transform="translate(724,1273)" d="m0 0 4 1 1 10-12 7-13 5-3-6 1-4 4-1 2 1 1-3 5-2h3l1-3 5 1v-5z" fill="#907951"/>
<path transform="translate(730,1178)" d="m0 0h2l1 5-8 7-9 10-8 14-4 11 1 5 2 7-3-3-3 2 1-13 3-13 4-9 7-11 3-3 4-2 5-6z" fill="#3B3020"/>
<path transform="translate(416,787)" d="m0 0 4 2 1 1 8-1 9-1 6 7 5 4h8l12-3 1 2-9 2v3l4 2 7 6h8l2 2-15 4-2-2 3-1-2-4-8-7-9 1-12 3-1-2 10-3-6-7-2-1v-2l-7-1-17 5h-2l-1 3v-3l-3-1 10-2-2-3z" fill="#807565"/>
<path transform="translate(679,719)" d="m0 0 3 1-3 2-11 2v3l4 2 7 5 10-1 7-2h5v-2l4 1-3 2-18 5-17 5 1 3 10 7 9-1 21-6h5l-2 2-25 7-14 4-2 1v-2l-2-1 8-1-5-5-7-5-5-1 1-3 17-4-5-5-9-7 1-2z" fill="#847156"/>
<path transform="translate(701,981)" d="m0 0 5 2 15 13 11 9 13 11 11 9 14 12 11 9 13 11 10 8 13 11v2l-4-2-14-12-11-9-14-12-11-9-13-11-14-12-11-9-15-13-9-7z" fill="#695E4F"/>
<path transform="translate(988,790)" d="m0 0 3 1-3 2-36 12-11 3-1 2-3-3v-2l-5-1 1-2 7-1 15-5h9l2 1z" fill="#38280F"/>
<path transform="translate(674,1159)" d="m0 0h3l-1 4 1 2-21 8-11 5-7 2-1-1v-5l12-5 10-4z" fill="#493619"/>
<path transform="translate(237,885)" d="m0 0 2 1-4 4-15 8-7 3-3 3-23 9-38 13-4-1 25-9-1-2 36-12 25-12z" fill="#B78527"/>
<path transform="translate(254,709)" d="m0 0h1l2 55v20l-1 2 3 10v5l-2-4-7-21-7-13v-3l7 10 2 4 1-41z" fill="#7C7161"/>
<path transform="translate(657,903)" d="m0 0h5l-2 2-36 12-10 4-15 4-49 16-4-1 10-4 15-5 13-4 24-8 1-1 10-2z" fill="#876530"/>
<path transform="translate(1042,745)" d="m0 0m-3 1h3v2l-132 44-7 3h-3l3-3 79-27 40-13 12-4z" fill="#15110A"/>
<path transform="translate(666,708)" d="m0 0h7l11 8v3l-15 4-6-1-1-1v-12z" fill="#362814"/>
<path transform="translate(670,595)" d="m0 0h1v21l-5 59-5 10-11 2-17 4-8 1 2-2 32-9h2l2-10 3-26z" fill="#807360"/>
<path transform="translate(1064,1585)" d="m0 0h3v15h-25l5-5z" fill="#D7A42D"/>
<path transform="translate(785,1183)" d="m0 0h9l3 1v2h8l2 1h38l5 6-1 5-5 10-1-3 1-5-2-5-6-5h-31l-11-2-3-2-6-1z" fill="#B88628"/>
<path transform="translate(1039,748)" d="m0 0 3 1-31 11-37 12-7 3-1 2-19 6v-2l-14 5-4-1 34-12 43-14z" fill="#332A1F"/>
<path transform="translate(698,1285)" d="m0 0h4l1 7 2 3 16-7 1 2h4v7l-13 4-7-1-5-3-4-8z" fill="#916C35"/>
<path transform="translate(734,1272)" d="m0 0 20 5 7 1 23 1v1l-12 1 6 1-3 2h-20l-10-2-10-5z" fill="#3D3120"/>
<path transform="translate(329,1402)" d="m0 0 5 1 1 2 3 2-20 8-11 5-12-1-4-6 1-3 5 6h9l8-4-1-3 10-4z" fill="#1B160E"/>
<path transform="translate(225,801)" d="m0 0h3v4l14-3v2l-15 5-8 1-9 3-1-1-1 2h-2v-2l-3 1-3-1h-5l1-3 4 1v-2l9-1 4-2 2 1v-2l5-1z" fill="#494136"/>
<path transform="translate(774,1151)" d="m0 0h24v1l-28 1v2l3 2-5 2h-3v2l6 2v1l-16 2h-10l-2-2 6-3h3v-2l17-7z" fill="#513F23"/>
<path transform="translate(383,1427)" d="m0 0 4 1-10 5h-2v2l-29 13-17 7-3-1 6-5 30-13z" fill="#C18D25"/>
<path transform="translate(679,1212)" d="m0 0h1l1 18 4 12 7 12 7 7-1 12-1 5 1 4h2l1-2 1 3 9-3 12-6v5h-5l-1 2-8 3-1 2-10-1-3-6v-16l-6-9-7-12-3-10z" fill="#533C18"/>
<path transform="translate(237,883)" d="m0 0 3 1-14 9-21 10-36 12-6 1 3-3 26-9 33-14 11-6z" fill="#4C3510"/>
<path transform="translate(550,1359)" d="m0 0 3 1-5 3-7 3-11 4-32 14-3-1 7-4-5 1 4-4 25-11 7-1-4 3-3 2 15-6z" fill="#D4A12C"/>
<path transform="translate(204,1007)" d="m0 0 5 1v9l-15 6-8 3h-3v-4l10-4h3l-1-7z" fill="#C49027"/>
<path transform="translate(931,812)" d="m0 0 5 5 1 3h2l4 7 5 9 10 8h-3l-15-11v-7l-4-2-5-6-4-1-1 1-9 1-4 3h-11l2-2 18-6z" fill="#A97B2A"/>
<path transform="translate(746,1168)" d="m0 0 2 1-4 3 5 2 35 2-1 4-1-2-15-1h-27l-1 2-7 3v-4l-6 4-3 3-8 1 5-5 13-7 4-3z" fill="#433013"/>
<path transform="translate(470,1386)" d="m0 0h8l-2 2-35 15-26 11-2-1 6-5 49-21z" fill="#A2895E"/>
<path transform="translate(183,1033)" d="m0 0 1 3-9 3-57 20-20 7-3-1 4-3 14-4h3v-2l17-5 8-3h3v-2l14-4h3v-2l17-5z" fill="#CA9528"/>
<path transform="translate(627,780)" d="m0 0 5 2 1 1 12-1-1 4 4 2 11 8-2 2h-3l-2-4-11-8-9 1-19 6v2l9 7-2 2-11-9h-8l3-2v-2l-3-2 1-3 5 4 9-1 11-3h3l-1-3-2-1z" fill="#7E725F"/>
<path transform="translate(280,946)" d="m0 0h12l-1 5-15 4-3 2h-5l-3-2v-5h2v-2l2-1z" fill="#393127"/>
<path transform="translate(914,799)" d="m0 0 9 6 1 2h-2l-1 3-13 5-3 3 10-4 4-3 6-2 4 1-5 2h7l-2 2-10 2-17 6-4-1 1-3-4-1v-8h1v7l15-6 8-3-5-5z" fill="#372914"/>
<path transform="translate(188,990)" d="m0 0h4l2 3v6l-5 3-13 4-5-1 1-3 8-2-2-6z" fill="#C38F26"/>
<path transform="translate(512,783)" d="m0 0h5l-2 4 10 8 9 1-2 2-13 4h-2v2l4 2 7 6 7 1-1 3-9 3-4-1 1-2h4l-5-6-10-7v-2l12-3-5-5-2-1v-2l-4-2-1-3z" fill="#887B68"/>
<path transform="translate(392,1383)" d="m0 0 3 1-35 15-43 18-17 7-4-2-7-9 1-2 5 6v2h12l25-11 17-7z" fill="#7F7361"/>
<path transform="translate(274,826)" d="m0 0 4 2 41 41-4 1-20-20v-2l-3-1v-2l-4-2-12-12-1 13h-1z" fill="#B88527"/>
<path transform="translate(958,1220)" d="m0 0 5 1 11 9 12 9v2l12 9 6 5h-3l-4-3-7-3-6-7-10-5-6-8-3-2-8-2v-4z" fill="#E4B534"/>
<path transform="translate(381,778)" d="m0 0h5l4 5-7 3-13 4-6-1-2-4 2-2z" fill="#211B13"/>
<path transform="translate(982,1173)" d="m0 0 3 1 1 2-15 7-11 3-13-1-7-5v-1l10 1h15z" fill="#8F7F68"/>
<path transform="translate(1038,827)" d="m0 0 3 1 5 9 6 3v7h-9l-5-5-2-3v-9z" fill="#BF8C27"/>
<path transform="translate(570,784)" d="m0 0 4 2-3 1 1 3 9 7h7l13-3 3 2-15 4-25 7 2-4 11-3-2-4-8-6h-9l-5-1v-1z" fill="#807462"/>
<path transform="translate(797,1106)" d="m0 0 3 1-4 1v2h5l-4 3-8 2-10 3-10 1-1 2-12 4-21 8-3-1 25-10 28-11z" fill="#342B21"/>
<path transform="translate(341,892)" d="m0 0 4 2 58 58-2 1-5-4-8-8v-2l-4-2-11-12-8-7-13-13-8-7-3-3z" fill="#B78527"/>
<path transform="translate(684,891)" d="m0 0 3 1-3 3-16 6-26 8-11 3 2-4z" fill="#AB8747"/>
<path transform="translate(373,788)" d="m0 0h8l5 3 8 7 7-1 10-1v3l4 2 8 7 4 2-8 3-4-1 4-3-7-7-4-3-8 1-6 2-4-1-2-4-8-7-9 1-14 4v-2z" fill="#867A68"/>
<path transform="translate(409,770)" d="m0 0 5 1 3 4-6 3-12 3h-7l-3-2 1-3z" fill="#261F15"/>
<path transform="translate(434,763)" d="m0 0h6l3 3-1 3-17 5h-6l-3-3 1-3z" fill="#1C170F"/>
<path transform="translate(1065,1146)" d="m0 0h2v12l-10 2h-5l-1-4-8 1 4-3z" fill="#E0AF32"/>
<path transform="translate(841,1227)" d="m0 0 2 4-1 5 4 1 4 5-1 7h-2l-2 5-7 7-4 3-2-1 3-5 3-3 2-4h2l1-4 3-3h2l-3-3-5-3-3 7-2-1 1-8z" fill="#3D2E18"/>
<path transform="translate(248,880)" d="m0 0 3 1 1 5 2 1-16 8-8 7h-2l-1-5-2-1 13-7z" fill="#8E6A34"/>
<path transform="translate(542,792)" d="m0 0 2 1 3 5 8 6h10l-1 3-26 8-4-1 1-2 16-5v-3l-5-2-5-5h-7l-3-2z" fill="#847764"/>
<path transform="translate(730,1281)" d="m0 0 5 2 9 3 7 2h11l7 1v1h-28l1 2-14-1-6-1v-3l6-3h2z" fill="#1E170B"/>
<path transform="translate(327,931)" d="m0 0h12l-1 4-6 2-10 2-3 2-6-1-1-5 5-3z" fill="#372F27"/>
<path transform="translate(353,786)" d="m0 0h6l3 3v2l-16 5-8 1-3-3 1-3z" fill="#221C13"/>
<path transform="translate(225,941)" d="m0 0 5 5 5 3 8 1-6 8-1 2-6-1-5-6-1-2v-9z" fill="#8E6933"/>
<path transform="translate(659,726)" d="m0 0h6l12 9v2l-11 3-5-5v-2l-4-1-2-1 1-4z" fill="#312410"/>
<path transform="translate(817,1077)" d="m0 0 4 2v2l5 2 1 3 5 2 15 13 11 9 13 11 2 2-3 1-11-9-15-13-14-12-13-11z" fill="#6B6051"/>
<path transform="translate(459,756)" d="m0 0h7l3 2v3l-12 4-5 1h-7l-2-2v-3z" fill="#1B160E"/>
<path transform="translate(538,734)" d="m0 0 5 1 3 2v3l-17 5h-5l-4-3 1-3z" fill="#271F15"/>
<path transform="translate(227,769)" d="m0 0 6 1 10 6-2 1-1 8-2 4-5-1-3-2v-11l-1-4z" fill="#8F816E"/>
<path transform="translate(513,741)" d="m0 0 5 1 3 4-10 4-7 2h-6l-3-3 1-3z" fill="#251E14"/>
<path transform="translate(130,710)" d="m0 0h10v1l-8 2-8 4-18 10-7 3-11 3-4-1 24-11 16-8z" fill="#2F210C"/>
<path transform="translate(494,806)" d="m0 0 2 1-1 2-3 1-1 3 4 2 7 6 7-1 10-3 3 1-1 2-19 6-9 1 1-2 5-1-5-5-7-6-7-1 1-2z" fill="#867966"/>
<path transform="translate(485,749)" d="m0 0h7l3 2v3l-17 5h-6l-3-3 1-3z" fill="#211B12"/>
<path transform="translate(560,728)" d="m0 0h8l3 2v3l-17 5h-5l-4-3 1-3z" fill="#251E15"/>
<path transform="translate(885,1190)" d="m0 0 1 2v3l3 2-1 5-7 12 1 6-10 16-6 4-2-1 6-4 4-7 3-9 3-8 3-5-1-6-2-6 2-3z" fill="#CD9B2D"/>
<path transform="translate(840,1237)" d="m0 0 8 5v2l-5 4-1 3h-2l-2 6-3 1-1 3-4 3-1 5-8 4-4 1 2-5 8-7 9-9 6-7v-5l-3-1z" fill="#1A140A"/>
<path transform="translate(113,1162)" d="m0 0 6 3 6 8v2l5 5v4l5 3 7 10 1 4-2 2-13-18-14-20z" fill="#483C2C"/>
<path transform="translate(340,887)" d="m0 0 68 68 1 2-4-2-62-62-2-1-1 8-1-4z" fill="#513A15"/>
<path transform="translate(586,721)" d="m0 0h6l4 3v2l-17 5-7-1-2-4z" fill="#221C13"/>
<path transform="translate(1020,1156)" d="m0 0 2 1h3l4 1-11 4-9 3-7 3 1 2-7 3-8 2-4-1v-2z" fill="#85755E"/>
<path transform="translate(693,1261)" d="m0 0 3 2v16l2 4v6l3 6v2l5 2 7 1 13-3v-5h1v6l-15 5-9 1-4-5-2-7-3-5v-22z" fill="#BF8A25"/>
<path transform="translate(842,1233)" d="m0 0 5 2 7 4 2-4 4-2-1 5-6 11-9 11-5 2 6-7 2-6h2v-7l-4-5-3-1z" fill="#17120A"/>
<path transform="translate(338,903)" d="m0 0 1 3h2l1 2v7l-4 7h-12l2-4 7-8z" fill="#B38226"/>
<path transform="translate(609,715)" d="m0 0h8l4 4-8 3-8 2h-7l-3-2v-3z" fill="#241D14"/>
<path transform="translate(889,1175)" d="m0 0 3 2-1 5-6 9h-3l-1 7-6-4 5-8-4-1 1-3h7z" fill="#96846A"/>
<path transform="translate(559,1168)" d="m0 0 4 2 5 5 8 7 2 1 9 1 3 3-6 2-5-2-7-2-8-7-7-8z" fill="#3B342A"/>
<path transform="translate(660,778)" d="m0 0h7l12 9-2 2-16 3h-3v-2l5-1-1-10z" fill="#312310"/>
<path transform="translate(504,1377)" d="m0 0 3 1-10 5h-2v2l-22 8-7 3-3-1 9-4-1-2 23-10 4-1 1 1z" fill="#C28D26"/>
<path transform="translate(66,942)" d="m0 0h7l-2 2-10 3-4 2-17 4-18 5-2 1h-6v-2l49-14z" fill="#7E6437"/>
<path transform="translate(645,735)" d="m0 0 5 2 5 4 8 1-4 2-14 4h-3l2 4 6 4-1 3-11-8-11 1-1-4-4-3v-2l5 2 4 3h6l13-4h3l-5-5-3-2z" fill="#817462"/>
<path transform="translate(660,701)" d="m0 0 6 1 3 4-17 5h-5l-3-3 1-3z" fill="#231C13"/>
<path transform="translate(944,858)" d="m0 0 4 1 4 3 8 10v3l5 2 1 2-6-2-2-4h-8l-6-3-1-4h5l-3-5z" fill="#DAA82F"/>
<path transform="translate(261,813)" d="m0 0h1l1 22-2 18-5 15-5 8-8 7-1 2-3-1 12-12 4-7 3-11 1-6 1-25z" fill="#8C8275"/>
<path transform="translate(635,708)" d="m0 0h6l3 2-1 3-15 4-7-1-2-3 8-3z" fill="#1C170F"/>
<path transform="translate(237,900)" d="m0 0 2 1-9 10-5 10-2 13h-1l-1-5v-12l4-9 2-2 7-5z" fill="#392E1E"/>
<path transform="translate(989,785)" d="m0 0 2 1-1 4-24 8-3-1-5-1 3-2z" fill="#453C30"/>
<path transform="translate(166,716)" d="m0 0h6l6 4 2 2v3l4 2v3l-10-3-8-4z" fill="#47320E"/>
<path transform="translate(399,853)" d="m0 0 4 1-1 2-13 4 2 4 9 9 5 1-1 2-10 1v-2h2l-7-8-6-7 1-2z" fill="#877964"/>
<path transform="translate(388,801)" d="m0 0 3 1-6 3 2 4 11 9-3 2-15 5-2 2 1-5 10-3h3l-7-8-5-4-12 2-1-2z" fill="#7F7362"/>
<path transform="translate(714,884)" d="m0 0h5l-1 2-12 4-10 4-11 3-10 4-6 2h-7l3-2 15-5 7-3 14-4 10-4z" fill="#826131"/>
<path transform="translate(425,964)" d="m0 0 14 1 2 5h2v2l-2 1h-9l-7-2-2-3h2z" fill="#D09D2B"/>
<path transform="translate(701,981)" d="m0 0 5 2 15 13 11 9 13 11 11 9 7 6-3 1-11-10-11-9-28-24-9-7z" fill="#755F3F"/>
<path transform="translate(412,812)" d="m0 0 4 1-4 2-5 2 2 4 9 7 14-2-1 2-21 6v-3l3-1v-2l-8-7-2-2-6-1 3-2z" fill="#837765"/>
<path transform="translate(722,1269)" d="m0 0h1v5l-8 5-11 5-6-2-2-6h4l2 3 7-1v-3h2v-2l4-1v2h4v-2z" fill="#322510"/>
<path transform="translate(274,816)" d="m0 0 2 1v6l11 12 35 35v1h-11v-1l7-1-42-42-2-1z" fill="#4E3610"/>
<path transform="translate(945,781)" d="m0 0h2v2l-36 12-9 2 2-4 21-7 11-2z" fill="#2C2215"/>
<path transform="translate(793,1118)" d="m0 0 3 1-5 4-30 12-6-1 2-2z" fill="#C2912D"/>
<path transform="translate(1052,848)" d="m0 0 4 4 3 9 5 5 3 2v7l-4-2-7-7-4-10z" fill="#ECC139"/>
<path transform="translate(589,727)" d="m0 0 2 1 3 5 8 6 11-1v2l-18 5-4 2-13 1 3-2 14-4h4v-3l-4-2-7-5h-7l1-3z" fill="#74695A"/>
<path transform="translate(329,1450)" d="m0 0 2 2-4 3-1 3-6 2h-9l2-1v-2h-4v-3h-2v-2l3 1h7l4-2z" fill="#DAA82F"/>
<path transform="translate(712,763)" d="m0 0 5 1 3 3-21 6-5-2 1-3z" fill="#33240E"/>
<path transform="translate(878,1214)" d="m0 0 1 3-3 6-3 9-5 5-4 3-3 7-1-2 4-10 2-6 3-3h2l2-4z" fill="#B58427"/>
<path transform="translate(467,796)" d="m0 0 3 1-4 2-5 1v3l4 2 7 6h8l2 2-15 4-2-2 3-1-2-4-8-7-8-2v-1l14-3z" fill="#7E7160"/>
<path transform="translate(318,906)" d="m0 0 4 1-1 6 4-1-3 5-6 4-3-1 3-1v-3l-6-1 1-4 5-4z" fill="#71695C"/>
<path transform="translate(460,763)" d="m0 0h3l2 4 8 6v2l25-5v2l-6 1-1 2-3 1-15 1h-3l-1-3-9-7-9 1 1-3z" fill="#756B5D"/>
<path transform="translate(654,762)" d="m0 0h6v3l1 5-1 3h-3l1 2-4-2-8-6v-2z" fill="#1D170D"/>
<path transform="translate(237,885)" d="m0 0 2 1-4 4-15 8-7 3-3 3-12 5-7-1 3-2 20-8 19-10z" fill="#B2883A"/>
<path transform="translate(742,1165)" d="m0 0 2 1-5 5-11 7-8 4-11 8v-3l6-5h2v-2l7-2 1-3 9-5-3-2z" fill="#352B1E"/>
<path transform="translate(854,837)" d="m0 0 3 1-14 7-57 19-4-1 60-20h2l1-3z" fill="#A87B2D"/>
<path transform="translate(252,819)" d="m0 0h2l1 7 1 1v6h-2v2h2l-1 4-5-2-1-1-1-10h2v-3h-3v-2l4 1z" fill="#352E25"/>
<path transform="translate(568,754)" d="m0 0 4 1 9 7h10v3l5 2 8 7 3 2-10 3v-2l4-1-5-5-8-6-11 1-1-4-8-6z" fill="#8A7D6B"/>
<path transform="translate(815,1281)" d="m0 0h5l-3 2-15 5-16 7-14 3h-19l-6-1v-1h22l14-3 15-5v-2z" fill="#513A16"/>
<path transform="translate(411,777)" d="m0 0 3 2-3 2 6 5-2 3-8-7-7 1-17 4v2l-7-1 4-2 9-3 1-4 2 1h7z" fill="#6A6154"/>
<path transform="translate(375,823)" d="m0 0h3l2 5 8 7 1 1 8-1 6-1 1 3-16 4-7 1 1-2 3-1-2-4-7-7-5-2z" fill="#847866"/>
<path transform="translate(955,796)" d="m0 0 3 1-1 4-15 5-2 4-3-3v-2l-5-1 1-2 7-1z" fill="#443A2D"/>
<path transform="translate(944,783)" d="m0 0 3 1-2 2-36 12-10 3 1-3z" fill="#887965"/>
<path transform="translate(438,769)" d="m0 0 2 1-2 4 10 8h6l5-1 2 2-19 5-4 1-3-2 10-2-5-5-6-5-4-2 1-2z" fill="#776D5E"/>
<path transform="translate(643,1293)" d="m0 0 4 2 3 7 2 10-2 5-8 6h-5v2l-9 3-3-1 16-8 5-3 2-4v-9l-5-8z" fill="#E1B132"/>
<path transform="translate(736,1179)" d="m0 0 2 1-6 7-8 7-7 7-8 14-5 15-1-5 5-13 7-12 11-12 5-5h2l1-3z" fill="#AB7C2B"/>
<path transform="translate(723,1280)" d="m0 0 4 1-2 4-18 8-3-1 1-4 13-6z" fill="#E8E5E7"/>
<path transform="translate(555,952)" d="m0 0h7v2l-6 4-15 5-3-1 1-3 11-5z" fill="#EDC23A"/>
<path transform="translate(1033,1157)" d="m0 0 1 2-5 4-20 9h-3v2l-8 2 3-5 12-5 9-2v-2z" fill="#8B6D40"/>
<path transform="translate(848,789)" d="m0 0 6 2 12 9 17 12 7 4 4 4v2l-5-2-17-13-20-14z" fill="#4E3712"/>
<path transform="translate(503,1372)" d="m0 0 3 1-5 4-21 9-8 1 3-3z" fill="#A08961"/>
<path transform="translate(1066,742)" d="m0 0h1v24l-6 5-4-1 7-4 2-8-4-1-2-11z" fill="#C4932C"/>
<path transform="translate(415,1410)" d="m0 0 3 1-4 2-3 3-23 10h-5l4-4z" fill="#A08963"/>
<path transform="translate(472,776)" d="m0 0h6l-2 2-6 2h-4v4l4 2 8 7 2 2-7 2-4-1 4-3-10-9-4-3 8-3h5z" fill="#837663"/>
<path transform="translate(666,745)" d="m0 0 5 2 7 5 9-1 21-6h5l-2 2-25 7-14 4-2 1v-2l-2-1 8-1-5-5z" fill="#7E6D53"/>
<path transform="translate(866,1227)" d="m0 0 2 1-2 2-3 9-5 12-6 9-1-2 1-2-2-1 8-14 2-4h2l3-9z" fill="#614A28"/>
<path transform="translate(1033,1155)" d="m0 0 2 2-11 5h-2v2l-9 3-7 3-6-1 4-3 9-4 12-3z" fill="#6B5739"/>
<path transform="translate(275,819)" d="m0 0 4 1 12 12 4 5-1 2-4-4v-2h-2l-1 3-12-13z" fill="#604928"/>
<path transform="translate(47,737)" d="m0 0h2v2l-24 13-3 1 4 2h-26v-1l17-1 8-4 18-10z" fill="#6A4E23"/>
<path transform="translate(1065,1581)" d="m0 0h2v4l-14 7-10 7-1 1h-5l5-5 15-9z" fill="#E5B534"/>
<path transform="translate(769,1289)" d="m0 0h13v3l-8 2h-15l-2-1v-2z" fill="#433624"/>
<path transform="translate(732,1169)" d="m0 0 3 1-10 6-3 3-5 1v2l-5 2-3-3 9-6 13-5z" fill="#17130C"/>
<path transform="translate(543,940)" d="m0 0 4 1-1 2-14 4-13 4-10 4-2-1 1-2 14-5 20-6z" fill="#7F5F30"/>
<path transform="translate(674,772)" d="m0 0 4 1-8 3 1 3 2 2h-3l-3-2h-7l-13 4-3-1 3-2 8-3-1-3 10 1z" fill="#827055"/>
<path transform="translate(1061,744)" d="m0 0 3 1-10 4-35 12h-2l1-3 36-12z" fill="#988254"/>
<path transform="translate(57,740)" d="m0 0h5l1 5-4 2-15 4-3-1 7-4h2v-2z" fill="#312A21"/>
<path transform="translate(1064,882)" d="m0 0 3 1v8l-12-1-2-4 7-3z" fill="#EDC23A"/>
<path transform="translate(663,747)" d="m0 0 6 2 6 3 1 3-10 3-3-1-2-7z" fill="#2F220E"/>
<path transform="translate(419,967)" d="m0 0 5 2 2 2 6 1h9l8-1h9l-4 2-9 2h-18l-4-2-4-4z" fill="#88652F"/>
<path transform="translate(657,903)" d="m0 0h5l-2 2-36 12-1 1h-7l3-2z" fill="#806030"/>
<path transform="translate(490,774)" d="m0 0 8 6 5 4h9l-1 3-14 3-8 2-2-2 10-3h3l-6-7-4-3z" fill="#807564"/>
<path transform="translate(931,812)" d="m0 0 2 2-2 2-5 2-9 1-4 3h-11l2-2 18-6z" fill="#AE7E27"/>
<path transform="translate(1033,770)" d="m0 0 3 1v3l-16 6-3-1-5-1 4-2z" fill="#433A2E"/>
<path transform="translate(752,1169)" d="m0 0h23l11 1 1 2h-28l-9-1z" fill="#312A22"/>
<path transform="translate(141,1046)" d="m0 0h3v2l-23 8h-5v2l-12 4h-3v-2z" fill="#E4B534"/>
<path transform="translate(540,925)" d="m0 0 4 2-4 3-8 3h-11v-2l14-5z" fill="#948570"/>
<path transform="translate(73,716)" d="m0 0h2v2l-2 2v13l-4 2-2-3 1-7 3-5-8 7v-3l5-5z" fill="#342A1E"/>
<path transform="translate(750,1173)" d="m0 0 30 1 13 2 1 4h-10v-4h-12l-23-1z" fill="#2F210C"/>
<path transform="translate(654,1168)" d="m0 0 3 1v2l2 1-20 8-2-1v-5l3 1 14-6z" fill="#644C2A"/>
<path transform="translate(1062,757)" d="m0 0 4 1v6l-5 5-4 2h-3l2-5-3-1 1-4v3l7-3z" fill="#2F220F"/>
<path transform="translate(329,1402)" d="m0 0 5 1 1 2 3 2-7 2-1-2-5 1-3 3-6 2v-2l-3-1 3-2z" fill="#2A1F0E"/>
<path transform="translate(325,801)" d="m0 0 5 1-2 1 5 7-5-1-3-3-9 1-11 3 2-4z" fill="#6C655B"/>
<path transform="translate(706,1185)" d="m0 0 2 1-8 10-2 7h-3l-5 9-1-3 4-10 8-10z" fill="#9E742A"/>
<path transform="translate(752,1134)" d="m0 0 3 1-5 4-21 8-5-1 2-2z" fill="#C1902C"/>
<path transform="translate(399,773)" d="m0 0h4l-1 2 1 1v2l2 1-6 2h-7l-3-2 1-3z" fill="#1B160F"/>
<path transform="translate(592,746)" d="m0 0 5 2 9 7h8l-1 2-20 6-2 2v-3l-2-1 11-3h3v-3l-5-2-6-5z" fill="#7E7362"/>
<path transform="translate(188,990)" d="m0 0h4l1 6-10 3-3 1-2-6z" fill="#8A7960"/>
<path transform="translate(756,1176)" d="m0 0h11l15 1 2 4h-14l-8-1 2-2-8-1z" fill="#916C35"/>
<path transform="translate(304,800)" d="m0 0 3 1-1 2 3 1-5 2v2l-9 1-2-5 7-3z" fill="#241E15"/>
<path transform="translate(785,1183)" d="m0 0h9l3 1v2h8l2 1 14 1v1l-16 1-11-2-3-2-6-1z" fill="#AD7E2B"/>
<path transform="translate(674,1159)" d="m0 0h3l-1 4h-2v2l-11 4h-3l1-5z" fill="#4C391D"/>
<path transform="translate(708,1239)" d="m0 0 5 5 1 4 2 1h-6v2h-2v2l-4-1-1-8 5 1z" fill="#674B1C"/>
<path transform="translate(204,1007)" d="m0 0 5 1-1 5-12 4-1-6z" fill="#9B825B"/>
<path transform="translate(249,876)" d="m0 0v3l-6 7-10 7-15 8-6 2 1-3 19-9 5-3 2-3h3l2-4z" fill="#B98627"/>
<path transform="translate(709,762)" d="m0 0 3 1-3 2-14 4v2l10 8-1 2-13-10-3-3z" fill="#8F7958"/>
<path transform="translate(502,744)" d="m0 0h3v2h5v3l-6 3h-6l-3-3 1-3z" fill="#1A150D"/>
<path transform="translate(958,1220)" d="m0 0 5 1 11 9 8 6-1 2-10-8-6-3-8-2v-4z" fill="#E3B333"/>
<path transform="translate(459,756)" d="m0 0h7l3 2v3l-9 3-4-1-2-4h2v-2z" fill="#1E1911"/>
<path transform="translate(709,1270)" d="m0 0h4l-2 5h-2v3l-4 2-4-1-1-5 5-3z" fill="#443623"/>
<path transform="translate(651,760)" d="m0 0 1 2 2 1-8 2 9 9-2 1-10-7-12 1-2-2 16-4 6-1z" fill="#7B6E5B"/>
<path transform="translate(524,738)" d="m0 0 9 1v2l4 1-8 3h-5l-4-3 1-3z" fill="#1C170F"/>
<path transform="translate(330,809)" d="m0 0 5 2 3 3 10-1 5 1v1l-14 3-9 3-5-1 4-2 6-1-5-6z" fill="#71685B"/>
<path transform="translate(356,792)" d="m0 0 3 1h-2v5l11 10-1 2-8 2-3-2 7-1-7-8-3-3 1-5z" fill="#827665"/>
<path transform="translate(601,786)" d="m0 0 6 4 7 1-1 4 9 7-2 2-11-9h-8l3-2v-2l-3-2z" fill="#877B69"/>
<path transform="translate(381,778)" d="m0 0h5l4 5-7 3-6 1 2-3-3-4z" fill="#19140C"/>
<path transform="translate(242,760)" d="m0 0 5 5 5 9 2-4 2 16 3 10v5l-2-4-7-21-7-13z" fill="#7E6C51"/>
<path transform="translate(685,1204)" d="m0 0 1 3 3-1v6l-2 4v13h-2l-2-7v-9z" fill="#18130A"/>
<path transform="translate(362,946)" d="m0 0h1l1 5v7l-4 11h-2l-2 5-2 1 1-5 4-9z" fill="#AB7C2B"/>
<path transform="translate(914,799)" d="m0 0 9 6 1 2h-2l-1 3-13 5-5-1 2-2 14-5-5-5z" fill="#584D3E"/>
<path transform="translate(129,698)" d="m0 0h7l7 3 6 7-1 2-7-8-2-1h-14l-10 3-3-1 2-2v-1z" fill="#3C2C12"/>
<path transform="translate(940,1179)" d="m0 0 10 1v2h12l-2 4-13-1-7-5z" fill="#928067"/>
<path transform="translate(99,932)" d="m0 0 2 1-1 1 2 2-13 3-7 2-8 1 3-2 12-5z" fill="#6B542C"/>
<path transform="translate(516,768)" d="m0 0 4 1 8 7 6 1-2 3-12 4-5-1 2-2 9-2-5-5-5-4z" fill="#766958"/>
<path transform="translate(695,1192)" d="m0 0 1 4-4 7-2 6-4-2 1-8 4-4z" fill="#352B1C"/>
<path transform="translate(340,887)" d="m0 0 30 30h-3l-24-24-2-1-1 8-1-4z" fill="#513B19"/>
<path transform="translate(636,1176)" d="m0 0 2 4-16 7-3-1v-3l12-5z" fill="#513B19"/>
<path transform="translate(227,769)" d="m0 0 6 1 4 2v2l-5 1 1 7 2 2 4 1-1 4-5-1-3-2v-11l-1-4z" fill="#756D62"/>
<path transform="translate(565,734)" d="m0 0h2v4l10 7 4 2-1 2h-7v-3l-9-7-5-1 1-3z" fill="#6D6354"/>
<path transform="translate(575,724)" d="m0 0 9 1v3l-2 2-8 1-4-3v-2z" fill="#1B160E"/>
<path transform="translate(601,717)" d="m0 0h4v2h2v2l4-1-3 3-3 1h-7l-3-2v-3z" fill="#19140D"/>
<path transform="translate(740,1289)" d="m0 0 25 1v1h-8v2l2 1h-9l-8-2z" fill="#372E22"/>
<path transform="translate(845,1247)" d="m0 0 3 1-4 7-10 9-2-1 3-5 3-3 2-4z" fill="#A4782B"/>
<path transform="translate(678,1218)" d="m0 0h1l1 14 4 12 9 15v2l-3-1-4-8-3-5v-2h-2l-3-11z" fill="#9E7430"/>
<path transform="translate(433,1402)" d="m0 0 6 1-2 2-22 9-2-1 6-5z" fill="#A38A5E"/>
<path transform="translate(722,1274)" d="m0 0h1v5h-5l-1 2-8 3-1 2-10-1 2-5 2 3 9-3z" fill="#614A29"/>
<path transform="translate(713,1206)" d="m0 0 1 2-3 12-4 7v8l-2-3-1-6 5-13z" fill="#D4A22C"/>
<path transform="translate(693,1276)" d="m0 0h1l1 11 4 6 2 8 2 2 13-1-3 2-10 2-5-6-1-7-4-2-1-3z" fill="#D7A42D"/>
<path transform="translate(693,1261)" d="m0 0 3 2v16l2 4v6l2 3-1 3-5-8v-22z" fill="#B48228"/>
<path transform="translate(879,1214)" d="m0 0 3 4-2 5-9 14-5 3-2-1 6-4 4-7 3-9z" fill="#D7A42D"/>
<path transform="translate(646,690)" d="m0 0h6l3 4-11 3-5-3v-2z" fill="#533C18"/>
<path transform="translate(300,1449)" d="m0 0 5 2 2 1v2h2v3h4v2l-8-1-7-4v-3h2z" fill="#C09131"/>
<path transform="translate(504,1377)" d="m0 0 3 1-15 7-9 2 2-4 11-5 3 1z" fill="#B88527"/>
<path transform="translate(334,963)" d="m0 0h2v2l-18 7-10 3-3-1 8-4z" fill="#2F210C"/>
<path transform="translate(188,908)" d="m0 0h7v2l-14 5v-2l-6 2h-6l3-2z" fill="#B48B3C"/>
<path transform="translate(343,1441)" d="m0 0h2v2l-4 1v2l-15 6h-5v-2l20-8z" fill="#A38B61"/>
<path transform="translate(493,1385)" d="m0 0 2 1-4 6-2 1h-9l-1-2h2v-2z" fill="#E3B233"/>
<path transform="translate(656,922)" d="m0 0 4 2-7 5h-9l1-4 5-2z" fill="#EDC23A"/>
<path transform="translate(259,848)" d="m0 0 2 3-3 12-6 12-9 8-1 2-3-1 12-12 4-7 3-11z" fill="#987E57"/>
<path transform="translate(958,796)" d="m0 0h6l-1 3-3 1-1 3-16 5h-2l1-3 12-4h3l-1-3z" fill="#322512"/>
<path transform="translate(528,1141)" d="m0 0 7 6 14 14 7 8h-3l-14-14-7-8-4-4z" fill="#1B140A"/>
<path transform="translate(1050,850)" d="m0 0 2 2 4 12 7 8 2 3-5-2-7-7-3-7z" fill="#C38F26"/>
<path transform="translate(353,786)" d="m0 0h6l3 3v2l-9 2-3-1v-3l-2-1z" fill="#19150D"/>
<path transform="translate(253,617)" d="m0 0h8l-1 4-4 2h-3v21h-1v-26z" fill="#302514"/>
<path transform="translate(576,930)" d="m0 0 3 1-7 3-22 7-4-1 10-4 15-5z" fill="#7E5E30"/>
<path transform="translate(890,1176)" d="m0 0 2 1-1 5-6 9h-3l-1 7-2-1 1-5z" fill="#A58758"/>
<path transform="translate(641,1312)" d="m0 0 1 3-16 8-4-1 3-3z" fill="#A68B5B"/>
<path transform="translate(1020,1267)" d="m0 0 4 1 18 14 8 6-1 2-16-12-13-10z" fill="#DFAF32"/>
<path transform="translate(809,1097)" d="m0 0h1v8l-7 5h-7v-2l6-4 1-2 5 1z" fill="#3F2E16"/>
<path transform="translate(514,748)" d="m0 0 3 1-2 3 4 2 7 6-3 1-2-1v-2l-4-2-5-4-11 1 3-2z" fill="#72695C"/>
<path transform="translate(718,1280)" d="m0 0h5l-1 2-13 5-4 2-3 3-1-4 3-3 4 1 1-3z" fill="#887B69"/>
<path transform="translate(970,774)" d="m0 0h7l-3 2-27 9-1-2 20-7z" fill="#AE9255"/>
<path transform="translate(485,749)" d="m0 0h7l3 2v3l-10 2-1-2-1-3z" fill="#19140D"/>
<path transform="translate(383,1427)" d="m0 0 4 1-15 7-12 5h-2v-2z" fill="#CA9628"/>
<path transform="translate(689,1248)" d="m0 0 4 1 5 4 2 5-2 3-4-4v-2l-3-1-2-3z" fill="#30281D"/>
<path transform="translate(651,902)" d="m0 0 2 1-2 3-18 6-2-1 2-3z" fill="#BA9243"/>
<path transform="translate(575,765)" d="m0 0 3 1-4 2-7 2 1 3 3 3-2 1-5-4-8-2v-1z" fill="#796E5E"/>
<path transform="translate(639,718)" d="m0 0 5 2 7 5 12-1 1 2-12 3-4-1 1-2-5-2-5-4z" fill="#7E7261"/>
<path transform="translate(708,1210)" d="m0 0 1 2-5 13 1 5 2 7-3-3-3 2 1-13 2-8h2z" fill="#433117"/>
<path transform="translate(1036,1149)" d="m0 0 3 1-1 3-9 2v2l-9 2 2-4z" fill="#867A69"/>
<path transform="translate(381,859)" d="m0 0 3 1v2l-21 6h-4v-2z" fill="#7C705F"/>
<path transform="translate(560,728)" d="m0 0h8l3 2v3l-9 2v-3h-2l-1-3z" fill="#1D170F"/>
<path transform="translate(660,701)" d="m0 0 6 1 3 4-7 2-4-1v-2h-3l1-3z" fill="#1E180F"/>
<path transform="translate(416,787)" d="m0 0 4 2 1 1 10-1v2l-17 5h-2l-1 3v-3l-3-1 10-2-2-3z" fill="#766D5F"/>
<path transform="translate(712,763)" d="m0 0 5 1 3 3-9 3-4-1-1-3z" fill="#392913"/>
<path transform="translate(434,763)" d="m0 0h6l3 3-1 3-8 1-2-6z" fill="#19140D"/>
<path transform="translate(452,1394)" d="m0 0 3 1h-2l-1 3-11 5-7 1 4-4z" fill="#9D8764"/>
<path transform="translate(99,940)" d="m0 0h5l-1 2-19 6-4-1 7-4z" fill="#2A1F0E"/>
<path transform="translate(237,885)" d="m0 0 2 1-4 4-15 8-7 3-3-1 20-10z" fill="#9A825F"/>
<path transform="translate(715,1249)" d="m0 0 6 1 5 2v8h-5l-2-8z" fill="#34240D"/>
<path transform="translate(113,1162)" d="m0 0 6 3 6 8v6l-4-4-8-11z" fill="#4E4231"/>
<path transform="translate(645,728)" d="m0 0h3v2l-3 1 1 4h-3l-2-1h-7l-7 1 1-2z" fill="#766B5B"/>
<path transform="translate(724,1263)" d="m0 0h4v2h2l4 8h-5v9h-1l-1-13z" fill="#2F220F"/>
<path transform="translate(1010,778)" d="m0 0 2 1-4 3v2l-9 2-3-1-4-1z" fill="#4B4235"/>
<path transform="translate(238,975)" d="m0 0 2 3 3 10 3 1 6 7v2l-4-2-5-5-4-8z" fill="#7A5C2F"/>
<path transform="translate(78,714)" d="m0 0h7l-2 2v5l-4 2v-4l-6 2v-3h2v-2z" fill="#2C2212"/>
<path transform="translate(736,1282)" d="m0 0 11 2 9 2 1 2h-8l-11-3z" fill="#4A330D"/>
<path transform="translate(845,1252)" d="m0 0 1 3-9 10-4 2h-4l1-4 3-2 1 2 10-9z" fill="#3B2A10"/>
<path transform="translate(373,788)" d="m0 0h8l5 3 1 2-3 1-4-4-9 1-14 4v-2z" fill="#847968"/>
<path transform="translate(438,769)" d="m0 0 2 1-2 4 5 5v2l-4-2-5-4-4-2 1-2z" fill="#696053"/>
<path transform="translate(460,763)" d="m0 0h3l2 4 5 5h-4l-6-5-9 1 1-3z" fill="#6A6256"/>
<path transform="translate(725,1284)" d="m0 0 1 2-12 6-10 4-1-5 4 1z" fill="#BD9A4B"/>
<path transform="translate(815,1281)" d="m0 0h5l-3 2-15 5-6 3-4-1 6-2v-2z" fill="#523B17"/>
<path transform="translate(922,808)" d="m0 0m-1 1 1 2-5 2 1 2-12 4-2-1 1-3z" fill="#15110A"/>
<path transform="translate(625,751)" d="m0 0 3 1-4 2-6 2 2 4 3 3h-3l-7-6 1-3z" fill="#7B6F5E"/>
<path transform="translate(64,734)" d="m0 0 4 2v2h2v2l2 1-6 3-4-5z" fill="#393025"/>
<path transform="translate(970,1178)" d="m0 0 2 1-3 2 2 2-7 2h-5l2-2-11-1v-1l15-1z" fill="#6E685E"/>
<path transform="translate(784,1180)" d="m0 0h10l3 1 2 3 5 1v1h-7v-2l-12-1z" fill="#513A15"/>
<path transform="translate(802,1170)" d="m0 0h8l2 1 11 1 1 2-12 1-6-3h-4z" fill="#312A22"/>
<path transform="translate(1044,805)" d="m0 0 1 2-3 7v9l1 2v7l-3-4-1-4v-7l4-11z" fill="#EDC23A"/>
<path transform="translate(1036,773)" d="m0 0 3 1 2 2-17 5h-2l1-3z" fill="#37270F"/>
<path transform="translate(693,1023)" d="m0 0 4 1-10 5-10 3 1-3z" fill="#4E3712"/>
<path transform="translate(122,933)" d="m0 0h5l-1 2-15 5h-6l4-3z" fill="#281E0D"/>
<path transform="translate(955,796)" d="m0 0 3 1-1 4-12 4-3-1 2-2 2 1 1-2 2 1 1-3h2v-2z" fill="#3A3229"/>
<path transform="translate(570,776)" d="m0 0 5 2 2 2 9 1-2 2-7 2h-5l2-4-4-3z" fill="#887B69"/>
<path transform="translate(568,754)" d="m0 0 4 1 9 7 3 1v2l-7 1-1-4-8-6z" fill="#817565"/>
<path transform="translate(635,708)" d="m0 0h6l3 2-1 3-7 1v-2h-2l-1-3z" fill="#1A150E"/>
<path transform="translate(756,1281)" d="m0 0h16l6 1-3 2h-11l-8-2z" fill="#6D675E"/>
<path transform="translate(411,777)" d="m0 0 3 2-3 2 6 5-2 3-8-7-3-2z" fill="#6A6358"/>
<path transform="translate(647,1301)" d="m0 0 2 2v9l-3 5-1-2-3-2 2-1z" fill="#C3993A"/>
<path transform="translate(73,947)" d="m0 0h6l-1 3-11 3h-4v-2z" fill="#261C0D"/>
<path transform="translate(735,753)" d="m0 0 5 2-4 2-14 4h-3l-1 3v-3l-2-1 17-5z" fill="#8A734F"/>
<path transform="translate(1057,742)" d="m0 0h9l-1 2-14 4-5-1 2-2 8-1z" fill="#312615"/>
<path transform="translate(721,1288)" d="m0 0 1 2h4l-1 5-7-1-2-1 1-3z" fill="#614A29"/>
<path transform="translate(861,1232)" d="m0 0h2l-1 5h-2l-2 6-6 10-2-1 6-10z" fill="#312A22"/>
<path transform="translate(481,844)" d="m0 0h2v2l-15 5h-5v-2l8-3z" fill="#574C3C"/>
<path transform="translate(944,783)" d="m0 0 3 1-2 2-15 5-3-1 5-3z" fill="#8E7C5D"/>
<path transform="translate(714,761)" d="m0 0h4v3l5 2 8 6-2 3-4-4-4-2-5-5-5-1z" fill="#98805A"/>
<path transform="translate(488,755)" d="m0 0 2 1 1 4 9 7-1 2-6-4-6-5-4-2z" fill="#72685A"/>
<path transform="translate(1066,742)" d="m0 0h1v8l-2 2-4-1-1-5z" fill="#C69328"/>
<path transform="translate(765,1290)" d="m0 0h10v2l-3 1h-15v-2z" fill="#766D62"/>
<path transform="translate(818,1277)" d="m0 0h3v4l-18 2 3-2z" fill="#1C150A"/>
<path transform="translate(663,898)" d="m0 0 3 1-1 3-13 3 2-4z" fill="#AF8B4B"/>
<path transform="translate(931,812)" d="m0 0 2 2-2 2-5 2h-8l1-3z" fill="#AB7D2A"/>
<path transform="translate(659,726)" d="m0 0h6l1 2-5 1v4l-4-1-2-1 1-4z" fill="#261F14"/>
<path transform="translate(728,1177)" d="m0 0m-3 1h3l-2 4-3 3-8 1 5-5z" fill="#2E2211"/>
<path transform="translate(1020,1156)" d="m0 0 2 1h3l4 1-11 4h-5v-3z" fill="#82735D"/>
<path transform="translate(78,1033)" d="m0 0 7 6 4 5-1 3-4-4-3-2-1-2-2-1z" fill="#907F66"/>
<path transform="translate(677,897)" d="m0 0h7l-3 2-12 4h-7l3-2z" fill="#89662B"/>
<path transform="translate(941,829)" d="m0 0 5 4 5 5 7 6h-3l-15-11z" fill="#B98626"/>
<path transform="translate(895,809)" d="m0 0h1v7l4-2h5l1 3-8 4 1-3-4-1z" fill="#4D4439"/>
<path transform="translate(542,740)" d="m0 0 2 1-1 2h-2l3 4v2l-4-2-3-2-7 1 1-3z" fill="#695F52"/>
<path transform="translate(675,737)" d="m0 0 3 1-4 2-7 2v3l-8-1 1-3z" fill="#7A6950"/>
<path transform="translate(645,735)" d="m0 0 5 2 5 4 8 1-4 2-7 1v-3l-7-5z" fill="#877A67"/>
<path transform="translate(666,657)" d="m0 0h1l-1 18h-3l1-15z" fill="#8B7B61"/>
<path transform="translate(237,883)" d="m0 0 3 1-14 9-5 2 2-4 13-7z" fill="#4F3813"/>
<path transform="translate(253,759)" d="m0 0h1v9h2l1 16-3-3-1-11z" fill="#93836A"/>
<path transform="translate(724,1177)" d="m0 0 2 1-17 12v-3l6-5h2v-2z" fill="#625138"/>
<path transform="translate(382,1424)" d="m0 0 2 1 1 2-11 5-3-1h2v-3z" fill="#A58C5F"/>
<path transform="translate(734,1173)" d="m0 0 2 1-1 2h3l-2 4-4 2v-4l-4 1 5-5z" fill="#31220C"/>
<path transform="translate(519,817)" d="m0 0 3 1-1 2-14 4v-3z" fill="#837664"/>
<path transform="translate(1033,770)" d="m0 0 3 1v3l-5 2-4-1-3-2z" fill="#494136"/>
<path transform="translate(289,1411)" d="m0 0 5 5 1 3h8l1 2-2 1h-6l-7-9z" fill="#5A4E3C"/>
<path transform="translate(827,1274)" d="m0 0h5l-1 3-6 3h-4l1-4z" fill="#33250F"/>
<path transform="translate(729,1273)" d="m0 0h5l1 4 5 2-3 1-7-2z" fill="#15110A"/>
<path transform="translate(960,873)" d="m0 0 7 4 7 5 2 4-5-2-6-4v-2l-5-3z" fill="#DBAC31"/>
<path transform="translate(437,842)" d="m0 0 3 1v2l-11 3h-5v-2z" fill="#7C6F5D"/>
<path transform="translate(1012,778)" d="m0 0h6l4 1v2l-14 2v-3z" fill="#282118"/>
<path transform="translate(212,771)" d="m0 0 1 3-1 4h-3l-1-1v3h-3v-6l3-1 2 1v-2z" fill="#534C42"/>
<path transform="translate(570,1343)" d="m0 0h3l-1 3-6 3h-6v-2z" fill="#A1895F"/>
<path transform="translate(708,1182)" d="m0 0 3 1-6 4-5 4-4 4 1-5 4-4z" fill="#33240F"/>
<path transform="translate(647,793)" d="m0 0 2 1v2l-17 5h-5l3-2 11-4z" fill="#62523B"/>
<path transform="translate(988,790)" d="m0 0 3 1-3 2-11 4h-3v-2z" fill="#3D2B0F"/>
<path transform="translate(430,764)" d="m0 0h2l3 7-9-3-3-2z" fill="#403425"/>
<path transform="translate(1062,757)" d="m0 0 4 1-1 4-6 3-1 2-5-2 1-4v3l7-3z" fill="#4D4232"/>
<path transform="translate(624,733)" d="m0 0 2 3-6 2-1 2 4 2-2 2-5-4-3-2 9-3h2z" fill="#756B5E"/>
<path transform="translate(613,724)" d="m0 0 4 1 11 8-1 2h-2v-2l-5-2-7-6z" fill="#867967"/>
<path transform="translate(621,716)" d="m0 0h10l1 2-16 4-1-2 5-1z" fill="#6D6559"/>
<path transform="translate(415,1410)" d="m0 0 3 1-4 2-3 3-7 2v-3z" fill="#9C8766"/>
<path transform="translate(709,1270)" d="m0 0h4l-2 4h-5l-3 2h-3l1-3z" fill="#6E5C43"/>
<path transform="translate(697,1203)" d="m0 0h1l1 5 1 3-3 10h-1v-12z" fill="#3A280D"/>
<path transform="translate(572,1188)" d="m0 0 10 2h11l-3 2-4 1h-7l-7-4z" fill="#2F210C"/>
<path transform="translate(931,1173)" d="m0 0 5 1v2l6 2 1 4-6-2-6-5z" fill="#6F675C"/>
<path transform="translate(115,1130)" d="m0 0 3 1-10 4-9 4-2 2-1-4z" fill="#665948"/>
<path transform="translate(536,1080)" d="m0 0m-3 1h3l-1 3-9 3-4-1 5-3z" fill="#4C3510"/>
<path transform="translate(318,803)" d="m0 0 2 1v2l-15 4 2-4z" fill="#6A6052"/>
<path transform="translate(322,778)" d="m0 0h6l-2 2-11 3h-7l3-2z" fill="#675A46"/>
<path transform="translate(538,758)" d="m0 0h5v3l4 2 4 4h-3l-8-6-4-2z" fill="#837767"/>
<path transform="translate(571,749)" d="m0 0h5l-4 2-2 2-3 2-5-1-3-1 3-2z" fill="#70675A"/>
<path transform="translate(683,419)" d="m0 0h1v15l-3 1 1-15z" fill="#918067"/>
<path transform="translate(371,1429)" d="m0 0h2v2h-2v2l-7 3-4-1 6-4z" fill="#9A8567"/>
<path transform="translate(863,1219)" d="m0 0v3l-6 8h-3l2-6z" fill="#15110A"/>
<path transform="translate(644,1041)" d="m0 0m-3 1h3l-1 3-9 3-4-1 8-4z" fill="#4C3510"/>
<path transform="translate(177,909)" d="m0 0 5 1-4 2-12 4-3-1 9-4z" fill="#4E3712"/>
<path transform="translate(881,811)" d="m0 0 9 5 4 4v2l-5-2-8-6z" fill="#4C3510"/>
<path transform="translate(231,782)" d="m0 0 4 2 4 1-1 4-5-1-3-2z" fill="#6B6459"/>
<path transform="translate(873,241)" d="m0 0 3 2 3 6v4l-5-5-2-6z" fill="#BF8A25"/>
<path transform="translate(512,1368)" d="m0 0 5 1-2 2-10 4-2-1 4-4z" fill="#A48B5D"/>
<path transform="translate(399,853)" d="m0 0 4 1-1 2-11 3-1-3z" fill="#807361"/>
<path transform="translate(709,762)" d="m0 0 3 1-3 2-10 3h-4v-2z" fill="#867356"/>
<path transform="translate(589,727)" d="m0 0 2 1 2 5h-3l-7-1-2-1 1-2z" fill="#696051"/>
<path transform="translate(119,699)" d="m0 0h10l-4 2-10 3-3-1 2-2v-1z" fill="#4C350F"/>
<path transform="translate(162,1231)" d="m0 0 6 3 3 4-2 4-7-9z" fill="#524737"/>
<path transform="translate(226,887)" d="m0 0m-1 1m-2 1h2v2l-17 7-2-1 14-7z" fill="#2F210C"/>
<path transform="translate(385,793)" d="m0 0 4 1 6 5-1 3-4-1-2-4z" fill="#8C7F6C"/>
<path transform="translate(622,743)" d="m0 0 5 2 6 5-2 2-4-1-2-4-3-2z" fill="#857A69"/>
<path transform="translate(884,257)" d="m0 0 4 1 2 4h-2v2l-4-1-2-4z" fill="#BF8A25"/>
<path transform="translate(725,1251)" d="m0 0 3 1 3 8v7l-1-2h-2l-2-12z" fill="#785A2B"/>
<path transform="translate(991,1169)" d="m0 0 3 1-1 3-5 2-4-1v-2z" fill="#867A69"/>
<path transform="translate(825,1156)" d="m0 0h11l-2 5-9-3z" fill="#15110A"/>
<path transform="translate(66,942)" d="m0 0h7l-2 2-10 3-4-1z" fill="#6A5127"/>
<path transform="translate(432,788)" d="m0 0h6l4 5-1 3-3-2v-2l-7-2z" fill="#837663"/>
<path transform="translate(646,788)" d="m0 0 5 2 8 6-2 2h-3l-2-4-6-5z" fill="#8A7C67"/>
<path transform="translate(586,762)" d="m0 0h5v3l5 2 1 4-6-4-7-3z" fill="#877A68"/>
<path transform="translate(677,511)" d="m0 0h1v12l-2 4h-1l1-15z" fill="#928067"/>
<path transform="translate(252,476)" d="m0 0 2 1v3l-3 1-2 4-3-1 2-4z" fill="#BAAC9A"/>
<path transform="translate(875,230)" d="m0 0h3v2l3-1-2 5v3h-2l-2-4z" fill="#D7A42D"/>
<path transform="translate(321,1406)" d="m0 0 2 3-1 2-6 2v-2l-3-1 3-2z" fill="#2E200B"/>
<path transform="translate(840,1237)" d="m0 0 8 5v2l-5 3-1-6-3-1z" fill="#15110A"/>
<path transform="translate(636,1176)" d="m0 0 2 4-5 2h-4v-3z" fill="#4B340E"/>
<path transform="translate(822,1164)" d="m0 0 5 2 11 8-1 2-10-7-5-3z" fill="#15110A"/>
<path transform="translate(671,1163)" d="m0 0 3 1-3 2-8 3h-3v-4h2v2z" fill="#906E3B"/>
<path transform="translate(1011,1160)" d="m0 0 3 1-3 3-9 3 2-4z" fill="#8B7E6B"/>
<path transform="translate(768,1129)" d="m0 0m-6 1h6l-3 3-4 2-6-1 2-2z" fill="#C7962B"/>
<path transform="translate(808,1108)" d="m0 0 1 2-3 4h-2l-2 4-5 1-1-2 10-6z" fill="#B8892D"/>
<path transform="translate(804,1103)" d="m0 0h2l-2 5-3 2h-5v-2z" fill="#857A6C"/>
<path transform="translate(630,1046)" d="m0 0m-3 1 5 1-3 2-10 3 2-4z" fill="#4E3712"/>
<path transform="translate(996,784)" d="m0 0 4 1-1 2-9 2v-3z" fill="#2C251C"/>
<path transform="translate(469,772)" d="m0 0 4 1v2l10-1 1 2-10 1-4 1z" fill="#736756"/>
<path transform="translate(184,770)" d="m0 0 4 1h-3v2l-8 3-2-1-1-2z" fill="#5A5145"/>
<path transform="translate(62,735)" d="m0 0 1 4 3 3v2l-5 1 1-4-5-1 2-4z" fill="#15110A"/>
<path transform="translate(484,1380)" d="m0 0h2v2l-5 1-1 3-8 1 3-3z" fill="#98876B"/>
<path transform="translate(707,1189)" d="m0 0 2 2-7 10-2-1 3-7z" fill="#312A22"/>
<path transform="translate(1033,1157)" d="m0 0 1 2-5 4-5 2v-2l-2-1z" fill="#806B4A"/>
<path transform="translate(793,1118)" d="m0 0 3 1-5 4-5 2-3-1 7-5z" fill="#C8972C"/>
<path transform="translate(511,1089)" d="m0 0m-4 1h4l-1 3-10 3 2-4z" fill="#4D3610"/>
<path transform="translate(1010,909)" d="m0 0 7 2 5 5 1 2-5-2-8-5z" fill="#D2A02D"/>
<path transform="translate(988,894)" d="m0 0 7 2 5 5 1 2-5-2-8-5z" fill="#D19F2C"/>
<path transform="translate(25,814)" d="m0 0h2l-1 3-2 1h-10l1-2z" fill="#614A29"/>
<path transform="translate(914,799)" d="m0 0 9 6 1 2-4 1-5-4z" fill="#9D8862"/>
<path transform="translate(1053,771)" d="m0 0h4v2l-8 3-5-1 3-2z" fill="#AF7F27"/>
<path transform="translate(510,766)" d="m0 0 4 2-12 3-5-1 2-2z" fill="#6A6153"/>
<path transform="translate(343,1441)" d="m0 0h2v2l-4 1v2l-2 1h-6l3-3z" fill="#9B8768"/>
<path transform="translate(383,1427)" d="m0 0 4 1-12 6-3-1h2v-2z" fill="#CD9A29"/>
<path transform="translate(948,1181)" d="m0 0 14 1-3 3-7-1-4-1z" fill="#A89C8C"/>
<path transform="translate(525,1140)" d="m0 0 3 1 7 8 4 5-4-2-10-10z" fill="#3B290C"/>
<path transform="translate(752,1134)" d="m0 0 3 1-5 4-8 2 5-5z" fill="#C8962C"/>
<path transform="translate(463,966)" d="m0 0 5 1-3 2-6 2h-6l4-3z" fill="#7E5F30"/>
<path transform="translate(692,892)" d="m0 0 3 1-10 4h-5l1-2z" fill="#7B5C2F"/>
<path transform="translate(999,864)" d="m0 0 6 4-2 4h-8v-1l5-1z" fill="#3C2B11"/>
<path transform="translate(854,837)" d="m0 0 3 1-10 5h-3l1-3z" fill="#8D6934"/>
<path transform="translate(471,834)" d="m0 0 4 1v3l2 1-5 1-3-1 1-4z" fill="#3F3527"/>
<path transform="translate(641,713)" d="m0 0 3 1-4 3-2 2-7-2 2-2z" fill="#726B60"/>
<path transform="translate(544,1354)" d="m0 0 3 1v2l-9 3-1-3z" fill="#A58B5C"/>
<path transform="translate(751,1280)" d="m0 0h11l-3 2 5 1v1h-9z" fill="#554227"/>
<path transform="translate(857,1183)" d="m0 0h5l-1 5-4 1-1-5z" fill="#E6B835"/>
<path transform="translate(787,1114)" d="m0 0h2v2l-13 5h-2l1-3z" fill="#22190B"/>
<path transform="translate(515,949)" d="m0 0 4 1-1 2-11 3 1-3z" fill="#8E692C"/>
<path transform="translate(543,940)" d="m0 0 4 1-1 2-11 3 1-3z" fill="#8E692C"/>
<path transform="translate(702,888)" d="m0 0 4 1-1 2-11 3 1-3z" fill="#8E692C"/>
<path transform="translate(249,876)" d="m0 0v3l-6 7-5 1 1-2h3l2-4z" fill="#AE8847"/>
<path transform="translate(953,867)" d="m0 0 7 5v3l5 2 1 2-6-2-7-8z" fill="#CA9629"/>
<path transform="translate(274,816)" d="m0 0 2 1v6l5 6h-3l-4-3z" fill="#5B4422"/>
<path transform="translate(941,819)" d="m0 0h7l1 3-5 2v-2l-5 1v-2h2z" fill="#342C22"/>
<path transform="translate(245,806)" d="m0 0h3l3 3h2v2h-5v2h-2l1-5-6 1 1-2z" fill="#473F36"/>
<path transform="translate(591,743)" d="m0 0 3 1v2l-7 1-9 1 3-2z" fill="#736A5D"/>
<path transform="translate(47,737)" d="m0 0h2v2l-11 6-2-1 3-3z" fill="#5E441B"/>
<path transform="translate(505,1374)" d="m0 0h4v2l-10 4-2-1z" fill="#CF9C2A"/>
<path transform="translate(595,1332)" d="m0 0 2 1 1 2-5 2h-7l2-2z" fill="#A68E5E"/>
<path transform="translate(697,1275)" d="m0 0 4 2 1 6-4-1-2-6z" fill="#3A280C"/>
<path transform="translate(722,1264)" d="m0 0 3 3 3 7h-5l-2-9z" fill="#614A29"/>
<path transform="translate(877,1182)" d="m0 0h6l-1 5-2 1v-2l-4-1z" fill="#D1BA8B"/>
<path transform="translate(769,1156)" d="m0 0 4 1-11 4h-3v-2z" fill="#716A60"/>
<path transform="translate(1027,1153)" d="m0 0 3 1-1 3-9 2 2-4z" fill="#897D6B"/>
<path transform="translate(188,990)" d="m0 0h4v2l-9 3-4-1 3-2z" fill="#A4844F"/>
<path transform="translate(5,959)" d="m0 0h8l-1 2-5 1h-7v-2z" fill="#8A6D3D"/>
<path transform="translate(411,864)" d="m0 0 4 1-1 2-5 1-7 1v-2z" fill="#594A35"/>
<path transform="translate(437,856)" d="m0 0h7v2l-9 2h-3v-2z" fill="#53483A"/>
<path transform="translate(667,787)" d="m0 0h5l-2 2-9 3h-3v-2z" fill="#615038"/>
<path transform="translate(1041,775)" d="m0 0 3 1-2 2-10 2-4-1z" fill="#AF7F29"/>
<path transform="translate(650,757)" d="m0 0 4 2h9l-2 2-9 1v-2h-2z" fill="#8A7D6A"/>
<path transform="translate(168,720)" d="m0 0 4 2 3 4-6-1-3-2v-2z" fill="#281D0B"/>
<path transform="translate(383,467)" d="m0 0h6l4 3-9 1z" fill="#312A22"/>
<path transform="translate(512,1371)" d="m0 0 3 1 1 2-6 3-3-1h2l-1-3z" fill="#C79327"/>
<path transform="translate(638,1321)" d="m0 0 2 1-3 1v2l-9 3-3-1z" fill="#DBA92F"/>
<path transform="translate(641,1312)" d="m0 0 1 3-5 3h-4l1-3z" fill="#A18961"/>
<path transform="translate(859,1247)" d="m0 0h2l-2 6-3 5-3 1 2-5z" fill="#A97C2C"/>
<path transform="translate(843,1227)" d="m0 0 5 2 3 2v2l-9-2z" fill="#15110A"/>
<path transform="translate(677,1158)" d="m0 0 2 1v4l4-1-3 3-5 1-1-3 2-1z" fill="#977135"/>
<path transform="translate(81,1042)" d="m0 0 4 1 4 4-1 3-6-5z" fill="#E8E5E7"/>
<path transform="translate(751,1023)" d="m0 0 4 1 8 7-3 1-9-8z" fill="#7B613A"/>
<path transform="translate(693 1e3)" d="m0 0h6l-1 5-1-2-6 1z" fill="#17120A"/>
<path transform="translate(239,959)" d="m0 0 6 9 1 3-4-2-3-4z" fill="#2F210C"/>
<path transform="translate(1032,924)" d="m0 0 5 2 6 3 2 4-5-2-8-5z" fill="#CE9B2B"/>
<path transform="translate(684,891)" d="m0 0 3 1-3 3-7 1 1-3z" fill="#B9954D"/>
<path transform="translate(275,819)" d="m0 0 1 2 3 1 4 5v2l-4-2-4-4z" fill="#877150"/>
<path transform="translate(949,798)" d="m0 0 3 1-3 3-8 2-1-3z" fill="#4B4338"/>
<path transform="translate(642,782)" d="m0 0h3l-1 4 3 1-2 2-4-3-3-1v-2z" fill="#86765E"/>
<path transform="translate(516,768)" d="m0 0 4 1 6 5-2 2-8-6z" fill="#7F7362"/>
<path transform="translate(631,709)" d="m0 0 3 1v2h2l1 3-6-1-4-4z" fill="#3C3122"/>
<path transform="translate(750,620)" d="m0 0 7 1 2 2h-3l-2 1v3l-3-2z" fill="#E5B534"/>
</svg>
