<?xml version="1.0" encoding="UTF-8"?>
<svg version="1.1" xmlns="http://www.w3.org/2000/svg" width="512" height="512">
<path d="M0 0 C2.28754623 -0.00542592 4.57508896 -0.01255121 6.86262512 -0.02124023 C13.05275243 -0.03942145 19.24261201 -0.03242712 25.43274379 -0.01972389 C31.9240468 -0.0095681 38.41532752 -0.01899685 44.90663147 -0.02526855 C56.50435161 -0.03300305 68.10195005 -0.02060281 79.69965101 -0.00023121 C90.1946842 0.01763354 100.68954033 0.01453659 111.18457031 -0.00390625 C123.39834334 -0.02535965 135.61199041 -0.03325496 147.82578188 -0.0214572 C154.28149542 -0.01523623 160.73708727 -0.01434812 167.19279289 -0.02760315 C173.2643777 -0.03919948 179.33562982 -0.03106655 185.40717888 -0.00802612 C187.62908375 -0.00275903 189.85101685 -0.00421833 192.07291031 -0.01307678 C210.1378095 -0.07843228 222.68491946 1.64718226 236.49243164 14.39257812 C246.1002498 24.50607093 249.83591592 37.06881566 249.65649414 50.70898438 C249.6522493 51.95505714 249.6522493 51.95505714 249.6479187 53.2263031 C249.63684455 55.84438317 249.61176524 58.46210383 249.58618164 61.08007812 C249.57613529 62.86978668 249.56701236 64.65950067 249.55883789 66.44921875 C249.53694729 70.80547417 249.50250797 75.1614655 249.46118164 79.51757812 C250.20176315 79.50647507 250.94234467 79.49537201 251.70536804 79.4839325 C258.69383843 79.38363555 265.68220087 79.30756506 272.67120647 79.25851727 C276.26419024 79.23245268 279.856578 79.19711484 283.44921875 79.14038086 C286.9181635 79.08594477 290.38653603 79.05613397 293.85587502 79.04319191 C295.81969215 79.02949364 297.78327989 78.99047794 299.74674988 78.95109558 C309.68312604 78.94797074 309.68312604 78.94797074 312.81201172 81.8605957 C314.46118164 84.51757812 314.46118164 84.51757812 314.46118164 87.51757812 C320.73118164 87.51757812 327.00118164 87.51757812 333.46118164 87.51757812 C334.12118164 85.53757812 334.78118164 83.55757813 335.46118164 81.51757812 C338.60317257 79.42291751 339.37036013 79.26131486 342.95751953 79.22705078 C344.32022728 79.20791122 344.32022728 79.20791122 345.71046448 79.18838501 C346.6916777 79.18615936 347.67289093 79.18393372 348.68383789 79.18164062 C349.69909042 79.17498383 350.71434296 79.16832703 351.76036072 79.16146851 C353.91313872 79.15133497 356.06594817 79.1466517 358.21875 79.14697266 C361.48695027 79.14262697 364.75376973 79.10639048 368.02172852 79.06835938 C370.11742705 79.06248562 372.21313197 79.05851997 374.30883789 79.05664062 C375.2758815 79.04226959 376.24292511 79.02789856 377.23927307 79.01309204 C385.00691195 79.06445625 391.61130903 80.85407109 398.04711914 85.30664062 C398.63750977 85.9125 399.22790039 86.51835938 399.83618164 87.14257812 C400.44204102 87.73296875 401.04790039 88.32335937 401.67211914 88.93164062 C408.77553349 99.19902119 408.03142717 109.96731252 407.97875977 121.95507812 C407.98418569 124.02897634 407.99131098 126.1028707 408 128.17675781 C408.01818023 133.78832516 408.01118764 139.39959716 407.99848366 145.01116943 C407.98832854 150.89482394 407.99775631 156.77845383 408.00402832 162.66210938 C408.0112974 172.54106162 408.00173637 182.41989408 407.98266602 192.29882812 C407.96089879 203.70625914 407.96795068 215.11340415 407.98997164 226.52082825 C408.00814665 236.33004701 408.01067366 246.13917987 408.00021696 255.94841003 C407.99399362 261.80045253 407.99311456 267.65236076 408.00636292 273.50439453 C408.0179513 279.00717501 408.00984088 284.50958814 407.98678589 290.0123291 C407.98151479 292.02705273 407.98298506 294.04180748 407.99183655 296.05651855 C408.07473743 316.84907608 408.07473743 316.84907608 401.67211914 326.10351562 C401.06625977 326.69390625 400.46040039 327.28429687 399.83618164 327.89257812 C399.24579102 328.4984375 398.65540039 329.10429687 398.04711914 329.72851562 C389.77502132 335.45150777 381.67186719 336.08608069 371.84155273 335.97167969 C370.50019362 335.97054894 369.15883205 335.9711895 367.81747437 335.97344971 C364.20638973 335.97458895 360.59584563 335.95120961 356.98488569 335.92315388 C353.1999641 335.89800689 349.41502765 335.89578782 345.6300354 335.89105225 C338.47622461 335.87866126 331.32266077 335.84589276 324.16895831 335.80565429 C316.01897692 335.76081518 307.86898322 335.73891915 299.71890903 335.71887255 C282.96618909 335.6771562 266.21371697 335.60688043 249.46118164 335.51757812 C249.46394702 336.2074242 249.4667124 336.89727028 249.46956158 337.60802078 C249.53597336 354.43613632 249.58553587 371.26421005 249.61661816 388.0924263 C249.63205095 396.23061089 249.65307139 404.36870771 249.6875 412.50683594 C249.71751274 419.60456936 249.73678268 426.70223917 249.74344712 433.80003428 C249.74733939 437.55416033 249.75641078 441.3081045 249.77837181 445.06217194 C249.79892524 448.60474472 249.80497795 452.14706288 249.80050468 455.68968964 C249.80170733 457.59109264 249.81774986 459.49246872 249.83444214 461.39379883 C249.78317818 475.82357083 246.20268165 488.68790951 236.08618164 499.39257812 C221.83992773 512.37530619 207.20602291 513.10856716 188.79296875 513.03515625 C186.50365251 513.04058315 184.21433976 513.04770898 181.92503357 513.05639648 C175.73503252 513.07456399 169.54529946 513.06758963 163.35529399 513.05488014 C156.86352895 513.04471965 150.37178613 513.05415416 143.88002014 513.0604248 C132.28438641 513.06815662 120.68887447 513.05576434 109.09325994 513.03538746 C98.59792052 513.01751459 88.10275811 513.02062723 77.60742188 513.0390625 C65.39218628 513.06050905 53.17707659 513.06841547 40.96182257 513.05661345 C34.50559687 513.05039049 28.04949286 513.04951012 21.59327507 513.0627594 C15.52332154 513.07434708 9.45370104 513.06623849 3.38378334 513.04318237 C1.16145759 513.03791115 -1.06089638 513.03938172 -3.28321075 513.04823303 C-24.73670339 513.1257777 -24.73670339 513.1257777 -33.53881836 508.51757812 C-34.53397461 508.03675781 -35.52913086 507.5559375 -36.55444336 507.06054688 C-47.82171399 500.225332 -55.58220775 491.15316171 -59.1128006 478.20945644 C-60.84359832 471.07338295 -60.96284593 464.21075055 -60.93322754 456.89674377 C-60.93812666 455.45451524 -60.94432115 454.01229064 -60.95168543 452.57007259 C-60.96797668 448.63903017 -60.9657894 444.70818971 -60.96031046 440.77712548 C-60.95762707 436.52564269 -60.97219584 432.27421215 -60.98440552 428.02275085 C-61.00540093 419.70877419 -61.01000398 411.39486735 -61.00821763 403.0808673 C-61.00690798 396.32537141 -61.01072448 389.56989724 -61.0181427 382.81440544 C-61.02024194 380.86573678 -61.02233954 378.91706813 -61.02443552 376.96839947 C-61.02547905 375.99843577 -61.02652258 375.02847208 -61.02759773 374.02911555 C-61.0464735 355.71143928 -61.04545698 337.39380311 -61.0386284 319.07612114 C-61.03304472 302.31249608 -61.05391819 285.54902344 -61.08698887 268.78543402 C-61.12069758 251.56475784 -61.13589841 234.34415477 -61.13127184 217.12344497 C-61.12902561 207.45811567 -61.13429396 197.79292754 -61.15916443 188.12762642 C-61.18014016 179.90629408 -61.18380587 171.68518051 -61.16486484 163.4638393 C-61.15568708 159.26866288 -61.15462638 155.07389481 -61.17522049 150.87874985 C-61.19385585 147.04031513 -61.18951201 143.20262535 -61.16667467 139.36421966 C-61.16247022 137.97418799 -61.16675074 136.58410002 -61.18027061 135.19412775 C-61.28625279 123.5043035 -61.28625279 123.5043035 -58.18747711 120.15933132 C-55.53881836 118.51757812 -55.53881836 118.51757812 -52.53881836 118.51757812 C-52.53881836 111.91757813 -52.53881836 105.31757812 -52.53881836 98.51757812 C-54.51881836 98.18757813 -56.49881836 97.85757813 -58.53881836 97.51757812 C-60.71819454 94.24851386 -60.79405435 93.29054716 -60.81347656 89.50219727 C-60.82300858 88.4800563 -60.83254059 87.45791534 -60.84236145 86.40480042 C-60.84145004 85.29861862 -60.84053864 84.19243683 -60.83959961 83.05273438 C-60.84388474 81.90904892 -60.84816986 80.76536346 -60.85258484 79.58702087 C-60.8583351 77.16015281 -60.85882331 74.7332675 -60.85449219 72.30639648 C-60.85135733 68.62583118 -60.87469581 64.9460894 -60.90014648 61.265625 C-60.90242217 58.9029958 -60.90312173 56.54036445 -60.90209961 54.17773438 C-60.91130936 53.08977066 -60.9205191 52.00180695 -60.93000793 50.88087463 C-60.84633287 36.7687403 -56.98801323 24.14274637 -47.22631836 13.64257812 C-43.12584113 9.88913461 -38.53637603 6.93220119 -33.53881836 4.51757812 C-32.90905814 4.18787773 -32.27929792 3.85817734 -31.63045406 3.51848602 C-21.59243076 -0.96678241 -10.75872474 -0.04285119 0 0 Z " fill="#020404" transform="translate(82.538818359375,-0.517578125)"/>
<path d="M0 0 C6.93 0 13.86 0 21 0 C21.99 1.98 22.98 3.96 24 6 C26.32601732 7.16300866 27.67345129 7.12443259 30.26269531 7.12597656 C31.58482025 7.13168671 31.58482025 7.13168671 32.93365479 7.13751221 C34.36641754 7.13905304 34.36641754 7.13905304 35.828125 7.140625 C37.84506335 7.15895591 39.86199074 7.17852648 41.87890625 7.19921875 C45.06317562 7.22817111 48.24674286 7.2499995 51.43115234 7.25048828 C54.50161238 7.25382729 57.5704475 7.28840901 60.640625 7.328125 C61.58770325 7.3210553 62.53478149 7.3139856 63.51055908 7.30670166 C67.96046446 7.3884074 71.04628161 7.55594907 74.58496094 10.41699219 C78.47252026 14.57493574 78.15053669 17.71824839 78.15390015 23.17254639 C78.1582824 24.02756784 78.16266465 24.88258929 78.1671797 25.76352048 C78.18059694 28.64540905 78.18675311 31.52726702 78.19287109 34.40917969 C78.20076974 36.46868021 78.20903854 38.52817934 78.21765137 40.587677 C78.2438984 47.3657295 78.25918144 54.14378827 78.2734375 60.921875 C78.27879603 63.25269831 78.28417354 65.58352157 78.28956985 67.91434479 C78.31120229 77.6079543 78.32994004 87.30156212 78.34119225 96.99518967 C78.35743768 110.90031302 78.39062595 124.80515719 78.44759309 138.71017528 C78.48625831 148.48007998 78.50582088 158.2499099 78.51111281 168.01988912 C78.51477087 173.85858828 78.52684066 179.69698986 78.55921555 185.53560638 C78.58923587 191.02842147 78.59562941 196.52075798 78.58383179 202.01363754 C78.58361055 204.03005886 78.59195693 206.046502 78.60948563 208.06284714 C78.63211451 210.8156499 78.62391167 213.56670812 78.60800171 216.31951904 C78.6218838 217.1177769 78.63576588 217.91603475 78.65006864 218.73848224 C78.59351497 222.70895486 78.20686813 225.24844288 75.71199989 228.41753006 C71.50594967 232.42269182 68.84705862 233.249564 63.05848885 233.25726891 C61.83503639 233.2637178 60.61158394 233.27016669 59.35105717 233.276811 C57.99137209 233.27386865 56.63168742 233.27073321 55.27200317 233.26742554 C53.82914456 233.27116114 52.38628797 233.2757623 50.9434346 233.28115618 C46.9734817 233.29341274 43.0036129 233.2931226 39.03364539 233.29076743 C34.75406575 233.29035994 30.47451331 233.30139194 26.19494629 233.31088257 C17.80869508 233.32750789 9.42247198 233.3329928 1.03620566 233.33410732 C-5.77906038 233.33505704 -12.59431713 233.33916347 -19.40958023 233.34550858 C-38.72369331 233.36312486 -58.03778416 233.3723468 -77.35190533 233.37084763 C-78.39351583 233.37076772 -79.43512633 233.3706878 -80.50830078 233.37060547 C-81.55118008 233.37052371 -82.59405938 233.37044195 -83.66854109 233.37035771 C-100.57423835 233.36954461 -117.47984656 233.38868729 -134.38551806 233.4168822 C-151.73589043 233.44559092 -169.08621933 233.45942362 -186.43661606 233.45769465 C-196.18088485 233.45703007 -205.92506028 233.46255209 -215.66930771 233.48405075 C-223.96507043 233.50223606 -232.26069746 233.50663172 -240.55647145 233.4930319 C-244.79014465 233.48648892 -249.02355733 233.48643278 -253.25720596 233.5037384 C-257.1323059 233.5194157 -261.0069376 233.51666073 -264.88202573 233.49917014 C-266.28442831 233.4960884 -267.68686538 233.49977672 -269.0892273 233.51089029 C-282.06058953 233.60688487 -282.06058953 233.60688487 -287 229 C-289.91661157 226.00663549 -290.95048465 223.99586803 -291.15869141 219.80834961 C-291.13983887 218.64311768 -291.12098633 217.47788574 -291.1015625 216.27734375 C-291.08689941 215.10292725 -291.07223633 213.92851074 -291.05712891 212.71850586 C-291.03827637 211.82139893 -291.01942383 210.92429199 -291 210 C-289.91973541 209.99635437 -288.83947083 209.99270874 -287.72647095 209.98895264 C-277.51640356 209.95191602 -267.30663536 209.89404887 -257.09679604 209.81609726 C-251.84853541 209.77668813 -246.60044092 209.74446746 -241.35205078 209.72900391 C-236.28140985 209.7137941 -231.21122587 209.67927189 -226.14078903 209.63169098 C-224.21208049 209.6169217 -222.28330669 209.60896156 -220.35454178 209.60811615 C-206.60102146 209.59603139 -195.56484403 208.80495966 -185 199 C-177.98906824 190.28370646 -176.83767071 180.91452196 -177.70263672 170.07714844 C-178.85549536 162.02417524 -183.56205413 155.33847281 -189.8515625 150.3984375 C-197.69650075 145.29209588 -205.01207619 143.86416819 -214.27856445 143.79467773 C-215.09859451 143.78477814 -215.91862457 143.77487854 -216.76350403 143.76467896 C-219.46340079 143.73319047 -222.16331513 143.70835673 -224.86328125 143.68359375 C-226.73944038 143.66301329 -228.61559499 143.64201653 -230.491745 143.62062073 C-235.4219699 143.56551285 -240.35223587 143.51605393 -245.28253174 143.46777344 C-250.31664673 143.41747589 -255.35070234 143.36183296 -260.38476562 143.30664062 C-270.25645964 143.19919711 -280.1282053 143.09772164 -290 143 C-290.11685711 126.41455626 -290.20499958 109.82924628 -290.25906086 93.24349022 C-290.28483089 85.5422323 -290.31995804 77.84123034 -290.37719727 70.14013672 C-290.42706952 63.4270058 -290.45929976 56.71406026 -290.47044247 50.00074923 C-290.47695493 46.44675216 -290.49223473 42.89328539 -290.52865028 39.33945847 C-290.56899474 35.3699228 -290.56994695 31.40090358 -290.56762695 27.43115234 C-290.58560333 26.25582947 -290.60357971 25.08050659 -290.62210083 23.86956787 C-290.56581377 14.98215096 -290.56581377 14.98215096 -287.58952332 11.28555298 C-284.23261345 8.32269286 -282.79332659 7.87507273 -278.44185925 7.86971474 C-277.47606007 7.86609039 -276.51026089 7.86246604 -275.51519507 7.85873187 C-273.91236048 7.86033424 -273.91236048 7.86033424 -272.27714539 7.86196899 C-271.14782036 7.85914771 -270.01849534 7.85632643 -268.85494834 7.85341966 C-265.04481226 7.84504107 -261.23470511 7.84373263 -257.42456055 7.84228516 C-254.70334657 7.83818728 -251.98213643 7.83254305 -249.26092529 7.82688904 C-243.38798368 7.81535231 -237.51504494 7.80711379 -231.64209557 7.80076981 C-222.36137874 7.79045477 -213.08069786 7.76989407 -203.80000305 7.74765015 C-200.62642586 7.74017006 -197.45284852 7.73275638 -194.27927113 7.72536278 C-193.08952892 7.72258693 -193.08952892 7.72258693 -191.87575152 7.719755 C-182.84270829 7.69881889 -173.80966108 7.67999497 -164.77661133 7.66210938 C-163.95065359 7.66047119 -163.12469585 7.65883301 -162.2737091 7.65714519 C-148.88827693 7.63085927 -135.502842 7.61221689 -122.11739495 7.59551747 C-108.38197424 7.57810436 -94.64660777 7.54926708 -80.91123039 7.5106281 C-72.43528106 7.4872121 -63.95942016 7.4732321 -55.48343823 7.47130047 C-49.67539911 7.46919307 -43.86744796 7.45628053 -38.05944832 7.43482114 C-34.7069052 7.42277844 -31.354685 7.41727703 -28.00209999 7.42153358 C-24.36914241 7.42541015 -20.73670462 7.41103172 -17.10380554 7.39199829 C-15.5110092 7.40029283 -15.5110092 7.40029283 -13.88603514 7.40875494 C-6.88466769 7.45695205 -6.88466769 7.45695205 -1 4 C-0.67 2.68 -0.34 1.36 0 0 Z " fill="#2ED8E5" transform="translate(396,87)"/>
<path d="M0 0 C0.9121902 -0.00367669 1.8243804 -0.00735338 2.76421273 -0.01114148 C5.83395385 -0.02219198 8.90366114 -0.02602455 11.97341919 -0.02983093 C14.16949064 -0.03609477 16.36556103 -0.0427415 18.56163025 -0.04974365 C25.78759012 -0.0708036 33.01355025 -0.08115084 40.23953247 -0.09111023 C42.72776424 -0.09515768 45.2159959 -0.09927459 47.70422745 -0.10346031 C58.05839903 -0.12033479 68.41256903 -0.13496717 78.76675224 -0.14220905 C81.45364254 -0.14411883 84.14053283 -0.14603917 86.8274231 -0.147995 C87.49520488 -0.14847874 88.16298666 -0.14896248 88.85100426 -0.14946087 C99.6508834 -0.15774807 110.4506513 -0.18306098 121.25048195 -0.21557567 C132.35074997 -0.2487208 143.45097183 -0.26633254 154.55129063 -0.26985329 C160.77859041 -0.27220036 167.00571458 -0.28111577 173.23296738 -0.30631447 C179.09839702 -0.32966414 184.96353633 -0.33380057 190.82900047 -0.32355309 C192.97470378 -0.32305922 195.1204217 -0.32933526 197.26608086 -0.34310913 C223.57118524 -0.50243679 223.57118524 -0.50243679 234.12234497 7.64717102 C241.87167054 15.466406 244.69019058 23.28955334 244.77078247 34.06904602 C244.75297598 37.68059286 244.66158042 41.28716224 244.55984497 44.89717102 C244.52968758 46.76952365 244.50232203 48.64192343 244.47781372 50.51435852 C244.41232096 55.05981276 244.30912564 59.60295976 244.18484497 64.14717102 C240.88484497 64.14717102 237.58484497 64.14717102 234.18484497 64.14717102 C234.17549927 63.13404846 234.16615356 62.1209259 234.15652466 61.07710266 C234.11633375 57.2802859 234.05049828 53.48425491 233.97732544 49.6879425 C233.9492831 48.0519783 233.92798616 46.41588283 233.91384888 44.77973938 C234.10406755 30.47241153 234.10406755 30.47241153 227.43582153 18.28999329 C222.92323662 14.06645914 218.46543971 11.91329014 212.21438599 11.85664368 C211.25311295 11.84388397 210.2918399 11.83112427 209.30143738 11.81797791 C208.27425095 11.81575226 207.24706451 11.81352661 206.18875122 11.81123352 C204.58929909 11.80124832 204.58929909 11.80124832 202.95753479 11.7910614 C200.70576703 11.78095072 198.45396939 11.77624389 196.20217896 11.77656555 C192.76295532 11.77219088 189.32501372 11.73584891 185.88601685 11.69795227 C183.69526601 11.69208407 181.5045091 11.6881147 179.31375122 11.68623352 C178.28858902 11.67186249 177.26342682 11.65749146 176.2071991 11.64268494 C175.2427739 11.6488382 174.27834869 11.65499146 173.28469849 11.66133118 C172.44262344 11.65848114 171.6005484 11.6556311 170.73295593 11.6526947 C167.36495561 12.1361587 167.36495561 12.1361587 162.18484497 16.14717102 C158.71984497 25.05717102 158.71984497 25.05717102 155.18484497 34.14717102 C122.18484497 34.14717102 89.18484497 34.14717102 55.18484497 34.14717102 C52.87484497 28.20717102 50.56484497 22.26717102 48.18484497 16.14717102 C42.72279778 12.1900615 42.72279778 12.1900615 37.040802 11.61372375 C35.57865768 11.58996925 35.57865768 11.58996925 34.0869751 11.56573486 C33.04935028 11.57069473 32.01172546 11.5756546 30.94265747 11.58076477 C29.8603183 11.57456619 28.77797913 11.56836761 27.6628418 11.5619812 C25.37835589 11.55489253 23.09381821 11.5580403 20.80935669 11.570755 C17.32807458 11.58459853 13.84949317 11.55055866 10.36843872 11.5124054 C8.14317765 11.51145391 5.91791324 11.51331461 3.69265747 11.51826477 C2.65908112 11.50500656 1.62550476 11.49174835 0.56060791 11.47808838 C-6.98440865 11.5744758 -11.84667839 13.38313395 -17.33612061 18.58978271 C-22.22167638 23.98356005 -23.0644436 29.40897482 -23.07521725 36.47929001 C-23.07902292 37.19908755 -23.08282859 37.9188851 -23.08674958 38.66049469 C-23.09705823 41.07309854 -23.09316057 43.4854668 -23.08930969 45.89808655 C-23.09376249 47.64505564 -23.09907667 49.39202271 -23.10517842 51.13898683 C-23.11936378 55.94040745 -23.12102161 60.74176335 -23.12058151 65.54320192 C-23.12222923 70.72126385 -23.13529486 75.89929907 -23.14677429 81.0773468 C-23.1696263 92.39961553 -23.17754502 103.72186551 -23.18260074 115.04415417 C-23.1858573 122.11351234 -23.19237951 129.18286506 -23.19960213 136.25222015 C-23.21916776 155.82482605 -23.23557237 175.39742688 -23.23847866 194.97004318 C-23.23866623 196.22258401 -23.2388538 197.47512483 -23.23904705 198.76562144 C-23.2394133 201.30482753 -23.239777 203.84403362 -23.24013817 206.38323972 C-23.24032098 207.64370619 -23.24050379 208.90417266 -23.24069214 210.20283508 C-23.24087269 211.46483963 -23.24105324 212.72684418 -23.24123926 214.02709129 C-23.24478157 234.48009115 -23.2718077 254.93298576 -23.30919003 275.38594911 C-23.34726173 296.38408342 -23.36663605 317.38216549 -23.36693817 338.38033509 C-23.36752297 350.1703396 -23.37602969 361.96021853 -23.40493584 373.75019073 C-23.42943438 383.78858631 -23.43674281 393.82681052 -23.42168831 403.86522791 C-23.41451342 408.98650775 -23.4154021 414.10744909 -23.43809891 419.2286911 C-23.45868834 423.919382 -23.45608876 428.60947412 -23.43522406 433.30015853 C-23.43172914 434.99463221 -23.43663932 436.68914908 -23.4509285 438.38356611 C-23.52851312 448.21958735 -23.31360617 457.07682556 -16.33708757 464.77897239 C-10.56010566 469.97240806 -5.150075 470.44146138 2.2361908 470.41459656 C3.14953412 470.41912767 4.06287745 470.42365878 5.00389785 470.4283272 C8.06532288 470.44099059 11.12657046 470.43934957 14.1880188 470.43769836 C16.38264698 470.44368241 18.57727306 470.45048767 20.77189636 470.45805359 C26.73476842 470.47573364 32.69758309 470.48040983 38.66047883 470.48168516 C43.6380943 470.4835839 48.6156964 470.49094117 53.59330672 470.49802935 C64.66658009 470.51338812 75.73983082 470.51936659 86.81311349 470.51801865 C87.47727169 470.51793874 88.1414299 470.51785882 88.82571411 470.51777649 C89.82317169 470.51765385 89.82317169 470.51765385 90.84077992 470.51752873 C101.61481723 470.51671602 112.38871468 470.53585052 123.16271154 470.56405322 C134.2325212 470.59280096 145.30225931 470.60622643 156.37210673 470.60486567 C162.5841162 470.60435572 168.79596739 470.61005733 175.00794411 470.63122177 C180.85123797 470.65058626 186.6942223 470.65074062 192.53752708 470.63618851 C194.68048937 470.63409709 196.82347094 470.63882105 198.96640015 470.65090942 C201.89547959 470.66636049 204.82349153 470.65705427 207.75254822 470.64164734 C209.01983685 470.65707803 209.01983685 470.65707803 210.31272727 470.67282045 C216.61872311 470.59969208 221.98765859 469.09932903 226.71391803 464.73528421 C231.46367763 459.35141405 232.49152955 454.50595316 232.45046997 447.51045227 C232.45238342 446.78980087 232.45429688 446.06914948 232.45626831 445.32666016 C232.45762374 443.81134184 232.45397232 442.29601166 232.44558716 440.78071594 C232.43483095 438.45664149 232.44552778 436.13333172 232.45828247 433.8092804 C232.45696168 432.33466931 232.45440096 430.86005871 232.45046997 429.38545227 C232.45654266 428.34171196 232.45654266 428.34171196 232.46273804 427.27688599 C232.53033972 423.26527391 232.53033972 423.26527391 230.18484497 420.14717102 C226.12388539 419.67503429 226.12388539 419.67503429 222.18484497 420.14717102 C218.87655196 423.48524573 218.8165803 426.19202485 218.81375122 430.77607727 C218.78764771 432.69903625 218.78764771 432.69903625 218.76101685 434.6608429 C218.7509251 436.69076061 218.74735404 438.72050067 218.74905396 440.7504425 C218.74548757 442.71742024 218.71745599 444.68430577 218.68875122 446.65107727 C218.68689819 447.82484924 218.68504517 448.99862122 218.68313599 450.20796204 C218.18484497 453.14717102 218.18484497 453.14717102 216.70213413 454.80706215 C213.02873003 456.76264258 209.47081232 456.56053543 205.40992737 456.52812195 C204.5143284 456.53280192 203.61872943 456.53748189 202.6959911 456.54230368 C199.68878942 456.5542895 196.68204043 456.54478241 193.67483521 456.53535461 C191.52150201 456.53941869 189.3681709 456.54475964 187.21484375 456.55128479 C181.36170824 456.56498285 175.50873103 456.55964963 169.65559268 456.55014753 C163.53773995 456.54256483 157.41990098 456.54959258 151.30204773 456.55430603 C141.02833618 456.55976722 130.75468929 456.55256198 120.48098755 456.5382843 C108.59189184 456.5219528 96.70295043 456.52724853 84.81385845 456.54376352 C74.61677427 456.55736284 64.41973662 456.55930579 54.2226463 456.55144751 C48.12763219 456.546763 42.03269068 456.54616757 35.9376812 456.55605698 C30.20935059 456.5647019 24.48121959 456.55875005 18.75291061 456.54137421 C16.64655832 456.5373963 14.54018933 456.53856555 12.43384361 456.5451622 C9.5665927 456.55331622 6.69998825 456.54313076 3.83277893 456.52812195 C2.99212826 456.53481411 2.15147758 456.54150628 1.28535265 456.54840124 C-4.27250604 456.49166562 -4.27250604 456.49166562 -6.52769572 455.05998385 C-8.49507393 452.13699728 -8.19135332 449.66139911 -8.19267845 446.16464233 C-8.19703877 445.44620915 -8.2013991 444.72777596 -8.20589155 443.98757207 C-8.21690749 441.56149821 -8.2063967 439.13598561 -8.19610596 436.70991516 C-8.19956002 434.96054574 -8.20432289 433.21117849 -8.21028769 431.46181583 C-8.22286186 426.64005967 -8.21659827 421.81848063 -8.20732903 416.99672365 C-8.20056504 411.80238397 -8.21100656 406.6080756 -8.2192688 401.41374207 C-8.23263674 391.23227314 -8.22971479 381.0508704 -8.22103088 370.86939883 C-8.21426675 362.597655 -8.21333209 354.32592977 -8.21660233 346.05418396 C-8.21706202 344.87870343 -8.21752172 343.70322291 -8.21799535 342.49212176 C-8.21895449 340.10445555 -8.21992713 337.71678934 -8.22091313 335.32912314 C-8.22947599 312.91884868 -8.21961885 290.50861097 -8.20351203 268.09834254 C-8.19010804 248.85255601 -8.19243588 229.60682376 -8.20626831 210.36103821 C-8.22230832 188.0331492 -8.22865193 165.70529245 -8.21943152 143.37739849 C-8.21847583 140.99831836 -8.21753272 138.61923822 -8.21660233 136.24015808 C-8.2161395 135.06948243 -8.21567667 133.89880677 -8.21519982 132.6926561 C-8.21260519 124.42700845 -8.2169911 116.16138119 -8.22404099 107.89573669 C-8.23243866 97.82817973 -8.23021244 87.76069297 -8.21419875 77.69314408 C-8.20629264 72.55258585 -8.20326412 67.41214484 -8.21314621 62.27158737 C-8.22204537 57.57139351 -8.21723972 52.87142621 -8.20121355 48.17125309 C-8.19784537 46.46538102 -8.19960512 44.75949004 -8.20684092 43.05362999 C-8.21588547 40.74537614 -8.20668747 38.43791143 -8.19267845 36.12969971 C-8.19219139 34.84445373 -8.19170434 33.55920774 -8.19120252 32.23501492 C-7.81515503 29.14717102 -7.81515503 29.14717102 -6.41376269 27.2333107 C-4.35495403 25.83449732 -3.09889825 25.78425441 -0.61911011 25.80659485 C0.64185738 25.80693474 0.64185738 25.80693474 1.92829895 25.80728149 C2.83151382 25.82276535 3.7347287 25.83824921 4.66531372 25.85420227 C5.59330276 25.85844711 6.52129181 25.86269196 7.47740173 25.86706543 C10.4426774 25.8838644 13.40727457 25.92151886 16.37234497 25.95967102 C18.38210078 25.97471628 20.39186724 25.98840496 22.40164185 26.00068665 C27.32963783 26.03377194 32.25712635 26.08556269 37.18484497 26.14717102 C37.45578979 26.93366028 37.45578979 26.93366028 37.73220825 27.73603821 C38.57059187 30.13096602 39.43976324 32.51358577 40.30984497 34.89717102 C40.59343872 35.72217102 40.87703247 36.54717102 41.16921997 37.39717102 C41.46570435 38.19638977 41.76218872 38.99560852 42.06765747 39.81904602 C42.32949829 40.55220032 42.59133911 41.28535461 42.8611145 42.04072571 C44.87768304 45.24968059 46.78065054 46.45071573 50.18484497 48.14717102 C53.75049115 48.71426627 57.26387084 48.69400576 60.86843872 48.66474915 C61.93256989 48.67175842 62.99670105 48.6787677 64.09307861 48.68598938 C67.60310118 48.70356367 71.1123145 48.69194792 74.62234497 48.67842102 C77.06562454 48.68111608 79.50890306 48.68499861 81.95217896 48.6900177 C87.06987735 48.69591201 92.18729627 48.68735151 97.30496216 48.6686554 C103.86229194 48.6458664 110.41896682 48.65898977 116.97627258 48.68294525 C122.02062914 48.69740472 127.06483064 48.69279644 132.10919189 48.68243408 C134.52689695 48.67976723 136.94461612 48.68303505 139.36230469 48.69235229 C142.74233247 48.70251979 146.12130217 48.68701238 149.50125122 48.66474915 C150.99762619 48.67689453 150.99762619 48.67689453 152.52423096 48.68928528 C158.20767243 48.61999237 161.79233603 48.13610868 166.18484497 44.14717102 C167.57832279 42.09830173 167.57832279 42.09830173 168.30203247 39.81904602 C168.74675903 38.6202179 168.74675903 38.6202179 169.20046997 37.39717102 C169.48406372 36.57217102 169.76765747 35.74717102 170.05984497 34.89717102 C170.52004028 33.6364679 170.52004028 33.6364679 170.98953247 32.35029602 C171.73934601 30.28830878 172.47021986 28.22156004 173.18484497 26.14717102 C178.93224255 26.02339498 184.67886124 25.93274854 190.42727661 25.87251282 C192.3818412 25.84739821 194.33631214 25.81329971 196.29055786 25.76997375 C199.10321165 25.70918668 201.91462199 25.6809312 204.72781372 25.65888977 C205.59883224 25.63308334 206.46985077 25.60727692 207.36726379 25.58068848 C208.18773697 25.58031082 209.00821014 25.57993317 209.85354614 25.57954407 C210.57080368 25.56844101 211.28806122 25.55733795 212.02705383 25.54589844 C215.48622855 26.50980402 216.9489196 28.38659923 219.18484497 31.14717102 C219.62433364 34.00318578 219.77504484 36.23770559 219.67312622 39.07295227 C219.66605148 39.82054306 219.65897675 40.56813385 219.65168762 41.33837891 C219.62382142 43.71318504 219.56110629 46.08558453 219.49734497 48.45967102 C219.47225165 50.0748712 219.44944028 51.69010856 219.4289856 53.30537415 C219.37402144 57.25355922 219.28781024 61.19995791 219.18484497 65.14717102 C218.25939377 65.14863758 217.33394257 65.15010414 216.38044739 65.15161514 C193.85385227 65.18822315 171.32740569 65.24768986 148.80093384 65.33107376 C137.90725459 65.37086951 127.01364764 65.40325931 116.11990356 65.41816711 C106.62402545 65.43118081 97.12830637 65.45813839 87.63251781 65.50178409 C82.60534743 65.52440512 77.57837325 65.54008131 72.55114746 65.53905487 C67.81670551 65.53830865 63.08269739 65.55624451 58.34836769 65.58833885 C56.61341137 65.59683837 54.8784064 65.59858742 53.14343834 65.59297371 C43.03012079 65.56461642 35.46905644 65.58353384 27.43484497 72.52217102 C21.69150876 79.22272993 20.03572637 83.92954551 20.03767395 92.60960388 C20.03399726 93.48378082 20.03032057 94.35795776 20.02653247 95.25862491 C20.01548455 98.19950684 20.01164989 101.14035346 20.00784302 104.08125305 C20.00157915 106.18529371 19.99493242 108.28933325 19.9879303 110.39337158 C19.97051226 116.1188184 19.95996608 121.84425686 19.95172477 127.56972361 C19.94657572 131.14664639 19.94049991 134.72356657 19.93421364 138.30048752 C19.91515828 149.49125777 19.90092855 160.6820214 19.89260167 171.87280476 C19.88283063 184.79139787 19.85651588 197.70981957 19.81610078 210.62835228 C19.78593816 220.61233641 19.7711326 230.59627141 19.76782066 240.58030021 C19.76547013 246.54366841 19.75650926 252.50685356 19.73135948 258.47017288 C19.70807174 264.08279504 19.70384853 269.69511373 19.71412086 275.30777168 C19.71461618 277.36485237 19.70829712 279.42194802 19.69456482 281.47898293 C19.67682821 284.29396251 19.6839609 287.10785513 19.69709778 289.9228363 C19.68612853 290.73112826 19.67515929 291.53942021 19.66385764 292.37220585 C19.73131714 298.3863212 21.43915735 302.84154591 24.18484497 308.14717102 C24.51937248 308.87012647 24.8539 309.59308192 25.19856471 310.3379451 C26.48647531 312.7004797 27.72925822 313.13153312 30.18484497 314.14717102 C30.84484497 314.48877258 31.50484497 314.83037415 32.18484497 315.18232727 C32.84484497 315.52135071 33.50484497 315.86037415 34.18484497 316.20967102 C34.84484497 316.55127258 35.50484497 316.89287415 36.18484497 317.24482727 C40.56816954 319.22246004 44.55530173 319.28149666 49.34750366 319.3053894 C50.06962658 319.31032738 50.79174949 319.31526536 51.53575492 319.32035297 C53.95556649 319.33571164 56.37535157 319.34408417 58.79519653 319.35249329 C60.52975701 319.36207309 62.26431515 319.37208323 63.99887085 319.38249207 C68.70921266 319.40953607 73.41956449 319.43054839 78.12994099 319.45049405 C83.05204914 319.47235668 87.97412645 319.49974403 92.89620972 319.52655029 C102.21754222 319.57647341 111.53889185 319.62141367 120.86025786 319.66457266 C131.47201915 319.71394827 142.08374948 319.76886521 152.69548082 319.82425225 C174.52524003 319.93806645 196.3550288 320.04490674 218.18484497 320.14717102 C218.19364433 321.50567169 218.19364433 321.50567169 218.20262146 322.89161682 C218.26052064 331.42590923 218.33258138 339.95993915 218.42055988 348.49397659 C218.46529109 352.88144851 218.50454104 357.26882698 218.53128052 361.65644836 C218.55728622 365.89061781 218.59766894 370.12442819 218.64803123 374.35837555 C218.66471851 375.97385442 218.67622121 377.58939542 218.68245888 379.20494843 C218.69208001 381.46764789 218.72011366 383.7294249 218.75247192 385.99189758 C218.76357498 387.27985229 218.77467804 388.56780701 218.78611755 389.89479065 C219.2058664 393.31864076 219.75881573 394.74342787 222.18484497 397.14717102 C225.02053355 397.80976756 227.22723724 397.42884795 230.18484497 397.14717102 C232.97301205 394.35900395 232.49207584 391.76807975 232.50369263 388.03535461 C232.51373825 387.30354477 232.52378387 386.57173492 232.53413391 385.81774902 C232.56507733 383.39371034 232.58203171 380.96978264 232.59890747 378.54560852 C232.61761018 376.86693865 232.63718291 375.18827827 232.65759277 373.5096283 C232.70901492 369.08737267 232.74858649 364.66508653 232.78573608 360.24269104 C232.82571271 355.73160695 232.87683389 351.22065089 232.92703247 346.70967102 C233.02391104 337.85559416 233.10827746 329.00144518 233.18484497 320.14717102 C237.14484497 320.14717102 241.10484497 320.14717102 245.18484497 320.14717102 C245.30090872 337.39403402 245.38998025 354.64073949 245.44390583 371.88790417 C245.46961713 379.89723243 245.50463096 387.90631261 245.56204224 395.91548157 C245.6120954 402.90152439 245.64418732 409.88738742 245.65528744 416.8736046 C245.66176948 420.56810523 245.67685301 424.26209181 245.71349525 427.95642662 C245.75420245 432.09469655 245.75478049 436.23208984 245.75247192 440.37055969 C245.7704483 441.57682007 245.78842468 442.78308044 245.8069458 444.02589417 C245.74055392 455.08940825 242.88603319 465.48974502 234.99343872 473.56904602 C226.99334396 480.54969026 216.88231765 482.60911023 206.50099182 482.53485107 C205.11950167 482.54292938 205.11950167 482.54292938 203.71010262 482.55117089 C200.65263426 482.56537229 197.59560365 482.55836619 194.53811646 482.55122375 C192.33452001 482.5569313 190.13092651 482.56389705 187.92733765 482.57202148 C181.96259687 482.58992267 175.99800344 482.58879051 170.03324389 482.5830791 C165.04801125 482.57998371 160.06280676 482.58608342 155.07757813 482.59211785 C142.64492887 482.606952 130.21234499 482.6033579 117.77969892 482.59125454 C106.99694938 482.58131792 96.21437134 482.59427434 85.43164825 482.61818873 C74.34020274 482.64260124 63.24882629 482.65178331 52.15735298 482.64553601 C45.93812994 482.64216732 39.71904868 482.6445762 33.4998455 482.66178703 C27.6531852 482.67726197 21.80685247 482.67329418 15.96020508 482.65448189 C13.81766383 482.65079798 11.67509826 482.65389865 9.53257942 482.66436768 C6.60191504 482.67759216 3.67233289 482.6660169 0.74171448 482.64837646 C-0.10071212 482.65798147 -0.94313872 482.66758648 -1.81109339 482.67748255 C-11.02772884 482.56377687 -19.18597599 478.48327057 -25.81515503 472.14717102 C-30.76900861 465.9301397 -34.0635005 460.17031843 -34.06848812 452.09264278 C-34.07410352 450.86944928 -34.07971891 449.64625578 -34.08550447 448.38599581 C-34.08165507 447.03180513 -34.07762736 445.67761496 -34.07344055 444.32342529 C-34.07629532 442.8824035 -34.0800334 441.44138324 -34.08457905 440.00036579 C-34.09456595 436.04020847 -34.09218505 432.08013967 -34.08785212 428.11997569 C-34.08537735 423.8493162 -34.09444221 419.57868007 -34.10223389 415.30802917 C-34.11428209 407.90781696 -34.11938698 400.50762628 -34.12011528 393.10740471 C-34.12144012 382.40354255 -34.13654431 371.69973276 -34.15561045 360.99588908 C-34.18645677 343.62420372 -34.21062106 326.25251704 -34.22848511 308.8808136 C-34.22955779 307.84096579 -34.23063047 306.80111799 -34.23173565 305.72975964 C-34.24355967 294.12435041 -34.2537647 282.51894065 -34.26217651 270.91352844 C-34.2652505 266.70340473 -34.26833927 262.49328103 -34.27145386 258.28315735 C-34.2722192 257.24427112 -34.27298454 256.2053849 -34.27377307 255.13501727 C-34.28684347 237.82754773 -34.31146637 220.52011613 -34.34519726 203.21267468 C-34.36551312 192.53234944 -34.3757731 181.85210527 -34.37320805 171.17176057 C-34.37217488 163.85792932 -34.38177918 156.54416226 -34.39984708 149.23035341 C-34.40991558 145.00709769 -34.41499508 140.78398396 -34.4070797 136.56072044 C-34.39992505 132.69754025 -34.40642841 128.8346372 -34.4239651 124.97149242 C-34.42786201 123.57118096 -34.4266468 122.17084441 -34.41990822 120.77054375 C-34.41149529 118.87232629 -34.42319258 116.97405114 -34.4359808 115.07585812 C-34.43679525 114.0199082 -34.43760971 112.96395828 -34.43844885 111.87600988 C-34.87399304 108.72095172 -35.54975077 107.36750535 -37.81515503 105.14717102 C-39.13515503 104.81717102 -40.45515503 104.48717102 -41.81515503 104.14717102 C-41.81515503 97.21717102 -41.81515503 90.28717102 -41.81515503 83.14717102 C-39.34015503 82.15717102 -39.34015503 82.15717102 -36.81515503 81.14717102 C-34.67994849 78.18006192 -34.57240786 75.60789281 -34.59152222 72.01826477 C-34.59101868 70.99619934 -34.59051514 69.97413391 -34.58999634 68.9210968 C-34.59726746 67.82007629 -34.60453857 66.71905579 -34.61203003 65.58467102 C-34.601474 63.23700925 -34.58971624 60.88935264 -34.57687378 58.54170227 C-34.56659922 54.85313688 -34.56505619 51.16529243 -34.58517456 47.47676086 C-34.60005459 43.90795271 -34.57734602 40.34086949 -34.54953003 36.77217102 C-34.56489807 35.68734436 -34.58026611 34.6025177 -34.59609985 33.4848175 C-34.48371804 24.50877347 -31.8823885 16.6820999 -25.80508423 9.90596008 C-18.21596396 2.7487652 -10.28156803 -0.00220962 0 0 Z " fill="#D3F8E9" transform="translate(71.81515502929688,14.852828979492188)"/>
<path d="M0 0 C0.9121902 -0.00367669 1.8243804 -0.00735338 2.76421273 -0.01114148 C5.83395385 -0.02219198 8.90366114 -0.02602455 11.97341919 -0.02983093 C14.16949064 -0.03609477 16.36556103 -0.0427415 18.56163025 -0.04974365 C25.78759012 -0.0708036 33.01355025 -0.08115084 40.23953247 -0.09111023 C42.72776424 -0.09515768 45.2159959 -0.09927459 47.70422745 -0.10346031 C58.05839903 -0.12033479 68.41256903 -0.13496717 78.76675224 -0.14220905 C81.45364254 -0.14411883 84.14053283 -0.14603917 86.8274231 -0.147995 C87.49520488 -0.14847874 88.16298666 -0.14896248 88.85100426 -0.14946087 C99.6508834 -0.15774807 110.4506513 -0.18306098 121.25048195 -0.21557567 C132.35074997 -0.2487208 143.45097183 -0.26633254 154.55129063 -0.26985329 C160.77859041 -0.27220036 167.00571458 -0.28111577 173.23296738 -0.30631447 C179.09839702 -0.32966414 184.96353633 -0.33380057 190.82900047 -0.32355309 C192.97470378 -0.32305922 195.1204217 -0.32933526 197.26608086 -0.34310913 C223.57118524 -0.50243679 223.57118524 -0.50243679 234.12234497 7.64717102 C241.87167054 15.466406 244.69019058 23.28955334 244.77078247 34.06904602 C244.75297598 37.68059286 244.66158042 41.28716224 244.55984497 44.89717102 C244.52968758 46.76952365 244.50232203 48.64192343 244.47781372 50.51435852 C244.41232096 55.05981276 244.30912564 59.60295976 244.18484497 64.14717102 C240.88484497 64.14717102 237.58484497 64.14717102 234.18484497 64.14717102 C234.17549927 63.13404846 234.16615356 62.1209259 234.15652466 61.07710266 C234.11633375 57.2802859 234.05049828 53.48425491 233.97732544 49.6879425 C233.9492831 48.0519783 233.92798616 46.41588283 233.91384888 44.77973938 C234.10406755 30.47241153 234.10406755 30.47241153 227.43582153 18.28999329 C222.92323662 14.06645914 218.46543971 11.91329014 212.21438599 11.85664368 C211.25311295 11.84388397 210.2918399 11.83112427 209.30143738 11.81797791 C208.27425095 11.81575226 207.24706451 11.81352661 206.18875122 11.81123352 C204.58929909 11.80124832 204.58929909 11.80124832 202.95753479 11.7910614 C200.70576703 11.78095072 198.45396939 11.77624389 196.20217896 11.77656555 C192.76295532 11.77219088 189.32501372 11.73584891 185.88601685 11.69795227 C183.69526601 11.69208407 181.5045091 11.6881147 179.31375122 11.68623352 C178.28858902 11.67186249 177.26342682 11.65749146 176.2071991 11.64268494 C175.2427739 11.6488382 174.27834869 11.65499146 173.28469849 11.66133118 C172.44262344 11.65848114 171.6005484 11.6556311 170.73295593 11.6526947 C167.36495561 12.1361587 167.36495561 12.1361587 162.18484497 16.14717102 C158.71984497 25.05717102 158.71984497 25.05717102 155.18484497 34.14717102 C122.18484497 34.14717102 89.18484497 34.14717102 55.18484497 34.14717102 C52.87484497 28.20717102 50.56484497 22.26717102 48.18484497 16.14717102 C42.72279778 12.1900615 42.72279778 12.1900615 37.040802 11.61372375 C35.57865768 11.58996925 35.57865768 11.58996925 34.0869751 11.56573486 C33.04935028 11.57069473 32.01172546 11.5756546 30.94265747 11.58076477 C29.8603183 11.57456619 28.77797913 11.56836761 27.6628418 11.5619812 C25.37835589 11.55489253 23.09381821 11.5580403 20.80935669 11.570755 C17.32807458 11.58459853 13.84949317 11.55055866 10.36843872 11.5124054 C8.14317765 11.51145391 5.91791324 11.51331461 3.69265747 11.51826477 C2.65908112 11.50500656 1.62550476 11.49174835 0.56060791 11.47808838 C-6.98440865 11.5744758 -11.84667839 13.38313395 -17.33612061 18.58978271 C-22.22167638 23.98356005 -23.0644436 29.40897482 -23.07521725 36.47929001 C-23.07902292 37.19908755 -23.08282859 37.9188851 -23.08674958 38.66049469 C-23.09705823 41.07309854 -23.09316057 43.4854668 -23.08930969 45.89808655 C-23.09376249 47.64505564 -23.09907667 49.39202271 -23.10517842 51.13898683 C-23.11936378 55.94040745 -23.12102161 60.74176335 -23.12058151 65.54320192 C-23.12222923 70.72126385 -23.13529486 75.89929907 -23.14677429 81.0773468 C-23.1696263 92.39961553 -23.17754502 103.72186551 -23.18260074 115.04415417 C-23.1858573 122.11351234 -23.19237951 129.18286506 -23.19960213 136.25222015 C-23.21916776 155.82482605 -23.23557237 175.39742688 -23.23847866 194.97004318 C-23.23866623 196.22258401 -23.2388538 197.47512483 -23.23904705 198.76562144 C-23.2394133 201.30482753 -23.239777 203.84403362 -23.24013817 206.38323972 C-23.24032098 207.64370619 -23.24050379 208.90417266 -23.24069214 210.20283508 C-23.24087269 211.46483963 -23.24105324 212.72684418 -23.24123926 214.02709129 C-23.24478157 234.48009115 -23.2718077 254.93298576 -23.30919003 275.38594911 C-23.34726173 296.38408342 -23.36663605 317.38216549 -23.36693817 338.38033509 C-23.36752297 350.1703396 -23.37602969 361.96021853 -23.40493584 373.75019073 C-23.42943438 383.78858631 -23.43674281 393.82681052 -23.42168831 403.86522791 C-23.41451342 408.98650775 -23.4154021 414.10744909 -23.43809891 419.2286911 C-23.45868834 423.919382 -23.45608876 428.60947412 -23.43522406 433.30015853 C-23.43172914 434.99463221 -23.43663932 436.68914908 -23.4509285 438.38356611 C-23.52851312 448.21958735 -23.31360617 457.07682556 -16.33708757 464.77897239 C-10.56010566 469.97240806 -5.150075 470.44146138 2.2361908 470.41459656 C3.14953412 470.41912767 4.06287745 470.42365878 5.00389785 470.4283272 C8.06532288 470.44099059 11.12657046 470.43934957 14.1880188 470.43769836 C16.38264698 470.44368241 18.57727306 470.45048767 20.77189636 470.45805359 C26.73476842 470.47573364 32.69758309 470.48040983 38.66047883 470.48168516 C43.6380943 470.4835839 48.6156964 470.49094117 53.59330672 470.49802935 C64.66658009 470.51338812 75.73983082 470.51936659 86.81311349 470.51801865 C87.47727169 470.51793874 88.1414299 470.51785882 88.82571411 470.51777649 C89.82317169 470.51765385 89.82317169 470.51765385 90.84077992 470.51752873 C101.61481723 470.51671602 112.38871468 470.53585052 123.16271154 470.56405322 C134.2325212 470.59280096 145.30225931 470.60622643 156.37210673 470.60486567 C162.5841162 470.60435572 168.79596739 470.61005733 175.00794411 470.63122177 C180.85123797 470.65058626 186.6942223 470.65074062 192.53752708 470.63618851 C194.68048937 470.63409709 196.82347094 470.63882105 198.96640015 470.65090942 C201.89547959 470.66636049 204.82349153 470.65705427 207.75254822 470.64164734 C209.01983685 470.65707803 209.01983685 470.65707803 210.31272727 470.67282045 C216.61872311 470.59969208 221.98765859 469.09932903 226.71391803 464.73528421 C231.46367763 459.35141405 232.49152955 454.50595316 232.45046997 447.51045227 C232.45238342 446.78980087 232.45429688 446.06914948 232.45626831 445.32666016 C232.45762374 443.81134184 232.45397232 442.29601166 232.44558716 440.78071594 C232.43483095 438.45664149 232.44552778 436.13333172 232.45828247 433.8092804 C232.45696168 432.33466931 232.45440096 430.86005871 232.45046997 429.38545227 C232.45654266 428.34171196 232.45654266 428.34171196 232.46273804 427.27688599 C232.53033972 423.26527391 232.53033972 423.26527391 230.18484497 420.14717102 C228.86484497 419.81717102 227.54484497 419.48717102 226.18484497 419.14717102 C226.18484497 412.54717102 226.18484497 405.94717102 226.18484497 399.14717102 C225.52484497 398.81717102 224.86484497 398.48717102 224.18484497 398.14717102 C225.88640747 397.68310852 225.88640747 397.68310852 227.62234497 397.20967102 C230.97259596 396.51792571 230.97259596 396.51792571 232.18484497 395.14717102 C232.30968651 392.80564261 232.37083788 390.49209517 232.39016724 388.14888 C232.40006683 387.41721619 232.40996643 386.68555237 232.42016602 385.93171692 C232.4518688 383.5022663 232.4765729 381.07279609 232.50125122 378.64326477 C232.52181319 376.96317015 232.54280945 375.28308079 232.56422424 373.60299683 C232.61952323 369.17249299 232.66889784 364.74194187 232.71707153 360.31135559 C232.76722957 355.79369377 232.82294531 351.27610094 232.87820435 346.75849915 C232.98588157 337.88811532 233.08730515 329.0176717 233.18484497 320.14717102 C237.14484497 320.14717102 241.10484497 320.14717102 245.18484497 320.14717102 C245.30090872 337.39403402 245.38998025 354.64073949 245.44390583 371.88790417 C245.46961713 379.89723243 245.50463096 387.90631261 245.56204224 395.91548157 C245.6120954 402.90152439 245.64418732 409.88738742 245.65528744 416.8736046 C245.66176948 420.56810523 245.67685301 424.26209181 245.71349525 427.95642662 C245.75420245 432.09469655 245.75478049 436.23208984 245.75247192 440.37055969 C245.7704483 441.57682007 245.78842468 442.78308044 245.8069458 444.02589417 C245.74055392 455.08940825 242.88603319 465.48974502 234.99343872 473.56904602 C226.99334396 480.54969026 216.88231765 482.60911023 206.50099182 482.53485107 C205.11950167 482.54292938 205.11950167 482.54292938 203.71010262 482.55117089 C200.65263426 482.56537229 197.59560365 482.55836619 194.53811646 482.55122375 C192.33452001 482.5569313 190.13092651 482.56389705 187.92733765 482.57202148 C181.96259687 482.58992267 175.99800344 482.58879051 170.03324389 482.5830791 C165.04801125 482.57998371 160.06280676 482.58608342 155.07757813 482.59211785 C142.64492887 482.606952 130.21234499 482.6033579 117.77969892 482.59125454 C106.99694938 482.58131792 96.21437134 482.59427434 85.43164825 482.61818873 C74.34020274 482.64260124 63.24882629 482.65178331 52.15735298 482.64553601 C45.93812994 482.64216732 39.71904868 482.6445762 33.4998455 482.66178703 C27.6531852 482.67726197 21.80685247 482.67329418 15.96020508 482.65448189 C13.81766383 482.65079798 11.67509826 482.65389865 9.53257942 482.66436768 C6.60191504 482.67759216 3.67233289 482.6660169 0.74171448 482.64837646 C-0.10071212 482.65798147 -0.94313872 482.66758648 -1.81109339 482.67748255 C-11.02772884 482.56377687 -19.18597599 478.48327057 -25.81515503 472.14717102 C-30.76900861 465.9301397 -34.0635005 460.17031843 -34.06848812 452.09264278 C-34.07410352 450.86944928 -34.07971891 449.64625578 -34.08550447 448.38599581 C-34.08165507 447.03180513 -34.07762736 445.67761496 -34.07344055 444.32342529 C-34.07629532 442.8824035 -34.0800334 441.44138324 -34.08457905 440.00036579 C-34.09456595 436.04020847 -34.09218505 432.08013967 -34.08785212 428.11997569 C-34.08537735 423.8493162 -34.09444221 419.57868007 -34.10223389 415.30802917 C-34.11428209 407.90781696 -34.11938698 400.50762628 -34.12011528 393.10740471 C-34.12144012 382.40354255 -34.13654431 371.69973276 -34.15561045 360.99588908 C-34.18645677 343.62420372 -34.21062106 326.25251704 -34.22848511 308.8808136 C-34.22955779 307.84096579 -34.23063047 306.80111799 -34.23173565 305.72975964 C-34.24355967 294.12435041 -34.2537647 282.51894065 -34.26217651 270.91352844 C-34.2652505 266.70340473 -34.26833927 262.49328103 -34.27145386 258.28315735 C-34.2722192 257.24427112 -34.27298454 256.2053849 -34.27377307 255.13501727 C-34.28684347 237.82754773 -34.31146637 220.52011613 -34.34519726 203.21267468 C-34.36551312 192.53234944 -34.3757731 181.85210527 -34.37320805 171.17176057 C-34.37217488 163.85792932 -34.38177918 156.54416226 -34.39984708 149.23035341 C-34.40991558 145.00709769 -34.41499508 140.78398396 -34.4070797 136.56072044 C-34.39992505 132.69754025 -34.40642841 128.8346372 -34.4239651 124.97149242 C-34.42786201 123.57118096 -34.4266468 122.17084441 -34.41990822 120.77054375 C-34.41149529 118.87232629 -34.42319258 116.97405114 -34.4359808 115.07585812 C-34.43679525 114.0199082 -34.43760971 112.96395828 -34.43844885 111.87600988 C-34.87399304 108.72095172 -35.54975077 107.36750535 -37.81515503 105.14717102 C-39.13515503 104.81717102 -40.45515503 104.48717102 -41.81515503 104.14717102 C-41.81515503 97.21717102 -41.81515503 90.28717102 -41.81515503 83.14717102 C-39.34015503 82.15717102 -39.34015503 82.15717102 -36.81515503 81.14717102 C-34.67994849 78.18006192 -34.57240786 75.60789281 -34.59152222 72.01826477 C-34.59101868 70.99619934 -34.59051514 69.97413391 -34.58999634 68.9210968 C-34.59726746 67.82007629 -34.60453857 66.71905579 -34.61203003 65.58467102 C-34.601474 63.23700925 -34.58971624 60.88935264 -34.57687378 58.54170227 C-34.56659922 54.85313688 -34.56505619 51.16529243 -34.58517456 47.47676086 C-34.60005459 43.90795271 -34.57734602 40.34086949 -34.54953003 36.77217102 C-34.56489807 35.68734436 -34.58026611 34.6025177 -34.59609985 33.4848175 C-34.48371804 24.50877347 -31.8823885 16.6820999 -25.80508423 9.90596008 C-18.21596396 2.7487652 -10.28156803 -0.00220962 0 0 Z " fill="#7A717A" transform="translate(71.81515502929688,14.852828979492188)"/>
<path d="M0 0 C1.35269234 -0.01270432 1.35269234 -0.01270432 2.73271179 -0.02566528 C5.69849964 -0.04896432 8.66376641 -0.050059 11.62963867 -0.04882812 C13.70318303 -0.05593477 15.77672544 -0.0636345 17.8502655 -0.07189941 C22.19189929 -0.08532855 26.53335129 -0.08692036 30.875 -0.08105469 C36.41976386 -0.07516497 41.96365021 -0.10572789 47.50824451 -0.14617157 C51.79014224 -0.1721112 56.07183055 -0.1749202 60.35379601 -0.17127991 C62.39700205 -0.17296577 64.44021833 -0.18255656 66.48334694 -0.20042419 C88.34755199 -0.37057726 88.34755199 -0.37057726 96.845047 7.3326416 C102.91375424 13.43362515 104.84188311 19.9654915 105.11010742 28.41992188 C104.8336679 37.13329566 102.72608313 43.30763602 96.69213867 49.69726562 C89.54896147 55.98497251 80.54766621 57.7215751 71.31225586 57.71044922 C70.4998494 57.71716644 69.68744293 57.72388367 68.85041809 57.73080444 C66.18170952 57.74970186 63.51325362 57.75370465 60.84448242 57.75585938 C58.97511698 57.76229375 57.10575253 57.76902259 55.23638916 57.77603149 C51.32268949 57.78798416 47.40907795 57.79171446 43.49536133 57.79052734 C38.50458506 57.79032444 33.51438001 57.81760635 28.52373886 57.85207176 C24.66301937 57.87441928 20.80243555 57.87836246 16.94165802 57.87730789 C15.10303024 57.87965282 13.26439809 57.88841317 11.42583466 57.90397263 C-1.20946021 58.00088166 -12.92231904 57.83781782 -22.53833008 48.43945312 C-28.7878016 41.12955092 -30.2609266 33.70091227 -29.74145508 24.26757812 C-28.68870936 15.76795085 -24.94719008 10.36279861 -18.52270508 4.89257812 C-12.32096806 0.84750052 -7.25537656 -0.02537028 0 0 Z " fill="#030606" transform="translate(139.264892578125,364.580078125)"/>
<path d="M0 0 C0.69495575 -0.00525696 1.3899115 -0.01051392 2.10592651 -0.01593018 C4.39246405 -0.0290837 6.6782997 -0.02040912 8.96484375 -0.01025391 C10.55997857 -0.01227599 12.15511248 -0.01518855 13.75024414 -0.01895142 C17.08911971 -0.02336845 20.42775408 -0.01696385 23.76660156 -0.00292969 C28.04054464 0.01416202 32.3139225 0.00431748 36.58784485 -0.01364708 C39.88045489 -0.02450179 43.17293153 -0.02103087 46.46554565 -0.0132637 C48.0411689 -0.01126635 49.61680436 -0.01370462 51.19241333 -0.02070236 C53.3968298 -0.02834488 55.60033843 -0.01667469 57.8046875 0 C59.05757568 0.00238678 60.31046387 0.00477356 61.60131836 0.00723267 C66.08112413 0.52421935 68.69626054 2.0493357 71.68994141 5.37255859 C73.57525757 10.06193138 73.32968069 14.63086369 73.30078125 19.63818359 C73.30365143 20.72905273 73.30652161 21.81992188 73.30947876 22.94384766 C73.31151742 25.24691284 73.30600148 27.54999542 73.29345703 29.85302734 C73.2774013 33.37555711 73.29331323 36.89693946 73.3125 40.41943359 C73.31051753 42.65901946 73.30667379 44.89860461 73.30078125 47.13818359 C73.30685394 48.19038086 73.31292664 49.24257812 73.31918335 50.32666016 C73.22791056 59.82913941 73.22791056 59.82913941 69.90234375 63.38818359 C63.38463572 68.82893129 55.6563355 67.97067632 47.58984375 67.91943359 C46.09203846 67.9221321 44.59423488 67.9260175 43.09643555 67.93103027 C39.96613796 67.93690856 36.83629874 67.92841704 33.70605469 67.90966797 C29.70795705 67.88687867 25.71093366 67.90001085 21.71287537 67.92395782 C18.62259939 67.93846153 15.53257511 67.93378908 12.44229126 67.92344666 C10.96879955 67.92079195 9.49528444 67.92400462 8.02182007 67.93336487 C-6.56611561 68.0057143 -6.56611561 68.0057143 -12.09765625 63.38818359 C-16.32686385 58.8620569 -15.52978715 52.97613764 -15.49609375 47.13818359 C-15.49896393 46.04731445 -15.50183411 44.95644531 -15.50479126 43.83251953 C-15.50682992 41.52945435 -15.50131398 39.22637177 -15.48876953 36.92333984 C-15.4727138 33.40081008 -15.48862573 29.87942773 -15.5078125 26.35693359 C-15.50583003 24.11734773 -15.50198629 21.87776258 -15.49609375 19.63818359 C-15.50216644 18.58598633 -15.50823914 17.53378906 -15.51449585 16.44970703 C-15.42451041 7.08125525 -15.42451041 7.08125525 -12.09765625 3.38818359 C-8.01185313 0.37344807 -5.02958084 0.00958146 0 0 Z " fill="#070806" transform="translate(151.09765625,118.61181640625)"/>
<path d="M0 0 C2.87659826 -0.1356886 5.74673463 -0.23440753 8.625 -0.3125 C9.43324219 -0.35439453 10.24148438 -0.39628906 11.07421875 -0.43945312 C15.35404786 -0.52644152 18.12882671 -0.36802858 21.5234375 2.39453125 C25.47929334 6.55629125 25.15051024 9.67535729 25.15390015 15.17254639 C25.1582824 16.02756784 25.16266465 16.88258929 25.1671797 17.76352048 C25.18059694 20.64540905 25.18675311 23.52726702 25.19287109 26.40917969 C25.20076974 28.46868021 25.20903854 30.52817934 25.21765137 32.587677 C25.2438984 39.3657295 25.25918144 46.14378827 25.2734375 52.921875 C25.27879603 55.25269831 25.28417354 57.58352157 25.28956985 59.91434479 C25.31120229 69.6079543 25.32994004 79.30156212 25.34119225 88.99518967 C25.35743768 102.90031302 25.39062595 116.80515719 25.44759309 130.71017528 C25.48625831 140.48007998 25.50582088 150.2499099 25.51111281 160.01988912 C25.51477087 165.85858828 25.52684066 171.69698986 25.55921555 177.53560638 C25.58923587 183.02842147 25.59562941 188.52075798 25.58383179 194.01363754 C25.58361055 196.03005886 25.59195693 198.046502 25.60948563 200.06284714 C25.63211451 202.8156499 25.62391167 205.56670812 25.60800171 208.31951904 C25.6218838 209.1177769 25.63576588 209.91603475 25.65006864 210.73848224 C25.59351497 214.70895486 25.20686813 217.24844288 22.71199989 220.41753006 C18.49775999 224.43049035 15.84213561 225.25024473 10.04172897 225.24609566 C8.20100001 225.2520688 8.20100001 225.2520688 6.32308459 225.25816262 C4.95926511 225.25245655 3.59544639 225.24656536 2.23162842 225.24050903 C0.7844953 225.24138096 -0.66263751 225.24313169 -2.10976863 225.24568737 C-6.09132235 225.25016752 -10.07276884 225.24214806 -14.05430889 225.23213124 C-18.34603056 225.22350866 -22.63774599 225.22641606 -26.92947388 225.22793579 C-34.36682828 225.2289854 -41.80414764 225.22270089 -49.24149323 225.21146011 C-59.9946927 225.19521833 -70.7478752 225.18999846 -81.50108561 225.18748413 C-98.94669689 225.18310495 -116.39228949 225.1697898 -133.83789062 225.15087891 C-150.78645738 225.13252588 -167.73501907 225.11836655 -184.68359375 225.10986328 C-185.72799131 225.10933783 -186.77238887 225.10881239 -187.84843484 225.10827102 C-193.08777721 225.10566098 -198.32711961 225.10313355 -203.56646204 225.10064721 C-247.04432097 225.07990777 -290.52215952 225.04467617 -334 225 C-334 224.67 -334 224.34 -334 224 C-223.78 224 -113.56 224 0 224 C1.75539193 218.3350762 1.75539193 218.3350762 2.25168228 212.89698124 C2.25689778 212.15994782 2.26211327 211.42291439 2.26748681 210.66354662 C2.26302537 209.87618528 2.25856392 209.08882393 2.25396729 208.27760315 C2.25708727 207.42380426 2.26020725 206.57000537 2.26342177 205.69033378 C2.27137004 202.84239418 2.26509049 199.99466953 2.25878906 197.14672852 C2.26150035 195.09958776 2.26506206 193.05244799 2.26940918 191.00531006 C2.27851959 185.45368721 2.2749943 179.90213878 2.26865101 174.35051465 C2.26358338 168.53664784 2.26828465 162.72278735 2.27142334 156.90892029 C2.27506104 147.14491636 2.27026931 137.38094269 2.26074219 127.61694336 C2.24986108 116.33514433 2.25338153 105.05341761 2.264395 93.77162033 C2.27347707 84.07970835 2.27474855 74.38781811 2.26951766 64.69590324 C2.26640264 58.90986728 2.26597573 53.12386527 2.27259064 47.3378315 C2.27837671 41.89675647 2.27434404 36.45577447 2.26280212 31.01470947 C2.26016217 29.02010693 2.26090927 27.02549654 2.26532745 25.03089714 C2.27081063 22.30361996 2.26391515 19.57663892 2.25396729 16.84938049 C2.25842873 16.06424987 2.26289017 15.27911924 2.26748681 14.47019678 C2.23135819 9.34657661 1.40772656 4.93057478 0 0 Z " fill="#01C9DC" transform="translate(449,95)"/>
<path d="M0 0 C20.89223313 -0.16043524 20.89223313 -0.16043524 29.82421875 -0.1953125 C35.90981056 -0.2191882 41.99516075 -0.247379 48.08056641 -0.30175781 C52.9889083 -0.34534205 57.89699094 -0.36916376 62.80551147 -0.37950897 C64.67455117 -0.38687779 66.5435773 -0.40126737 68.4125061 -0.42292023 C71.03833247 -0.45212176 73.66309889 -0.45594907 76.2890625 -0.45410156 C77.05511307 -0.46848267 77.82116364 -0.48286377 78.61042786 -0.49768066 C84.73298451 -0.45132178 89.99874597 1.2282434 94.56729126 5.44744492 C98.96441524 10.42973484 99.37357944 14.97973246 99.26953125 21.40234375 C98.7614978 26.29860821 97.1109041 30.19986138 93.31855774 33.43390179 C88.1328028 36.84195157 84.25178197 37.70842105 78.10546875 37.56762695 C76.83087547 37.56872215 76.83087547 37.56872215 75.53053284 37.56983948 C72.74885041 37.56638282 69.96888633 37.52761472 67.1875 37.48828125 C65.2483817 37.47894624 63.30925154 37.47183338 61.37011719 37.46684265 C56.28667168 37.44782699 51.2039498 37.39877324 46.12078857 37.34332275 C40.92567735 37.29201276 35.73044827 37.26930357 30.53515625 37.24414062 C20.35640308 37.19064879 10.17837516 37.10275758 0 37 C0 24.79 0 12.58 0 0 Z " fill="#FB5F65" transform="translate(105,245)"/>
<path d="M0 0 C0.85086685 -0.00511093 1.7017337 -0.01022186 2.5783844 -0.01548767 C5.38964888 -0.0293821 8.20066817 -0.02842704 11.01196289 -0.02612305 C12.96725048 -0.03001 14.92253723 -0.03434467 16.87782288 -0.03910828 C20.9758681 -0.04657013 25.07382716 -0.04627941 29.171875 -0.04101562 C34.42218208 -0.03522047 39.67213645 -0.05215332 44.92238522 -0.0753603 C48.96043457 -0.0900953 52.99839894 -0.09096966 57.03647041 -0.08785057 C58.97215028 -0.08836388 60.90783489 -0.09360344 62.84348869 -0.10366249 C65.55083993 -0.11600525 68.25750344 -0.10924829 70.96484375 -0.09765625 C71.76344818 -0.10529999 72.56205261 -0.11294373 73.38485718 -0.12081909 C77.96085236 -0.07753412 80.90026677 0.45528773 84.54711914 3.2746582 C87.95654315 7.1543476 88.00829952 10.95123508 87.82446289 15.9074707 C87.44469821 19.14884246 86.75620213 20.85179299 84.54711914 23.2746582 C79.22210329 26.88687723 75.51895404 27.86103138 69.15258789 27.79223633 C68.34350983 27.79924561 67.53443176 27.80625488 66.70083618 27.81347656 C64.04507407 27.83098079 61.39039076 27.81946124 58.73461914 27.8059082 C56.87809038 27.8086053 55.02156301 27.81248954 53.16503906 27.81750488 C49.28151956 27.82338966 45.39836905 27.81486996 41.51489258 27.79614258 C36.54832078 27.77335361 31.58261372 27.78648217 26.61607361 27.81043243 C22.78464293 27.82491805 18.95341572 27.82027177 15.12197876 27.80992126 C13.29122819 27.80726161 11.46045888 27.81049683 9.62973022 27.81983948 C7.06654243 27.83005085 4.50473587 27.81444108 1.94165039 27.79223633 C1.1923526 27.80033325 0.44305481 27.80843018 -0.32894897 27.81677246 C-5.76719801 27.72992549 -8.94467853 26.33279261 -13.45288086 23.2746582 C-16.88872814 19.50630957 -16.96178393 15.61865641 -16.80834961 10.71606445 C-16.28151545 7.09769794 -14.873656 4.96440836 -12.45288086 2.2746582 C-8.66598511 -0.40073625 -4.44962948 -0.01376866 0 0 Z " fill="#2ED5E2" transform="translate(141.452880859375,379.725341796875)"/>
<path d="M0 0 C1.13888672 -0.07734375 1.13888672 -0.07734375 2.30078125 -0.15625 C5.93297641 0.84245505 7.65703972 3.48960201 9.6875 6.5 C11.09799506 9.34874304 12.17776957 12.28193244 13.24609375 15.2734375 C13.55772964 16.11484283 13.86936554 16.95624817 14.19044495 17.82315063 C15.18012114 20.50303929 16.15288986 23.18869613 17.125 25.875 C17.77295709 27.63973876 18.42203679 29.40406576 19.07226562 31.16796875 C20.03282114 33.77445894 20.99009247 36.38185957 21.93563843 38.99383545 C23.40801696 43.05907544 24.9116538 47.10142431 26.53173828 51.11035156 C26.81751236 51.82913483 27.10328644 52.54791809 27.39772034 53.28848267 C28.16638605 55.21083652 28.95180695 57.12646725 29.73852539 59.04150391 C30.81625907 62.96925676 30.58768275 65.55521531 29.6875 69.5 C28.5625 71.4375 28.5625 71.4375 26.6875 72.5 C23.25 73 23.25 73 19.6875 72.5 C15.44261779 68.72677137 14.79048553 65.10796142 12.6875 59.5 C4.4375 59.17 -3.8125 58.84 -12.3125 58.5 C-13.3025 61.8 -14.2925 65.1 -15.3125 68.5 C-17.125 71.125 -17.125 71.125 -19.3125 72.5 C-22.59310601 72.97842171 -24.61196814 72.77652573 -27.6875 71.5625 C-30.31836389 68.2233266 -29.77545847 64.53607567 -29.3125 60.5 C-28.25501348 56.54064184 -26.79914089 52.77457909 -25.296875 48.96484375 C-24.88463684 47.88674942 -24.47239868 46.80865509 -24.04766846 45.69789124 C-23.17693351 43.42863816 -22.299089 41.16210171 -21.41455078 38.89819336 C-20.06741152 35.45007146 -18.74080355 31.99461907 -17.41796875 28.53710938 C-16.56628803 26.32506466 -15.71346136 24.11346075 -14.859375 21.90234375 C-14.46441833 20.87817856 -14.06946167 19.85401337 -13.66253662 18.79881287 C-6.40789978 0.25846991 -6.40789978 0.25846991 0 0 Z " fill="#000303" transform="translate(372.3125,227.5)"/>
<path d="M0 0 C0.95648438 -0.02900391 1.91296875 -0.05800781 2.8984375 -0.08789062 C10.95639166 -0.15886177 17.82261138 1.28947024 24.15625 6.49609375 C25.06890625 7.61177734 25.06890625 7.61177734 26 8.75 C26.6290625 9.49121094 27.258125 10.23242188 27.90625 10.99609375 C31.94891054 16.87182341 32.12366805 22.37419289 31.5 29.3125 C30.2534482 34.99989261 27.68317152 39.22228785 23.5 43.3125 C17.27957854 47.19096996 12.0682581 48.44818258 4.75 48.375 C3.57953125 48.36597656 2.4090625 48.35695313 1.203125 48.34765625 C0.31109375 48.33605469 -0.5809375 48.32445312 -1.5 48.3125 C-1.47905273 48.92770508 -1.45810547 49.54291016 -1.43652344 50.17675781 C-1.35322983 52.97183809 -1.30129987 55.76665715 -1.25 58.5625 C-1.19972656 60.01462891 -1.19972656 60.01462891 -1.1484375 61.49609375 C-1.04956677 68.66422189 -1.04956677 68.66422189 -3.33203125 71.94921875 C-6.35120134 73.84775994 -7.99618842 73.95605723 -11.5 73.3125 C-14.11478975 71.66799631 -15.07556628 70.96111934 -16.5 68.3125 C-17.25828685 63.6930203 -17.17602232 59.10952484 -17.12890625 54.4375 C-17.12973558 53.0665671 -17.13219736 51.6956343 -17.13621521 50.32470703 C-17.13906872 47.45639998 -17.12441791 44.58887574 -17.09692383 41.72070312 C-17.06283995 38.05185294 -17.06886245 34.38440181 -17.0875864 30.71548462 C-17.09817655 27.88603135 -17.08920069 25.05690128 -17.07420158 22.22747803 C-17.06652867 20.21953632 -17.07386085 18.21155536 -17.08143616 16.20361328 C-17.06559982 14.97884277 -17.04976349 13.75407227 -17.03344727 12.4921875 C-17.02724869 11.41694824 -17.02105011 10.34170898 -17.0146637 9.23388672 C-16.37731532 5.61610464 -15.02097357 3.93544979 -12.5 1.3125 C-8.71623241 -0.57938379 -4.16324138 0.04076281 0 0 Z " fill="#010505" transform="translate(316.5,226.6875)"/>
<path d="M0 0 C3.96 0 7.92 0 12 0 C12.11606375 17.246863 12.20513528 34.49356847 12.25906086 51.74073315 C12.28477216 59.75006141 12.31978599 67.75914159 12.37719727 75.76831055 C12.42725043 82.75435337 12.45934235 89.7402164 12.47044247 96.72643358 C12.47692451 100.42093421 12.49200804 104.11492079 12.52865028 107.8092556 C12.56935748 111.94752553 12.56993552 116.08491882 12.56762695 120.22338867 C12.58560333 121.42964905 12.60357971 122.63590942 12.62210083 123.87872314 C12.55570895 134.94223722 9.70118821 145.342574 1.80859375 153.421875 C-6.35097298 160.54166973 -16.39470282 162.60924048 -27 162 C-17.36918933 150.51583745 -17.36918933 150.51583745 -12 148.0625 C-7.06529923 145.75343247 -4.3616608 142.70098464 -1.88378906 137.78588867 C-0.77323528 134.28519 -0.71304855 130.99676202 -0.734375 127.36328125 C-0.73246155 126.64262985 -0.7305481 125.92197845 -0.72857666 125.17948914 C-0.72722123 123.66417082 -0.73087265 122.14884064 -0.73925781 120.63354492 C-0.75001402 118.30947047 -0.73931719 115.9861607 -0.7265625 113.66210938 C-0.72788329 112.18749829 -0.73044401 110.71288768 -0.734375 109.23828125 C-0.73032654 108.54245438 -0.72627808 107.8466275 -0.72210693 107.12971497 C-0.65450525 103.11810289 -0.65450525 103.11810289 -3 100 C-4.32 99.67 -5.64 99.34 -7 99 C-7 92.4 -7 85.8 -7 79 C-7.66 78.67 -8.32 78.34 -9 78 C-7.865625 77.690625 -6.73125 77.38125 -5.5625 77.0625 C-2.21224901 76.37075469 -2.21224901 76.37075469 -1 75 C-0.87515846 72.65847159 -0.81400709 70.34492415 -0.79467773 68.00170898 C-0.78477814 67.27004517 -0.77487854 66.53838135 -0.76467896 65.7845459 C-0.73297617 63.35509528 -0.70827207 60.92562507 -0.68359375 58.49609375 C-0.66303178 56.81599913 -0.64203552 55.13590977 -0.62062073 53.45582581 C-0.56532174 49.02532197 -0.51594713 44.59477085 -0.46777344 40.16418457 C-0.4176154 35.64652275 -0.36189967 31.12892992 -0.30664062 26.61132812 C-0.1989634 17.7409443 -0.09753982 8.87050068 0 0 Z " fill="#615B62" transform="translate(305,335)"/>
<path d="M0 0 C19.14 0 38.28 0 58 0 C58 11.88 58 23.76 58 36 C38.86 36 19.72 36 0 36 C0 24.12 0 12.24 0 0 Z " fill="#FFE589" transform="translate(151,134)"/>
<path d="M0 0 C4.95795391 1.93459182 7.47867714 7.50154888 10.15234375 11.83984375 C10.95091797 13.04833984 10.95091797 13.04833984 11.765625 14.28125 C15.15234375 19.46149868 15.15234375 19.46149868 15.15234375 21.83984375 C15.81234375 21.83984375 16.47234375 21.83984375 17.15234375 21.83984375 C17.37921875 21.1746875 17.60609375 20.50953125 17.83984375 19.82421875 C19.54468413 15.94773645 21.78976677 12.5932079 24.15234375 9.08984375 C24.60351562 8.40535156 25.0546875 7.72085938 25.51953125 7.015625 C28.89890253 1.96656436 28.89890253 1.96656436 31.15234375 0.83984375 C35.0265894 0.4811173 37.30168281 0.27273646 40.58984375 2.46484375 C42.71989434 5.70252065 42.69635956 6.9664512 42.15234375 10.83984375 C40.3469353 14.36253636 38.14097367 17.58016849 35.90234375 20.83984375 C35.02255859 22.1546875 35.02255859 22.1546875 34.125 23.49609375 C33.02272387 25.14083836 31.91496984 26.78193569 30.79980469 28.41796875 C30.25614258 29.2171875 29.71248047 30.01640625 29.15234375 30.83984375 C28.43457764 31.77948975 27.71681152 32.71913574 26.97729492 33.68725586 C24.80269313 37.44386228 24.68077642 39.71773222 24.71875 44.03125 C24.70914913 45.40169387 24.69937842 46.77213656 24.68945312 48.14257812 C24.6980596 50.27772063 24.71494958 52.41256307 24.73706055 54.54760742 C24.75161868 56.62607975 24.73631378 58.70283803 24.71875 60.78125 C24.7333728 62.63278687 24.7333728 62.63278687 24.74829102 64.52172852 C23.988838 68.75021106 22.48323847 70.21376745 19.15234375 72.83984375 C16.08984375 73.40234375 16.08984375 73.40234375 13.15234375 72.83984375 C10.96948242 71.19580078 10.96948242 71.19580078 9.15234375 68.83984375 C8.8762207 65.95263672 8.8762207 65.95263672 9.140625 62.58203125 C10.04865594 42.04575008 5.86114958 30.4613574 -7.18945312 14.52929688 C-9.21680814 11.24111329 -9.64695197 8.67577611 -9.84765625 4.83984375 C-7.57400984 0.98453028 -4.4982125 -0.20941399 0 0 Z " fill="#000404" transform="translate(406.84765625,227.16015625)"/>
<path d="M0 0 C10.04841118 -0.81657517 19.9533673 1.0481756 27.9375 7.5 C37.31577904 17.26445029 38.74709243 26.26278237 38.52734375 39.2734375 C38.47723476 41.09897691 38.42644538 42.92449776 38.375 44.75 C38.34484261 46.62235263 38.31747706 48.49475241 38.29296875 50.3671875 C38.22747599 54.91264174 38.12428067 59.45578874 38 64 C34.7 64 31.4 64 28 64 C27.9906543 62.98687744 27.98130859 61.97375488 27.97167969 60.92993164 C27.93148878 57.13311488 27.86565331 53.33708389 27.79248047 49.54077148 C27.76443813 47.90480728 27.74314119 46.26871181 27.72900391 44.63256836 C27.90419799 30.37495645 27.90419799 30.37495645 21.32275391 18.17822266 C18.48088827 15.47891702 16.04940882 14.01959315 12.375 12.5625 C8.52454665 10.77988271 7.35229969 9.18761739 5.1328125 5.71875 C3.68464715 3.52153361 1.9252248 1.78261556 0 0 Z " fill="#665F67" transform="translate(278,15)"/>
<path d="M0 0 C3.30081857 0.96300273 4.29623516 2.68917852 6.03515625 5.59375 C6.42999392 8.4272909 6.59749173 10.77826429 6.53515625 13.59375 C6.550625 14.29242188 6.56609375 14.99109375 6.58203125 15.7109375 C6.55497394 19.29603144 6.10978665 21.46925665 4.2578125 24.55859375 C1.90061452 26.71694199 1.10185835 27.25874795 -2.02734375 27.15625 C-5.96484375 26.59375 -5.96484375 26.59375 -7.6875 25.15625 C-9.66082287 21.19753501 -9.39871979 17.39134772 -9.33984375 13.03125 C-9.35144531 12.16822266 -9.36304688 11.30519531 -9.375 10.41601562 C-9.37113281 9.58650391 -9.36726563 8.75699219 -9.36328125 7.90234375 C-9.35989746 7.14751709 -9.35651367 6.39269043 -9.35302734 5.61499023 C-8.35578827 0.4224479 -4.74706825 0.21951761 0 0 Z " fill="#010606" transform="translate(406.96484375,136.40625)"/>
<path d="M0 0 C2.1875 1.46875 2.1875 1.46875 4 4 C4.58790498 7.01188241 4.55865552 9.940137 4.5 13 C4.51546875 13.80695313 4.5309375 14.61390625 4.546875 15.4453125 C4.52160043 19.27440921 4.45769482 21.35843641 2.19140625 24.53515625 C-0.99173614 26.66292523 -3.26320863 26.47559163 -7 26 C-9.10358381 24.45737187 -9.84054159 23.31891683 -11 21 C-11.17724777 18.19309274 -11.27750799 15.43369203 -11.3125 12.625 C-11.34150391 11.85671875 -11.37050781 11.0884375 -11.40039062 10.296875 C-11.44268816 6.53564843 -11.44271476 4.61653553 -9.19921875 1.4921875 C-5.97709094 -0.69405197 -3.80112651 -0.54301807 0 0 Z " fill="#000303" transform="translate(352,137)"/>
<path d="M0 0 C2.1953125 1.5 2.1953125 1.5 4 4 C4.34612503 6.98019513 4.4705768 9.53711928 4.375 12.5 C4.37371094 13.25925781 4.37242187 14.01851562 4.37109375 14.80078125 C4.25984889 21.85864977 4.25984889 21.85864977 2 25 C-1.09173752 26.54586876 -3.59429552 26.29359521 -7 26 C-9.1953125 24.54296875 -9.1953125 24.54296875 -11 22 C-11.58697897 18.9878711 -11.55865759 16.05997077 -11.5 13 C-11.51546875 12.19304687 -11.5309375 11.38609375 -11.546875 10.5546875 C-11.52159126 6.72420158 -11.46042207 4.64300324 -9.1875 1.46875 C-5.96971145 -0.69176517 -3.78357952 -0.54051136 0 0 Z " fill="#000304" transform="translate(285,137)"/>
<path d="M0 0 C3.5 0.5625 3.5 0.5625 5.69140625 2.03515625 C8.36851284 5.77616697 8.0485853 9.07608738 7.9375 13.5625 C7.94458984 14.36945313 7.95167969 15.17640625 7.95898438 16.0078125 C7.92156737 19.49622911 7.81131062 21.94842081 6.21875 25.08984375 C3.85137787 27.11825123 1.57230751 27.09192345 -1.46484375 27.19140625 C-4.7456021 26.17758265 -5.75863138 24.46733249 -7.5 21.5625 C-7.89483767 18.7289591 -8.06233548 16.37798571 -8 13.5625 C-8.02320313 12.51449219 -8.02320313 12.51449219 -8.046875 11.4453125 C-8.01964383 7.83718213 -7.57921805 5.69208298 -5.6875 2.59765625 C-3.5 0.5625 -3.5 0.5625 0 0 Z " fill="#010505" transform="translate(431.5,136.4375)"/>
<path d="M0 0 C3.10414451 2.88796302 3.94137863 4.57930548 4.53125 8.8125 C4.54178458 10.20833245 4.53089735 11.60446979 4.5 13 C4.51546875 13.69867188 4.5309375 14.39734375 4.546875 15.1171875 C4.51981769 18.70228144 4.0746304 20.87550665 2.22265625 23.96484375 C-0.13454173 26.12319199 -0.9332979 26.66499795 -4.0625 26.5625 C-8 26 -8 26 -9.71875 24.52734375 C-11.64269167 20.73225149 -11.47436474 17.19587742 -11.4375 13 C-11.45748047 12.19304687 -11.47746094 11.38609375 -11.49804688 10.5546875 C-11.49488372 6.72094473 -11.46680527 4.65231752 -9.19140625 1.47265625 C-5.9438257 -0.70976419 -3.81570083 -0.61323763 0 0 Z " fill="#010405" transform="translate(324,137)"/>
<path d="M0 0 C11.88163265 -0.57959184 11.88163265 -0.57959184 17 4 C18.42662219 6.85324437 18.31033868 8.83454549 18 12 C16.20006226 14.69990662 14.916227 16.5418865 12 18 C9.95944995 18.07065617 7.91665743 18.08421976 5.875 18.0625 C2.966875 18.0315625 2.966875 18.0315625 0 18 C0 12.06 0 6.12 0 0 Z " fill="#2CCDDA" transform="translate(315,242)"/>
<path d="M0 0 C3.16074764 1.58037382 3.54298175 4.76378948 4.625 7.9375 C4.85445313 8.58396484 5.08390625 9.23042969 5.3203125 9.89648438 C7 14.71058873 7 14.71058873 7 17 C2.71 17 -1.58 17 -6 17 C-4.02 11.39 -2.04 5.78 0 0 Z " fill="#2CCDDA" transform="translate(372,254)"/>
</svg>
