<?xml version="1.0" encoding="utf-8"?>
<!-- Generator: Adobe Illustrator 27.5.0, SVG Export Plug-In . SVG Version: 6.00 Build 0)  -->
<svg version="1.1" id="Layer_1" xmlns="http://www.w3.org/2000/svg" xmlns:xlink="http://www.w3.org/1999/xlink" x="0px" y="0px"
	 viewBox="0 0 4000 4000" style="enable-background:new 0 0 4000 4000;" xml:space="preserve">
<g>
	<rect style="fill:#FFFFFF;" width="4000" height="4000"/>
	<g>
		<polygon style="opacity:0.15;fill:#390075;" points="3226.466,1891.754 3226.466,3305.459 2035,3305.459 2035,2685.521 
			1643.922,2685.521 1643.922,2184.427 1528.1,2184.427 1528.1,3305.459 793.108,3305.459 793.108,1841.808 1083.813,1841.808 
			1083.813,1116.075 1442.745,1116.075 1442.745,1220.814 1528.1,1220.814 1528.1,1692.736 1643.922,1692.736 1643.922,700 
			2035,700 2035,759.974 2094.974,759.974 2094.974,1727.042 2256.904,1727.042 2256.904,1183.246 2584.121,1260.012 
			2584.121,2256.971 2677.92,2256.971 2677.92,1594.283 2761.884,1594.283 2761.884,1436.288 2816.244,1436.288 2816.244,1594.283 
			2902.847,1594.283 2902.847,1891.754 		"/>
		<g>
			<path style="fill:#390075;" d="M444.331,3307.722c66.279-7.087,132.556-8.787,198.835-9.658
				c33.137-0.479,66.277-0.574,99.417-0.449l99.417,0.522c66.277,0.417,132.556,0.522,198.833,0.457h198.833H2035h795.334H3228
				l99.417-0.027l99.417-0.862c33.14-0.227,66.279,0.022,99.417,1.331c33.14,1.377,66.279,3.535,99.419,8.687
				c2.52,0.393,4.246,2.754,3.855,5.276c-0.317,2.034-1.924,3.552-3.855,3.855c-33.14,5.151-66.279,7.307-99.419,8.687
				c-33.137,1.309-66.277,1.555-99.417,1.331l-99.417-0.862l-99.417-0.027h-397.666H2035h-795.334h-198.833
				c-66.277-0.066-132.556,0.039-198.833,0.457l-99.417,0.522c-33.14,0.122-66.279,0.029-99.417-0.452
				c-66.279-0.869-132.556-2.568-198.835-9.656c-2.52-0.271-4.346-2.532-4.075-5.054
				C440.491,3309.609,442.229,3307.947,444.331,3307.722z"/>
			<path style="opacity:0.3;fill:#390075;" d="M3824.622,3346.05c0,35.648-801.252,64.58-1789.622,64.58
				s-1789.622-28.932-1789.622-64.58c0-12.379,96.198-23.941,263.118-33.777h3053.009
				C3728.424,3322.108,3824.622,3333.671,3824.622,3346.05z"/>
		</g>
		<g>
			<g>
				<path style="fill:#30CE52;" d="M859.615,2823.238c0,109.169-87.829,197.758-196.705,198.987
					c-108.844,1.229-199.73-87.256-201.274-196.096c-0.693-48.838,16.2-93.696,44.741-128.652
					c24.651-30.192,29.97-71.71,16.046-108.115c-6.268-16.388-9.701-34.179-9.701-52.765c0-81.725,66.224-147.894,147.894-147.894
					c81.67,0,147.894,66.169,147.894,147.894c0,19.063-3.612,37.289-10.189,54.023c-14.413,36.669-6.688,77.758,17.897,108.546
					C843.375,2733.175,859.615,2776.302,859.615,2823.238z"/>
			</g>
			<g style="opacity:0.3;">
				<path style="fill:#390075;" d="M782.491,2980.554c-33.084,25.744-74.55,41.191-119.575,41.684
					c-108.839,1.205-199.712-87.258-201.3-196.097c-0.657-48.86,16.214-93.721,44.752-128.668
					c24.649-30.181,29.962-71.701,16.049-108.127c-6.245-16.378-9.695-34.18-9.695-52.749c0-67.264,44.861-124.012,106.319-141.923
					c-31.332,26.949-51.105,66.99-51.105,111.687c0,18.569,3.451,36.371,9.695,52.749c13.968,36.426,8.655,77.946-15.994,108.127
					c-28.593,34.947-45.464,79.808-44.752,128.668c1.534,108.839,92.406,197.302,201.246,196.097
					C740.697,2991.728,762.333,2987.729,782.491,2980.554z"/>
			</g>
			<g style="opacity:0.55;">
				<path style="fill:#FFFFFF;" d="M859.615,2823.238c0,71.154-37.302,133.598-93.502,168.764
					c39.822-36.316,64.745-88.682,64.745-146.854c0-46.943-16.214-90.051-43.383-124.067
					c-24.594-30.784-32.317-71.865-17.911-108.565c6.573-16.707,10.188-34.947,10.188-54.009
					c0-81.725-66.224-147.894-147.894-147.894c-27.114,0-52.585,7.285-74.44,20.157c26.621-26.073,62.992-42.068,103.198-42.068
					c81.67,0,147.894,66.169,147.894,147.894c0,19.062-3.615,37.302-10.188,54.009c-14.406,36.7-6.683,77.781,17.911,108.565
					C843.401,2733.187,859.615,2776.295,859.615,2823.238z"/>
			</g>
			<g>
				<path style="fill:#390075;" d="M660.636,3035.931c-115.874,0-211.045-93.523-212.69-209.609
					c-0.713-50.034,16.274-98.867,47.827-137.507c21.011-25.737,26.323-61.973,13.857-94.563
					c-7.036-18.394-10.606-37.793-10.606-57.654c0-89.102,72.49-161.589,161.592-161.589c89.097,0,161.587,72.488,161.587,161.589
					c0,20.371-3.75,40.232-11.138,59.031c-12.207,31.059-6.133,67.458,15.854,94.992c30.347,38.005,46.392,83.862,46.392,132.617
					c0,115.962-94.316,211.37-210.244,212.681C662.258,3035.927,661.437,3035.931,660.636,3035.931z M660.617,2402.396
					c-73.999,0-134.199,60.203-134.199,134.202c0,16.504,2.959,32.61,8.794,47.871c15.957,41.731,8.975,88.35-18.223,121.668
					c-27.485,33.655-42.28,76.198-41.66,119.797c1.436,101.128,84.365,182.607,185.308,182.61c0.708,0,1.411-0.002,2.119-0.012
					c101.001-1.14,183.164-84.263,183.164-185.293c0-42.478-13.97-82.427-40.4-115.527c-28.081-35.166-35.723-81.953-19.941-122.102
					c6.128-15.593,9.233-32.083,9.233-49.011C794.811,2462.599,734.611,2402.396,660.617,2402.396z"/>
			</g>
			<g>
				<path style="fill:#390075;" d="M660.617,3319.176c-7.563,0-13.696-6.13-13.696-13.694v-635.615
					c0-7.563,6.133-13.694,13.696-13.694c7.564,0,13.696,6.131,13.696,13.694v635.615
					C674.313,3313.046,668.18,3319.176,660.617,3319.176z"/>
			</g>
			<g>
				<path style="fill:#390075;" d="M660.627,2806.808c-4.873,0-9.595-2.61-12.065-7.205c-3.589-6.658-1.094-14.964,5.562-18.55
					l71.206-38.343c6.665-3.574,14.971-1.094,18.55,5.566c3.589,6.658,1.094,14.964-5.562,18.55l-71.206,38.343
					C665.046,2806.281,662.819,2806.808,660.627,2806.808z"/>
			</g>
			<g>
				<path style="fill:#390075;" d="M658.688,2891.598c-2.192,0-4.419-0.527-6.484-1.638l-80.942-43.586
					c-6.655-3.586-9.15-11.892-5.562-18.55c3.584-6.665,11.89-9.15,18.55-5.566l80.942,43.586c6.655,3.586,9.15,11.892,5.562,18.55
					C668.283,2888.988,663.561,2891.598,658.688,2891.598z"/>
			</g>
			<g style="opacity:0.2;">
				<path style="fill:#FFFFFF;" d="M730.509,2544.339c-12.543,12.702-33.786,2.977-53.05-16.047
					c-19.264-19.024-29.255-40.143-16.712-52.844c12.543-12.702,38.328-7.577,57.593,11.447
					C737.604,2505.918,743.052,2531.637,730.509,2544.339z"/>
			</g>
			<g>
				<path style="fill:#30CE52;" d="M651.117,3305.478c-104.868-100.271,7.127-168.741,167.992-117.504
					c-39.707-51.679,4.582-111.486,72.288-69.742c-90.614-128.794,68.215-232.644,162.902-144.584v331.83H651.117z"/>
			</g>
			<g style="opacity:0.55;">
				<path style="fill:#FFFFFF;" d="M651.117,3305.483h2.169c-60.519-79.771,23.3-132.092,151.271-104.552
					c13.368,2.877,25.131-8.509,23.08-22.029c-4.581-30.202,16.547-55.195,50.327-51.339c12.056,1.376,21.613-10.214,17.28-21.548
					c-38.927-101.813,73.807-175.76,159.055-126.407v-5.956c-94.687-88.059-253.516,15.791-162.892,144.565
					c-67.716-41.723-112.005,18.083-72.298,69.763C658.234,3136.727,546.259,3205.207,651.117,3305.483z"/>
			</g>
			<g>
				<path style="fill:#390075;" d="M1054.298,3319.872H651.115c-3.706,0-7.271-1.43-9.946-3.992
					c-58.066-55.52-47.915-95.52-36.699-114.421c25.503-42.961,100.288-56.44,187.715-35.869
					c-5.449-21.033-1.48-42.112,12.139-57.202c11.025-12.221,30.435-21.404,55.527-17.615
					c-23.433-57.903-1.421-106.313,29.063-132.91c42.422-36.997,118.228-47.729,175.19,5.247c2.925,2.722,4.59,6.541,4.59,10.54
					v331.829C1068.693,3313.427,1062.248,3319.872,1054.298,3319.872z M656.994,3291.083h382.91v-310.95
					c-44.023-36.875-100.244-28.333-132.065-0.579c-28.877,25.198-45.273,72.683-4.668,130.396
					c3.931,5.588,3.394,13.169-1.289,18.147c-4.688,4.978-12.222,5.969-18.037,2.388c-24.058-14.836-46.333-15.901-58.149-2.813
					c-9.346,10.359-11.479,30.31,4.829,51.533c3.833,4.988,3.979,11.89,0.366,17.039c-3.618,5.149-10.161,7.346-16.152,5.447
					c-96.645-30.791-167.71-15.525-185.513,14.463C618.068,3234.95,628.19,3262.074,656.994,3291.083z"/>
			</g>
			<g>
				<g>
					<path style="fill:#758B9B;stroke:#390075;stroke-width:0;stroke-miterlimit:10;" d="M2140.043,3216.345H995.741
						c-24.511,0-44.381,19.87-44.381,44.381v44.757h1233.064v-44.757C2184.424,3236.215,2164.554,3216.345,2140.043,3216.345z"/>
				</g>
				<g style="opacity:0.55;">
					<path style="fill:#FFFFFF;" d="M2184.424,3267.523v44.764h-12.57v-20.775c0-24.517-19.912-44.381-44.429-44.381H983.122
						c-12.139,0-23.078,4.894-31.09,12.762c3.599-20.871,21.782-36.752,43.709-36.752h1144.303
						C2164.56,3223.142,2184.424,3243.006,2184.424,3267.523z"/>
				</g>
				<g>
					<path style="fill:#390075;" d="M2184.426,3319.877H951.359c-7.949,0-14.394-6.445-14.394-14.394v-44.756
						c0-32.407,26.367-58.774,58.774-58.774h1144.302c32.412,0,58.779,26.367,58.779,58.774v44.756
						C2198.82,3313.431,2192.375,3319.877,2184.426,3319.877z M965.754,3291.088h1204.277v-30.361
						c0-16.533-13.452-29.985-29.99-29.985H995.739c-16.533,0-29.985,13.452-29.985,29.985V3291.088z"/>
				</g>
				<g>
					
						<rect x="1008.113" y="2337.96" style="fill:#FFFFFF;stroke:#390075;stroke-width:0;stroke-miterlimit:10;" width="1116.331" height="878.402"/>
				</g>
				<g>
					<path style="fill:#390075;" d="M2124.45,3230.741H1008.136c-7.949,0-14.395-6.446-14.395-14.395V2337.96
						c0-7.949,6.445-14.394,14.395-14.394H2124.45c7.949,0,14.395,6.445,14.395,14.394v878.386
						C2138.844,3224.296,2132.399,3230.741,2124.45,3230.741z M1022.531,3201.952h1087.524v-849.597H1022.531V3201.952z"/>
				</g>
				<g>
					
						<rect x="1703.833" y="2637.384" style="fill:#FEB71F;stroke:#390075;stroke-width:0;stroke-miterlimit:10;" width="329.457" height="578.961"/>
				</g>
				<g style="opacity:0.55;">
					<polygon style="fill:#FFFFFF;" points="2033.284,2637.398 2033.284,3216.362 2006.895,3216.362 2006.895,2663.786 
						1703.811,2663.786 1703.811,2637.398 					"/>
				</g>
				<g>
					<path style="fill:#390075;" d="M2033.288,3230.741h-329.453c-7.949,0-14.395-6.446-14.395-14.395v-578.962
						c0-7.949,6.445-14.395,14.395-14.395h329.453c7.949,0,14.394,6.445,14.394,14.395v578.962
						C2047.682,3224.296,2041.237,3230.741,2033.288,3230.741z M1718.229,3201.952h300.664v-550.173h-300.664V3201.952z"/>
				</g>
				<g>
					
						<rect x="1761.408" y="3004.038" style="fill:#38D4FC;stroke:#390075;stroke-width:0;stroke-miterlimit:10;" width="214.307" height="143.938"/>
				</g>
				<g style="opacity:0.55;">
					<path style="fill:#FFFFFF;" d="M1973.516,3006.237v143.937h-20.007v-111.16c0-6.178-5.009-11.187-11.187-11.187h-183.128
						v-21.591H1973.516z"/>
				</g>
				<g>
					
						<rect x="1761.408" y="2729.757" style="fill:#38D4FC;stroke:#390075;stroke-width:0;stroke-miterlimit:10;" width="214.307" height="214.307"/>
				</g>
				<g style="opacity:0.55;">
					<path style="fill:#FFFFFF;" d="M1975.709,2729.758v214.323h-22.167v-169.542c0-12.145-9.845-21.99-21.99-21.99h-170.166v-22.79
						H1975.709z"/>
				</g>
				<g>
					<path style="fill:#390075;" d="M1975.715,3159.969h-214.307c-6.626,0-11.997-5.371-11.997-11.995v-143.938
						c0-6.624,5.371-11.995,11.997-11.995h214.307c6.626,0,11.997,5.371,11.997,11.995v143.938
						C1987.712,3154.598,1982.34,3159.969,1975.715,3159.969z M1773.405,3135.98h190.313v-119.949h-190.313V3135.98z"/>
				</g>
				<g style="opacity:0.3;">
					<path style="fill:#390075;" d="M1630.115,3087.634l-86.266,128.728h-535.735v-55.8l74.032-113.807
						c15.449,14.826,32.626,28.404,51.386,40.878H1630.115z"/>
				</g>
				<g>
					<path style="fill:#390075;" d="M1975.715,2956.058h-214.307c-6.626,0-11.997-5.371-11.997-11.995v-214.307
						c0-6.624,5.371-11.995,11.997-11.995h214.307c6.626,0,11.997,5.371,11.997,11.995v214.307
						C1987.712,2950.687,1982.34,2956.058,1975.715,2956.058z M1773.405,2932.069h190.313v-190.317h-190.313V2932.069z"/>
				</g>
				<g>
					
						<rect x="1091.699" y="2633.653" style="fill:#38D4FC;stroke:#390075;stroke-width:0;stroke-miterlimit:10;" width="532.569" height="390.409"/>
				</g>
				<defs>
					
						<filter id="Adobe_OpacityMaskFilter" filterUnits="userSpaceOnUse" x="1091.699" y="2633.653" width="392.086" height="390.409">
						<feFlood  style="flood-color:white;flood-opacity:1" result="back"/>
						<feBlend  in="SourceGraphic" in2="back" mode="normal"/>
					</filter>
				</defs>
				<mask maskUnits="userSpaceOnUse" x="1091.699" y="2633.653" width="392.086" height="390.409" id="SVGID_1_">
					<g style="filter:url(#Adobe_OpacityMaskFilter);">
						<defs>
							
								<filter id="Adobe_OpacityMaskFilter_00000115514543263391504160000015870131703036037014_" filterUnits="userSpaceOnUse" x="1091.699" y="2633.653" width="392.086" height="390.409">
								<feFlood  style="flood-color:white;flood-opacity:1" result="back"/>
								<feBlend  in="SourceGraphic" in2="back" mode="normal"/>
							</filter>
						</defs>
						<mask maskUnits="userSpaceOnUse" x="1091.699" y="2633.653" width="392.086" height="390.409" id="SVGID_1_">
							<g style="filter:url(#Adobe_OpacityMaskFilter_00000115514543263391504160000015870131703036037014_);">
							</g>
						</mask>
						
							<linearGradient id="SVGID_00000030484698217568046270000002393209457060246936_" gradientUnits="userSpaceOnUse" x1="1091.6989" y1="2828.8574" x2="1483.7843" y2="2828.8574">
							<stop  offset="0" style="stop-color:#FFFFFF"/>
							<stop  offset="1" style="stop-color:#000000"/>
						</linearGradient>
						<polygon style="mask:url(#SVGID_1_);fill:url(#SVGID_00000030484698217568046270000002393209457060246936_);" points="
							1483.784,2633.653 1235.061,3024.062 1091.699,3024.062 1091.699,3020.895 1337.88,2633.653 						"/>
					</g>
				</mask>
				
					<linearGradient id="SVGID_00000083795662057526983280000014254840239621920160_" gradientUnits="userSpaceOnUse" x1="1091.6989" y1="2828.8574" x2="1483.7843" y2="2828.8574">
					<stop  offset="0" style="stop-color:#FFFFFF"/>
					<stop  offset="1" style="stop-color:#FFFFFF"/>
				</linearGradient>
				<polygon style="opacity:0.55;fill:url(#SVGID_00000083795662057526983280000014254840239621920160_);" points="
					1483.784,2633.653 1235.061,3024.062 1091.699,3024.062 1091.699,3020.895 1337.88,2633.653 				"/>
				<defs>
					
						<filter id="Adobe_OpacityMaskFilter_00000022523353070112723450000012163615520733953211_" filterUnits="userSpaceOnUse" x="1310.292" y="2632.844" width="313.976" height="392.026">
						<feFlood  style="flood-color:white;flood-opacity:1" result="back"/>
						<feBlend  in="SourceGraphic" in2="back" mode="normal"/>
					</filter>
				</defs>
				
					<mask maskUnits="userSpaceOnUse" x="1310.292" y="2632.844" width="313.976" height="392.026" id="SVGID_00000112616243255205274630000016438248185996029623_">
					<g style="filter:url(#Adobe_OpacityMaskFilter_00000022523353070112723450000012163615520733953211_);">
						<defs>
							
								<filter id="Adobe_OpacityMaskFilter_00000073714621873355035160000003779712513344159132_" filterUnits="userSpaceOnUse" x="1310.292" y="2632.844" width="313.976" height="392.026">
								<feFlood  style="flood-color:white;flood-opacity:1" result="back"/>
								<feBlend  in="SourceGraphic" in2="back" mode="normal"/>
							</filter>
						</defs>
						
							<mask maskUnits="userSpaceOnUse" x="1310.292" y="2632.844" width="313.976" height="392.026" id="SVGID_00000112616243255205274630000016438248185996029623_">
							<g style="filter:url(#Adobe_OpacityMaskFilter_00000073714621873355035160000003779712513344159132_);">
							</g>
						</mask>
						
							<linearGradient id="SVGID_00000046334365267184578200000011942809826720105608_" gradientUnits="userSpaceOnUse" x1="1310.2917" y1="2828.8574" x2="1624.2675" y2="2828.8574">
							<stop  offset="0" style="stop-color:#FFFFFF"/>
							<stop  offset="1" style="stop-color:#000000"/>
						</linearGradient>
						
							<polygon style="mask:url(#SVGID_00000112616243255205274630000016438248185996029623_);fill:url(#SVGID_00000046334365267184578200000011942809826720105608_);" points="
							1624.267,2632.844 1624.267,2673.689 1406.158,3024.87 1310.292,3024.87 1560.276,2632.844 						"/>
					</g>
				</mask>
				
					<linearGradient id="SVGID_00000150069223820749563110000002006299056250491286_" gradientUnits="userSpaceOnUse" x1="1310.2917" y1="2828.8574" x2="1624.2675" y2="2828.8574">
					<stop  offset="0" style="stop-color:#FFFFFF"/>
					<stop  offset="1" style="stop-color:#FFFFFF"/>
				</linearGradient>
				<polygon style="opacity:0.55;fill:url(#SVGID_00000150069223820749563110000002006299056250491286_);" points="
					1624.267,2632.844 1624.267,2673.689 1406.158,3024.87 1310.292,3024.87 1560.276,2632.844 				"/>
				<g>
					<path style="fill:#390075;" d="M1624.269,3038.456h-532.568c-7.949,0-14.395-6.445-14.395-14.395v-390.415
						c0-7.949,6.445-14.395,14.395-14.395h532.568c7.949,0,14.395,6.445,14.395,14.395v390.415
						C1638.664,3032.01,1632.219,3038.456,1624.269,3038.456z M1106.095,3009.667h503.779v-361.626h-503.779V3009.667z"/>
				</g>
				<g>
					<path style="fill:#FEB71F;stroke:#390075;stroke-width:0;stroke-miterlimit:10;" d="M1620.923,3092.832h-523.781
						c-16.117,0-29.183-13.066-29.183-29.183v-9.596c0-16.117,13.066-29.183,29.183-29.183h523.781
						c16.117,0,29.183,13.066,29.183,29.183v9.596C1650.106,3079.766,1637.04,3092.832,1620.923,3092.832z"/>
				</g>
				<g style="opacity:0.55;">
					<path style="fill:#FFFFFF;stroke:#390075;stroke-width:0;stroke-miterlimit:10;" d="M1650.122,3054.049v9.596
						c0,2.639-0.336,5.181-1.007,7.628c-3.359-12.427-14.73-21.591-28.212-21.591h-523.74c-13.482,0-24.853,9.164-28.212,21.591
						c-0.671-2.447-1.007-4.99-1.007-7.628v-9.596c0-16.121,13.098-29.171,29.219-29.171h523.74
						C1637.024,3024.877,1650.122,3037.928,1650.122,3054.049z"/>
				</g>
				<g>
					<path style="fill:#390075;" d="M1620.925,3107.225H1097.14c-24.028,0-43.574-19.548-43.574-43.577v-9.595
						c0-24.028,19.546-43.579,43.574-43.579h523.784c24.028,0,43.574,19.551,43.574,43.579v9.595
						C1664.499,3087.677,1644.953,3107.225,1620.925,3107.225z M1097.14,3039.264c-8.154,0-14.785,6.633-14.785,14.79v9.595
						c0,8.154,6.631,14.788,14.785,14.788h523.784c8.154,0,14.785-6.633,14.785-14.788v-9.595c0-8.157-6.631-14.79-14.785-14.79
						H1097.14z"/>
				</g>
				<g>
					<path style="fill:#282E6B;stroke:#390075;stroke-width:0;stroke-miterlimit:10;" d="M1562.518,2445.464
						c-12.57,0.192-24.997,0.192-37.28,0H1562.518z"/>
				</g>
				<g style="opacity:0.3;">
					<path style="fill:#390075;" d="M2124.444,2337.96v197.482c-14.346,5.854-30.275,8.828-46.108,8.828
						c-33.345,0-66.931-13.099-85.355-38.479c-18.424,25.381-52.009,38.479-85.355,38.479c-33.297,0-66.883-13.099-85.355-38.479
						c-18.424,25.381-52.009,38.479-85.307,38.479c-33.298,0-66.883-13.099-85.355-38.479
						c-18.424,25.381-52.009,38.479-85.307,38.479c-33.346,0-66.931-13.099-85.355-38.479
						c-18.424,25.381-52.009,38.479-85.307,38.479c-33.346,0-66.883-13.099-85.355-38.479
						c-18.424,25.381-52.01,38.479-85.307,38.479c-33.346,0-66.883-13.099-85.355-38.479c-18.424,25.381-52.01,38.479-85.307,38.479
						c-15.929,0-31.858-2.975-46.204-8.876V2337.96H2124.444z"/>
				</g>
				<g>
					<path style="fill:#FFFFFF;stroke:#390075;stroke-width:0;stroke-miterlimit:10;" d="M2163.649,2092.626v286.292
						c0,86.266-145.904,92.743-167.879,19.479c-1.823-5.949-2.783-12.475-2.783-19.479c0,93.271-170.71,93.271-170.71,0
						c0,93.271-170.662,93.271-170.662,0c0,93.271-170.662,93.271-170.662,0c0,93.271-170.662,93.271-170.662,0
						c0,93.271-170.662,93.271-170.662,0c0,93.271-170.662,93.271-170.662,0v-286.292c0-15.257,12.331-27.588,27.588-27.588
						h1139.505C2151.318,2065.038,2163.649,2077.368,2163.649,2092.626z"/>
				</g>
				<g>
					<path style="fill:#F22525;" d="M2163.649,2092.626v286.292c0,86.266-145.904,92.743-167.879,19.479l-2.783-19.479v-313.88
						h143.074C2151.318,2065.038,2163.649,2077.368,2163.649,2092.626z"/>
				</g>
				<g>
					<path style="fill:#F22525;" d="M1822.301,2092.626v286.292c0,86.266-145.904,92.743-167.879,19.479l-2.783-19.479v-313.88
						h143.074C1809.971,2065.038,1822.301,2077.368,1822.301,2092.626z"/>
				</g>
				<g>
					<path style="fill:#F22525;" d="M1480.954,2092.626v286.292c0,86.266-145.905,92.743-167.879,19.479l-2.783-19.479v-313.88
						h143.074C1468.623,2065.038,1480.954,2077.368,1480.954,2092.626z"/>
				</g>
				<g>
					<path style="fill:#F22525;" d="M1139.63,2092.626v286.292c0,86.266-145.904,92.743-167.879,19.479l-2.783-19.479v-285.492
						c0-15.678,12.71-28.388,28.388-28.388h114.686C1127.278,2065.038,1139.63,2077.389,1139.63,2092.626z"/>
				</g>
				<g style="opacity:0.55;">
					<path style="fill:#FFFFFF;" d="M2163.649,2092.626v35.984c0-15.257-12.331-27.588-27.588-27.588H996.556
						c-15.257,0-27.588,12.331-27.588,27.588v-35.984c0-15.257,12.331-27.588,27.588-27.588h1139.505
						C2151.318,2065.038,2163.649,2077.368,2163.649,2092.626z"/>
				</g>
				<g>
					<path style="fill:#390075;" d="M2078.317,2463.265c-33.311,0-66.89-13.086-85.332-38.481
						c-18.447,25.396-52.036,38.481-85.357,38.481c-33.315,0-66.904-13.086-85.351-38.481
						c-18.442,25.396-52.021,38.481-85.332,38.481c-33.301,0-66.885-13.088-85.327-38.479
						c-18.442,25.39-52.026,38.479-85.332,38.479s-66.89-13.088-85.332-38.481c-18.443,25.393-52.026,38.481-85.332,38.481
						c-33.306,0-66.89-13.088-85.332-38.479c-18.442,25.39-52.026,38.479-85.332,38.479c-33.301,0-66.885-13.088-85.327-38.479
						c-18.442,25.39-52.026,38.479-85.332,38.479c-49.556,0-99.726-28.974-99.726-84.348v-286.292
						c0-23.149,18.833-41.982,41.982-41.982h1139.507c23.149,0,41.982,18.833,41.982,41.982v286.292
						C2178.044,2434.291,2127.873,2463.265,2078.317,2463.265z M2007.38,2378.917c0,38.174,36.772,55.559,70.938,55.559
						s70.938-17.385,70.938-55.559v-286.292c0-7.275-5.918-13.193-13.193-13.193H996.554c-7.275,0-13.193,5.918-13.193,13.193
						v286.292c0,38.174,36.772,55.559,70.937,55.559c34.165,0,70.938-17.385,70.938-55.559c0-7.949,6.445-14.395,14.395-14.395
						s14.395,6.445,14.395,14.395c0,38.174,36.772,55.559,70.932,55.559c34.165,0,70.938-17.385,70.938-55.559
						c0-7.949,6.445-14.395,14.395-14.395c7.949,0,14.395,6.445,14.395,14.395c0,38.174,36.772,55.559,70.938,55.559
						c34.165,0,70.938-17.385,70.938-55.559c0-7.949,6.445-14.395,14.395-14.395c7.949,0,14.395,6.445,14.395,14.395
						c0,38.174,36.772,55.559,70.938,55.559s70.938-17.385,70.938-55.559c0-7.949,6.445-14.395,14.395-14.395
						s14.395,6.445,14.395,14.395c0,38.174,36.772,55.559,70.932,55.559c34.165,0,70.938-17.385,70.938-55.559
						c0-7.949,6.445-14.395,14.395-14.395c7.949,0,14.395,6.445,14.395,14.395c0,38.174,36.782,55.559,70.957,55.559
						c34.18,0,70.962-17.385,70.962-55.559c0-7.949,6.445-14.395,14.395-14.395S2007.38,2370.968,2007.38,2378.917z"/>
				</g>
				<g>
					<path style="fill:#390075;" d="M1992.985,2393.312c-7.949,0-14.395-6.446-14.395-14.395v-313.879
						c0-7.949,6.445-14.395,14.395-14.395s14.395,6.445,14.395,14.395v313.879
						C2007.38,2386.866,2000.934,2393.312,1992.985,2393.312z"/>
				</g>
				<g>
					<path style="fill:#390075;" d="M1822.277,2393.312c-7.949,0-14.395-6.446-14.395-14.395v-313.879
						c0-7.949,6.445-14.395,14.395-14.395c7.949,0,14.395,6.445,14.395,14.395v313.879
						C1836.672,2386.866,1830.226,2393.312,1822.277,2393.312z"/>
				</g>
				<g>
					<path style="fill:#390075;" d="M1651.618,2393.312c-7.949,0-14.395-6.446-14.395-14.395v-313.879
						c0-7.949,6.445-14.395,14.395-14.395s14.395,6.445,14.395,14.395v313.879
						C1666.012,2386.866,1659.567,2393.312,1651.618,2393.312z"/>
				</g>
				<g>
					<path style="fill:#390075;" d="M1480.954,2393.312c-7.949,0-14.395-6.446-14.395-14.395v-313.879
						c0-7.949,6.445-14.395,14.395-14.395c7.949,0,14.395,6.445,14.395,14.395v313.879
						C1495.348,2386.866,1488.903,2393.312,1480.954,2393.312z"/>
				</g>
				<g>
					<path style="fill:#390075;" d="M1310.29,2393.312c-7.949,0-14.395-6.446-14.395-14.395v-313.879
						c0-7.949,6.445-14.395,14.395-14.395c7.949,0,14.395,6.445,14.395,14.395v313.879
						C1324.684,2386.866,1318.239,2393.312,1310.29,2393.312z"/>
				</g>
				<g>
					<path style="fill:#390075;" d="M1139.631,2393.312c-7.949,0-14.395-6.446-14.395-14.395v-313.879
						c0-7.949,6.445-14.395,14.395-14.395s14.395,6.445,14.395,14.395v313.879
						C1154.025,2386.866,1147.58,2393.312,1139.631,2393.312z"/>
				</g>
				<g>
					<path style="fill:#F22525;" d="M2139.659,2065.038H992.958v-50.22c0-37.052,30.036-67.088,67.088-67.088h1012.526
						c37.052,0,67.088,30.036,67.088,67.088V2065.038z"/>
				</g>
				<g style="opacity:0.55;">
					<path style="fill:#FFFFFF;" d="M2139.653,2014.82v50.234h-11.179v-22.262c0-37.04-30.035-67.075-67.075-67.075H1048.847
						c-22.838,0-43.037,11.419-55.128,28.883c4.942-32.194,32.722-56.855,66.307-56.855h1012.552
						C2109.618,1947.746,2139.653,1977.781,2139.653,2014.82z"/>
				</g>
				<g>
					<path style="fill:#390075;" d="M2139.66,2079.433H992.956c-7.949,0-14.395-6.445-14.395-14.395v-50.22
						c0-44.929,36.553-81.482,81.484-81.482H2072.57c44.932,0,81.484,36.553,81.484,81.482v50.22
						C2154.054,2072.987,2147.609,2079.433,2139.66,2079.433z M1007.35,2050.643h1117.915v-35.825
						c0-29.055-23.638-52.693-52.695-52.693H1060.046c-29.058,0-52.695,23.638-52.695,52.693V2050.643z"/>
				</g>
			</g>
			<g>
				<g>
					<path style="fill:#4089FF;" d="M3572.419,3022.401v208.326h-398.227v-425.815c0-33.778,27.396-61.174,61.173-61.174h201.609
						c37.615,0,70.817,24.757,81.469,60.886l43.997,148.879C3569.061,2975.862,3572.419,2999.083,3572.419,3022.401z"/>
				</g>
				<g style="opacity:0.55;">
					<path style="fill:#FFFFFF;" d="M3572.419,3019.403v208.326h-19.144v-184.336c0-23.318-3.358-46.54-9.98-68.898l-43.997-148.879
						c-10.651-36.128-43.853-60.885-81.469-60.885h-201.608c-13.77,0-26.485,4.558-36.704,12.283
						c9.5-21.399,30.947-36.272,55.848-36.272h201.609c37.615,0,70.817,24.757,81.469,60.885l43.997,148.879
						C3569.061,2972.863,3572.419,2996.085,3572.419,3019.403z"/>
				</g>
				<g>
					<rect x="2507.282" y="3093.17" style="fill:#4089FF;" width="666.91" height="137.557"/>
				</g>
				<g style="opacity:0.3;">
					<rect x="3126.213" y="3093.17" style="fill:#390075;" width="47.979" height="137.557"/>
				</g>
				<g style="opacity:0.55;">
					<path style="fill:#FFFFFF;" d="M3107.021,3093.17L3107.021,3093.17c0,14.574-11.815,26.389-26.389,26.389h-573.351v-26.389
						H3107.021z"/>
				</g>
				<g>
					<path style="fill:#390075;" d="M3572.419,3244.42h-398.228c-7.563,0-13.696-6.131-13.696-13.694v-425.815
						c0-41.282,33.589-74.865,74.873-74.865h201.606c43.428,0,82.329,29.075,94.604,70.708l43.994,148.867
						c6.992,23.621,10.542,48.108,10.542,72.781v208.325C3586.115,3238.29,3579.982,3244.42,3572.419,3244.42z M3187.887,3217.033
						h370.835v-194.632c0-22.039-3.164-43.911-9.414-65.01l-43.999-148.884c-8.867-30.076-36.968-51.074-68.335-51.074h-201.606
						c-26.182,0-47.48,21.299-47.48,47.478V3217.033z"/>
				</g>
				<g>
					<path style="fill:#38D4FC;stroke:#390075;stroke-width:0;stroke-miterlimit:10;" d="M3514.124,2970.344
						c0.336,10.844-6.813,20.487-17.081,23.462c-2.159,0.672-4.414,1.007-6.813,1.007h-185.679v-203.095h120.62
						c4.414,0,8.732,0.48,12.858,1.391c6.957,1.535,13.482,4.27,19.336,8.012c10.124,6.477,18.232,15.977,22.934,27.396
						c1.248,2.975,2.255,6.045,3.023,9.26l14.538,61.509l15.641,66.163C3513.885,2967.082,3514.124,2968.761,3514.124,2970.344z"/>
				</g>
				<g style="opacity:0.55;">
					<path style="fill:#FFFFFF;" d="M3491.022,2996.277c-1.295,11.611-11.179,21.159-23.702,21.159h-163.353
						c-12.357,0-22.374-10.017-22.374-22.374v-181.585c0-11.023,8.936-19.959,19.959-19.959l0,0v203.095h185.679
						C3488.528,2996.613,3489.823,2996.517,3491.022,2996.277z"/>
				</g>
				<g>
					
						<rect x="3498.851" y="3161.157" style="fill:#758B9B;stroke:#390075;stroke-width:0;stroke-miterlimit:10;" width="109.552" height="69.57"/>
				</g>
				<g style="opacity:0.55;">
					<path style="fill:#FFFFFF;" d="M3608.404,3161.157v69.57h-20.391v-40.195c0-5.306-4.302-9.608-9.608-9.608h-79.538v-19.767
						H3608.404z"/>
				</g>
				<g>
					<path style="fill:#390075;" d="M3608.405,3244.42h-109.556c-7.563,0-13.696-6.131-13.696-13.694v-69.57
						c0-7.563,6.133-13.694,13.696-13.694h91.519c17.495,0,31.733,14.233,31.733,31.729v51.535
						C3622.101,3238.29,3615.969,3244.42,3608.405,3244.42z M3512.546,3217.033h82.163v-37.842c0-2.393-1.948-4.341-4.341-4.341
						h-77.822V3217.033z"/>
				</g>
				<g>
					<path style="fill:#390075;" d="M3174.191,3244.42h-666.909c-7.563,0-13.696-6.131-13.696-13.694V3093.17
						c0-7.564,6.133-13.694,13.696-13.694h666.909c7.563,0,13.696,6.13,13.696,13.694v137.556
						C3187.887,3238.29,3181.755,3244.42,3174.191,3244.42z M2520.978,3217.033h639.517v-110.169h-639.517V3217.033z"/>
				</g>
				<g>
					
						<ellipse transform="matrix(0.7071 -0.7071 0.7071 0.7071 -1494.9459 2852.3352)" style="fill:#758B9B;stroke:#390075;stroke-width:0;stroke-miterlimit:10;" cx="2695.6" cy="3230.727" rx="80.365" ry="80.365"/>
				</g>
				<g style="opacity:0.55;">
					<path style="fill:#FFFFFF;" d="M2758.459,3281.435c3.598-9.02,5.518-18.856,5.518-29.171c0-44.381-35.984-80.365-80.365-80.365
						c-21.687,0-41.262,8.588-55.704,22.502c11.659-29.987,40.782-51.242,74.896-51.242c44.381,0,80.365,35.984,80.365,80.365
						C2783.168,3246.266,2773.717,3266.849,2758.459,3281.435z"/>
				</g>
				<g>
					<path style="fill:#390075;" d="M2695.602,3324.787c-51.865,0-94.063-42.195-94.063-94.06c0-51.863,42.197-94.058,94.063-94.058
						c51.86,0,94.058,42.195,94.058,94.058C2789.66,3282.592,2747.463,3324.787,2695.602,3324.787z M2695.602,3164.056
						c-36.763,0-66.67,29.907-66.67,66.67s29.907,66.672,66.67,66.672s66.665-29.91,66.665-66.672
						S2732.365,3164.056,2695.602,3164.056z"/>
				</g>
				<g>
					
						<ellipse transform="matrix(0.9239 -0.3827 0.3827 0.9239 -1031.1558 1277.4868)" style="fill:#390075;" cx="2695.6" cy="3230.727" rx="32.386" ry="32.386"/>
				</g>
				<g style="opacity:0.55;">
					<path style="fill:#FFFFFF;" d="M2716.711,3255.244c-5.854,7.917-15.258,13.05-25.909,13.05
						c-17.896,0-32.386-14.49-32.386-32.386c0-9.788,4.366-18.568,11.275-24.517c-4.078,5.374-6.477,12.091-6.477,19.336
						c0,17.896,14.49,32.386,32.386,32.386C2703.709,3263.113,2711.049,3260.186,2716.711,3255.244z"/>
				</g>
				<g>
					
						<ellipse transform="matrix(0.1602 -0.9871 0.9871 0.1602 -399.3246 5992.104)" style="fill:#758B9B;stroke:#390075;stroke-width:0;stroke-miterlimit:10;" cx="3321.775" cy="3230.727" rx="80.365" ry="80.365"/>
				</g>
				<g style="opacity:0.55;">
					<path style="fill:#FFFFFF;" d="M3384.634,3281.435c3.598-9.02,5.518-18.856,5.518-29.171c0-44.381-35.984-80.365-80.365-80.365
						c-21.687,0-41.262,8.588-55.704,22.502c11.659-29.987,40.782-51.242,74.895-51.242c44.381,0,80.365,35.984,80.365,80.365
						C3409.343,3246.266,3399.891,3266.849,3384.634,3281.435z"/>
				</g>
				<g>
					<path style="fill:#390075;" d="M3321.774,3324.787c-51.865,0-94.063-42.195-94.063-94.06c0-51.863,42.197-94.058,94.063-94.058
						s94.063,42.195,94.063,94.058C3415.837,3282.592,3373.639,3324.787,3321.774,3324.787z M3321.774,3164.056
						c-36.763,0-66.67,29.907-66.67,66.67s29.907,66.672,66.67,66.672s66.67-29.91,66.67-66.672
						S3358.537,3164.056,3321.774,3164.056z"/>
				</g>
				<g>
					
						<ellipse transform="matrix(0.9239 -0.3827 0.3827 0.9239 -983.491 1517.1135)" style="fill:#390075;" cx="3321.775" cy="3230.727" rx="32.386" ry="32.386"/>
				</g>
				<g style="opacity:0.55;">
					<path style="fill:#FFFFFF;" d="M3342.886,3255.244c-5.854,7.917-15.258,13.05-25.909,13.05
						c-17.896,0-32.386-14.49-32.386-32.386c0-9.788,4.366-18.568,11.275-24.517c-4.078,5.374-6.477,12.091-6.477,19.336
						c0,17.896,14.49,32.386,32.386,32.386C3329.883,3263.113,3337.224,3260.186,3342.886,3255.244z"/>
				</g>
				<g style="opacity:0.26;">
					<path style="fill:#FFFFFF;" d="M3438.03,2793.109l-133.478,183.472v-93.367l66.595-91.496h54.025
						C3429.585,2791.718,3433.903,2792.198,3438.03,2793.109z"/>
				</g>
				<g style="opacity:0.26;">
					<path style="fill:#FFFFFF;" d="M3514.124,2970.344l-17.081,23.462c-2.159,0.672-4.414,1.007-6.813,1.007h-61.845l69.474-95.526
						l15.641,66.163C3513.885,2967.082,3514.124,2968.761,3514.124,2970.344z"/>
				</g>
				<g style="opacity:0.26;">
					<path style="fill:#FFFFFF;" d="M3480.299,2828.518l-121.003,166.296h-42.845l140.915-193.692
						C3467.489,2807.599,3475.597,2817.099,3480.299,2828.518z"/>
				</g>
				<g>
					<path style="fill:#390075;" d="M3490.246,3006.825h-185.708c-6.626,0-11.997-5.371-11.997-11.995v-203.113
						c0-6.624,5.371-11.995,11.997-11.995h120.62c33.442,0,62.163,22.729,69.854,55.273l30.161,127.688
						c2.534,10.74,0.063,21.865-6.787,30.522C3511.54,3001.862,3501.281,3006.825,3490.246,3006.825z M3316.535,2982.836h173.711
						c3.657,0,7.061-1.646,9.331-4.514c2.271-2.871,3.091-6.56,2.246-10.122l-30.161-127.691
						c-5.117-21.665-24.238-36.797-46.504-36.797h-108.623V2982.836z"/>
				</g>
				<g>
					
						<rect x="2533.671" y="2554.221" style="fill:#FEB71F;stroke:#390075;stroke-width:0;stroke-miterlimit:10;" width="640.522" height="538.95"/>
				</g>
				<g>
					<path style="fill:#390075;" d="M3174.191,3106.864h-640.522c-7.563,0-13.696-6.13-13.696-13.694v-538.95
						c0-7.564,6.133-13.694,13.696-13.694h640.522c7.563,0,13.696,6.13,13.696,13.694v538.95
						C3187.887,3100.734,3181.755,3106.864,3174.191,3106.864z M2547.365,3079.476h613.13v-511.563h-613.13V3079.476z"/>
				</g>
				<g>
					<path style="fill:#FEB71F;stroke:#390075;stroke-width:0;stroke-miterlimit:10;" d="M3200.581,2707.754h-693.299V2579.41
						c0-28.486,23.092-51.578,51.578-51.578h590.144c28.486,0,51.578,23.092,51.578,51.578V2707.754z"/>
				</g>
				<g style="opacity:0.55;">
					<path style="fill:#FFFFFF;" d="M3200.581,2579.41v128.344h-26.389v-101.956c0-28.5-23.078-51.578-51.578-51.578h-590.143
						c-7.389,0-14.442,1.535-20.823,4.366c8.013-18.136,26.101-30.754,47.211-30.754h590.144
						C3177.503,2527.833,3200.581,2550.91,3200.581,2579.41z"/>
				</g>
				<g>
					<path style="fill:#390075;" d="M3200.583,2721.449h-693.301c-7.563,0-13.696-6.131-13.696-13.694V2579.41
						c0-35.991,29.282-65.271,65.273-65.271h590.146c35.991,0,65.273,29.28,65.273,65.271v128.345
						C3214.279,2715.319,3208.146,2721.449,3200.583,2721.449z M2520.978,2694.061h665.908V2579.41
						c0-20.889-16.992-37.883-37.881-37.883h-590.146c-20.889,0-37.881,16.995-37.881,37.883V2694.061z"/>
				</g>
				<g>
					<rect x="2783.168" y="2527.833" style="fill:#F22525;" width="131.137" height="179.922"/>
				</g>
				<g style="opacity:0.55;">
					
						<rect x="2783.162" y="2527.833" style="fill:#FFFFFF;stroke:#390075;stroke-width:0;stroke-miterlimit:10;" width="131.127" height="26.389"/>
				</g>
				<g>
					<rect x="2783.168" y="2707.754" style="fill:#F22525;" width="131.137" height="385.416"/>
				</g>
				<g>
					<path style="fill:#390075;" d="M2914.303,2721.449h-131.133c-7.563,0-13.696-6.131-13.696-13.694v-179.922
						c0-7.563,6.133-13.694,13.696-13.694h131.133c7.563,0,13.696,6.131,13.696,13.694v179.922
						C2928,2715.319,2921.867,2721.449,2914.303,2721.449z M2796.867,2694.061h103.74v-152.534h-103.74V2694.061z"/>
				</g>
				<g>
					<path style="fill:#390075;" d="M2914.303,3106.864h-131.133c-7.563,0-13.696-6.13-13.696-13.694v-385.415
						c0-7.563,6.133-13.694,13.696-13.694h131.133c7.563,0,13.696,6.13,13.696,13.694v385.415
						C2928,3100.734,2921.867,3106.864,2914.303,3106.864z M2796.867,3079.476h103.74v-358.027h-103.74V3079.476z"/>
				</g>
				<g>
					<path style="fill:#390075;" d="M2914.313,2541.53c-4.888,0-9.619-2.625-12.085-7.236c-3.569-6.67-1.055-14.968,5.615-18.535
						c72.505-38.787,91.396-76.533,85.542-97.073c-3.799-13.335-18.506-21.509-36.685-20.352
						c-34.756,2.229-80.337,38.018-94.424,131.538c-1.128,7.48-8.062,12.642-15.581,11.501c-7.476-1.125-12.627-8.101-11.499-15.578
						c16.514-109.641,74.829-151.912,119.746-154.793c31.421-1.994,57.358,14.138,64.78,40.178
						c4.399,15.425,10.259,70.3-98.96,128.728C2918.708,2541.007,2916.496,2541.53,2914.313,2541.53z"/>
				</g>
				<g>
					<path style="fill:#390075;" d="M2783.161,2541.53c-2.183,0-4.395-0.522-6.45-1.621
						c-109.219-58.428-103.359-113.303-98.965-128.73c7.422-26.038,33.398-42.161,64.78-40.176
						c44.922,2.881,103.237,45.149,119.751,154.79c1.128,7.48-4.023,14.456-11.499,15.581c-7.539,1.128-14.458-4.023-15.581-11.499
						c-14.087-93.523-59.673-129.312-94.424-131.541c-18.164-1.177-32.886,7.012-36.685,20.352
						c-5.854,20.54,13.037,58.284,85.542,97.073c6.67,3.567,9.185,11.865,5.615,18.535
						C2792.78,2538.905,2788.049,2541.53,2783.161,2541.53z"/>
				</g>
				<g style="opacity:0.3;">
					<rect x="2533.671" y="2707.754" style="fill:#390075;" width="645.847" height="67.171"/>
				</g>
				<g>
					<path style="fill:#390075;" d="M3337.729,3072.165h-21.191c-9.491,0-17.185-7.694-17.185-17.185l0,0
						c0-4.09,3.315-7.405,7.405-7.405h40.75c4.09,0,7.405,3.315,7.405,7.405l0,0
						C3354.914,3064.471,3347.22,3072.165,3337.729,3072.165z"/>
				</g>
			</g>
			<g>
				<g>
					<rect x="2281.478" y="3162.78" style="fill:#758B9B;" width="91.16" height="148.312"/>
				</g>
				<g style="opacity:0.55;">
					<rect x="2281.462" y="3167.594" style="fill:#FFFFFF;" width="91.16" height="23.99"/>
				</g>
				<g>
					<path style="fill:#390075;" d="M2372.638,3325.487h-91.162c-7.949,0-14.395-6.446-14.395-14.395v-135.684
						c0-14.9,12.124-27.024,27.026-27.024h65.898c14.902,0,27.026,12.124,27.026,27.024v135.684
						C2387.033,3319.042,2380.588,3325.487,2372.638,3325.487z M2295.871,3296.698h62.373v-119.524h-62.373V3296.698z
						 M2360.007,3177.174h0.049H2360.007z"/>
				</g>
				<g>
					<path style="fill:#390075;" d="M2327.057,3177.174c-7.949,0-14.395-6.446-14.395-14.395v-468.997
						c0-7.949,6.445-14.395,14.395-14.395s14.395,6.445,14.395,14.395v468.997
						C2341.452,3170.729,2335.007,3177.174,2327.057,3177.174z"/>
				</g>
				<g>
					<rect x="2268.283" y="2684.091" style="fill:#758B9B;" width="117.549" height="53.977"/>
				</g>
				<g style="opacity:0.55;">
					<rect x="2358.852" y="2684.108" style="fill:#FFFFFF;" width="26.964" height="53.977"/>
				</g>
				<g>
					<path style="fill:#390075;" d="M2385.832,2752.462h-117.549c-7.949,0-14.395-6.445-14.395-14.395v-53.977
						c0-7.949,6.445-14.395,14.395-14.395h117.549c7.949,0,14.395,6.445,14.395,14.395v53.977
						C2400.226,2746.017,2393.781,2752.462,2385.832,2752.462z M2282.677,2723.673h88.76v-25.188h-88.76V2723.673z"/>
				</g>
				<g>
					<circle style="fill:#F7C414;" cx="2327.058" cy="2566.24" r="117.852"/>
				</g>
				<g style="opacity:0.3;">
					<path style="fill:#390075;" d="M2431.732,2620.344c-19.528,37.856-59.11,63.764-104.691,63.764
						c-65.06,0-117.837-52.777-117.837-117.885c0-38.911,18.856-73.408,47.931-94.903c-8.396,16.217-13.146,34.593-13.146,54.12
						c0,65.108,52.777,117.885,117.837,117.885C2387.975,2643.326,2412.205,2634.786,2431.732,2620.344z"/>
				</g>
				<g style="opacity:0.55;">
					<path style="fill:#FFFFFF;" d="M2444.927,2566.223c0,36.225-16.361,68.658-42.078,90.249
						c12.235-18.52,19.288-40.687,19.288-64.532c0-21.639-5.806-41.838-15.977-59.254c-26.245,28.212-76.431-18.472-50.186-46.684
						c-15.593-7.629-33.153-11.899-51.721-11.899c-28.932,0-55.464,10.459-75.951,27.78c21.063-32.194,57.431-53.497,98.741-53.497
						C2392.149,2448.387,2444.927,2501.164,2444.927,2566.223z"/>
				</g>
				<g>
					<path style="fill:#390075;" d="M2327.057,2698.485c-72.92,0-132.246-59.326-132.246-132.246s59.326-132.246,132.246-132.246
						s132.246,59.326,132.246,132.246S2399.977,2698.485,2327.057,2698.485z M2327.057,2462.782
						c-57.046,0-103.457,46.411-103.457,103.457s46.411,103.457,103.457,103.457s103.457-46.411,103.457-103.457
						S2384.103,2462.782,2327.057,2462.782z"/>
				</g>
			</g>
		</g>
	</g>
</g>
</svg>
